<?xml version="1.0" encoding="UTF-8" standalone="no"?>
<svg id="Vrstva_1" xmlns:rdf="http://www.w3.org/1999/02/22-rdf-syntax-ns#" style="enable-background:new 0 0 24 24" xmlns="http://www.w3.org/2000/svg" xml:space="preserve" height="24px" viewBox="0 0 24 24" width="24px" version="1.1" y="0px" x="0px" xmlns:cc="http://creativecommons.org/ns#" xmlns:dc="http://purl.org/dc/elements/1.1/"><g id="g3"><rect id="rect5" width="24" height="24"/><g id="ram_1_"><path id="path8" d="m23.042 1v22h-22.042v-22h22.042m1-1h-24.042v24h24.042v-24z" fill="#303030"/></g></g><path id="path9" fill="#ffd800" d="m12 1.5c5.79 0 10.5 4.71 10.5 10.5s-4.711 10.5-10.5 10.5-10.5-4.71-10.5-10.5 4.71-10.5 10.5-10.5m0-1.5c-6.628 0-12 5.372-12 12-2.25e-7 6.627 5.373 12 12 12s12-5.373 12-12c0-6.628-5.373-12-12-12z"/></svg>
