<?xml version="1.0" encoding="UTF-8" standalone="no"?>
<!-- Generator: Adobe Illustrator 14.0.0, SVG Export Plug-In . SVG Version: 6.00 Build 43363)  -->

<svg
   xmlns:dc="http://purl.org/dc/elements/1.1/"
   xmlns:cc="http://creativecommons.org/ns#"
   xmlns:rdf="http://www.w3.org/1999/02/22-rdf-syntax-ns#"
   xmlns:svg="http://www.w3.org/2000/svg"
   xmlns="http://www.w3.org/2000/svg"
   xmlns:sodipodi="http://sodipodi.sourceforge.net/DTD/sodipodi-0.dtd"
   xmlns:inkscape="http://www.inkscape.org/namespaces/inkscape"
   version="1.1"
   id="Vrstva_1"
   x="0px"
   y="0px"
   width="24px"
   height="24px"
   viewBox="0 0 24 24"
   style="enable-background:new 0 0 24 24;"
   xml:space="preserve"
   inkscape:version="0.91 r13725"
   sodipodi:docname="frg_red_hiker.svg"><metadata
     id="metadata15"><rdf:RDF><cc:Work
         rdf:about=""><dc:format>image/svg+xml</dc:format><dc:type
           rdf:resource="http://purl.org/dc/dcmitype/StillImage" /></cc:Work></rdf:RDF></metadata><defs
     id="defs13" /><sodipodi:namedview
     pagecolor="#ffffff"
     bordercolor="#666666"
     borderopacity="1"
     objecttolerance="10"
     gridtolerance="10"
     guidetolerance="10"
     inkscape:pageopacity="0"
     inkscape:pageshadow="2"
     inkscape:window-width="867"
     inkscape:window-height="540"
     id="namedview11"
     showgrid="false"
     inkscape:zoom="16.304014"
     inkscape:cx="13.585342"
     inkscape:cy="12"
     inkscape:window-x="0"
     inkscape:window-y="10"
     inkscape:window-maximized="0"
     inkscape:current-layer="g5" /><g
     id="g5"><path
       style="clip-rule:evenodd;fill:#ff3333;fill-rule:evenodd;fill-opacity:1"
       d="M 16.275,5.917 14.974,5.835 c -0.51,0 -0.516,0.858 -0.516,1.366 l 0.104,1.925 C 14.263,7.915 13.681,6.847 12.95,6.846 13.49,6.526 14.075,5.513 14.075,4.84 14.075,4.666 14.048,4.484 14.009,4.303 L 14.132,4.3 13.747,2.136 c 0,0 -1.565,0.006 -2.101,0.006 -0.509,0 -0.595,0.922 -1.274,0.922 -1.479,0 -2.11,0.109 -2.11,0.109 l 0.07,1.265 1.691,-0.041 C 9.998,4.555 9.982,4.723 9.982,4.906 c 0,0.919 0.557,1.62 1.097,1.939 -0.907,0.263 -1.042,2.185 -1.146,3.478 l -3.026,0.419 0.167,1.701 3.203,-0.305 c 0.001,0.014 0.002,0.023 0.003,0.038 l 2.848,-2.013 0.318,0.242 -3.06,2.527 c 0.053,0.189 0.13,0.308 0.28,0.652 l -3.656,8.229 2.24,0 3.035,-6.174 0.946,6.227 2.467,-0.053 -1.424,-7.77 c 0.248,-0.539 0.379,-1.182 0.445,-1.93 l 0.064,1.215 c 0,0.508 0.412,0.92 0.92,0.92 l 0.488,0 c 0.51,0 1.34,-0.494 1.34,-1.004 l 0,-6.167 C 17.533,6.57 16.785,5.917 16.275,5.917 Z"
       id="path9"
       inkscape:connector-curvature="0" /></g></svg>