<?xml version="1.0" encoding="utf-8"?>
<svg version="1.1" id="Layer_1" xmlns="http://www.w3.org/2000/svg" xmlns:xlink="http://www.w3.org/1999/xlink" x="0px" y="0px"
	 width="64px" height="64px" viewBox="0 0 64 64" enable-background="new 0 0 64 64" xml:space="preserve">
<path fill-rule="evenodd" clip-rule="evenodd" fill="#717075" d="M13.601,21.02h4.798v-7.64c0-1.318-1.081-2.399-2.398-2.399
	c-1.318,0-2.399,1.082-2.399,2.399V21.02z M12.512,22.108h6.975V13.38c0-1.918-1.569-3.488-3.487-3.488
	c-1.918,0-3.488,1.569-3.488,3.488V22.108z"/>
<path fill-rule="evenodd" clip-rule="evenodd" fill="#717075" d="M50.398,53.021h-4.798v-7.642c0-1.316,1.081-2.398,2.399-2.398
	c1.317,0,2.398,1.082,2.398,2.398V53.021z M51.487,54.108h-6.975v-8.729c0-1.918,1.569-3.486,3.487-3.486s3.487,1.568,3.487,3.486
	V54.108z"/>
</svg>
