<?xml version="1.0" encoding="UTF-8" standalone="no"?>
<svg id="Layer_1" xmlns:rdf="http://www.w3.org/1999/02/22-rdf-syntax-ns#" xmlns="http://www.w3.org/2000/svg" enable-background="new 0 0 64 64" xml:space="preserve" height="64px" viewBox="0 0 64 64" width="64px" version="1.1" y="0px" x="0px" xmlns:cc="http://creativecommons.org/ns#" xmlns:dc="http://purl.org/dc/elements/1.1/"><g clip-rule="evenodd" fill-rule="evenodd"><polygon id="polygon3" fill="#5FA7FF" points="19.905 27.795 25.234 27.795 21.826 21.891 22.873 21.286 25.339 25.558 25.339 18.331 26.548 18.331 26.548 25.588 29.032 21.286 30.079 21.891 26.67 27.795 32 27.795 32 29.67 19.905 29.67"/><rect id="rect5" height="1.875" width="12.096" y="27.795" x="51.67" fill="#5fa7ff"/><polygon id="polygon11" points="0 11.795 5.33 11.795 1.921 5.891 2.968 5.286 5.434 9.557 5.434 2.33 6.644 2.33 6.644 9.588 9.127 5.286 10.174 5.891 6.766 11.795 12.095 11.795 12.095 13.669 0 13.669" fill="#5FA7FF"/><rect id="rect13" height="1.874" width="12.095" y="11.657" x="32.042" fill="#5fa7ff"/><polygon id="polygon19" points="0 43.795 5.33 43.795 1.921 37.891 2.968 37.286 5.434 41.557 5.434 34.33 6.644 34.33 6.644 41.588 9.127 37.286 10.174 37.891 6.766 43.795 12.095 43.795 12.095 45.67 0 45.67" fill="#5FA7FF"/><rect id="rect21" height="1.875" width="12.095" y="43.657" x="32.042" fill="#5fa7ff"/><polygon id="polygon27" points="19.905 59.795 25.234 59.795 21.826 53.891 22.873 53.286 25.339 57.558 25.339 50.33 26.548 50.33 26.548 57.588 29.032 53.286 30.079 53.891 26.67 59.795 32 59.795 32 61.67 19.905 61.67" fill="#5FA7FF"/><g fill="#5fa7ff"><rect id="rect29" height="1.875" width="12.096" y="59.795" x="51.808"/><rect id="rect37" height="0.968" width="6.895" y="50.33" x="54.409"/><rect id="rect41" height="0.968" width="6.895" y="34.192" x="34.643"/><rect id="rect45" height="0.968" width="6.895" y="18.331" x="54.271"/><rect id="rect49" height="0.968" width="6.895" y="2.1917" x="34.643"/></g></g></svg>
