<?xml version="1.0" encoding="utf-8"?>
<!-- Generator: Adobe Illustrator 14.0.0, SVG Export Plug-In . SVG Version: 6.00 Build 43363)  -->
<!DOCTYPE svg PUBLIC "-//W3C//DTD SVG 1.1//EN" "http://www.w3.org/Graphics/SVG/1.1/DTD/svg11.dtd">
<svg version="1.1" id="medow" xmlns="http://www.w3.org/2000/svg" xmlns:xlink="http://www.w3.org/1999/xlink" x="0px" y="0px"
	 width="25.2px" height="27.2px" viewBox="0 0 25.2 27.2" enable-background="new 0 0 25.2 27.2" xml:space="preserve">
<line fill="none" stroke="#B5C4B1" stroke-width="0.75" x1="22.1" y1="18" x2="22.1" y2="15.5"/>
<line fill="none" stroke="#B5C4B1" stroke-width="0.75" x1="20.4" y1="18" x2="20.4" y2="15.5"/>
<line fill="none" stroke="#B5C4B1" stroke-width="0.75" x1="11.1" y1="18" x2="11.1" y2="15.5"/>
<line fill="none" stroke="#B5C4B1" stroke-width="0.75" x1="9.4" y1="18" x2="9.4" y2="15.5"/>
<line fill="none" stroke="#B5C4B1" stroke-width="0.75" x1="4.8" y1="11.8" x2="4.8" y2="9.2"/>
<line fill="none" stroke="#B5C4B1" stroke-width="0.75" x1="3.1" y1="11.8" x2="3.1" y2="9.2"/>
<line fill="none" stroke="#B5C4B1" stroke-width="0.75" x1="16.7" y1="11.8" x2="16.7" y2="9.2"/>
<line fill="none" stroke="#B5C4B1" stroke-width="0.75" x1="15" y1="11.8" x2="15" y2="9.2"/>
<line fill="none" stroke="#B5C4B1" stroke-width="0.75" x1="22.1" y1="5.5" x2="22.1" y2="3"/>
<line fill="none" stroke="#B5C4B1" stroke-width="0.75" x1="20.4" y1="5.5" x2="20.4" y2="3"/>
<line fill="none" stroke="#B5C4B1" stroke-width="0.75" x1="11.1" y1="5.5" x2="11.1" y2="3"/>
<line fill="none" stroke="#B5C4B1" stroke-width="0.75" x1="9.4" y1="5.5" x2="9.4" y2="3"/>
<line fill="none" stroke="#B5C4B1" stroke-width="0.75" x1="4.8" y1="24.2" x2="4.8" y2="21.7"/>
<line fill="none" stroke="#B5C4B1" stroke-width="0.75" x1="3.1" y1="24.2" x2="3.1" y2="21.7"/>
<line fill="none" stroke="#B5C4B1" stroke-width="0.75" x1="16.7" y1="24.2" x2="16.7" y2="21.7"/>
<line fill="none" stroke="#B5C4B1" stroke-width="0.75" x1="15" y1="24.2" x2="15" y2="21.7"/>
</svg>
