<?xml version="1.0" encoding="UTF-8" standalone="no"?>
<!-- Generator: Adobe Illustrator 16.0.0, SVG Export Plug-In . SVG Version: 6.00 Build 0)  -->

<svg
   xmlns:dc="http://purl.org/dc/elements/1.1/"
   xmlns:cc="http://creativecommons.org/ns#"
   xmlns:rdf="http://www.w3.org/1999/02/22-rdf-syntax-ns#"
   xmlns:svg="http://www.w3.org/2000/svg"
   xmlns="http://www.w3.org/2000/svg"
   xmlns:sodipodi="http://sodipodi.sourceforge.net/DTD/sodipodi-0.dtd"
   xmlns:inkscape="http://www.inkscape.org/namespaces/inkscape"
   version="1.1"
   id="Layer_1"
   x="0px"
   y="0px"
   width="64px"
   height="64px"
   viewBox="0 0 64 64"
   enable-background="new 0 0 64 64"
   xml:space="preserve"
   inkscape:version="0.91 r13725"
   sodipodi:docname="scree.svg"><metadata
     id="metadata213"><rdf:RDF><cc:Work
         rdf:about=""><dc:format>image/svg+xml</dc:format><dc:type
           rdf:resource="http://purl.org/dc/dcmitype/StillImage" /></cc:Work></rdf:RDF></metadata><defs
     id="defs211" /><sodipodi:namedview
     pagecolor="#ffffff"
     bordercolor="#666666"
     borderopacity="1"
     objecttolerance="10"
     gridtolerance="10"
     guidetolerance="10"
     inkscape:pageopacity="0"
     inkscape:pageshadow="2"
     inkscape:window-width="861"
     inkscape:window-height="616"
     id="namedview209"
     showgrid="false"
     inkscape:zoom="3.6875"
     inkscape:cx="32"
     inkscape:cy="32"
     inkscape:window-x="0"
     inkscape:window-y="0"
     inkscape:window-maximized="0"
     inkscape:current-layer="Layer_1" /><path
     fill-rule="evenodd"
     clip-rule="evenodd"
     fill="#B4B9B5"
     d="M17.517,21.174c-0.102-1.162-0.479-1.534-1.54-1.858  C14.298,20.959,16.112,22.681,17.517,21.174"
     id="path3"
     style="fill:#a0a0a0;fill-opacity:1" /><path
     fill-rule="evenodd"
     clip-rule="evenodd"
     fill="#B4B9B5"
     d="M1.762,36.614l0.576,1.329c1.019,0.25,0.802,0.396,1.687,0.002  l0.218-1.246c-0.72-0.383-0.997-0.633-1.672-0.872L1.762,36.614z"
     id="path5"
     style="fill:#a0a0a0;fill-opacity:1" /><path
     fill-rule="evenodd"
     clip-rule="evenodd"
     fill="#B4B9B5"
     d="M63.577,28.309c0.11-1.311-1.389-3.016-2.199-1.635  c-0.256,0.436-0.357,0.474,0.238,1.22C62.37,28.839,63.074,28.491,63.577,28.309"
     id="path7"
     style="fill:#a0a0a0;fill-opacity:1" /><path
     fill-rule="evenodd"
     clip-rule="evenodd"
     fill="#B4B9B5"
     d="M23.771,33.713c1.124-0.479,0.233-0.245,1.047-0.691  C24.477,29.151,20.204,32.42,23.771,33.713"
     id="path9"
     style="fill:#a0a0a0;fill-opacity:1" /><path
     fill-rule="evenodd"
     clip-rule="evenodd"
     fill="#B4B9B5"
     d="M35.799,20.611c0.54,0.414,0.724,0.694,1.378,0.894  c1.033-0.656,0.378,0.187,1.069-0.954c-0.343-1.048-0.781-1.418-1.764-1.826C35.715,19.594,35.774,19.21,35.799,20.611"
     id="path11"
     style="fill:#a0a0a0;fill-opacity:1" /><path
     fill-rule="evenodd"
     clip-rule="evenodd"
     fill="#B4B9B5"
     d="M59.311,37.673c0.624-0.697,0.143-0.303,0.689-0.6  c-0.021-0.646,0.212,0.04-0.108-0.677c-0.904-2.02-3.895-1.395-2.016,0.534C58.553,37.624,58.679,37.541,59.311,37.673"
     id="path13"
     style="fill:#a0a0a0;fill-opacity:1" /><path
     fill-rule="evenodd"
     clip-rule="evenodd"
     fill="#B4B9B5"
     d="M61.564,48.681c0.588-1.223-1.016-3.116-2.147-1.877  C58.867,47.407,59.449,49.57,61.564,48.681"
     id="path15"
     style="fill:#a0a0a0;fill-opacity:1" /><path
     fill-rule="evenodd"
     clip-rule="evenodd"
     fill="#B4B9B5"
     d="M52.192,33.409c0.692-0.623,0.396-0.229,0.761-1.212  C50.271,28.35,49.124,33.279,52.192,33.409"
     id="path17"
     style="fill:#a0a0a0;fill-opacity:1" /><path
     fill-rule="evenodd"
     clip-rule="evenodd"
     fill="#B4B9B5"
     d="M7.871,25.23c2.876-0.588,0.325-2.655-0.633-3.162  C6.775,23.695,6.288,24.289,7.871,25.23"
     id="path19"
     style="fill:#a0a0a0;fill-opacity:1" /><path
     fill-rule="evenodd"
     clip-rule="evenodd"
     fill="#B4B9B5"
     d="M1.7,24.449c0.938,0.056,1.126-0.138,1.756-0.48  c0.011-1.142,0.172-0.783-0.572-1.581c-0.073-0.079-0.507-0.495-0.608-0.56c-0.418-0.263-0.229-0.225-0.692-0.176  C0.686,22.786,1.177,23.646,1.7,24.449"
     id="path21"
     style="fill:#a0a0a0;fill-opacity:1" /><path
     fill-rule="evenodd"
     clip-rule="evenodd"
     fill="#B4B9B5"
     d="M28.377,42.953l1.66-0.211c0.42-1.85-0.357-2.796-2.158-2.161  c-0.315,1.359-0.224,0.835,0.415,2.182C28.312,42.8,28.354,42.888,28.377,42.953"
     id="path23"
     style="fill:#a0a0a0;fill-opacity:1" /><path
     fill-rule="evenodd"
     clip-rule="evenodd"
     fill="#B4B9B5"
     d="M3.282,49.152c0.899,1.496,3.163,1.739,3.451-0.155  c-0.604-0.793-1.22-0.946-2.649-0.851L3.282,49.152z"
     id="path25"
     style="fill:#a0a0a0;fill-opacity:1" /><path
     fill-rule="evenodd"
     clip-rule="evenodd"
     fill="#B4B9B5"
     d="M50.989,2.804c0.113,2.396,1.241,2.431,2.918,1.848  C53.905,2.469,51.895,1.986,50.989,2.804"
     id="path29"
     style="fill:#a0a0a0;fill-opacity:1" /><path
     fill-rule="evenodd"
     clip-rule="evenodd"
     fill="#B4B9B5"
     d="M35.883,53.435c0.059,0.03,0.143,0.028,0.165,0.108l0.922,0.463  c0.68,0.113,0.907-0.128,1.324-0.369l0.382-1.677l-1.499-0.749C36.259,51.676,35.777,52.256,35.883,53.435"
     id="path31"
     style="fill:#a0a0a0;fill-opacity:1" /><path
     fill-rule="evenodd"
     clip-rule="evenodd"
     fill="#B4B9B5"
     d="M45.27,27.041c-0.082,1.976,1.757,3.163,3.268,1.881  C48.147,27.942,46.733,26.164,45.27,27.041"
     id="path33"
     style="fill:#a0a0a0;fill-opacity:1" /><path
     fill-rule="evenodd"
     clip-rule="evenodd"
     fill="#B4B9B5"
     d="M59.8,60.455c0.139-2.331-2.228-2.672-2.705-1.658  c-0.345,0.73,0.279,1.655,0.688,1.924C58.691,61.322,59.18,60.756,59.8,60.455"
     id="path37"
     style="fill:#a0a0a0;fill-opacity:1" /><path
     fill-rule="evenodd"
     clip-rule="evenodd"
     fill="#B4B9B5"
     d="M6.088,42.686c2.229,2.288,4.549-2.211,0.806-2.009  C6.149,41.635,6.062,41.195,6.088,42.686"
     id="path39"
     style="fill:#a0a0a0;fill-opacity:1" /><path
     fill-rule="evenodd"
     clip-rule="evenodd"
     fill="#B4B9B5"
     d="M22.212,5.202c0.533-0.462,1.057-0.674,1.081-1.49  c0.027-0.9-0.646-1.347-1.621-1.139C20.512,2.822,19.363,5.081,22.212,5.202"
     id="path43"
     style="fill:#a0a0a0;fill-opacity:1" /><path
     fill-rule="evenodd"
     clip-rule="evenodd"
     fill="#B4B9B5"
     d="M35.855,5.089c-0.123-1.451-0.75-2.084-2.496-2.03  c-0.422,0.821-0.674,1.662,0.277,2.383C34.681,6.235,35.257,5.478,35.855,5.089"
     id="path45"
     style="fill:#a0a0a0;fill-opacity:1" /><path
     fill-rule="evenodd"
     clip-rule="evenodd"
     fill="#B4B9B5"
     d="M30.119,49.231c-0.631-1.787-2.929-2.408-2.984-0.612  C27.091,50.051,29.159,51.232,30.119,49.231"
     id="path47"
     style="fill:#a0a0a0;fill-opacity:1" /><path
     fill-rule="evenodd"
     clip-rule="evenodd"
     fill="#B4B9B5"
     d="M1.013,43.525c2.202,0.155,2.55-1.776,1.246-3.129  C0.14,40.832,0.207,41.939,1.013,43.525"
     id="path51"
     style="fill:#a0a0a0;fill-opacity:1" /><path
     fill-rule="evenodd"
     clip-rule="evenodd"
     fill="#B4B9B5"
     d="M60.301,42.512c1.505,0.798,3.438,0.086,2.627-1.599  C62.324,39.657,59.953,39.933,60.301,42.512"
     id="path53"
     style="fill:#a0a0a0;fill-opacity:1" /><path
     fill-rule="evenodd"
     clip-rule="evenodd"
     fill="#B4B9B5"
     d="M35.29,48.289c-0.056,4.47,5.765,0.494,2.013-0.363L35.29,48.289z"
     id="path55"
     style="fill:#a0a0a0;fill-opacity:1" /><path
     fill-rule="evenodd"
     clip-rule="evenodd"
     fill="#B4B9B5"
     d="M44.034,42.366c0.682-0.725,0.148-0.303,0.748-0.616  c-0.03-1.384-1.489-2.822-2.759-2.024C40.769,40.514,42.577,42.162,44.034,42.366"
     id="path57"
     style="fill:#a0a0a0;fill-opacity:1" /><path
     fill-rule="evenodd"
     clip-rule="evenodd"
     fill="#B4B9B5"
     d="M2.702,53.541c-0.272,1.266-0.19,1.206,0.144,2.258  c1.806,0.427,2.594-0.967,2.151-2.781C3.854,52.709,3.617,52.876,2.702,53.541"
     id="path59"
     style="fill:#a0a0a0;fill-opacity:1" /><path
     fill-rule="evenodd"
     clip-rule="evenodd"
     fill="#B4B9B5"
     d="M42.24,18.501c1.377-1.221,1.469-1.942,0.235-3.153  C40.035,15.454,39.796,18.006,42.24,18.501"
     id="path61"
     style="fill:#a0a0a0;fill-opacity:1" /><path
     fill-rule="evenodd"
     clip-rule="evenodd"
     fill="#B4B9B5"
     d="M32.697,38.944c0.599,0.621,0.315,0.593,1.36,0.954  c1.031-0.509,1.292-0.789,1.339-2.201C33.825,35.797,32.623,36.858,32.697,38.944"
     id="path63"
     style="fill:#a0a0a0;fill-opacity:1" /><path
     fill-rule="evenodd"
     clip-rule="evenodd"
     fill="#B4B9B5"
     d="M11.59,4.431c1.786,0.085,1.856-1.801,1.491-3.028  c-1.025-0.181-1.873-0.15-2.24,0.787C10.245,3.708,11.535,4.386,11.59,4.431"
     id="path65"
     style="fill:#a0a0a0;fill-opacity:1" /><path
     fill-rule="evenodd"
     clip-rule="evenodd"
     fill="#B4B9B5"
     d="M2.767,6.843C6.211,6.772,6.113,4.15,5.455,1.794  C1.448,1.51,0.764,4.269,2.767,6.843"
     id="path67"
     style="fill:#a0a0a0;fill-opacity:1" /><path
     fill-rule="evenodd"
     clip-rule="evenodd"
     fill="#B4B9B5"
     d="M40.293,46.596c1.113-0.346,0.801-0.188,1.348-1.104  c-0.226-1.014-1.424-2.71-2.607-1.879C37.781,44.491,39.403,46.218,40.293,46.596"
     id="path71"
     style="fill:#a0a0a0;fill-opacity:1" /><path
     fill-rule="evenodd"
     clip-rule="evenodd"
     fill="#B4B9B5"
     d="M31.554,59.358c-0.991,2.322,1.164,4.218,2.325,3.045  C34.843,61.432,32.868,59.22,31.554,59.358"
     id="path77"
     style="fill:#a0a0a0;fill-opacity:1" /><path
     fill-rule="evenodd"
     clip-rule="evenodd"
     fill="#B4B9B5"
     d="M10.731,42.424c-1.003,1.619,0.15,2.542,0.881,3.19  c1.217-0.028,0.881,0.141,1.562-0.433C13.431,43.889,12.049,41.929,10.731,42.424"
     id="path79"
     style="fill:#a0a0a0;fill-opacity:1" /><path
     fill-rule="evenodd"
     clip-rule="evenodd"
     fill="#B4B9B5"
     d="M27.199,2.035c-0.185,1.979,1.105,3.282,2.599,2.194  c1.456-1.061-0.657-2.553-1.601-2.855C27.615,1.659,27.752,1.695,27.199,2.035"
     id="path83"
     style="fill:#a0a0a0;fill-opacity:1" /><path
     fill-rule="evenodd"
     clip-rule="evenodd"
     fill="#B4B9B5"
     d="M63.305,57.327c0.392-1.667-0.344-3.042-2.313-2.888  C59.853,56.309,60.807,58.122,63.305,57.327"
     id="path85"
     style="fill:#a0a0a0;fill-opacity:1" /><path
     fill-rule="evenodd"
     clip-rule="evenodd"
     fill="#B4B9B5"
     d="M0.335,32.556c0.481,1.428,1.496,1.618,3.105,1.143  c0.687-0.749,0.766-1.395,0.512-2.198C2.408,31.156,1.039,31.786,0.335,32.556"
     id="path87"
     style="fill:#a0a0a0;fill-opacity:1" /><path
     fill-rule="evenodd"
     clip-rule="evenodd"
     fill="#B4B9B5"
     d="M41.571,12.787c1.135-1.21,0.212-2.059-0.573-2.985  C37.657,9.472,38.896,13.293,41.571,12.787"
     id="path89"
     style="fill:#a0a0a0;fill-opacity:1" /><path
     fill-rule="evenodd"
     clip-rule="evenodd"
     fill="#B4B9B5"
     d="M8.055,55.155c0.365,0.65,0.774,1.481,1.95,1.281  c1.641-0.279-0.402,0.263,0.482-0.182C12.988,55,9.577,51.35,8.055,55.155"
     id="path91"
     style="fill:#a0a0a0;fill-opacity:1" /><path
     fill-rule="evenodd"
     clip-rule="evenodd"
     fill="#B4B9B5"
     d="M11.223,11.198c0.043-1.498-1.051-2.777-2.624-2.353  C7.395,11.049,9.415,13.053,11.223,11.198"
     id="path95"
     style="fill:#a0a0a0;fill-opacity:1" /><path
     fill-rule="evenodd"
     clip-rule="evenodd"
     fill="#B4B9B5"
     d="M15.248,4.608c0.037,0.946,0.175,1.031,0.592,1.721  c4.577,1.005,1.779-2.712,1.734-2.794C16.345,3.574,15.954,3.913,15.248,4.608"
     id="path97"
     style="fill:#a0a0a0;fill-opacity:1" /><path
     fill-rule="evenodd"
     clip-rule="evenodd"
     fill="#B4B9B5"
     d="M41.887,25.298c0.159-1.018,0.146-1.694-0.554-2.355  c-0.533-0.502-1.392-0.991-2.049-0.318C38.104,23.83,39.309,25.906,41.887,25.298"
     id="path99"
     style="fill:#a0a0a0;fill-opacity:1" /><path
     fill-rule="evenodd"
     clip-rule="evenodd"
     fill="#B4B9B5"
     d="M26.758,16.461c-0.572-0.423-1.327-0.942-2.232-0.419l-0.633,0.542  C22.256,18.828,27.606,20.196,26.758,16.461"
     id="path103"
     style="fill:#a0a0a0;fill-opacity:1" /><path
     fill-rule="evenodd"
     clip-rule="evenodd"
     fill="#B4B9B5"
     d="M51.369,38.604c0.003,0.001,1.194,0.705,1.706,0.556  c2.38-0.691,0.181-2.688,0.108-2.758l-0.405-0.39l-1.262-0.154C51.06,36.764,50.809,37.29,51.369,38.604"
     id="path105"
     style="fill:#a0a0a0;fill-opacity:1" /><path
     fill-rule="evenodd"
     clip-rule="evenodd"
     fill="#B4B9B5"
     d="M28.779,13.957c-1.39,5.161,5.315,2.979,2.034,0.48  C30.17,13.947,29.53,13.698,28.779,13.957"
     id="path107"
     style="fill:#a0a0a0;fill-opacity:1" /><path
     fill-rule="evenodd"
     clip-rule="evenodd"
     fill="#B4B9B5"
     d="M29.157,10.575c-0.567-1.1-0.867-1.352-2.338-1.372  C23.19,12.507,28.166,14.062,29.157,10.575"
     id="path109"
     style="fill:#a0a0a0;fill-opacity:1" /><path
     fill-rule="evenodd"
     clip-rule="evenodd"
     fill="#B4B9B5"
     d="M20.029,59.124c-2.098,1.293-2.476,3.687,0.256,3.341  C21.878,62.264,23.266,59.789,20.029,59.124"
     id="path111"
     style="fill:#a0a0a0;fill-opacity:1" /><path
     fill-rule="evenodd"
     clip-rule="evenodd"
     fill="#B4B9B5"
     d="M14.553,48.203c-0.821-0.587-1.132-1.271-2.44-0.665  c-0.488,0.226-1.358,1.27-1.083,2.095c0.191,0.572,1.072,1.342,2.265,0.903l0.701-0.473C14.867,49.234,14.604,48.969,14.553,48.203"
     id="path113"
     style="fill:#a0a0a0;fill-opacity:1" /><path
     fill-rule="evenodd"
     clip-rule="evenodd"
     fill="#B4B9B5"
     d="M43.814,61.046c0.817-1.253,0.779-1.702-0.291-2.898  c-1.706-0.18-2.61,0.218-2.721,1.78C40.669,61.794,42.792,61.287,43.814,61.046"
     id="path115"
     style="fill:#a0a0a0;fill-opacity:1" /><path
     fill-rule="evenodd"
     clip-rule="evenodd"
     fill="#B4B9B5"
     d="M13.664,33.135c-0.978,0-0.738,1.605-0.62,2.266  c1.498,0.828,3.785,0.735,4.419-1.133C16.798,33.771,14.777,32.094,13.664,33.135"
     id="path117"
     style="fill:#a0a0a0;fill-opacity:1" /><path
     fill-rule="evenodd"
     clip-rule="evenodd"
     fill="#B4B9B5"
     d="M62.116,16.898c1.473-1.395,1.302-2.984,0-4.511  C58.034,12.379,60.357,16.16,62.116,16.898"
     id="path119"
     style="fill:#a0a0a0;fill-opacity:1" /><path
     fill-rule="evenodd"
     clip-rule="evenodd"
     fill="#B4B9B5"
     d="M56.718,13.674c1.89-1.129,0.917-3.068,0.313-4.364  c-1.618-0.068-2.698,0.092-2.433,1.979C54.733,12.263,56.026,13.458,56.718,13.674"
     id="path121"
     style="fill:#a0a0a0;fill-opacity:1" /><path
     fill-rule="evenodd"
     clip-rule="evenodd"
     fill="#B4B9B5"
     d="M50.84,20.161c0.703-1.297,0.598-2.878,0.08-3.988  C46.348,14.454,48.025,21.071,50.84,20.161"
     id="path127"
     style="fill:#a0a0a0;fill-opacity:1" /><path
     fill-rule="evenodd"
     clip-rule="evenodd"
     fill="#B4B9B5"
     d="M48.389,62.839c2.42,0.491,3.808-1.871,3.568-3.484  c-1.232-0.659-1.953-0.913-3.024,0.371C48.166,60.645,47.83,61.818,48.389,62.839"
     id="path129"
     style="fill:#a0a0a0;fill-opacity:1" /><path
     fill-rule="evenodd"
     clip-rule="evenodd"
     fill="#B4B9B5"
     d="M24.276,42.758c-0.672,0.434-1.843,1.237-1.917,2.48  c-0.081,1.354,1.065,1.729,2.273,1.113C26.829,45.232,26.761,41.15,24.276,42.758"
     id="path131"
     style="fill:#a0a0a0;fill-opacity:1" /><path
     fill-rule="evenodd"
     clip-rule="evenodd"
     fill="#B4B9B5"
     d="M42.429,48.452l0.506,0.29c0.467,0.189-0.279,0.207,0.735,0.182  c0.593-0.015,0.946-0.304,1.329-0.585c0.995-0.729,1.301-1.5,1.416-2.881l-0.628-0.422C43.938,44.103,42.095,46.602,42.429,48.452"
     id="path133"
     style="fill:#a0a0a0;fill-opacity:1" /><path
     fill-rule="evenodd"
     clip-rule="evenodd"
     fill="#B4B9B5"
     d="M16.288,11.351c-2.415,1.521-1.295,2.834-0.548,3.504  c2.042,1.832,3.753-0.117,2.913-1.681C18.177,12.288,17.292,11.871,16.288,11.351"
     id="path137"
     style="fill:#a0a0a0;fill-opacity:1" /><path
     fill-rule="evenodd"
     clip-rule="evenodd"
     fill="#B4B9B5"
     d="M13.684,37.526c-0.691,0.354-0.479-0.214-1.268,0.964  c-0.109,0.164-0.55,1.116-0.589,1.48c-0.169,1.562,0.912,1.762,2.276,1.112C16.425,39.978,16.349,36.153,13.684,37.526"
     id="path141"
     style="fill:#a0a0a0;fill-opacity:1" /><path
     fill-rule="evenodd"
     clip-rule="evenodd"
     fill="#B4B9B5"
     d="M23.186,23.395c-2.453,1.146,0.25,4.824,2.209,3.794  c1.833-0.964,0.236-2.937-0.82-3.648C23.738,22.977,23.923,23.05,23.186,23.395"
     id="path143"
     style="fill:#a0a0a0;fill-opacity:1" /><path
     fill-rule="evenodd"
     clip-rule="evenodd"
     fill="#B4B9B5"
     d="M20.908,49.173c-2.485,1.408-2.144,5.008,0.405,3.8  c0.392-0.186,1.674-1.525,1.818-2.242C23.439,49.198,22.039,48.532,20.908,49.173"
     id="path145"
     style="fill:#a0a0a0;fill-opacity:1" /><path
     fill-rule="evenodd"
     clip-rule="evenodd"
     fill="#B4B9B5"
     d="M36.553,34.614c0.735-0.405,1.927-1.04,1.45-2.163  c-0.189-0.447-1.542-1.937-2.174-2.069C33.723,29.94,32.871,33.785,36.553,34.614"
     id="path149"
     style="fill:#a0a0a0;fill-opacity:1" /><path
     fill-rule="evenodd"
     clip-rule="evenodd"
     fill="#B4B9B5"
     d="M21.374,32.801c0.357-1.892-0.589-3.454-2.592-4.151  C15.236,31.483,19.025,34.605,21.374,32.801"
     id="path153"
     style="fill:#a0a0a0;fill-opacity:1" /><path
     fill-rule="evenodd"
     clip-rule="evenodd"
     fill="#B4B9B5"
     d="M17.814,22.951c-0.448,0.313-0.821-0.036-1.095,1.134  c-0.182,0.778,0.02,1.349,0.411,1.927c0.049,0.072,0.899,0.977,1.021,1.049c1.808,1.083,3.383-0.57,2.03-2.958  C18.737,21.554,17.821,22.945,17.814,22.951"
     id="path155"
     style="fill:#a0a0a0;fill-opacity:1" /><path
     fill-rule="evenodd"
     clip-rule="evenodd"
     fill="#B4B9B5"
     d="M28.591,26.253c-1.411,0.554-1.872,1.513-1.118,3.127  c1.217,2.605,5.374,1.826,3.159-1.731l-0.235-0.384c-0.245-0.375-0.183-0.38-0.506-0.687C29.231,25.953,29.21,26.01,28.591,26.253"
     id="path159"
     style="fill:#a0a0a0;fill-opacity:1" /><path
     fill-rule="evenodd"
     clip-rule="evenodd"
     fill="#B4B9B5"
     d="M2.941,10.634c-2.419,1.157-0.248,5.158,2.03,4.555  c2.043-0.541,0.836-3.163-0.521-4.299C3.731,10.287,3.925,10.163,2.941,10.634"
     id="path161"
     style="fill:#a0a0a0;fill-opacity:1" /><path
     fill-rule="evenodd"
     clip-rule="evenodd"
     fill="#B4B9B5"
     d="M11.61,20.341c-1.333,0.439-2.224,1.02-1.335,3.166  c0.427,1.029,1.721,1.903,2.933,1.409C15.611,23.935,12.694,19.983,11.61,20.341"
     id="path163"
     style="fill:#a0a0a0;fill-opacity:1" /><path
     fill-rule="evenodd"
     clip-rule="evenodd"
     fill="#B4B9B5"
     d="M57.03,34.064c1.726,0.268,2.351,0.281,3.563-0.877  c2.308-2.204,0.502-3-0.061-4.171c-1.514-0.063-2.314,0.878-2.956,1.787C56.786,31.923,56.675,32.833,57.03,34.064"
     id="path165"
     style="fill:#a0a0a0;fill-opacity:1" /><path
     fill-rule="evenodd"
     clip-rule="evenodd"
     fill="#B4B9B5"
     d="M11.805,58.465c-0.249,1.551-0.27,2.455,0.716,3.575  c2.177,2.476,5.808,0.009,2.993-2.993C14.445,57.907,13.188,58.044,11.805,58.465"
     id="path167"
     style="fill:#a0a0a0;fill-opacity:1" /><path
     fill-rule="evenodd"
     clip-rule="evenodd"
     fill="#B4B9B5"
     d="M57.854,49.58c-4.193,1.601-3.57,7.822,0.974,4.152  C61.02,51.962,59.34,49.012,57.854,49.58"
     id="path169"
     style="fill:#a0a0a0;fill-opacity:1" /><path
     fill-rule="evenodd"
     clip-rule="evenodd"
     fill="#B4B9B5"
     d="M55.09,41.104c-3.359,1.28-0.075,5.584,2.484,4.708  C60.475,44.821,57.573,40.158,55.09,41.104"
     id="path171"
     style="fill:#a0a0a0;fill-opacity:1" /><path
     fill-rule="evenodd"
     clip-rule="evenodd"
     fill="#B4B9B5"
     d="M30.829,19.051c-1.532,0.524-1.974,1.483-1.144,3.075  c0.471,0.903,1.449,2.197,3.322,1.684C36.21,22.931,33.114,18.269,30.829,19.051"
     id="path173"
     style="fill:#a0a0a0;fill-opacity:1" /><path
     fill-rule="evenodd"
     clip-rule="evenodd"
     fill="#B4B9B5"
     d="M31.291,57.649c-1.09-2.897-4.731-4.439-6.169-1.484  C24.04,58.391,29.353,59.946,31.291,57.649"
     id="path175"
     style="fill:#a0a0a0;fill-opacity:1" /><path
     fill-rule="evenodd"
     clip-rule="evenodd"
     fill="#B4B9B5"
     d="M19.716,8.617c-0.428,0.32-1.021-0.174-1.1,1.351  c-0.049,0.95,0.37,1.399,0.917,2.043c0.037,0.043,0.095,0.117,0.134,0.159l1.24,0.876c0.654,0.203,1.352,0.151,2.021-0.246  c1.993-1.186-0.01-3.933-1.253-4.478C20.08,7.623,20.485,8.041,19.716,8.617"
     id="path177"
     style="fill:#a0a0a0;fill-opacity:1" /><path
     fill-rule="evenodd"
     clip-rule="evenodd"
     fill="#B4B9B5"
     d="M7.755,61.537c0.05-1.722,0.213-0.802-1.317-2.379  c-3.109-3.207-6.978,1.233-3.404,2.663C4.953,62.588,6.3,62.199,7.755,61.537"
     id="path179"
     style="fill:#a0a0a0;fill-opacity:1" /><path
     fill-rule="evenodd"
     clip-rule="evenodd"
     fill="#B4B9B5"
     d="M47.342,8.554c-3.056,0.817-1.017,5.764,2.201,4.957  C52.779,12.699,49.591,7.953,47.342,8.554"
     id="path181"
     style="fill:#a0a0a0;fill-opacity:1" /><path
     fill-rule="evenodd"
     clip-rule="evenodd"
     fill="#B4B9B5"
     d="M37.139,55.381c-2.919,0.626-5.876,3.622-0.398,4.174  C40.112,59.895,41.274,54.494,37.139,55.381"
     id="path183"
     style="fill:#a0a0a0;fill-opacity:1" /><path
     fill-rule="evenodd"
     clip-rule="evenodd"
     fill="#B4B9B5"
     d="M49.396,45.815c-1.65,0.752-0.683,2.992-0.068,4.102  c2.36,4.258,5.776-0.799,3.793-2.587C52.728,46.976,50.351,45.38,49.396,45.815"
     id="path185"
     style="fill:#a0a0a0;fill-opacity:1" /><path
     fill-rule="evenodd"
     clip-rule="evenodd"
     fill="#B4B9B5"
     d="M62.956,22.481c0.439-4.225-5.229-3.576-6.198-0.771  c-0.69,2,0.355,2.999,2.302,2.582C60.696,23.942,61.877,22.96,62.956,22.481"
     id="path187"
     style="fill:#a0a0a0;fill-opacity:1" /><path
     fill-rule="evenodd"
     clip-rule="evenodd"
     fill="#B4B9B5"
     d="M52.579,23.789c-0.774,0.418-0.934,0.39-1.313,1.415  c-1.148,3.091,1.554,5.057,2.975,4.826C56.495,29.664,56.037,21.924,52.579,23.789"
     id="path189"
     style="fill:#a0a0a0;fill-opacity:1" /><path
     fill-rule="evenodd"
     clip-rule="evenodd"
     fill="#B4B9B5"
     d="M9.662,34.001c0.891-2.952,0.415-3.556-0.481-6.094  c-3.4-1.048-4.632,3.3-3.049,5.024C7.614,34.545,8.452,34.371,9.662,34.001"
     id="path191"
     style="fill:#a0a0a0;fill-opacity:1" /><path
     fill-rule="evenodd"
     clip-rule="evenodd"
     fill="#B4B9B5"
     d="M60.765,1.687C56.421,0.82,53.487,9.271,58.9,7.302  c0.014-0.005,1.005-0.542,1.021-0.554l0.625-0.554C62.103,4.656,61.648,3.144,60.765,1.687"
     id="path193"
     style="fill:#a0a0a0;fill-opacity:1" /><path
     fill-rule="evenodd"
     clip-rule="evenodd"
     fill="#B4B9B5"
     d="M16.607,41.45c-2.996,1.834-1.121,6.884,1.753,6.312  C20.769,47.283,19.838,39.474,16.607,41.45"
     id="path195"
     style="fill:#a0a0a0;fill-opacity:1" /><path
     fill-rule="evenodd"
     clip-rule="evenodd"
     fill="#B4B9B5"
     d="M27.102,38.133c2.017,0.363,1.365,0.359,2.963-0.422  c0.002-1.733,0.437-7.096-2.75-5.778c-1.343,0.556-2.982,3.026-0.73,5.451l0.258,0.287C27.099,38.007,27.057,38.023,27.102,38.133"
     id="path197"
     style="fill:#a0a0a0;fill-opacity:1" /><path
     fill-rule="evenodd"
     clip-rule="evenodd"
     fill="#B4B9B5"
     d="M45.582,51.078l-0.471,0.452c-3.109,3.176,0.438,6.431,2.22,5.934  C49.828,56.768,48.416,49.157,45.582,51.078"
     id="path199"
     style="fill:#a0a0a0;fill-opacity:1" /><path
     fill-rule="evenodd"
     clip-rule="evenodd"
     fill="#B4B9B5"
     d="M7.852,13.05l-0.457,0.456c-0.034,0.035-0.111,0.106-0.148,0.146  c-0.485,0.525-0.268,0.035-0.617,0.864c-1.199,2.831,1.108,5.291,2.979,4.876C12.273,18.801,10.643,10.84,7.852,13.05"
     id="path201"
     style="fill:#a0a0a0;fill-opacity:1" /><path
     fill-rule="evenodd"
     clip-rule="evenodd"
     fill="#B4B9B5"
     d="M40.767,30.81c-0.848,1.92-1.607,4.262,0.913,5.776  c0.75,0.451,1.349,0.484,2.033,0.168c1.896-1.695,0.349-3.764,0.334-5.983C42.288,30.068,42.528,30.263,40.767,30.81"
     id="path203"
     style="fill:#a0a0a0;fill-opacity:1" /><path
     fill-rule="evenodd"
     clip-rule="evenodd"
     fill="#B4B9B5"
     d="M34.058,11.62c-1.881,3.781-0.363,8.754,3.468,6.387  c1.432-0.884,1.724-2.526,0.629-4.078c-0.709-1.006-0.692-0.67-1.707-1.333C35.611,12.049,35.234,11.618,34.058,11.62"
     id="path205"
     style="fill:#a0a0a0;fill-opacity:1" /><path
     fill-rule="evenodd"
     clip-rule="evenodd"
     fill="#B4B9B5"
     d="M39.422,2.009c-1.913,1.801,1.426,8.541,4.409,5.547  c0.257-0.258,0.95-1.389,1.025-2.015c0.153-1.271-0.328-1.69-1.007-2.238C42.789,2.445,40.764,0.745,39.422,2.009"
     id="path207"
     style="fill:#a0a0a0;fill-opacity:1" /></svg>