<?xml version="1.0" encoding="UTF-8" standalone="no"?>
<svg id="svg2" xmlns:rdf="http://www.w3.org/1999/02/22-rdf-syntax-ns#" xmlns="http://www.w3.org/2000/svg" height="1052.4" width="744.09" version="1.1" xmlns:cc="http://creativecommons.org/ns#" xmlns:dc="http://purl.org/dc/elements/1.1/">
 <g id="layer1" transform="translate(3 -3.0022)">
  <g id="g2984" fill="#87bd7b" transform="matrix(48.159 0 0 48.159 202.86 -49874)">
   <path id="path3008" d="m2.3517 1051.8c-1.0403-1.6832 0.4312-3.502 1.759-2.1742 0.78284 0.7828 0.78284 1.3914 0 2.1742-0.78285 0.7829-1.2752 0.7829-1.759 0zm-2-4c-1.0403-1.6832 0.4312-3.502 1.759-2.1742 0.78284 0.7828 0.78284 1.3914 0 2.1742-0.78285 0.7829-1.2752 0.7829-1.759 0zm2.7472-5.3887c0.34599-1.783 0.45234-1.6676 0.56279 0.6106 0.0772 3.0177-1.1331 5.1267-0.56279-0.6106z"/>
   <path id="path3008-6" d="m4.2308 1048.1c-1.0403-1.6833 0.4312-3.5021 1.759-2.1743 0.78284 0.7828 0.78284 1.3914 0 2.1743-0.78285 0.7828-1.2752 0.7828-1.759 0z"/>
  </g>
 </g>
</svg>
