<?xml version="1.0" encoding="UTF-8" standalone="no"?>
<!-- Generator: Adobe Illustrator 16.0.0, SVG Export Plug-In . SVG Version: 6.00 Build 0)  -->

<svg
   xmlns:dc="http://purl.org/dc/elements/1.1/"
   xmlns:cc="http://creativecommons.org/ns#"
   xmlns:rdf="http://www.w3.org/1999/02/22-rdf-syntax-ns#"
   xmlns:svg="http://www.w3.org/2000/svg"
   xmlns="http://www.w3.org/2000/svg"
   xmlns:sodipodi="http://sodipodi.sourceforge.net/DTD/sodipodi-0.dtd"
   xmlns:inkscape="http://www.inkscape.org/namespaces/inkscape"
   version="1.1"
   id="Layer_1"
   x="0px"
   y="0px"
   width="64px"
   height="64px"
   viewBox="0 0 64 64"
   enable-background="new 0 0 64 64"
   xml:space="preserve"
   inkscape:version="0.91 r13725"
   sodipodi:docname="wood_deciduous_transparent.svg"><metadata
     id="metadata17"><rdf:RDF><cc:Work
         rdf:about=""><dc:format>image/svg+xml</dc:format><dc:type
           rdf:resource="http://purl.org/dc/dcmitype/StillImage" /></cc:Work></rdf:RDF></metadata><defs
     id="defs15" /><sodipodi:namedview
     pagecolor="#ffffff"
     bordercolor="#666666"
     borderopacity="1"
     objecttolerance="10"
     gridtolerance="10"
     guidetolerance="10"
     inkscape:pageopacity="0"
     inkscape:pageshadow="2"
     inkscape:window-width="1241"
     inkscape:window-height="762"
     id="namedview13"
     showgrid="false"
     inkscape:zoom="11.810976"
     inkscape:cx="30.869893"
     inkscape:cy="23.677231"
     inkscape:window-x="0"
     inkscape:window-y="10"
     inkscape:window-maximized="0"
     inkscape:current-layer="Layer_1" /><rect
     fill-rule="evenodd"
     clip-rule="evenodd"
     fill="#ACC684"
     width="64"
     height="64"
     id="rect3"
     style="fill:#ffffff;fill-opacity:0" /><path
     d="m 34.735,22.349 c -3.885,0.102 -6.769,-4.297 -3.17,-5.146 -2.339,-1.696 -1.167,-4.356 1.153,-4.121 0.872,-2.318 3.816,-1.742 4.266,0.086 3.555,-0.615 4.429,2.892 3.574,4.208 2.813,1.687 0.352,5.021 -3.833,4.961 l 0,4.78 -1.989,0 0,-4.768 z"
     id="path5"
     style="clip-rule:evenodd;fill:#afba8c;fill-opacity:1;fill-rule:evenodd"
     inkscape:connector-curvature="0" /><path
     d="m 51.256,52.053 c -3.886,0.101 -6.77,-4.298 -3.17,-5.146 -2.34,-1.696 -1.168,-4.356 1.152,-4.121 0.871,-2.317 3.815,-1.742 4.266,0.086 3.555,-0.614 4.429,2.893 3.573,4.209 2.813,1.686 0.352,5.02 -3.833,4.961 l 0,4.78 -1.988,0 0,-4.769 z"
     id="path9"
     style="clip-rule:evenodd;fill:#9da47e;fill-opacity:1;fill-rule:evenodd"
     inkscape:connector-curvature="0" /><path
     d="m 10.324556,17.902712 c -3.886,0.101 -6.77,-4.298001 -3.17,-5.146001 -2.34,-1.696 -1.168,-4.3560002 1.152,-4.1210002 0.871,-2.317 3.815,-1.742 4.266,0.086 3.555,-0.614 4.429,2.8930002 3.573,4.2090002 2.813,1.686 0.352,5.020001 -3.833,4.961001 l 0,4.78 -1.988,0 0,-4.769 z"
     id="path9-0"
     style="clip-rule:evenodd;fill:#9da47e;fill-opacity:1;fill-rule:evenodd"
     inkscape:connector-curvature="0" /><path
     d="m 24.801288,46.266861 c -3.885,0.102 -6.769,-4.297001 -3.17,-5.146001 -2.339,-1.696 -1.167,-4.356 1.153,-4.121 0.872,-2.318 3.816,-1.742 4.266,0.086 3.555,-0.615 4.429,2.892 3.574,4.208 2.813,1.687 0.352,5.021001 -3.833,4.961001 l 0,4.78 -1.989,0 0,-4.768 z"
     id="path5-3"
     style="clip-rule:evenodd;fill:#afba8c;fill-opacity:1;fill-rule:evenodd"
     inkscape:connector-curvature="0" /></svg>