<?xml version="1.0" encoding="UTF-8" standalone="no"?>
<!-- Generator: Adobe Illustrator 16.0.0, SVG Export Plug-In . SVG Version: 6.00 Build 0)  -->

<svg
   xmlns:dc="http://purl.org/dc/elements/1.1/"
   xmlns:cc="http://creativecommons.org/ns#"
   xmlns:rdf="http://www.w3.org/1999/02/22-rdf-syntax-ns#"
   xmlns:svg="http://www.w3.org/2000/svg"
   xmlns="http://www.w3.org/2000/svg"
   xmlns:sodipodi="http://sodipodi.sourceforge.net/DTD/sodipodi-0.dtd"
   xmlns:inkscape="http://www.inkscape.org/namespaces/inkscape"
   version="1.1"
   id="Layer_1"
   x="0px"
   y="0px"
   width="64px"
   height="64px"
   viewBox="0 0 64 64"
   enable-background="new 0 0 64 64"
   xml:space="preserve"
   inkscape:version="0.91 r13725"
   sodipodi:docname="wood_coniferous_transparent.svg"><metadata
     id="metadata17"><rdf:RDF><cc:Work
         rdf:about=""><dc:format>image/svg+xml</dc:format><dc:type
           rdf:resource="http://purl.org/dc/dcmitype/StillImage" /></cc:Work></rdf:RDF></metadata><defs
     id="defs15" /><sodipodi:namedview
     pagecolor="#ffffff"
     bordercolor="#666666"
     borderopacity="1"
     objecttolerance="10"
     gridtolerance="10"
     guidetolerance="10"
     inkscape:pageopacity="0"
     inkscape:pageshadow="2"
     inkscape:window-width="1241"
     inkscape:window-height="762"
     id="namedview13"
     showgrid="false"
     inkscape:zoom="11.810976"
     inkscape:cx="35.830247"
     inkscape:cy="23.750181"
     inkscape:window-x="0"
     inkscape:window-y="10"
     inkscape:window-maximized="0"
     inkscape:current-layer="Layer_1" /><rect
     fill-rule="evenodd"
     clip-rule="evenodd"
     fill="#ACC684"
     width="64"
     height="64"
     id="rect3"
     style="fill:#ffffff;fill-opacity:0" /><polygon
     points="10.347,22.561 8.357,22.561 8.357,19.693 3.945,19.693 8.027,15.516 4.882,14.748 8.109,10.808 6.011,10.28 9.353,5.187 12.694,10.28 10.596,10.808 13.823,14.748 10.678,15.516 14.76,19.693 10.347,19.693 "
     id="polygon7"
     style="clip-rule:evenodd;fill:#9da47e;fill-opacity:1;fill-rule:evenodd"
     transform="translate(2,0)" /><polygon
     points="42.367,54.264 40.379,54.264 40.379,51.396 35.966,51.396 40.048,47.219 36.902,46.45 40.129,42.51 38.031,41.983 41.373,36.889 44.715,41.983 42.617,42.51 45.844,46.45 42.699,47.219 46.78,51.396 42.367,51.396 "
     id="polygon11"
     style="clip-rule:evenodd;fill:#afba8c;fill-opacity:1;fill-rule:evenodd"
     transform="translate(-15.5,-3)" /><polygon
     points="40.129,42.51 38.031,41.983 41.373,36.889 44.715,41.983 42.617,42.51 45.844,46.45 42.699,47.219 46.78,51.396 42.367,51.396 42.367,54.264 40.379,54.264 40.379,51.396 35.966,51.396 40.048,47.219 36.902,46.45 "
     id="polygon11-3"
     style="clip-rule:evenodd;fill:#afba8c;fill-opacity:1;fill-rule:evenodd"
     transform="translate(-5.7281882,-27.127352)" /><polygon
     points="8.109,10.808 6.011,10.28 9.353,5.187 12.694,10.28 10.596,10.808 13.823,14.748 10.678,15.516 14.76,19.693 10.347,19.693 10.347,22.561 8.357,22.561 8.357,19.693 3.945,19.693 8.027,15.516 4.882,14.748 "
     id="polygon7-5"
     style="clip-rule:evenodd;fill:#9da47e;fill-opacity:1;fill-rule:evenodd"
     transform="translate(42.971713,34.208602)" /></svg>