<?xml version="1.0" encoding="utf-8"?>
<!-- Generator: Adobe Illustrator 16.0.0, SVG Export Plug-In . SVG Version: 6.00 Build 0)  -->
<!DOCTYPE svg PUBLIC "-//W3C//DTD SVG 1.1//EN" "http://www.w3.org/Graphics/SVG/1.1/DTD/svg11.dtd">
<svg version="1.1" id="Layer_1" xmlns="http://www.w3.org/2000/svg" xmlns:xlink="http://www.w3.org/1999/xlink" x="0px" y="0px"
	 width="20px" height="20px" viewBox="0 0 20 20" enable-background="new 0 0 20 20" xml:space="preserve">
<path fill-rule="evenodd" clip-rule="evenodd" fill="#FFFFFF" d="M1.044,8.555C1.028,8.481,1.019,8.406,1.019,8.329V7.353
	c0-0.207,0.064-0.398,0.173-0.557C1.083,6.638,1.019,6.445,1.019,6.239V5.263c0-0.543,0.442-0.984,0.985-0.984H2.06
	c0.102-0.436,0.494-0.762,0.959-0.762h0.976c0.466,0,0.857,0.326,0.959,0.762h10.092c0.102-0.436,0.494-0.762,0.959-0.762h0.977
	c0.465,0,0.857,0.326,0.959,0.762h0.057c0.541,0,0.984,0.441,0.984,0.984v0.977c0,0.206-0.064,0.398-0.174,0.557
	c0.109,0.158,0.174,0.35,0.174,0.557v0.977c0,0.077-0.01,0.152-0.027,0.226h0.045c0.541,0,0.984,0.442,0.984,0.985v1.99
	c0,0.543-0.443,0.985-0.984,0.985h-0.066v2.983c0,0.543-0.443,0.984-0.984,0.984h-1.953c-0.543,0-0.984-0.441-0.984-0.984v-2.983
	H4.989v2.983c0,0.543-0.442,0.984-0.985,0.984H2.052c-0.543,0-0.985-0.441-0.985-0.984v-2.983H1.001
	c-0.542,0-0.984-0.442-0.984-0.985V9.54c0-0.543,0.442-0.985,0.984-0.985H1.044z"/>
<path fill-rule="evenodd" clip-rule="evenodd" fill="#000001" d="M1.001,9.54h2.017V8.329H2.003V7.353h1.015V6.239H2.003V5.263
	h1.015V4.501h0.976v0.762h12.01V4.501h0.977v0.762h1.016v0.977h-1.016v1.113h1.016v0.977h-1.016V9.54h2.018v1.99h-1.051v3.969
	h-1.953V11.53H4.004v3.969H2.052V11.53H1.001V9.54L1.001,9.54z M3.995,6.239v1.113h12.01V6.239H3.995L3.995,6.239z M3.995,8.329
	V9.54h12.01V8.329H3.995z"/>
</svg>
