<?xml version="1.0" encoding="UTF-8" standalone="no"?>
<!-- Generator: Adobe Illustrator 14.0.0, SVG Export Plug-In . SVG Version: 6.00 Build 43363)  -->

<svg
   xmlns:dc="http://purl.org/dc/elements/1.1/"
   xmlns:cc="http://creativecommons.org/ns#"
   xmlns:rdf="http://www.w3.org/1999/02/22-rdf-syntax-ns#"
   xmlns:svg="http://www.w3.org/2000/svg"
   xmlns="http://www.w3.org/2000/svg"
   xmlns:sodipodi="http://sodipodi.sourceforge.net/DTD/sodipodi-0.dtd"
   xmlns:inkscape="http://www.inkscape.org/namespaces/inkscape"
   version="1.1"
   id="airport"
   x="0px"
   y="0px"
   width="25.714083"
   height="21.751093"
   viewBox="0 0 25.714083 21.751093"
   enable-background="new 0 0 24 24"
   xml:space="preserve"
   sodipodi:docname="bunker.svg"
   inkscape:version="0.92.3 (2405546, 2018-03-11)"><metadata
   id="metadata13"><rdf:RDF><cc:Work
       rdf:about=""><dc:format>image/svg+xml</dc:format><dc:type
         rdf:resource="http://purl.org/dc/dcmitype/StillImage" /><dc:title></dc:title></cc:Work></rdf:RDF></metadata><defs
   id="defs11" /><sodipodi:namedview
   pagecolor="#ffffff"
   bordercolor="#666666"
   borderopacity="1"
   objecttolerance="10"
   gridtolerance="10"
   guidetolerance="10"
   inkscape:pageopacity="0"
   inkscape:pageshadow="2"
   inkscape:window-width="889"
   inkscape:window-height="525"
   id="namedview9"
   showgrid="false"
   inkscape:pagecheckerboard="true"
   fit-margin-top="0"
   fit-margin-left="0"
   fit-margin-right="0"
   fit-margin-bottom="0"
   inkscape:zoom="9.8333333"
   inkscape:cx="12.302541"
   inkscape:cy="10.812547"
   inkscape:window-x="0"
   inkscape:window-y="0"
   inkscape:window-maximized="0"
   inkscape:current-layer="airport" />

<g
   id="rect2987"
   style="fill:#ffffff;fill-opacity:1;stroke:#ffffff;stroke-width:2;stroke-miterlimit:4;stroke-dasharray:none;stroke-opacity:1"
   transform="translate(0.30254135,-1.0614536)">
	<path
   d="m 17.478,16.951 c -0.828,0.466 -1.804,0.71 -2.848,0.71 h -4.152 c -1.043,0 -2.018,-0.244 -2.846,-0.71 L 3.915,20.668 1.796,18.453 5.5,14.748 C 5.038,13.908 4.787,12.936 4.787,11.97 c 0,-0.973 0.26,-1.908 0.772,-2.785 L 1.795,5.423 3.914,3.207 7.699,6.993 C 8.541,6.53 9.512,6.278 10.477,6.278 h 4.152 c 0.966,0 1.938,0.252 2.779,0.715 l 3.784,-3.786 2.119,2.216 -3.761,3.762 c 0.513,0.875 0.772,1.811 0.772,2.785 0,0.966 -0.251,1.938 -0.714,2.777 l 3.704,3.706 -2.119,2.215 z m -7,-7.597 c -1.466,0 -2.615,1.149 -2.615,2.615 0,1.467 1.149,2.615 2.615,2.615 h 4.152 c 1.467,0 2.616,-1.148 2.616,-2.615 0,-1.466 -1.149,-2.615 -2.616,-2.615 z"
   id="path3"
   inkscape:connector-curvature="0"
   style="fill:#ffffff;fill-opacity:1;stroke:#ffffff;stroke-width:2;stroke-miterlimit:4;stroke-dasharray:none;stroke-opacity:1" />
	<path
   d="m 21.186,3.922 1.428,1.493 -3.699,3.699 c 0.561,0.829 0.908,1.784 0.908,2.856 0,1.042 -0.312,2.041 -0.843,2.855 l 3.634,3.636 -1.428,1.492 -3.634,-3.635 c -0.827,0.56 -1.85,0.843 -2.922,0.843 h -4.152 c -1.071,0 -2.093,-0.283 -2.92,-0.843 L 3.923,19.953 2.495,18.461 6.129,14.825 C 5.597,14.011 5.286,13.012 5.286,11.97 5.286,10.898 5.635,9.943 6.194,9.114 L 2.495,5.415 3.923,3.922 7.622,7.622 C 8.438,7.09 9.436,6.778 10.478,6.778 h 4.152 c 1.043,0 2.042,0.313 2.857,0.844 l 3.699,-3.7 M 10.478,15.085 h 4.152 c 1.746,0 3.116,-1.371 3.116,-3.115 0,-1.745 -1.37,-3.115 -3.116,-3.115 h -4.152 c -1.744,0 -3.115,1.371 -3.115,3.115 -0.001,1.744 1.37,3.115 3.115,3.115 M 21.201,2.492 20.478,3.215 17.312,6.382 C 16.48,5.989 15.552,5.778 14.629,5.778 H 10.477 C 9.54,5.778 8.626,5.985 7.794,6.381 L 4.629,3.215 3.906,2.492 3.2,3.231 1.772,4.724 1.096,5.431 1.787,6.122 4.94,9.274 c -0.435,0.854 -0.654,1.758 -0.654,2.696 0,0.923 0.211,1.851 0.603,2.682 L 1.787,17.755 1.096,18.446 1.772,19.153 3.2,20.645 3.907,21.383 4.63,20.66 7.727,17.563 c 0.825,0.393 1.761,0.598 2.751,0.598 h 4.152 c 0.991,0 1.928,-0.205 2.753,-0.598 l 3.096,3.097 0.723,0.723 0.707,-0.738 1.428,-1.492 0.676,-0.707 -0.691,-0.691 -3.102,-3.104 c 0.393,-0.831 0.604,-1.758 0.604,-2.681 0,-0.939 -0.22,-1.842 -0.654,-2.696 L 23.322,6.122 24.013,5.431 23.337,4.724 21.909,3.231 Z M 10.478,14.085 c -1.186,0 -2.115,-0.929 -2.115,-2.115 0,-1.186 0.929,-2.115 2.115,-2.115 h 4.152 c 1.187,0 2.116,0.929 2.116,2.115 0,1.187 -0.93,2.115 -2.116,2.115 z"
   id="path5"
   inkscape:connector-curvature="0"
   style="fill:#ffffff;fill-opacity:1;stroke:#ffffff;stroke-width:2;stroke-miterlimit:4;stroke-dasharray:none;stroke-opacity:1" />
</g>
<g
   id="rect2987-7"
   style="fill:#575757;fill-opacity:1"
   transform="translate(0.30254135,-1.0614536)"><path
     d="m 17.478,16.951 c -0.828,0.466 -1.804,0.71 -2.848,0.71 h -4.152 c -1.043,0 -2.018,-0.244 -2.846,-0.71 L 3.915,20.668 1.796,18.453 5.5,14.748 C 5.038,13.908 4.787,12.936 4.787,11.97 c 0,-0.973 0.26,-1.908 0.772,-2.785 L 1.795,5.423 3.914,3.207 7.699,6.993 C 8.541,6.53 9.512,6.278 10.477,6.278 h 4.152 c 0.966,0 1.938,0.252 2.779,0.715 l 3.784,-3.786 2.119,2.216 -3.761,3.762 c 0.513,0.875 0.772,1.811 0.772,2.785 0,0.966 -0.251,1.938 -0.714,2.777 l 3.704,3.706 -2.119,2.215 z m -7,-7.597 c -1.466,0 -2.615,1.149 -2.615,2.615 0,1.467 1.149,2.615 2.615,2.615 h 4.152 c 1.467,0 2.616,-1.148 2.616,-2.615 0,-1.466 -1.149,-2.615 -2.616,-2.615 z"
     id="path3-7"
     inkscape:connector-curvature="0"
     style="fill:#575757;fill-opacity:1" /><path
     d="m 21.186,3.922 1.428,1.493 -3.699,3.699 c 0.561,0.829 0.908,1.784 0.908,2.856 0,1.042 -0.312,2.041 -0.843,2.855 l 3.634,3.636 -1.428,1.492 -3.634,-3.635 c -0.827,0.56 -1.85,0.843 -2.922,0.843 h -4.152 c -1.071,0 -2.093,-0.283 -2.92,-0.843 L 3.923,19.953 2.495,18.461 6.129,14.825 C 5.597,14.011 5.286,13.012 5.286,11.97 5.286,10.898 5.635,9.943 6.194,9.114 L 2.495,5.415 3.923,3.922 7.622,7.622 C 8.438,7.09 9.436,6.778 10.478,6.778 h 4.152 c 1.043,0 2.042,0.313 2.857,0.844 l 3.699,-3.7 M 10.478,15.085 h 4.152 c 1.746,0 3.116,-1.371 3.116,-3.115 0,-1.745 -1.37,-3.115 -3.116,-3.115 h -4.152 c -1.744,0 -3.115,1.371 -3.115,3.115 -0.001,1.744 1.37,3.115 3.115,3.115 M 21.201,2.492 20.478,3.215 17.312,6.382 C 16.48,5.989 15.552,5.778 14.629,5.778 H 10.477 C 9.54,5.778 8.626,5.985 7.794,6.381 L 4.629,3.215 3.906,2.492 3.2,3.231 1.772,4.724 1.096,5.431 1.787,6.122 4.94,9.274 c -0.435,0.854 -0.654,1.758 -0.654,2.696 0,0.923 0.211,1.851 0.603,2.682 L 1.787,17.755 1.096,18.446 1.772,19.153 3.2,20.645 3.907,21.383 4.63,20.66 7.727,17.563 c 0.825,0.393 1.761,0.598 2.751,0.598 h 4.152 c 0.991,0 1.928,-0.205 2.753,-0.598 l 3.096,3.097 0.723,0.723 0.707,-0.738 1.428,-1.492 0.676,-0.707 -0.691,-0.691 -3.102,-3.104 c 0.393,-0.831 0.604,-1.758 0.604,-2.681 0,-0.939 -0.22,-1.842 -0.654,-2.696 L 23.322,6.122 24.013,5.431 23.337,4.724 21.909,3.231 Z M 10.478,14.085 c -1.186,0 -2.115,-0.929 -2.115,-2.115 0,-1.186 0.929,-2.115 2.115,-2.115 h 4.152 c 1.187,0 2.116,0.929 2.116,2.115 0,1.187 -0.93,2.115 -2.116,2.115 z"
     id="path5-5"
     inkscape:connector-curvature="0"
     style="fill:#575757;fill-opacity:1" /></g><path
   style="opacity:1;fill:#ffffff;fill-opacity:1;stroke:#ffffff;stroke-width:0.16271187;stroke-linecap:square;stroke-miterlimit:4;stroke-dasharray:none;stroke-opacity:1"
   d="m 10.137706,11.947358 c -0.809359,-0.545428 -0.809359,-1.533214 0,-2.0786412 0.333326,-0.2246286 0.416917,-0.2318659 2.678064,-0.2318659 1.875054,0 2.39789,0.030318 2.658921,0.1541856 0.892115,0.4233365 0.892115,1.8106645 0,2.2340015 -0.261031,0.123867 -0.783867,0.154185 -2.658921,0.154185 -2.261147,0 -2.344738,-0.0072 -2.678064,-0.231865 z"
   id="path841"
   inkscape:connector-curvature="0" /></svg>