<?xml version="1.0" encoding="UTF-8" standalone="no"?>
<!-- Generator: Adobe Illustrator 16.0.0, SVG Export Plug-In . SVG Version: 6.00 Build 0)  -->

<svg
   xmlns:dc="http://purl.org/dc/elements/1.1/"
   xmlns:cc="http://creativecommons.org/ns#"
   xmlns:rdf="http://www.w3.org/1999/02/22-rdf-syntax-ns#"
   xmlns:svg="http://www.w3.org/2000/svg"
   xmlns="http://www.w3.org/2000/svg"
   xmlns:sodipodi="http://sodipodi.sourceforge.net/DTD/sodipodi-0.dtd"
   xmlns:inkscape="http://www.inkscape.org/namespaces/inkscape"
   version="1.1"
   id="Layer_1"
   x="0px"
   y="0px"
   width="20px"
   height="20px"
   viewBox="0 0 20 20"
   enable-background="new 0 0 20 20"
   xml:space="preserve"
   inkscape:version="0.91 r13725"
   sodipodi:docname="bus_sta.svg"><metadata
     id="metadata13"><rdf:RDF><cc:Work
         rdf:about=""><dc:format>image/svg+xml</dc:format><dc:type
           rdf:resource="http://purl.org/dc/dcmitype/StillImage" /></cc:Work></rdf:RDF></metadata><defs
     id="defs11" /><sodipodi:namedview
     pagecolor="#ffffff"
     bordercolor="#666666"
     borderopacity="1"
     objecttolerance="10"
     gridtolerance="10"
     guidetolerance="10"
     inkscape:pageopacity="0"
     inkscape:pageshadow="2"
     inkscape:window-width="1680"
     inkscape:window-height="988"
     id="namedview9"
     showgrid="false"
     inkscape:zoom="11.8"
     inkscape:cx="10"
     inkscape:cy="10"
     inkscape:window-x="-8"
     inkscape:window-y="2"
     inkscape:window-maximized="1"
     inkscape:current-layer="Layer_1" /><path
     fill-rule="evenodd"
     clip-rule="evenodd"
     fill="#FFFFFF"
     d="M9.999,19.998c5.508,0,10-4.492,10-9.998  c0-5.508-4.492-9.998-10-9.998c-5.506,0-9.998,4.49-9.998,9.998C0.001,15.506,4.493,19.998,9.999,19.998z"
     id="path3" /><path
     fill-rule="evenodd"
     clip-rule="evenodd"
     fill="#2B4EA1"
     d="M9.999,18.998c4.957,0,9-4.043,9-8.998  c0-4.957-4.043-8.998-9-8.998c-4.956,0-8.998,4.041-8.998,8.998C1.001,14.955,5.043,18.998,9.999,18.998z"
     id="path5"
     style="fill:#001aff;fill-opacity:1" /><path
     fill-rule="evenodd"
     clip-rule="evenodd"
     fill="#FFFFFF"
     d="M15.634,9.232c0-0.451-0.145-1.205-0.207-1.68  c-0.07-0.541-0.139-1.084-0.211-1.623c-0.071-0.549-0.084-1.1-0.335-1.539c-0.565-0.989-2.987-1.363-4.089-1.46  c-1.143-0.1-2.286,0.034-3.354,0.284C6.455,3.445,5.4,3.779,5.044,4.529c-0.21,0.441-0.412,2.557-0.497,3.216  C4.479,8.279,4.365,8.889,4.367,9.426v5.52l0.943,0.016c0.01,0.342-0.046,0.947,0.062,1.23c0.245,0.645,1.284,0.689,1.52-0.041  c0.091-0.281,0.035-0.873,0.051-1.203l6.121,0.004c0.025,0.585-0.212,1.734,0.814,1.734c1.027,0,0.789-1.149,0.814-1.736  l0.941-0.002V9.232L15.634,9.232z M13.696,11.519c0.496-0.126,0.923,0.231,1.01,0.628c0.119,0.543-0.234,0.947-0.65,1.035  C12.985,13.405,12.558,11.808,13.696,11.519L13.696,11.519z M5.949,11.516c1.119-0.238,1.432,1.439,0.361,1.666  C5.196,13.416,4.84,11.752,5.949,11.516L5.949,11.516z M7.369,3.838c0.183-0.052,4.347-0.033,5.091-0.02  c0.662,0.013,0.527,0.848,0.17,0.936C12.476,4.793,8.031,4.781,7.521,4.77C6.936,4.756,6.977,3.948,7.369,3.838L7.369,3.838z   M5.877,9.584c-0.583,0-0.537-0.381-0.468-0.887l0.345-2.557C5.82,5.639,5.8,5.325,6.361,5.325h7.291  c0.568,0,0.543,0.335,0.611,0.845l0.344,2.563c0.068,0.496,0.092,0.852-0.471,0.852H5.877z"
     id="path7" /><path
     style="fill:#0079c1;fill-opacity:1"
     d="M 8.7782623,18.872307 C 7.4969478,18.685433 6.226811,18.207107 5.1526099,17.506908 1.4086091,15.066445 0.00413105,10.280855 1.8605356,6.2895609 3.0867747,3.6531308 5.4257919,1.8005371 8.2699371,1.2130628 9.1465087,1.032002 10.85415,1.032138 11.731398,1.2133386 c 2.100223,0.433813 4.03147,1.6284192 5.312769,3.2863063 1.432182,1.8531152 2.10951,4.1735905 1.861522,6.3774361 -0.394986,3.510211 -2.640671,6.380631 -5.904585,7.547199 -1.335713,0.477402 -2.890435,0.642352 -4.2228417,0.448027 z M 6.7986524,16.402471 c 0.107601,-0.139775 0.1472339,-0.354457 0.1486157,-0.805013 l 0.00188,-0.614407 3.0508475,0 3.050847,0 0,0.555056 c 0,0.692487 0.15724,1.024993 0.530728,1.122299 0.715737,0.186474 1.098436,-0.175225 1.149947,-1.086844 l 0.03337,-0.590511 0.461115,0 0.461115,0 -0.03142,-3.283898 C 15.625572,8.5507199 15.613269,8.3392157 15.357453,6.5719613 15.210702,5.5581502 15.046596,4.6428959 14.992774,4.538063 14.656178,3.8824466 13.782814,3.4239708 12.286041,3.1171522 10.23847,2.6974275 8.0920757,2.8490018 6.2420156,3.5439697 5.6152175,3.779424 5.0498557,4.3076692 4.9251074,4.7744214 4.8748021,4.9626414 4.7188792,6.030438 4.5786121,7.1473028 4.3397881,9.0489186 4.3235319,9.362421 4.3228075,12.080508 l -7.736e-4,2.902543 0.454957,0 0.4549571,0 0.040821,0.636077 c 0.029072,0.453004 0.085176,0.685089 0.1949298,0.806365 0.3311854,0.365956 1.0409648,0.353678 1.3309537,-0.02302 z"
     id="path3335"
     inkscape:connector-curvature="0" /><path
     style="fill:#0079c1;fill-opacity:1"
     d="M 5.5720339,9.4677882 C 5.481085,9.4148153 5.4237288,9.2794508 5.4237288,9.117778 c 0,-0.4985877 0.4374681,-3.4983221 0.5256808,-3.6046119 0.1340822,-0.1615591 7.9731634,-0.1542522 8.1074524,0.00756 0.09796,0.1180303 0.518524,2.9928976 0.519089,3.548329 2.54e-4,0.2247313 -0.04659,0.339918 -0.1636,0.4025424 C 14.18912,9.591064 5.7774673,9.5874422 5.5720339,9.4677882 Z"
     id="path3337"
     inkscape:connector-curvature="0" /><path
     style="fill:#0079c1;fill-opacity:1"
     d="m 13.675786,13.138692 c -0.261708,-0.04224 -0.539714,-0.375164 -0.594333,-0.711737 -0.09583,-0.59051 0.604571,-1.076432 1.147137,-0.79586 0.314749,0.162763 0.432427,0.367476 0.432427,0.75225 0,0.490367 -0.45686,0.840627 -0.985231,0.755347 z"
     id="path3339"
     inkscape:connector-curvature="0" /><path
     style="fill:#0079c1;fill-opacity:1"
     d="m 5.7905709,13.077795 c -0.323994,-0.138457 -0.4515878,-0.353902 -0.4515878,-0.762516 0,-0.826628 1.1280585,-1.076824 1.4829659,-0.328912 0.3327113,0.701137 -0.3224107,1.394403 -1.0313781,1.091428 z"
     id="path3341"
     inkscape:connector-curvature="0" /><path
     style="fill:#0079c1;fill-opacity:1"
     d="M 7.2529966,4.5968222 C 7.0879054,4.431731 7.0782963,4.1050865 7.2347121,3.9752729 c 0.082602,-0.068553 0.8924167,-0.089872 2.8085959,-0.073936 2.425398,0.02017 2.701526,0.036662 2.78322,0.1662251 0.06159,0.097674 0.06389,0.2200599 0.0072,0.3813559 l -0.0835,0.2375228 -2.681432,0.022367 C 7.7145233,4.7284457 7.3709561,4.7147818 7.2529966,4.5968222 Z"
     id="path3343"
     inkscape:connector-curvature="0" /></svg>