<?xml version="1.0"?>
<svg width="1089" height="1110" xmlns="http://www.w3.org/2000/svg" xmlns:svg="http://www.w3.org/2000/svg" preserveAspectRatio="xMidYMid meet">
 <metadata>Created by potrace 1.16, written by Peter Selinger 2001-2019</metadata>

 <g class="layer">
  <title>Layer 1</title>
  <g fill="#000000" id="svg_1" transform="translate(0, 1110) scale(0.1, -0.1)">
   <path d="m8285,10644c-11,-3 -1370,-341 -3020,-751c-1823,-453 -3018,-754 -3045,-768c-183,-93 -245,-356 -124,-532c68,-99 151,-145 274,-151c84,-4 101,0 1254,287c643,160 1171,289 1173,287c2,-2 -344,-797 -770,-1767l-775,-1764l-1234,-5c-1370,-6 -1269,-1 -1423,-74c-198,-94 -357,-290 -400,-492c-22,-104 -22,-3935 0,-4039c52,-242 264,-464 520,-541c58,-18 234,-19 4435,-22c3037,-2 4400,1 4457,8c229,30 407,111 593,270c136,118 269,318 320,485c50,166 50,147 50,1820c0,1674 0,1655 -51,1820c-104,338 -417,638 -754,724c-152,39 -221,41 -1260,41l-1010,0l-817,1893c-450,1041 -818,1897 -818,1903c0,5 586,155 1303,333c765,189 1323,333 1353,347c61,29 122,91 161,166c26,48 28,62 28,158c0,100 -1,108 -34,168c-64,119 -172,190 -298,197c-37,2 -77,2 -88,-1zm-2241,-3715c367,-793 665,-1443 663,-1445c-2,-2 -605,-3 -1339,-2l-1335,3l666,1442c366,793 669,1443 672,1443c3,0 306,-648 673,-1441zm3471,-2190c121,-22 226,-103 282,-216l28,-58l0,-970l0,-970l-1110,0l-1110,0l-3,1100c-1,605 0,1106 3,1113c6,16 1820,18 1910,1zm-6367,-1106l-3,-1108l-1115,0l-1115,0l-3,1108l-2,1107l1120,0l1120,0l-2,-1107zm3710,0l-3,-1108l-1485,0l-1485,0l-3,1108l-2,1107l1490,0l1490,0l-2,-1107z" id="svg_2" stroke="#ffffff" stroke-width="50"/>
  </g>
 </g>
</svg>