<?xml version="1.0" encoding="utf-8"?>
<!-- Generator: Adobe Illustrator 16.0.0, SVG Export Plug-In . SVG Version: 6.00 Build 0)  -->
<!DOCTYPE svg PUBLIC "-//W3C//DTD SVG 1.1//EN" "http://www.w3.org/Graphics/SVG/1.1/DTD/svg11.dtd">
<svg version="1.1" id="Layer_1" xmlns="http://www.w3.org/2000/svg" xmlns:xlink="http://www.w3.org/1999/xlink" x="0px" y="0px"
	 width="20px" height="20px" viewBox="0 0 20 20" enable-background="new 0 0 20 20" xml:space="preserve">
<path fill-rule="evenodd" clip-rule="evenodd" fill="#FFFFFF" d="M15.251,13.08h3.746c0.361,0,0.671,0.176,0.857,0.484
	c0.186,0.309,0.195,0.664,0.026,0.982c-0.435,0.822-0.791,1.154-1.551,1.664c-0.583,0.391-1.602,0.889-2.301,0.889H4.032
	c-0.783,0-1.705-0.447-2.357-0.863c-0.709-0.453-1.448-1.072-1.648-1.93C-0.044,14,0.022,13.705,0.218,13.459
	C0.414,13.211,0.686,13.08,1,13.08h3.717C3.571,10.746,3.19,6.605,2.972,3.996c-0.023-0.289,0.064-0.547,0.261-0.76
	c0.196-0.213,0.446-0.323,0.736-0.323c3.114,0,6.229,0.009,9.343,0l1.742-0.005c0.188-0.009,0.333-0.011,0.526-0.001
	c0.833,0.043,1.57,0.28,2.266,0.74c0.646,0.427,1.021,0.812,1.446,1.458c0.624,0.953,0.705,1.703,0.705,2.807v0.043
	c0,1.182-0.77,2.529-1.679,3.262c-0.991,0.797-1.688,1.016-2.731,1.068c-0.093,0.248-0.198,0.488-0.286,0.686
	C15.285,13.006,15.269,13.043,15.251,13.08z"/>
<path fill-rule="evenodd" clip-rule="evenodd" fill="#000001" d="M15.461,9.723h-0.189l0.325-2.012
	c0.058-0.332,0.085-0.68,0.137-1.063c0.039-0.294,0.106-0.734,0.106-1.093c0.74,0.063,1.579,1.031,1.579,1.895v0.316
	C17.419,8.771,16.467,9.723,15.461,9.723L15.461,9.723z M3.969,3.913c0.195,2.341,0.6,6.63,1.662,8.758
	c0.105,0.213,0.439,0.841,0.675,0.841h7.388c0.241,0,0.612-0.764,0.694-0.947c0.117-0.264,0.417-0.961,0.442-1.264
	c1.275,0,1.839-0.04,2.861-0.863c0.667-0.537,1.306-1.605,1.306-2.482V7.912c0-0.893-0.027-1.473-0.541-2.258
	c-0.361-0.551-0.631-0.822-1.162-1.174c-0.466-0.309-1.015-0.536-1.766-0.574c-0.3-0.016-0.151-0.014-0.447,0.002l-1.767,0.005
	C10.199,3.913,7.084,3.913,3.969,3.913L3.969,3.913z M4.032,16.101h11.998c0.492,0,1.407-0.493,1.743-0.72
	c0.631-0.424,0.867-0.627,1.225-1.301H1c0.131,0.561,0.767,1.029,1.212,1.314C2.604,15.645,3.435,16.101,4.032,16.101z"/>
</svg>
