<?xml version="1.0" encoding="UTF-8" standalone="no"?>
<!-- Created with Inkscape (http://www.inkscape.org/) -->

<svg
   xmlns:dc="http://purl.org/dc/elements/1.1/"
   xmlns:cc="http://creativecommons.org/ns#"
   xmlns:rdf="http://www.w3.org/1999/02/22-rdf-syntax-ns#"
   xmlns:svg="http://www.w3.org/2000/svg"
   xmlns="http://www.w3.org/2000/svg"
   xmlns:sodipodi="http://sodipodi.sourceforge.net/DTD/sodipodi-0.dtd"
   xmlns:inkscape="http://www.inkscape.org/namespaces/inkscape"
   width="28.178823mm"
   height="30.671982mm"
   viewBox="0 0 28.178824 30.671982"
   version="1.1"
   id="svg860"
   inkscape:version="0.92.3 (2405546, 2018-03-11)"
   sodipodi:docname="cafe.svg">
  <defs
     id="defs854" />
  <sodipodi:namedview
     id="base"
     pagecolor="#ffffff"
     bordercolor="#666666"
     borderopacity="1.0"
     inkscape:pageopacity="0.0"
     inkscape:pageshadow="2"
     inkscape:zoom="2.2439102"
     inkscape:cx="53.251429"
     inkscape:cy="57.982046"
     inkscape:document-units="px"
     inkscape:current-layer="layer1"
     showgrid="false"
     inkscape:window-width="792"
     inkscape:window-height="473"
     inkscape:window-x="208"
     inkscape:window-y="208"
     inkscape:window-maximized="0"
     fit-margin-top="0"
     fit-margin-left="0"
     fit-margin-right="0"
     fit-margin-bottom="0"
     inkscape:pagecheckerboard="true" />
  <metadata
     id="metadata857">
    <rdf:RDF>
      <cc:Work
         rdf:about="">
        <dc:format>image/svg+xml</dc:format>
        <dc:type
           rdf:resource="http://purl.org/dc/dcmitype/StillImage" />
        <dc:title></dc:title>
      </cc:Work>
    </rdf:RDF>
  </metadata>
  <g
     inkscape:label="Ebene 1"
     inkscape:groupmode="layer"
     id="layer1"
     transform="translate(-2.4121547,-0.91551776)">
    <path
       inkscape:connector-curvature="0"
       d="M 29,19 A 4.82076,4.82076 0 0 0 24,14 H 5 a 0.99943,0.99943 0 0 0 -1,1 v 4.05273 A 9.99582,9.99582 0 0 0 9.37592,28 H 8 a 1,1 0 0 0 0,2 h 13 a 1,1 0 0 0 0,-2 h -1.37592 a 9.744,9.744 0 0 0 4.13135,-4.04376 C 25.902,23.72925 29,22.51532 29,19 Z m -13.5,8 h -2 A 7.74217,7.74217 0 0 1 6,19.05273 V 16 h 17 v 3.05273 A 7.74217,7.74217 0 0 1 15.5,27 Z m 9.13672,-5.25452 A 10.336,10.336 0 0 0 25,19.05273 V 16.15631 A 2.682,2.682 0 0 1 27,19 2.84949,2.84949 0 0 1 24.63672,21.74548 Z M 17,9.75 A 3.18126,3.18126 0 0 1 19.26855,6.626 1.00828,1.00828 0 0 0 20,5.668 2.69263,2.69263 0 0 0 18.30566,3.459 0.5,0.5 0 1 1 18.70215,2.541 3.70605,3.70605 0 0 1 21,5.68359 2.002,2.002 0 0 1 19.63574,7.55566 2.21,2.21 0 0 0 18,9.75 c 0,1.25293 1.62988,1.7666 1.64648,1.77148 A 0.50034,0.50034 0 0 1 19.5,12.5 0.507,0.507 0 0 1 19.35352,12.47852 C 19.25781,12.44824 17,11.7334 17,9.75 Z m -5,0 A 3.18126,3.18126 0 0 1 14.26855,6.626 1.00828,1.00828 0 0 0 15,5.668 2.69263,2.69263 0 0 0 13.30566,3.459 0.5,0.5 0 1 1 13.70215,2.541 3.70605,3.70605 0 0 1 16,5.68359 2.002,2.002 0 0 1 14.63574,7.55566 2.21,2.21 0 0 0 13,9.75 c 0,1.25293 1.62988,1.7666 1.64648,1.77148 A 0.50034,0.50034 0 0 1 14.5,12.5 0.507,0.507 0 0 1 14.35352,12.47852 C 14.25781,12.44824 12,11.7334 12,9.75 Z m -5,0 A 3.18126,3.18126 0 0 1 9.26855,6.626 1.00828,1.00828 0 0 0 10,5.668 2.69263,2.69263 0 0 0 8.30566,3.459 0.5,0.5 0 1 1 8.70215,2.541 3.70605,3.70605 0 0 1 11,5.68359 2.002,2.002 0 0 1 9.63574,7.55566 2.21,2.21 0 0 0 8,9.75 c 0,1.25293 1.62988,1.7666 1.64648,1.77148 A 0.50034,0.50034 0 0 1 9.5,12.5 0.507,0.507 0 0 1 9.35352,12.47852 C 9.25781,12.44824 7,11.7334 7,9.75 Z"
       id="path10"
       style="fill:#ffffff;fill-opacity:1;stroke:#ffffff;stroke-width:3.17500019;stroke-miterlimit:4;stroke-dasharray:none;stroke-opacity:1" />
    <path
       style="opacity:1;fill:#ffffff;fill-opacity:1;stroke:#ffffff;stroke-width:0.38178992;stroke-linecap:square;stroke-miterlimit:4;stroke-dasharray:none;stroke-opacity:1"
       d="M 33.545222,92.073183 C 22.173931,90.316959 12.887661,81.980645 9.932444,70.875916 9.445786,69.047216 9.1972566,65.531122 9.1932775,60.418485 l -0.00599,-7.702413 h 31.0621915 31.06219 v 7.722566 c 0,5.209894 -0.244709,8.662073 -0.752104,10.610089 -2.474737,9.501161 -10.760013,17.80795 -20.249702,20.30229 -3.751049,0.985954 -12.591037,1.366751 -16.764636,0.722166 z"
       id="path1448"
       inkscape:connector-curvature="0"
       transform="matrix(0.26458334,0,0,0.26458334,3.8396541,2.3328309)" />
    <path
       style="opacity:1;fill:#ffffff;fill-opacity:1;stroke:#ffffff;stroke-width:0.38178992;stroke-linecap:square;stroke-miterlimit:4;stroke-dasharray:none;stroke-opacity:1"
       d="m 80.131095,70.772549 c 0.193023,-0.625032 0.476785,-4.71615 0.630583,-9.091373 0.153799,-4.375223 0.385041,-7.954952 0.513873,-7.954952 0.128831,0 0.899503,0.47371 1.712602,1.052688 4.811775,3.426286 4.536362,12.474756 -0.483525,15.885858 -2.268916,1.541768 -2.824164,1.566981 -2.373533,0.107779 z"
       id="path1450"
       inkscape:connector-curvature="0"
       transform="matrix(0.26458334,0,0,0.26458334,3.8396541,2.3328309)" />
    <path
       inkscape:connector-curvature="0"
       d="m 29,18.999999 a 4.82076,4.82076 0 0 0 -5,-5 H 5 a 0.99943,0.99943 0 0 0 -1,1 v 4.05273 a 9.99582,9.99582 0 0 0 5.3759199,8.94727 H 8 A 1.0000005,1.0000005 0 0 0 8,30 h 13 a 1.0000005,1.0000005 0 0 0 0,-2.000001 h -1.37592 a 9.7439999,9.7439999 0 0 0 4.13135,-4.04376 C 25.902,23.729249 29,22.515319 29,18.999999 Z m -13.5,8 h -2 A 7.7421698,7.7421698 0 0 1 6,19.052729 v -3.05273 h 17 v 3.05273 a 7.7421698,7.7421698 0 0 1 -7.5,7.94727 z m 9.13672,-5.25452 A 10.336,10.336 0 0 0 25,19.052729 v -2.89642 a 2.682,2.682 0 0 1 2,2.84369 2.84949,2.84949 0 0 1 -2.36328,2.74548 z M 17,9.749999 a 3.1812601,3.1812601 0 0 1 2.26855,-3.124 A 1.00828,1.00828 0 0 0 20,5.6679988 2.6926299,2.6926299 0 0 0 18.30566,3.4589989 0.49999998,0.49999998 0 1 1 18.70215,2.5409989 3.70605,3.70605 0 0 1 21,5.6835888 2.002,2.002 0 0 1 19.63574,7.5556588 2.21,2.21 0 0 0 18,9.749999 c 0,1.25293 1.62988,1.7666 1.64648,1.77148 A 0.50034,0.50034 0 0 1 19.5,12.499999 0.50699999,0.50699999 0 0 1 19.35352,12.47852 C 19.25781,12.448239 17,11.733399 17,9.749999 Z m -5,0 a 3.1812601,3.1812601 0 0 1 2.26855,-3.124 A 1.00828,1.00828 0 0 0 15,5.6679988 2.6926299,2.6926299 0 0 0 13.30566,3.4589989 0.49999998,0.49999998 0 1 1 13.70215,2.5409989 3.70605,3.70605 0 0 1 16,5.6835888 2.002,2.002 0 0 1 14.63574,7.5556588 2.21,2.21 0 0 0 13,9.749999 c 0,1.25293 1.62988,1.7666 1.64648,1.77148 A 0.50034,0.50034 0 0 1 14.5,12.499999 0.50699999,0.50699999 0 0 1 14.35352,12.47852 C 14.25781,12.448239 12,11.733399 12,9.749999 Z m -5.0000001,0 a 3.1812601,3.1812601 0 0 1 2.26855,-3.124 A 1.00828,1.00828 0 0 0 10,5.6679988 2.6926299,2.6926299 0 0 0 8.3056599,3.4589989 0.49999998,0.49999998 0 1 1 8.70215,2.5409989 3.70605,3.70605 0 0 1 11,5.6835888 2.002,2.002 0 0 1 9.6357399,7.5556588 2.21,2.21 0 0 0 8,9.749999 c 0,1.25293 1.62988,1.7666 1.6464799,1.77148 A 0.50034,0.50034 0 0 1 9.5,12.499999 0.50699999,0.50699999 0 0 1 9.35352,12.47852 C 9.2578099,12.448239 6.9999999,11.733399 6.9999999,9.749999 Z"
       id="path10-2"
       style="fill:#ef883a;fill-opacity:1;stroke:#ffffff;stroke-width:0;stroke-miterlimit:4;stroke-dasharray:none;stroke-opacity:1" />
  </g>
</svg>
