<?xml version="1.0"?>
<svg width="495" height="441" xmlns="http://www.w3.org/2000/svg" xmlns:svg="http://www.w3.org/2000/svg" preserveAspectRatio="xMidYMid meet">
 <metadata>Created by potrace 1.16, written by Peter Selinger 2001-2019</metadata>

 <g class="layer">
  <title>background</title>
  <rect fill="none" height="602" id="canvas_background" width="802" x="-1" y="-1"/>
 </g>
 <g class="layer">
  <title>Layer 1</title>
  <g fill="#575757" id="svg_1" transform="translate(0, 441) scale(0.1, -0.1)">
   <path d="m2034,4025c-48,-21 -86,-71 -288,-375l-189,-285l-414,-310c-330,-247 -420,-319 -440,-353c-23,-38 -35,-114 -133,-800c-115,-802 -115,-795 -72,-864c31,-49 661,-673 702,-694c33,-18 84,-19 1095,-22c748,-2 1075,0 1111,8c47,10 102,51 602,451c469,375 553,446 571,483c21,43 21,49 19,828l-3,785l-215,324c-118,178 -228,338 -244,357c-23,26 -135,86 -478,258l-449,224l-572,-1c-456,0 -578,-3 -603,-14zm1438,-581l373,-186l173,-259l172,-259l0,-642l0,-643l-448,-357l-447,-358l-960,0l-960,0l-243,243l-242,242l90,630c49,346 94,631 99,634c4,3 182,136 395,296l386,290l185,277l185,278l435,0l435,0l372,-186z" id="svg_2" stroke="#ffffff" stroke-width="50"/>
   <path d="m2907,3208c-55,-11 -93,-34 -121,-70c-31,-42 -50,-117 -42,-164c4,-19 92,-206 197,-415l189,-379l-190,-380c-104,-208 -192,-396 -196,-417c-14,-88 45,-186 132,-219c60,-23 135,-14 189,23c37,26 60,68 274,493c230,459 233,465 228,516c-4,40 -50,140 -225,490c-184,368 -227,446 -261,477c-23,20 -44,37 -49,37c-4,1 -25,4 -47,9c-22,4 -57,4 -78,-1z" id="svg_3" stroke="#ffffff" stroke-width="50"/>
   <path d="m1639,2376c-90,-32 -139,-101 -139,-194c0,-47 19,-89 224,-499c138,-276 235,-458 252,-475c133,-125 345,-35 345,147c0,48 -17,87 -224,502c-240,479 -254,500 -334,522c-49,14 -80,13 -124,-3z" id="svg_4" stroke="#ffffff" stroke-width="100"/>
  </g>
 </g>
</svg>