<?xml version="1.0" encoding="UTF-8" standalone="no"?>
<svg
   xmlns:dc="http://purl.org/dc/elements/1.1/"
   xmlns:cc="http://creativecommons.org/ns#"
   xmlns:rdf="http://www.w3.org/1999/02/22-rdf-syntax-ns#"
   xmlns:svg="http://www.w3.org/2000/svg"
   xmlns="http://www.w3.org/2000/svg"
   id="svg6"
   version="1.1"
   viewBox="0 0 580 580"
   height="580"
   width="580">
  <metadata
     id="metadata12">
    <rdf:RDF>
      <cc:Work
         rdf:about="">
        <dc:format>image/svg+xml</dc:format>
        <dc:type
           rdf:resource="http://purl.org/dc/dcmitype/StillImage" />
        <dc:title></dc:title>
      </cc:Work>
    </rdf:RDF>
  </metadata>
  <defs
     id="defs10" />
  <path
     id="path2"
     stroke="#fff"
     fill="none"
     stroke-width="64"
     color="#000"
     opacity=".8"
     solid-color="#000000"
     d="M366.42 278.6c0 23.12-47.018 60.465-87.11 60.465-82.752 0-63.88-28.043-63.88-51.16 0-23.12 23.79-32.56 63.88-32.56 40.092 0 87.11-18.603 87.11 23.256zM437.835 410.947c-1.024 33.008-121.26 56.064-202.586 53.544-81.327-2.52-81.812-27.935-91.92-62.67-11.93-40.99 68.927-41.213 149.104-55.202 86.263-15.05 146.424 31.32 145.4 64.33zM340.43 219.493c0 15.386-26.376 16.96-48.45 16.96-22.078 0-43.503-1.18-48.454-15.75-17.292-50.873 26.376-39.972 48.453-39.972 22.075 0 48.45 0 48.45 38.763zM319.54 138.336c0 12.71-8.95 23.014-19.988 23.014s-39.092-5.458-39.092-18.17c0-12.71 28.054-27.86 39.092-27.86 11.04 0 19.987 10.305 19.987 23.016z" />
  <path
     style="fill:#000000;fill-opacity:1"
     id="path4"
     fill="#666"
     color="#000"
     solid-color="#000000"
     d="M366.42 278.6c0 23.12-47.018 60.465-87.11 60.465-82.752 0-63.88-28.043-63.88-51.16 0-23.12 23.79-32.56 63.88-32.56 40.092 0 87.11-18.603 87.11 23.256zM437.835 410.947c-1.024 33.008-121.26 56.064-202.586 53.544-81.327-2.52-81.812-27.935-91.92-62.67-11.93-40.99 68.927-41.213 149.104-55.202 86.263-15.05 146.424 31.32 145.4 64.33zM340.43 219.493c0 15.386-26.376 16.96-48.45 16.96-22.078 0-43.503-1.18-48.454-15.75-17.292-50.873 26.376-39.972 48.453-39.972 22.075 0 48.45 0 48.45 38.763zM319.54 138.336c0 12.71-8.95 23.014-19.988 23.014s-39.092-5.458-39.092-18.17c0-12.71 28.054-27.86 39.092-27.86 11.04 0 19.987 10.305 19.987 23.016z" />
</svg>
