<?xml version="1.0" encoding="utf-8"?>
<!-- Generator: Adobe Illustrator 16.0.0, SVG Export Plug-In . SVG Version: 6.00 Build 0)  -->
<!DOCTYPE svg PUBLIC "-//W3C//DTD SVG 1.1//EN" "http://www.w3.org/Graphics/SVG/1.1/DTD/svg11.dtd">
<svg version="1.1" id="Layer_1" xmlns="http://www.w3.org/2000/svg" xmlns:xlink="http://www.w3.org/1999/xlink" x="0px" y="0px"
	 width="20px" height="20px" viewBox="0 0 20 20" enable-background="new 0 0 20 20" xml:space="preserve">
<path fill-rule="evenodd" clip-rule="evenodd" fill="#FFFFFF" d="M11.66,4.767L18.075,16h0.923c0.551,0,1,0.449,1,1v1.063
	c0,0.551-0.449,0.999-1,0.999H1.001c-0.551,0-0.999-0.448-0.999-0.999V17c0-0.551,0.448-1,0.999-1h0.924L7.827,5.664
	c0.021-0.066,0.05-0.131,0.085-0.193l0.375-0.648L7.168,2.883c-0.275-0.477-0.111-1.09,0.366-1.366L8.308,1.07
	c0.478-0.275,1.091-0.111,1.366,0.366l0.284,0.493l0.284-0.493c0.275-0.477,0.889-0.641,1.365-0.366l0.774,0.447
	c0.477,0.275,0.642,0.889,0.366,1.366L11.66,4.767z"/>
<path fill-rule="evenodd" clip-rule="evenodd" fill="#000001" d="M10.507,4.764l3.266,5.719L17.494,17h1.504v1.063H1.001V17h1.504
	l3.722-6.518l2.57-4.5L8.778,5.971l0.663-1.148L8.034,2.383l0.773-0.447l1.15,1.992l1.149-1.992l0.774,0.447L10.507,4.764
	L10.507,4.764z M10,11.753l-1.241,2.661l-1.242,2.66H10h2.482l-1.241-2.66L10,11.753z"/>
</svg>
