<?xml version="1.0"?>
<svg width="506" height="505" xmlns="http://www.w3.org/2000/svg" xmlns:svg="http://www.w3.org/2000/svg" preserveAspectRatio="xMidYMid meet">
 <metadata>Created by potrace 1.16, written by Peter Selinger 2001-2019</metadata>

 <g class="layer">
  <title>Layer 1</title>
  <g fill="#575757" id="svg_1" transform="translate(0, 505) scale(0.1, -0.1)">
   <path d="m4076,4726c-79,-29 -126,-97 -126,-183c-1,-42 20,-90 177,-406l178,-357l-178,-355c-159,-318 -177,-360 -177,-405c0,-45 20,-91 206,-463c113,-226 213,-420 223,-431c34,-38 91,-58 152,-54c102,7 166,72 177,178c4,42 -8,69 -177,408l-181,362l181,363c177,354 181,363 176,413c-4,40 -46,133 -202,445c-109,217 -206,406 -217,422c-41,57 -143,88 -212,63z" id="svg_2" stroke="#ffffff" stroke-width="50"/>
   <path d="m641,4155c-82,-26 -131,-93 -131,-182c-1,-42 20,-90 177,-405l178,-358l-178,-357c-153,-309 -178,-364 -177,-403c2,-164 186,-248 311,-142c22,18 90,143 241,446c206,414 210,422 205,472c-4,40 -46,133 -202,445c-109,217 -206,406 -217,422c-41,57 -134,85 -207,62z" id="svg_3" stroke="#ffffff" stroke-width="50"/>
   <path d="m2265,2154c-176,-59 -331,-115 -345,-125c-14,-9 -121,-161 -238,-336l-212,-318l-80,-400c-44,-220 -83,-408 -86,-417c-5,-16 -25,-18 -232,-18c-200,0 -232,-3 -268,-19c-141,-64 -141,-278 0,-342c37,-17 70,-19 362,-19c214,0 332,4 355,11c40,14 85,53 105,92c9,16 57,239 109,497l94,468l163,245l162,244l217,72l217,72l314,-157l314,-157l77,-231l77,-231l0,-385c0,-353 2,-388 19,-425c22,-47 64,-89 104,-104c18,-7 176,-11 450,-11c388,0 425,2 462,19c65,29 115,104 115,171c0,34 -22,91 -47,121c-56,66 -74,69 -415,69l-308,0l0,302l0,303l-106,318c-72,216 -114,327 -131,348c-33,39 -828,437 -888,445c-33,4 -100,-15 -360,-102z" id="svg_4" stroke="#ffffff" stroke-width="50"/>
  </g>
 </g>
</svg>