<?xml version="1.0" encoding="utf-8"?>
<!-- Generator: Adobe Illustrator 16.0.0, SVG Export Plug-In . SVG Version: 6.00 Build 0)  -->
<!DOCTYPE svg PUBLIC "-//W3C//DTD SVG 1.1//EN" "http://www.w3.org/Graphics/SVG/1.1/DTD/svg11.dtd">
<svg version="1.1" id="Layer_1" xmlns="http://www.w3.org/2000/svg" xmlns:xlink="http://www.w3.org/1999/xlink" x="0px" y="0px"
	 width="20px" height="20px" viewBox="0 0 20 20" enable-background="new 0 0 20 20" xml:space="preserve">
<path fill-rule="evenodd" clip-rule="evenodd" fill="#FFFFFF" d="M2.735,13.889V9.975c0-3.997,3.267-7.264,7.265-7.264
	c3.997,0,7.265,3.267,7.265,7.264v3.914h1.733c0.551,0,1,0.449,1,1v1.4c0,0.551-0.449,1-1,1h-5.251c-0.551,0-1-0.449-1-1v-6.75
	c0-1.779-1.459-3.238-3.238-3.238S6.27,7.76,6.27,9.539v6.75c0,0.551-0.449,1-1,1H1.001c-0.551,0-1-0.449-1-1v-1.4
	c0-0.551,0.449-1,1-1H2.735z"/>
<path fill-rule="evenodd" clip-rule="evenodd" fill="#000001" d="M1.001,14.889h2.733V9.975c0-3.445,2.82-6.264,6.266-6.264l0,0
	c3.446,0,6.265,2.818,6.265,6.264v4.914h2.733v1.4h-2.733h-1.229h-1.289v-6.75c0-2.33-1.907-4.238-4.238-4.238l0,0
	c-2.331,0-4.238,1.908-4.238,4.238v6.75H4.349H3.734H1.001V14.889z"/>
</svg>
