<?xml version="1.0"?>
<svg width="1017" height="1119" xmlns="http://www.w3.org/2000/svg" xmlns:svg="http://www.w3.org/2000/svg" preserveAspectRatio="xMidYMid meet">
 <metadata>Created by potrace 1.16, written by Peter Selinger 2001-2019</metadata>

 <g class="layer">
  <title>background</title>
  <rect fill="none" height="602" id="canvas_background" width="802" x="-1" y="-1"/>
 </g>
 <g class="layer">
  <title>Layer 1</title>
  <g fill="#000000" id="svg_1" transform="translate(0, 1119) scale(0.1, -0.1)">
   <path d="m7965,10643c-11,-3 -1367,-340 -3013,-749c-2258,-561 -3006,-750 -3043,-771c-60,-32 -109,-84 -146,-155c-26,-49 -28,-62 -28,-168c0,-132 12,-166 91,-250c91,-97 213,-134 351,-106c43,9 620,151 1283,316c663,165 1213,300 1223,300c16,0 17,-57 17,-1050l0,-1050l-1627,-3c-1503,-2 -1633,-4 -1691,-20c-156,-42 -314,-154 -402,-282c-57,-85 -629,-1232 -664,-1333c-75,-216 -71,-134 -71,-1502l0,-1225l23,-64c57,-157 183,-285 337,-344l60,-22l1272,-3l1273,-2l0,-555l0,-555l-740,0l-740,0l0,-370l0,-370l1485,0l1485,0l0,370l0,370l-370,0l-370,0l0,555l0,555l1110,0l1110,0l0,-555l0,-555l-370,0l-370,0l0,-370l0,-370l1485,0l1485,0l0,370l0,370l-740,0l-740,0l0,555l0,555l1253,0c1361,0 1295,-2 1416,56c79,38 199,160 239,244c65,132 63,88 59,1404c-3,1173 -3,1192 -24,1284c-45,193 -53,212 -499,1088c-135,263 -220,420 -252,459c-90,112 -224,200 -367,242c-56,17 -171,18 -1687,21l-1628,2l0,1148l0,1147l1343,334c738,183 1362,340 1387,349c104,34 185,119 220,231c48,153 0,301 -132,407c-71,56 -208,88 -293,67zm863,-4976c163,-321 290,-584 303,-627c18,-58 23,-100 23,-185l1,-110l-4082,-3l-4083,-2l0,113c0,81 5,132 20,182c12,44 124,278 300,628l281,557l3479,0l3478,0l280,-553zm-5610,-2219l-3,-553l-1112,-3l-1113,-2l0,555l0,555l1115,0l1115,0l-2,-552zm2962,-3l0,-555l-1110,0l-1110,0l0,555l0,555l1110,0l1110,0l0,-555zm2978,3l-3,-553l-1112,-3l-1113,-2l0,555l0,555l1115,0l1115,0l-2,-552z" id="svg_2" stroke="#ffffff" stroke-width="50"/>
  </g>
 </g>
</svg>