<?xml version="1.0" encoding="utf-8"?>
<!-- Generator: Adobe Illustrator 16.0.0, SVG Export Plug-In . SVG Version: 6.00 Build 0)  -->
<!DOCTYPE svg PUBLIC "-//W3C//DTD SVG 1.1//EN" "http://www.w3.org/Graphics/SVG/1.1/DTD/svg11.dtd">
<svg version="1.1" id="Layer_1" xmlns="http://www.w3.org/2000/svg" xmlns:xlink="http://www.w3.org/1999/xlink" x="0px" y="0px"
	 width="20px" height="20px" viewBox="0 0 20 20" enable-background="new 0 0 20 20" xml:space="preserve">
<path fill-rule="evenodd" clip-rule="evenodd" fill="#FFFFFF" d="M12.013,10.846c1.676,0.773,2.783,2.465,2.783,4.355
	c0,2.648-2.146,4.797-4.796,4.797c-2.649,0-4.796-2.148-4.796-4.797c0-1.891,1.108-3.582,2.784-4.355V6.531H6.299
	c-0.551,0-1-0.449-1-1V3.507c0-0.551,0.449-0.999,1-0.999h1.688V1.002c0-0.551,0.449-1,1-1h2.025c0.551,0,1,0.449,1,1v1.506H13.7
	c0.551,0,1,0.448,1,0.999v2.024c0,0.551-0.449,1-1,1h-1.688V10.846z"/>
<path fill-rule="evenodd" clip-rule="evenodd" fill="#000001" d="M11.013,11.541c1.605,0.443,2.784,1.914,2.784,3.66
	c0,2.098-1.7,3.797-3.797,3.797c-2.097,0-3.797-1.699-3.797-3.797c0-1.746,1.179-3.217,2.785-3.66v-6.01H6.299V3.507h2.688V1.002
	h2.025v2.505H13.7v2.024h-2.688V11.541z"/>
</svg>
