<?xml version="1.0" encoding="utf-8"?>
<!-- Generator: Adobe Illustrator 16.0.0, SVG Export Plug-In . SVG Version: 6.00 Build 0)  -->
<!DOCTYPE svg PUBLIC "-//W3C//DTD SVG 1.1//EN" "http://www.w3.org/Graphics/SVG/1.1/DTD/svg11.dtd">
<svg version="1.1" id="Layer_1" xmlns="http://www.w3.org/2000/svg" xmlns:xlink="http://www.w3.org/1999/xlink" x="0px" y="0px"
	 width="20px" height="20px" viewBox="0 0 20 20" enable-background="new 0 0 20 20" xml:space="preserve">
<path fill-rule="evenodd" clip-rule="evenodd" fill="#FFFFFF" d="M12.013,10.846c1.676,0.773,2.784,2.465,2.784,4.355
	c0,2.648-2.147,4.797-4.797,4.797c-2.648,0-4.797-2.148-4.797-4.797c0-1.891,1.109-3.582,2.785-4.355V6.531H6.3
	c-0.551,0-1-0.449-1-1V3.507c0-0.55,0.449-0.999,1-0.999h1.688V1.002c0-0.551,0.448-1,0.999-1h2.025c0.551,0,1,0.449,1,1v1.506
	h1.688c0.551,0,1,0.449,1,0.999v2.024c0,0.551-0.449,1-1,1h-1.688V10.846L12.013,10.846z M10,13.693
	c-0.833,0-1.508,0.676-1.508,1.508c0,0.834,0.675,1.508,1.508,1.508s1.508-0.674,1.508-1.508C11.508,14.369,10.833,13.693,10,13.693
	z"/>
<path fill-rule="evenodd" clip-rule="evenodd" fill="#000001" d="M11.013,11.541c1.605,0.443,2.784,1.914,2.784,3.66
	c0,2.098-1.7,3.797-3.797,3.797s-3.797-1.699-3.797-3.797c0-1.746,1.179-3.217,2.784-3.66v-6.01H6.3V3.507h2.688V1.002h2.025v2.505
	h2.688v2.024h-2.688V11.541L11.013,11.541z M10,12.693c-1.385,0-2.507,1.123-2.507,2.508S8.615,17.709,10,17.709
	s2.508-1.123,2.508-2.508S11.385,12.693,10,12.693z"/>
</svg>
