<?xml version="1.0"?>
<svg width="721" height="924" xmlns="http://www.w3.org/2000/svg" xmlns:svg="http://www.w3.org/2000/svg" preserveAspectRatio="xMidYMid meet">
 <metadata>Created by potrace 1.16, written by Peter Selinger 2001-2019</metadata>

 <g class="layer">
  <title>Layer 1</title>
  <g fill="#000000" id="svg_1" transform="translate(0, 924) scale(0.1, -0.1)">
   <path d="m6520,9060c-25,-5 -1386,-342 -3025,-749c-2104,-522 -2995,-748 -3032,-767c-66,-33 -127,-99 -161,-172c-23,-49 -27,-70 -27,-152c0,-88 3,-101 33,-162c63,-129 177,-200 322,-201c66,0 225,37 1330,312c690,171 1261,313 1268,316c9,3 12,-655 12,-3270l0,-3275l-500,0l-500,0l-512,342c-282,188 -537,353 -567,366c-115,53 -255,39 -360,-35c-188,-132 -211,-403 -49,-559c69,-67 1186,-801 1253,-824c57,-20 87,-20 1609,-20c1447,1 1554,2 1601,18c63,22 1216,781 1269,836c21,22 51,65 65,95c22,48 26,70 26,151c0,82 -4,103 -27,152c-37,80 -105,149 -181,184c-55,26 -73,29 -157,29c-81,0 -103,-4 -150,-26c-30,-14 -286,-179 -568,-367l-512,-342l-500,0l-500,0l2,3366l3,3367l1360,338c748,186 1381,348 1407,360c102,47 186,172 195,293c20,244 -191,440 -427,396z" id="svg_2" stroke="#ffffff" stroke-width="50"/>
  </g>
 </g>
</svg>