<?xml version="1.0" encoding="UTF-8" standalone="no"?>
<!-- Generator: Adobe Illustrator 16.0.0, SVG Export Plug-In . SVG Version: 6.00 Build 0)  -->

<svg
   xmlns:dc="http://purl.org/dc/elements/1.1/"
   xmlns:cc="http://creativecommons.org/ns#"
   xmlns:rdf="http://www.w3.org/1999/02/22-rdf-syntax-ns#"
   xmlns:svg="http://www.w3.org/2000/svg"
   xmlns="http://www.w3.org/2000/svg"
   xmlns:sodipodi="http://sodipodi.sourceforge.net/DTD/sodipodi-0.dtd"
   xmlns:inkscape="http://www.inkscape.org/namespaces/inkscape"
   version="1.1"
   id="Layer_1"
   x="0px"
   y="0px"
   width="20px"
   height="20px"
   viewBox="0 0 20 20"
   enable-background="new 0 0 20 20"
   xml:space="preserve"
   inkscape:version="0.91 r13725"
   sodipodi:docname="drinking_water.svg"><metadata
     id="metadata15"><rdf:RDF><cc:Work
         rdf:about=""><dc:format>image/svg+xml</dc:format><dc:type
           rdf:resource="http://purl.org/dc/dcmitype/StillImage" /></cc:Work></rdf:RDF></metadata><defs
     id="defs13" /><sodipodi:namedview
     pagecolor="#ffffff"
     bordercolor="#666666"
     borderopacity="1"
     objecttolerance="10"
     gridtolerance="10"
     guidetolerance="10"
     inkscape:pageopacity="0"
     inkscape:pageshadow="2"
     inkscape:window-width="1680"
     inkscape:window-height="988"
     id="namedview11"
     showgrid="false"
     inkscape:zoom="11.8"
     inkscape:cx="10"
     inkscape:cy="10"
     inkscape:window-x="-8"
     inkscape:window-y="2"
     inkscape:window-maximized="1"
     inkscape:current-layer="Layer_1" /><path
     fill-rule="evenodd"
     clip-rule="evenodd"
     fill="#FFFFFF"
     d="M10,19.998c5.507,0,9.998-4.492,9.998-9.998  c0-5.508-4.491-9.998-9.998-9.998S0.002,4.492,0.002,10C0.002,15.506,4.493,19.998,10,19.998z"
     id="path3" /><path
     fill-rule="evenodd"
     clip-rule="evenodd"
     fill="#2B4EA1"
     d="M10,18.998c4.956,0,8.998-4.043,8.998-8.998  c0-4.957-4.042-8.999-8.998-8.999S1.001,5.043,1.001,10C1.001,14.955,5.044,18.998,10,18.998z"
     id="path5"
     style="fill:#001aff;fill-opacity:1" /><path
     fill-rule="evenodd"
     clip-rule="evenodd"
     fill="#FFFFFF"
     d="M7.555,17.164h4.891l1.146-7.967H6.408L7.555,17.164L7.555,17.164z   M12.263,11.92H7.736l-0.259-1.797h5.044L12.263,11.92z"
     id="path7" /><path
     fill-rule="evenodd"
     clip-rule="evenodd"
     fill="#FFFFFF"
     d="M10.896,2.276c-0.088,0.365-0.104,0.132,0,0.574  c0.453,0.105,0.479,0.064,1.021,0.064v0.574l-0.574,0.064l-0.064,0.573c-0.928,0-1.614,0.051-2.251,0.624  C7.968,5.705,8.149,6.249,8.149,7.832h1.533c0.663,0-0.71-2.107,1.661-2.107c0.18,0,0.388,0.412,0.966,0.426  c0.528,0.012,0.85-0.426,1.014-0.426h4.597c-0.311-0.572-0.68-1.107-1.102-1.598h-3.432c0-0.693-0.034-0.638-0.639-0.638V2.915  c0.543,0,0.569,0.041,1.022-0.064V2.276c-0.113-0.026-0.346-0.049-0.632-0.064h-1.822C11.121,2.227,10.97,2.247,10.896,2.276z"
     id="path9" /><path
     style="fill:#0079c1;fill-opacity:1"
     d="M 8.7782623,18.872307 C 7.4969478,18.685433 6.226811,18.207107 5.1526099,17.506908 1.4086091,15.066445 0.00413105,10.280855 1.8605356,6.2895609 3.2228388,3.3605912 6.0828621,1.3309143 9.1737288,1.0995966 11.87027,0.89778977 14.221969,1.713755 16.186441,3.5327858 l 0.550847,0.5100651 -1.668359,0.004 -1.66836,0.004 -0.02656,-0.2754238 c -0.02335,-0.2421801 -0.0598,-0.278629 -0.30198,-0.3019795 -0.24218,-0.023351 -0.275424,-0.056594 -0.275424,-0.2754237 0,-0.2402158 0.014,-0.248913 0.402543,-0.2501657 0.527411,-0.0017 0.633257,-0.077852 0.599506,-0.4313179 L 13.771186,2.2288136 12.355764,2.2055965 C 11.02597,2.183784 10.934986,2.1923847 10.85183,2.3477624 c -0.09305,0.1738597 -0.03712,0.4313013 0.116565,0.5365331 0.05001,0.034244 0.272071,0.062846 0.493469,0.063559 0.390484,0.00126 0.402543,0.00891 0.402543,0.255535 0,0.1941268 -0.03843,0.2542373 -0.16256,0.2542373 -0.306866,0 -0.430661,0.098945 -0.430661,0.3442098 0,0.2627828 -0.03259,0.2748616 -0.989967,0.3669195 C 9.7134331,4.2233526 9.290854,4.4471048 8.7962805,4.9550192 8.2288358,5.5377703 8.1355932,5.816844 8.1355932,6.9324461 l 0,0.93789 0.8686441,-0.024151 0.8686441,-0.024151 0.04449,-0.7417164 c 0.05422,-0.903935 0.2075908,-1.1116333 0.9325618,-1.2628979 0.443203,-0.092474 0.478559,-0.086508 0.802609,0.1354364 0.280381,0.1920343 0.406702,0.2258338 0.730699,0.1955111 0.215443,-0.020163 0.507347,-0.1189979 0.648675,-0.2196324 0.24806,-0.1766345 0.336444,-0.182972 2.551772,-0.182972 l 2.294813,0 0.201541,0.4025424 c 0.685589,1.3693335 1.008049,3.2332603 0.824685,4.7669489 -0.350922,2.935183 -1.932841,5.362375 -4.468176,6.855679 -1.591381,0.937317 -3.815202,1.37018 -5.6582887,1.101374 z m 3.7198217,-1.876544 c 0.02403,-0.104873 0.271934,-1.792373 0.550903,-3.75 0.278971,-1.957627 0.528716,-3.683263 0.55499,-3.8347461 l 0.04777,-0.2754237 -3.651748,0 -3.651748,0 0.047531,0.2754237 c 0.026142,0.1514831 0.2764612,1.8771191 0.5562645,3.8347461 0.2798034,1.957627 0.5278181,3.645127 0.5511438,3.75 l 0.04241,0.190678 2.454398,0 2.454398,0 0.04369,-0.190678 z"
     id="path3336"
     inkscape:connector-curvature="0" /><path
     style="fill:#0079c1;fill-opacity:1"
     d="M 7.7587921,11.742937 C 7.722854,11.628061 7.5423729,10.36955 7.5423729,10.233826 c 0,-0.05001 0.9454827,-0.08128 2.4576271,-0.08128 2.286525,0 2.457184,0.01032 2.451261,0.148305 -0.0035,0.08157 -0.05148,0.45339 -0.106612,0.826272 l -0.100247,0.677966 -2.226014,0.0226 c -1.7380472,0.01764 -2.2333757,-9.33e-4 -2.2595959,-0.08474 z"
     id="path3338"
     inkscape:connector-curvature="0" /></svg>