<?xml version="1.0" encoding="UTF-8" standalone="no"?>
<svg id="Layer_1" xmlns:rdf="http://www.w3.org/1999/02/22-rdf-syntax-ns#" xmlns="http://www.w3.org/2000/svg" version="1.1" xml:space="preserve" height="20px" viewBox="0 0 20 20" width="20px" enable-background="new 0 0 20 20" y="0px" x="0px" xmlns:cc="http://creativecommons.org/ns#" xmlns:dc="http://purl.org/dc/elements/1.1/"><g id="g3" clip-rule="evenodd" fill-rule="evenodd"><path id="path3" d="m11.691 8.297h3.933c0.137 0 0.273 0.02 0.405 0.059 1.533 0.44 1.688 2.826-0.045 3.275-0.324 0.476-0.727 0.88-1.193 1.238-0.015 0.01-0.027 0.02-0.042 0.029l-0.604 0.416c-0.008 0.004-0.015 0.01-0.022 0.014-0.126 0.082-0.247 0.133-0.373 0.203-0.414 0.234-0.869 0.426-1.344 0.574v0.414h5.854c0.883 0 1.602 0.59 1.729 1.469 0.007 0.049 0.01 0.092 0.01 0.143v0.225c0 0.051-0.003 0.094-0.011 0.145-0.032 0.221-0.106 0.434-0.224 0.621-0.256 0.412-0.576 0.632-0.968 0.732l-0.271 0.416c-0.024 0.037-0.048 0.068-0.076 0.102-0.796 0.935-2.035 1.627-3.282 1.627h-10.334c-0.834 0-1.776-0.371-2.448-0.855-0.541-0.391-0.861-0.779-1.159-1.277-0.204-0.052-0.394-0.146-0.6-0.314-0.328-0.268-0.546-0.643-0.612-1.061-0.009-0.055-0.012-0.102-0.012-0.156v-0.221c0-0.056 0.003-0.104 0.012-0.158 0.144-0.895 0.918-1.436 1.796-1.436h5.784v-0.416c-0.639-0.197-1.246-0.465-1.746-0.795-0.759-0.502-1.345-0.955-1.823-1.66-0.232-0.055-0.441-0.16-0.667-0.357-0.542-0.475-0.74-1.218-0.489-1.893 0.258-0.692 0.875-1.104 1.612-1.104h3.815v-0.968c0-0.285-0.097-0.447-0.389-0.471-0.16-0.012-0.505 0.416-0.633 0.517-1.146 0.899-2.702 0.167-2.771-1.28-0.006 0.01-0.013 0.02-0.02 0.029-0.279 0.408-0.741 0.668-1.23 0.723-1.121 0.129-1.881-0.748-1.881-1.836 0-0.684 0.183-1.361 0.443-1.988 0.739-1.772 2.511-2.895 4.4-3.018 0.023-0.002 0.043-0.002 0.066-0.002h0.566c0.023 0 0.043 0 0.066 0.002 0.82 0.054 1.612 0.299 2.316 0.724 0.268 0.161 0.527 0.355 0.768 0.568 0.849-0.799 2.008-1.227 3.163-1.292 0.02-0.001 0.036-0.001 0.057-0.001h0.512c0.02 0 0.037 0 0.057 0.001 0.685 0.039 1.366 0.207 1.98 0.515 1.813 0.909 2.859 2.64 2.859 4.667 0 0.851-0.729 1.667-1.597 1.667-0.558 0-1.084-0.16-1.44-0.613-0.033-0.043-0.063-0.086-0.091-0.129v0.06c0 0.836-0.806 1.597-1.633 1.597-0.448 0-0.847-0.123-1.186-0.424-0.129-0.113-0.231-0.266-0.35-0.365-0.094-0.079-0.26-0.137-0.386-0.098l-0.146 0.109c-0.139 0.198-0.121 0.867-0.105 1.307zm-4.521-4.775c-0.628-0.251-1.276-0.104-1.88 0.387-0.026 0.033-0.051 0.067-0.076 0.099-0.043 0.052-0.094 0.108-0.131 0.163-0.156 0.235-0.251 0.496-0.274 0.778-0.003 0.04-0.007 0.08-0.01 0.119 0.264-0.414 0.665-0.764 1.045-1.006 0.42-0.268 0.867-0.447 1.326-0.54zm8.031 1.542c-0.004-0.039-0.007-0.076-0.01-0.115-0.042-0.51-0.363-1.042-0.814-1.292-0.521-0.289-1.049-0.326-1.54-0.134 0.474 0.095 0.933 0.281 1.356 0.563 0.122 0.081 0.223 0.169 0.337 0.257 0.155 0.121 0.281 0.232 0.408 0.385 0.105 0.126 0.192 0.233 0.263 0.336z" fill="#fff"/><path id="path5" d="m4.622 10.703c0.447 0.846 1.009 1.264 1.778 1.771 0.544 0.361 1.344 0.676 2.193 0.854v2.191h-6.783c-0.491 0-0.758 0.279-0.809 0.594v0.221c0.026 0.166 0.112 0.324 0.256 0.441 0.178 0.145 0.281 0.15 0.588 0.15 0.306 0.576 0.541 0.984 1.125 1.406 0.408 0.295 1.167 0.666 1.863 0.666h10.334c0.979 0 1.941-0.594 2.521-1.275l0.375-0.574c0.042-0.088 0.056-0.148 0.092-0.223 0.381 0 0.582-0.045 0.76-0.332 0.043-0.068 0.071-0.15 0.084-0.238v-0.225c-0.044-0.311-0.275-0.611-0.738-0.611h-6.854v-2.186c0.711-0.148 1.354-0.393 1.852-0.674 0.12-0.067 0.208-0.098 0.321-0.17l0.604-0.416c0.496-0.379 0.9-0.814 1.194-1.371 1.305 0 0.901-1.406 0.246-1.406h-11.143c-0.34 0-0.57 0.17-0.676 0.453-0.104 0.281-0.021 0.586 0.209 0.787 0.18 0.157 0.288 0.167 0.608 0.167z" fill="#000001"/><path id="path7" fill="#357ca0" d="m2.372 5.01c0 1.038 0.979 0.996 1.287 0.547 0.119-0.173 0.133-0.438 0.153-0.689 0.041-0.498 0.217-0.916 0.438-1.249 0.06-0.09 0.117-0.155 0.184-0.237 0.073-0.09 0.108-0.152 0.197-0.225 1.18-0.977 2.598-1.024 3.777-0.036 0.181 0.152 0.428 0.479 0.538 0.692 0.112 0.218 0.291 0.654 0.315 0.951-0.952-0.458-1.984-0.431-2.88 0.14-0.301 0.193-0.88 0.68-0.88 1.089 0 0.753 0.695 0.956 1.156 0.595 0.178-0.141 0.597-0.785 1.33-0.727 0.773 0.061 1.31 0.611 1.31 1.467v1.301h1.406c0-0.973-0.148-1.836 0.425-2.387l0.301-0.227c0.502-0.27 1.133-0.154 1.549 0.199 0.309 0.262 0.355 0.552 0.889 0.552 0.274 0 0.633-0.315 0.633-0.598 0-0.415-0.028-0.442-0.326-0.798-0.085-0.102-0.149-0.154-0.256-0.236-0.102-0.079-0.168-0.144-0.277-0.216-0.887-0.589-1.955-0.61-2.901-0.155 0.044-0.533 0.446-1.301 0.854-1.643 0.962-0.806 2.164-0.952 3.271-0.338 0.725 0.402 1.254 1.219 1.325 2.084 0.048 0.58 0.093 0.984 0.843 0.984 0.24 0 0.597-0.291 0.597-0.667 0-1.674-0.854-3.044-2.308-3.773-0.484-0.243-1.031-0.378-1.589-0.41h-0.512c-0.986 0.057-1.95 0.43-2.615 1.1-0.111 0.112-0.211 0.201-0.317 0.316-0.105 0.114-0.173 0.265-0.289 0.343-0.114-0.076-0.174-0.214-0.272-0.325-0.283-0.317-0.644-0.627-1.013-0.851-0.585-0.352-1.226-0.539-1.866-0.582h-0.567c-1.523 0.1-2.956 0.996-3.544 2.405-0.18 0.434-0.366 1.012-0.366 1.604z"/></g></svg>
