<?xml version="1.0" encoding="utf-8"?>
<!-- Generator: Adobe Illustrator 14.0.0, SVG Export Plug-In . SVG Version: 6.00 Build 43363)  -->
<!DOCTYPE svg PUBLIC "-//W3C//DTD SVG 1.1//EN" "http://www.w3.org/Graphics/SVG/1.1/DTD/svg11.dtd">
<svg version="1.1" id="Vrstva_1" xmlns="http://www.w3.org/2000/svg" xmlns:xlink="http://www.w3.org/1999/xlink" x="0px" y="0px"
	 width="20px" height="20px" viewBox="0 0 20 20" enable-background="new 0 0 20 20" xml:space="preserve">
<g>
	<polygon points="3.165,17.58 3.165,10.704 1.49,11.118 0.643,7.685 3.165,7.061 3.165,3.303 8.764,3.303 8.764,5.677 18.578,3.251 
		19.427,6.685 8.764,9.32 8.764,17.58 	"/>
	<path fill="#F4F4F4" d="M8.264,3.803v2.513l9.949-2.459l0.608,2.463L8.264,8.929v8.151H3.665v-7.015l-1.809,0.447L1.248,8.05
		l2.417-0.598V3.803H8.264 M18.944,2.646l-0.972,0.24L9.264,5.038V3.803v-1h-1H3.665h-1v1v2.867l-1.657,0.41l-0.97,0.24l0.24,0.971
		l0.608,2.463l0.24,0.971l0.971-0.24l0.569-0.141v5.737v1h1h4.599h1v-1V9.711l9.798-2.421l0.971-0.24l-0.24-0.971l-0.608-2.463
		L18.944,2.646L18.944,2.646z"/>
</g>
</svg>
