<?xml version="1.0" encoding="UTF-8" standalone="no"?>
<!-- Generator: Adobe Illustrator 16.0.0, SVG Export Plug-In . SVG Version: 6.00 Build 0)  -->

<svg
   xmlns:dc="http://purl.org/dc/elements/1.1/"
   xmlns:cc="http://creativecommons.org/ns#"
   xmlns:rdf="http://www.w3.org/1999/02/22-rdf-syntax-ns#"
   xmlns:svg="http://www.w3.org/2000/svg"
   xmlns="http://www.w3.org/2000/svg"
   xmlns:sodipodi="http://sodipodi.sourceforge.net/DTD/sodipodi-0.dtd"
   xmlns:inkscape="http://www.inkscape.org/namespaces/inkscape"
   version="1.1"
   id="Layer_1"
   x="0px"
   y="0px"
   width="20px"
   height="20px"
   viewBox="0 0 20 20"
   enable-background="new 0 0 20 20"
   xml:space="preserve"
   inkscape:version="0.91 r13725"
   sodipodi:docname="gate1.svg"><metadata
     id="metadata15"><rdf:RDF><cc:Work
         rdf:about=""><dc:format>image/svg+xml</dc:format><dc:type
           rdf:resource="http://purl.org/dc/dcmitype/StillImage" /><dc:title /></cc:Work></rdf:RDF></metadata><defs
     id="defs13" /><sodipodi:namedview
     pagecolor="#ffffff"
     bordercolor="#666666"
     borderopacity="1"
     objecttolerance="10"
     gridtolerance="10"
     guidetolerance="10"
     inkscape:pageopacity="0"
     inkscape:pageshadow="2"
     inkscape:window-width="1680"
     inkscape:window-height="988"
     id="namedview11"
     showgrid="false"
     inkscape:zoom="41.663344"
     inkscape:cx="7.9770214"
     inkscape:cy="10.118757"
     inkscape:window-x="-8"
     inkscape:window-y="2"
     inkscape:window-maximized="1"
     inkscape:current-layer="Layer_1"
     inkscape:showpageshadow="true" /><path
     inkscape:connector-curvature="0"
     id="path4148"
     d="m 15.717256,10.639037 -11.3422858,0 0,5.727827 c 0,0.544377 -0.4470883,0.994072 -1.0000759,0.994072 l -2.2943486,0 c -0.55299359,0 -1.00009484,-0.449695 -1.00009484,-0.994072 l 0,-12.721886 c 0,-0.556212 0.44710125,-1.005914 1.00009484,-1.005914 5.9770539,0 11.9540803,0 17.9311413,0 C 19.552912,2.639064 20,3.088766 20,3.644978 l 0,12.721886 c 0,0.544377 -0.447088,0.994072 -0.988313,0.994072 l -2.294356,0 c -0.552987,0 -1.000075,-0.449695 -1.000075,-0.994072 z"
     style="fill:#ffffff;fill-opacity:1;fill-rule:evenodd;stroke:none" /><path
     inkscape:connector-curvature="0"
     id="path4150"
     d="m 16.717331,9.644963 -13.3424367,0 0,6.721901 -2.2943486,0 0,-12.721886 c 5.9770539,0 11.9540803,0 17.9311413,0 l 0,12.721886 -2.294356,0 z"
     style="fill:#000000;fill-opacity:1;fill-rule:nonzero;stroke:none" /><path
     inkscape:connector-curvature="0"
     id="path4152"
     d="m 17.705677,4.946754 -15.3308885,0 0,3.384624 15.3308885,0 z"
     style="fill:#ffffff;fill-opacity:1;fill-rule:nonzero;stroke:none" /><path
     style="fill:#ff0000;fill-opacity:1;fill-rule:nonzero;stroke:none"
     d="m 17.705677,4.946754 -1.823707,3.384624 -2.12961,0 1.823675,-3.384624 z"
     id="path3341"
     inkscape:connector-curvature="0" /><path
     style="fill:#ff0000;fill-opacity:1;fill-rule:nonzero;stroke:none"
     d="m 12.022754,4.946754 -2.1296085,0 -1.8237075,3.384624 2.129642,0 z"
     id="path3339"
     inkscape:connector-curvature="0" /><path
     style="fill:#ff0000;fill-opacity:1;fill-rule:nonzero;stroke:none"
     d="m 6.3398664,4.946754 -2.12961,0 -1.8354679,3.384624 2.129607,0 z"
     id="path4154"
     inkscape:connector-curvature="0" /></svg>