<?xml version="1.0" encoding="UTF-8" standalone="no"?>
<!-- Generator: Adobe Illustrator 16.0.0, SVG Export Plug-In . SVG Version: 6.00 Build 0)  -->

<svg
   xmlns:dc="http://purl.org/dc/elements/1.1/"
   xmlns:cc="http://creativecommons.org/ns#"
   xmlns:rdf="http://www.w3.org/1999/02/22-rdf-syntax-ns#"
   xmlns:svg="http://www.w3.org/2000/svg"
   xmlns="http://www.w3.org/2000/svg"
   xmlns:sodipodi="http://sodipodi.sourceforge.net/DTD/sodipodi-0.dtd"
   xmlns:inkscape="http://www.inkscape.org/namespaces/inkscape"
   version="1.1"
   id="Layer_1"
   x="0px"
   y="0px"
   width="20px"
   height="20px"
   viewBox="0 0 20 20"
   enable-background="new 0 0 20 20"
   xml:space="preserve"
   inkscape:version="0.91 r13725"
   sodipodi:docname="cable_car.svg"><metadata
     id="metadata11"><rdf:RDF><cc:Work
         rdf:about=""><dc:format>image/svg+xml</dc:format><dc:type
           rdf:resource="http://purl.org/dc/dcmitype/StillImage" /></cc:Work></rdf:RDF></metadata><defs
     id="defs9" /><sodipodi:namedview
     pagecolor="#ffffff"
     bordercolor="#666666"
     borderopacity="1"
     objecttolerance="10"
     gridtolerance="10"
     guidetolerance="10"
     inkscape:pageopacity="0"
     inkscape:pageshadow="2"
     inkscape:window-width="915"
     inkscape:window-height="593"
     id="namedview7"
     showgrid="false"
     inkscape:zoom="11.8"
     inkscape:cx="10"
     inkscape:cy="10"
     inkscape:window-x="0"
     inkscape:window-y="0"
     inkscape:window-maximized="0"
     inkscape:current-layer="Layer_1" /><path
     fill-rule="evenodd"
     clip-rule="evenodd"
     fill="#FFFFFF"
     d="M5.64,6.344V4.85c0-0.551,0.449-1.001,1-1.001h1.79V1.002  c0-0.551,0.449-1,1-1h1.142c0.551,0,1,0.449,1,1v2.847h1.789c0.551,0,1,0.45,1,1.001v1.494h0.717c0.263,0,0.488,0.088,0.681,0.268  c1.822,1.695,2.83,4.074,2.83,6.561c0,2.484-1.008,4.863-2.83,6.559c-0.192,0.18-0.418,0.268-0.681,0.268H4.924  c-0.263,0-0.489-0.088-0.682-0.268c-1.822-1.695-2.83-4.074-2.83-6.559c0-2.486,1.008-4.865,2.83-6.561  c0.192-0.18,0.419-0.268,0.682-0.268H5.64z"
     id="path3" /><path
     d="m 15.077,7.344 c 1.541,1.435 2.511,3.514 2.511,5.828 0,2.313 -0.97,4.393 -2.511,5.827 l -10.153,0 C 3.382,17.564 2.412,15.484 2.412,13.172 c 0,-2.314 0.97,-4.394 2.512,-5.828 l 10.153,0 0,0 z"
     id="path4145" /><path
     d="m 14.401,8.949 -3.619,0 0,4.27 5.199,0 0,-0.047 c 0,-1.561 -0.554,-3.064 -1.58,-4.223 l 0,0 z"
     id="path4143"
     style="fill:#ffffff" /><path
     d="m 9.218,8.949 -3.619,0 c -1.025,1.159 -1.58,2.662 -1.58,4.223 l 0,0.047 5.199,0 0,-4.27 0,0 z"
     id="path4141"
     style="fill:#ffffff" /><path
     d="m 6.64,4.85 2.79,0 0,-3.848 1.142,0 0,3.848 2.789,0 0,1.689 -6.721,0 0,-1.689 z"
     id="path5" /></svg>