<?xml version="1.0"?>
<svg width="725" height="1201" xmlns="http://www.w3.org/2000/svg" xmlns:svg="http://www.w3.org/2000/svg" preserveAspectRatio="xMidYMid meet">
 <metadata>Created by potrace 1.16, written by Peter Selinger 2001-2019</metadata>

 <g class="layer">
  <title>background</title>
  <rect fill="none" height="602" id="canvas_background" width="802" x="-1" y="-1"/>
 </g>
 <g class="layer">
  <title>Layer 1</title>
  <g fill="#000000" id="svg_1" transform="translate(0, 1201) scale(0.1, -0.1)">
   <path d="m5460,11066c-624,-156 -1981,-494 -3015,-751c-1335,-332 -1894,-475 -1928,-493c-58,-31 -107,-83 -144,-154c-26,-49 -28,-62 -28,-163c0,-95 3,-117 23,-157c37,-74 96,-134 170,-170c62,-31 74,-33 162,-32c90,0 159,16 1347,312c688,172 1254,312 1257,312c3,0 6,-558 6,-1240l0,-1240l-1008,-2l-1007,-3l-66,-32c-78,-39 -141,-102 -174,-176c-18,-39 -109,-519 -360,-1892c-335,-1829 -337,-1841 -333,-1946l5,-106l317,-950c346,-1038 337,-1016 441,-1095c28,-21 73,-46 100,-55c47,-17 188,-18 2460,-18l2410,0l65,31c73,35 140,95 168,151c30,58 639,1872 651,1938c28,149 31,126 -323,2072c-368,2020 -338,1881 -434,1978c-26,25 -71,58 -102,73l-55,27l-1010,5l-1010,5l-3,1328l-2,1327l22,10c13,5 624,158 1358,340c734,182 1355,338 1379,347c24,9 67,38 95,64c176,160 158,440 -37,573c-57,39 -147,66 -217,66c-25,-1 -556,-128 -1180,-284zm-2152,-6543l2,-2033l-707,0c-669,0 -710,1 -749,19c-23,10 -50,32 -61,47c-41,58 -262,501 -287,575c-31,92 -48,205 -41,268c3,25 80,712 171,1526c90,814 169,1494 175,1511c13,43 68,93 120,109c36,11 170,13 709,12l665,-2l3,-2032zm2129,2016c38,-14 83,-57 99,-97c21,-48 347,-2947 347,-3087c1,-98 -3,-121 -32,-210c-35,-107 -253,-542 -299,-596c-51,-61 -26,-59 -797,-59l-705,0l0,2030l0,2030l679,0c456,0 689,-4 708,-11z" id="svg_2" stroke="#ffffff" stroke-width="50"/>
  </g>
 </g>
</svg>