<?xml version="1.0" encoding="utf-8"?>
<!-- Generator: Adobe Illustrator 14.0.0, SVG Export Plug-In . SVG Version: 6.00 Build 43363)  -->
<!DOCTYPE svg PUBLIC "-//W3C//DTD SVG 1.0//EN" "http://www.w3.org/TR/2001/REC-SVG-20010904/DTD/svg10.dtd">
<svg version="1.0" id="Vrstva_1" xmlns="http://www.w3.org/2000/svg" xmlns:xlink="http://www.w3.org/1999/xlink" x="0px" y="0px"
	 width="20px" height="20px" viewBox="0 0 20 20" style="enable-background:new 0 0 20 20;" xml:space="preserve">
<g>
	<g>
		<path style="fill:#333333;" d="M18.2,10l-3-2l-4.3,0V6.8l3.8,0v-4h-3.8V1.6c0-0.3-0.2-0.5-0.5-0.5h-1c-0.3,0-0.5,0.2-0.5,0.5v1.1
			h-4l-3,2l3,2l4,0V8L5.3,8v4h3.6v6.3c0,0.3,0.2,0.5,0.5,0.5h1c0.3,0,0.5-0.2,0.5-0.5V12h4.3L18.2,10z"/>
	</g>
	<g>
		<path style="fill:none;stroke:#F9F9F9;" d="M18.2,10l-3-2l-4.3,0V6.8l3.8,0v-4h-3.8V1.6c0-0.3-0.2-0.5-0.5-0.5h-1
			c-0.3,0-0.5,0.2-0.5,0.5v1.1h-4l-3,2l3,2l4,0V8L5.3,8v4h3.6v6.3c0,0.3,0.2,0.5,0.5,0.5h1c0.3,0,0.5-0.2,0.5-0.5V12h4.3L18.2,10z"
			/>
	</g>
</g>
<rect x="5.9" y="4.1" style="fill:#F9F9F9;" width="2.2" height="1"/>
<rect x="12" y="9.3" style="fill:#F9F9F9;" width="2.1" height="1"/>
</svg>
