<?xml version="1.0" encoding="UTF-8" standalone="no"?>
<!-- Generator: Adobe Illustrator 16.0.0, SVG Export Plug-In . SVG Version: 6.00 Build 0)  -->

<svg
   xmlns:dc="http://purl.org/dc/elements/1.1/"
   xmlns:cc="http://creativecommons.org/ns#"
   xmlns:rdf="http://www.w3.org/1999/02/22-rdf-syntax-ns#"
   xmlns:svg="http://www.w3.org/2000/svg"
   xmlns="http://www.w3.org/2000/svg"
   xmlns:sodipodi="http://sodipodi.sourceforge.net/DTD/sodipodi-0.dtd"
   xmlns:inkscape="http://www.inkscape.org/namespaces/inkscape"
   version="1.1"
   id="Layer_1"
   x="0px"
   y="0px"
   width="13.439763"
   height="20"
   viewBox="0 0 13.439763 20"
   enable-background="new 0 0 20 20"
   xml:space="preserve"
   inkscape:version="0.92.3 (2405546, 2018-03-11)"
   sodipodi:docname="hunting_stand.svg"><metadata
     id="metadata15"><rdf:RDF><cc:Work
         rdf:about=""><dc:format>image/svg+xml</dc:format><dc:type
           rdf:resource="http://purl.org/dc/dcmitype/StillImage" /><dc:title></dc:title></cc:Work></rdf:RDF></metadata><defs
     id="defs13"><pattern
       y="0"
       x="0"
       height="6"
       width="6"
       patternUnits="userSpaceOnUse"
       id="EMFhbasepattern" /></defs><sodipodi:namedview
     pagecolor="#ffffff"
     bordercolor="#666666"
     borderopacity="1"
     objecttolerance="10"
     gridtolerance="10"
     guidetolerance="10"
     inkscape:pageopacity="0"
     inkscape:pageshadow="2"
     inkscape:window-width="1198"
     inkscape:window-height="750"
     id="namedview11"
     showgrid="false"
     inkscape:zoom="29.05"
     inkscape:cx="6.7198813"
     inkscape:cy="10"
     inkscape:window-x="0"
     inkscape:window-y="0"
     inkscape:window-maximized="0"
     inkscape:current-layer="Layer_1"
     inkscape:pagecheckerboard="true"
     fit-margin-top="0"
     fit-margin-left="0"
     fit-margin-right="0"
     fit-margin-bottom="0" /><path
     inkscape:connector-curvature="0"
     id="path4148"
     d="m 11.805441,3.3077264 v 6.0484584 l 1.615555,9.4861172 c 0.05898,0.295336 -0.02358,0.578849 -0.212244,0.803281 C 13.008266,19.881873 12.748831,20 12.442238,20 H 10.920999 C 10.425741,20 10.0248,19.657406 9.9422412,19.173074 L 9.7417872,18.05081 6.7229192,15.593607 3.6922627,18.05081 3.5035649,19.173074 C 3.4210319,19.657406 3.0082872,20 2.5247995,20 H 1.0035735 C 0.69697133,20 0.43753673,19.881873 0.23706563,19.645583 0.04838663,19.421151 -0.03415997,19.137638 0.01301003,18.842302 L 1.6285749,9.3561848 V 3.3077264 H 1.4398936 c -0.54245237,0 -0.99056457,-0.4607117 -0.99056457,-1.0041222 V 1.0041327 C 0.44932903,0.44890622 0.89744123,0 1.4398936,0 H 11.994139 c 0.554238,0 1.002337,0.44890622 1.002337,1.0041327 v 1.2994715 c 0,0.5434105 -0.448099,1.0041222 -1.002337,1.0041222 z"
     style="fill:#ffffff;fill-opacity:1;fill-rule:evenodd;stroke:none" /><path
     inkscape:connector-curvature="0"
     id="path4150"
     d="m 1.4368735,0.99822233 h 1.1910381 8.1839634 1.179244 V 2.2976939 h -1.179244 v 7.1352733 l 1.627343,9.5688108 h -1.521239 l -0.247612,-1.500292 -0.0118,0.0118 -3.9386768,-3.225051 -3.950481,3.225051 v -0.0118 L 2.5217704,19.001778 H 1.0005445 L 2.6279027,9.4329672 V 2.2976939 H 1.4368634 Z M 10.316584,15.457747 9.7033652,11.866491 l -1.89857,1.54755 z M 9.4439302,10.307152 9.3849902,9.9999939 H 4.0547903 l -0.058943,0.3071581 2.7240639,2.220914 z m -5.7075294,1.559339 -0.6132092,3.591256 2.5117775,-2.043706 z"
     style="fill:#575757;fill-opacity:1;fill-rule:evenodd;stroke:none" /><path
     inkscape:connector-curvature="0"
     id="path4152"
     d="M 4.003198,6.5832513 H 9.3687682 V 2.3659016 H 4.003198 Z"
     style="fill:#ffffff;fill-opacity:1;fill-rule:evenodd;stroke:none" /></svg>