<?xml version="1.0" encoding="UTF-8" standalone="no"?>
<svg
   xmlns:dc="http://purl.org/dc/elements/1.1/"
   xmlns:cc="http://creativecommons.org/ns#"
   xmlns:rdf="http://www.w3.org/1999/02/22-rdf-syntax-ns#"
   xmlns:svg="http://www.w3.org/2000/svg"
   xmlns="http://www.w3.org/2000/svg"
   xmlns:sodipodi="http://sodipodi.sourceforge.net/DTD/sodipodi-0.dtd"
   xmlns:inkscape="http://www.inkscape.org/namespaces/inkscape"
   version="1.1"
   viewBox="0 0 11.3 25.299999"
   id="svg16"
   sodipodi:docname="information.svg"
   inkscape:version="0.92.3 (2405546, 2018-03-11)"
   width="11.3"
   height="25.299999">
  <metadata
     id="metadata22">
    <rdf:RDF>
      <cc:Work
         rdf:about="">
        <dc:format>image/svg+xml</dc:format>
        <dc:type
           rdf:resource="http://purl.org/dc/dcmitype/StillImage" />
        <dc:title></dc:title>
      </cc:Work>
    </rdf:RDF>
  </metadata>
  <defs
     id="defs20" />
  <sodipodi:namedview
     pagecolor="#ffffff"
     bordercolor="#666666"
     borderopacity="1"
     objecttolerance="10"
     gridtolerance="10"
     guidetolerance="10"
     inkscape:pageopacity="0"
     inkscape:pageshadow="2"
     inkscape:window-width="972"
     inkscape:window-height="624"
     id="namedview18"
     showgrid="false"
     inkscape:pagecheckerboard="true"
     inkscape:zoom="16.272096"
     inkscape:cx="2.1365443"
     inkscape:cy="9.0795564"
     inkscape:window-x="0"
     inkscape:window-y="0"
     inkscape:window-maximized="0"
     inkscape:current-layer="svg16"
     fit-margin-top="0"
     fit-margin-left="0"
     fit-margin-right="0"
     fit-margin-bottom="0" />
  <path
     d="m 2.65,5.65 v -4 a 1.0001,1.0001 0 0 1 1,-1.00000002 h 4 A 1.00011,1.00011 0 0 1 8.6499998,1.65 v 4 A 1.00011,1.00011 0 0 1 7.65,6.65 h -4 a 1.0001,1.0001 0 0 1 -1,-1 z m 7.0000001,15 H 8.6499998 v -11 A 1,1 0 0 0 7.65,8.65 h -6 a 1,1 0 0 0 -1.00000002,1 v 2 A 1.0001,1.0001 0 0 0 1.65,12.65 h 1 v 8 h -1 a 1,1 0 0 0 -1.00000002,1 v 2 A 1.0001,1.0001 0 0 0 1.65,24.65 H 9.6500001 A 1.00011,1.00011 0 0 0 10.65,23.65 v -2 a 1,1 0 0 0 -0.9999999,-1 z"
     id="path10-7"
     inkscape:connector-curvature="0"
     style="fill:#0068b4;fill-opacity:1;stroke:#ffffff;stroke-width:1.3;stroke-miterlimit:4;stroke-dasharray:none;stroke-opacity:1" />
</svg>
