<?xml version="1.0" encoding="utf-8"?>
<!-- Generator: Adobe Illustrator 14.0.0, SVG Export Plug-In . SVG Version: 6.00 Build 43363)  -->
<!DOCTYPE svg PUBLIC "-//W3C//DTD SVG 1.1//EN" "http://www.w3.org/Graphics/SVG/1.1/DTD/svg11.dtd">
<svg version="1.1" id="Vrstva_1" xmlns="http://www.w3.org/2000/svg" xmlns:xlink="http://www.w3.org/1999/xlink" x="0px" y="0px"
	 width="24px" height="24px" viewBox="0 0 24 24" enable-background="new 0 0 24 24" xml:space="preserve">
<g>
	<rect x="0.5" y="0.614" fill="#019241" width="23" height="23"/>
	<path fill="#F4F4F4" d="M23,1.114v22H1v-22H23 M24,0.114h-1H1H0v1v22v1h1h22h1v-1v-22V0.114L24,0.114z"/>
</g>
<rect x="2.757" y="2.446" fill="none" stroke="#F2F2F2" width="18.486" height="18.484"/>
<path fill="#FFFFFF" d="M13.544,9.038v8.302h1.216v0.988h-0.216H9.24V17.34h1.216v-7.314H9.24V9.038h0.217H13.544L13.544,9.038z
	 M10.371,6.43c0-0.355,0.141-0.676,0.424-0.958c0.283-0.284,0.649-0.425,1.097-0.425h0.218c0.376,0,0.724,0.125,1.044,0.376
	c0.316,0.25,0.476,0.585,0.476,1.007c0,0.356-0.137,0.676-0.412,0.958c-0.274,0.284-0.642,0.424-1.107,0.424h-0.218
	c-0.375,0-0.723-0.125-1.043-0.375C10.531,7.188,10.371,6.852,10.371,6.43L10.371,6.43z"/>
</svg>
