<?xml version="1.0" encoding="UTF-8" standalone="no"?>
<!-- Generator: Adobe Illustrator 16.0.0, SVG Export Plug-In . SVG Version: 6.00 Build 0)  -->

<svg
   xmlns:dc="http://purl.org/dc/elements/1.1/"
   xmlns:cc="http://creativecommons.org/ns#"
   xmlns:rdf="http://www.w3.org/1999/02/22-rdf-syntax-ns#"
   xmlns:svg="http://www.w3.org/2000/svg"
   xmlns="http://www.w3.org/2000/svg"
   xmlns:sodipodi="http://sodipodi.sourceforge.net/DTD/sodipodi-0.dtd"
   xmlns:inkscape="http://www.inkscape.org/namespaces/inkscape"
   version="1.1"
   id="Layer_1"
   x="0px"
   y="0px"
   width="20px"
   height="20px"
   viewBox="0 0 20 20"
   enable-background="new 0 0 20 20"
   xml:space="preserve"
   inkscape:version="0.91 r13725"
   sodipodi:docname="information.svg"><metadata
     id="metadata15"><rdf:RDF><cc:Work
         rdf:about=""><dc:format>image/svg+xml</dc:format><dc:type
           rdf:resource="http://purl.org/dc/dcmitype/StillImage" /></cc:Work></rdf:RDF></metadata><defs
     id="defs13" /><sodipodi:namedview
     pagecolor="#ffffff"
     bordercolor="#666666"
     borderopacity="1"
     objecttolerance="10"
     gridtolerance="10"
     guidetolerance="10"
     inkscape:pageopacity="0"
     inkscape:pageshadow="2"
     inkscape:window-width="1680"
     inkscape:window-height="988"
     id="namedview11"
     showgrid="false"
     inkscape:zoom="11.8"
     inkscape:cx="10"
     inkscape:cy="10"
     inkscape:window-x="-8"
     inkscape:window-y="2"
     inkscape:window-maximized="1"
     inkscape:current-layer="Layer_1" /><path
     fill-rule="evenodd"
     clip-rule="evenodd"
     fill="#FFFFFF"
     d="M10,19.999c5.507,0,9.998-4.492,9.998-9.999  c0-5.508-4.491-9.999-9.998-9.999S0.002,4.493,0.002,10C0.002,15.507,4.493,19.999,10,19.999z"
     id="path3" /><path
     fill-rule="evenodd"
     clip-rule="evenodd"
     fill="#2B4EA1"
     d="M10,18.999c4.956,0,8.998-4.043,8.998-8.999  c0-4.957-4.042-8.999-8.998-8.999S1.001,5.043,1.001,10C1.001,14.956,5.044,18.999,10,18.999z"
     id="path5"
     style="fill:#001aff;fill-opacity:1" /><rect
     x="8.438"
     y="7.233"
     fill-rule="evenodd"
     clip-rule="evenodd"
     fill="#FFFFFF"
     width="3.124"
     height="10.417"
     id="rect7" /><path
     fill-rule="evenodd"
     clip-rule="evenodd"
     fill="#FFFFFF"
     d="M10,6.042c1.076,0,1.954-0.877,1.954-1.953  c0-1.077-0.878-1.955-1.954-1.955S8.046,3.011,8.046,4.088C8.046,5.165,8.924,6.042,10,6.042z"
     id="path9" /><path
     style="fill:#0079c1;fill-opacity:1"
     d="M 8.7782623,18.872307 C 7.4969478,18.685433 6.226811,18.207107 5.1526099,17.506908 1.4086091,15.066445 0.00413105,10.280855 1.8605356,6.2895609 3.0867747,3.6531308 5.4257919,1.8005371 8.2699371,1.2130628 9.1465087,1.032002 10.85415,1.032138 11.731398,1.2133386 c 3.528753,0.7288839 6.307452,3.4831097 7.03521,6.9732481 0.584638,2.8037653 -0.246154,5.7743663 -2.207362,7.8927053 -1.964819,2.122239 -4.974009,3.202399 -7.7809837,2.793015 z m 2.8319067,-6.431629 0,-5.2542373 -1.610169,0 -1.6101695,0 0,5.2542373 0,5.254237 1.6101695,0 1.610169,0 0,-5.254237 z M 10.900203,5.8455089 c 0.695439,-0.3575906 1.050178,-0.9574952 1.047089,-1.7707531 -0.0024,-0.6231543 -0.212424,-1.0904044 -0.663952,-1.4768956 -0.769934,-0.6590346 -1.7967459,-0.6590346 -2.56668,0 -0.4515281,0.3864912 -0.6615845,0.8537413 -0.6639514,1.4768956 -0.00363,0.9552655 0.4955234,1.6270667 1.4382685,1.9357447 0.3264136,0.106876 1.0438589,0.022878 1.4092259,-0.1649916 z"
     id="path3336"
     inkscape:connector-curvature="0" /></svg>