<?xml version="1.0" encoding="UTF-8" standalone="no"?>
<svg
   xmlns:dc="http://purl.org/dc/elements/1.1/"
   xmlns:cc="http://creativecommons.org/ns#"
   xmlns:rdf="http://www.w3.org/1999/02/22-rdf-syntax-ns#"
   xmlns:svg="http://www.w3.org/2000/svg"
   xmlns="http://www.w3.org/2000/svg"
   xmlns:sodipodi="http://sodipodi.sourceforge.net/DTD/sodipodi-0.dtd"
   xmlns:inkscape="http://www.inkscape.org/namespaces/inkscape"
   version="1.1"
   id="Vrstva_1"
   x="0px"
   y="0px"
   width="17.762358"
   height="24.118034"
   viewBox="0 0 17.762358 24.118034"
   enable-background="new 0 0 24 24"
   xml:space="preserve"
   sodipodi:docname="lighthouse.svg"
   inkscape:version="0.92.3 (2405546, 2018-03-11)"><metadata
   id="metadata9"><rdf:RDF><cc:Work
       rdf:about=""><dc:format>image/svg+xml</dc:format><dc:type
         rdf:resource="http://purl.org/dc/dcmitype/StillImage" /><dc:title></dc:title></cc:Work></rdf:RDF></metadata><defs
   id="defs7" /><sodipodi:namedview
   pagecolor="#ffffff"
   bordercolor="#666666"
   borderopacity="1"
   objecttolerance="10"
   gridtolerance="10"
   guidetolerance="10"
   inkscape:pageopacity="0"
   inkscape:pageshadow="2"
   inkscape:window-width="731"
   inkscape:window-height="480"
   id="namedview5"
   showgrid="false"
   inkscape:pagecheckerboard="true"
   inkscape:zoom="9.8333333"
   inkscape:cx="12"
   inkscape:cy="12"
   inkscape:window-x="0"
   inkscape:window-y="0"
   inkscape:window-maximized="0"
   inkscape:current-layer="Vrstva_1"
   fit-margin-top="0"
   fit-margin-left="0"
   fit-margin-right="0"
   fit-margin-bottom="0" />
<path
   d="m 1,10.118034 v -8 l 9,3 v 2 l -9,3 m 7,0 v -2 h 5 v -4 H 8 v -1 l 4,-2 4,2 v 1 h -1 v 4 h 1 v 2 h -1.26 l -6.3,3.641 0.56,-3.641 H 8 m -1,13 0.04,-0.24 9.11,-5.26 0.52,3.38 -3.67,2.12 H 7 m 1.05,-6.83 7.26,-4.17 0.52,3.37 -8.4,4.851 z"
   id="path2"
   style="fill:#ffffff;fill-opacity:1;stroke:#ffffff;stroke-width:2;stroke-miterlimit:4;stroke-dasharray:none;stroke-opacity:1"
   inkscape:connector-curvature="0" />
<path
   inkscape:connector-curvature="0"
   d="M 1,10.118034 V 2.1180337 l 9,3.0000003 v 2 l -9,3 m 7,0 v -2 h 5 v -4 H 8 V 3.1180337 l 4,-2 4,2 V 4.118034 h -1 v 4 h 1 v 2 h -1.26 l -6.3,3.641 0.56,-3.641 H 8 m -1,13 0.04,-0.24 9.11,-5.26 0.52,3.38 -3.67,2.12 H 7 m 1.05,-6.83 7.26,-4.17 0.52,3.37 -8.4,4.851 z"
   id="path2-6"
   style="fill:#575757;fill-opacity:1" /></svg>