<?xml version="1.0" encoding="UTF-8" standalone="no"?>
<svg
   xmlns:dc="http://purl.org/dc/elements/1.1/"
   xmlns:cc="http://creativecommons.org/ns#"
   xmlns:rdf="http://www.w3.org/1999/02/22-rdf-syntax-ns#"
   xmlns:svg="http://www.w3.org/2000/svg"
   xmlns="http://www.w3.org/2000/svg"
   xmlns:sodipodi="http://sodipodi.sourceforge.net/DTD/sodipodi-0.dtd"
   xmlns:inkscape="http://www.inkscape.org/namespaces/inkscape"
   width="253.53783"
   height="324.81702"
   preserveAspectRatio="xMidYMid meet"
   version="1.1"
   id="svg11"
   sodipodi:docname="memorial.svg"
   inkscape:version="0.92.3 (2405546, 2018-03-11)">
  <defs
     id="defs15" />
  <sodipodi:namedview
     pagecolor="#ffffff"
     bordercolor="#666666"
     borderopacity="1"
     objecttolerance="10"
     gridtolerance="10"
     guidetolerance="10"
     inkscape:pageopacity="0"
     inkscape:pageshadow="2"
     inkscape:window-width="950"
     inkscape:window-height="732"
     id="namedview13"
     showgrid="false"
     inkscape:zoom="1.7604853"
     inkscape:cx="126.76891"
     inkscape:cy="162.41792"
     inkscape:window-x="242"
     inkscape:window-y="99"
     inkscape:window-maximized="0"
     inkscape:current-layer="g9"
     inkscape:pagecheckerboard="true"
     fit-margin-top="0"
     fit-margin-left="0"
     fit-margin-right="0"
     fit-margin-bottom="0" />
  <metadata
     id="metadata2">Created by potrace 1.16, written by Peter Selinger 2001-2019<rdf:RDF>
  <cc:Work
     rdf:about="">
    <dc:format>image/svg+xml</dc:format>
    <dc:type
       rdf:resource="http://purl.org/dc/dcmitype/StillImage" />
    <dc:title></dc:title>
  </cc:Work>
</rdf:RDF>
</metadata>
  <g
     class="layer"
     id="g9"
     transform="translate(-10.462176,2.2)">
    <title
       id="title4">Layer 1</title>
    <path
       style="fill:#ffffff;fill-opacity:1;stroke:#ffffff;stroke-width:25;stroke-miterlimit:4;stroke-dasharray:none;stroke-opacity:1"
       inkscape:connector-curvature="0"
       id="svg_2"
       d="m 55.3,11 c -14.7,3.5 -28,17.5 -31.2,32.8 -1.5,7 -1.5,152.6 -0.1,160.3 2.3,12.2 3.3,13.5 47.4,57.6 38.1,38.2 41.6,41.4 48,44.4 13,6.1 29.4,5 41.9,-2.7 2.3,-1.5 22,-20.5 43.8,-42.3 36.2,-36.2 39.9,-40.2 43,-46.6 l 3.4,-7 V 124 40.5 l -2.8,-5.7 C 244.3,25.9 237.1,18.7 228.2,14.3 l -7.6,-3.8 -81,-0.2 C 95,10.3 57.1,10.5 55.3,11 Z m 161.3,29.6 c 1.5,1.1 3.7,3.3 4.8,4.8 2.1,2.7 2.1,3.8 2.4,76.4 0.2,52.8 0,74.8 -0.8,77.7 -1,3.3 -7.4,10.2 -38.3,41.4 -39.6,39.7 -42.1,41.8 -49.4,40.5 C 132,280.9 126.7,276 93.2,242.6 72.1,221.7 54.2,203.3 53.4,201.8 52.2,199.5 52,187.2 52,124.5 c 0,-66.3 0.2,-75.1 1.6,-78.1 1.9,-4.1 3.3,-5.2 8.1,-7 3.1,-1.1 17.7,-1.3 78,-1.1 73.2,0.2 74.2,0.2 76.9,2.3 z" />
    <path
       style="fill:#575757;stroke:none;stroke-width:7"
       inkscape:connector-curvature="0"
       id="svg_3"
       d="m 71.2,53.2 c -0.7,0.7 -1.2,1.7 -1.2,2.2 0,0.6 15.2,16.2 33.7,34.8 l 33.8,33.8 -34.3,34.3 C 73.8,187.7 69,193 69,195.5 c 0,2.5 4.7,7.6 32.7,35.7 30.5,30.5 33,32.8 36.2,32.8 3.3,0 5.8,-2.3 35.7,-32.2 17.8,-17.7 32.5,-33.2 32.9,-34.5 0.3,-1.3 -0.1,-3.6 -0.9,-5.1 -0.8,-1.5 -16.2,-17.4 -34.4,-35.4 L 138.3,124.2 171.6,90.9 C 204.8,57.7 207.7,54.2 203.4,52.6 202.5,52.3 172.7,52 137.1,52 c -49,0 -65,0.3 -65.9,1.2 z" />
    <path
       style="fill:#ffffff;fill-opacity:1;stroke:none;stroke-width:1.22033894;stroke-linecap:square;stroke-miterlimit:0;stroke-dasharray:none;stroke-opacity:1"
       d="M 127.53725,274.94214 C 123.14473,271.23068 104.99214,253.5717 87.198161,235.69996 57.638773,206.01138 54.746395,202.69285 53.697892,197.26396 52.357538,190.32392 52.24254,61.599359 53.56794,51.800342 c 0.692626,-5.12076 1.774305,-7.292803 4.726788,-9.491525 3.78162,-2.816185 4.738836,-2.85119 77.966102,-2.85119 40.77561,0 75.80773,0.467315 77.84914,1.038478 2.04141,0.571162 4.78717,2.679036 6.10169,4.684164 2.19272,3.344713 2.42483,9.583651 2.81146,75.571691 0.23178,39.5593 0.0262,74.04454 -0.45691,76.63387 -0.72069,3.86293 -7.12358,11.00288 -35.67566,39.78244 -49.27684,49.66944 -46.99419,48.21671 -59.3533,37.77387 z m 47.23776,-43.51028 c 25.59136,-25.74941 32.23346,-33.16332 32.23346,-35.97899 0,-2.81561 -6.96683,-10.59254 -33.80596,-37.73696 l -33.80596,-34.19049 33.12799,-33.333492 c 18.22041,-18.333422 33.128,-34.259935 33.128,-35.392248 0,-3.001174 -14.25729,-3.800374 -67.79661,-3.800374 -54.293009,0 -67.796608,0.781556 -67.796608,3.923909 0,1.200258 14.907924,17.080896 33.128718,35.290308 l 33.12872,33.108017 -31.95953,32.63805 c -17.577747,17.95093 -32.841356,33.98387 -33.919134,35.62878 -1.200729,1.83254 -1.58772,4.16238 -0.999314,6.01629 0.528155,1.66407 15.135457,17.25327 32.460668,34.64266 28.66355,28.76974 31.91203,31.61709 36.07125,31.61709 4.16471,0 7.43494,-2.88178 36.80431,-32.43255 z"
       id="path1083"
       inkscape:connector-curvature="0" />
    <path
       style="fill:#ffffff;fill-opacity:0;stroke:none;stroke-width:1.22033894;stroke-linecap:square;stroke-miterlimit:0;stroke-dasharray:none;stroke-opacity:1"
       d="M 127.41785,274.85493 C 123.091,271.2048 104.80689,253.35734 86.786496,235.19391 L 54.022145,202.16949 53.125941,193.35593 C 52.63303,188.50847 52.427835,153.58958 52.669954,115.7584 l 0.440215,-68.783981 3.760389,-3.758396 3.760389,-3.758396 h 77.219443 77.21943 l 2.9485,2.949042 c 1.69643,1.696747 3.40525,5.727274 4.02409,9.491526 0.59158,3.598365 1.11196,38.063962 1.15642,76.590215 l 0.0808,70.04773 -5.26592,6.56244 c -8.98051,11.19158 -72.54199,73.4303 -76.54534,74.95236 -5.44976,2.072 -5.42359,2.08168 -14.05055,-5.19601 z m 46.42589,-42.66754 c 17.32891,-17.42236 31.93067,-33.01157 32.44837,-34.64266 0.57539,-1.81291 0.14647,-4.17864 -1.10347,-6.08629 -1.1246,-1.71635 -16.36743,-17.70343 -33.87297,-35.52683 l -31.82824,-32.40619 33.19918,-33.548421 c 18.25956,-18.451634 32.94584,-34.31604 32.6362,-35.254237 -0.84293,-2.554015 -18.04528,-3.475551 -64.07705,-3.43263 -49.293146,0.04596 -70.070156,1.052503 -70.856283,3.43263 -0.309874,0.938197 14.481799,16.892206 32.870383,35.453355 18.38859,18.561143 32.84575,34.110973 32.12703,34.555163 -4.14615,2.56246 -66.6835,68.77832 -66.6835,70.6059 0,2.81207 32.59059,37.52252 51.73321,55.0982 10.92226,10.0282 15.5473,13.42903 18.26316,13.42903 2.94233,0 9.65394,-6.04952 35.14398,-31.67702 z"
       id="path1085"
       inkscape:connector-curvature="0" />
    <path
       style="fill:#575757;stroke:none;stroke-width:5;stroke-miterlimit:4;stroke-dasharray:none;stroke-opacity:1"
       inkscape:connector-curvature="0"
       id="svg_2-8"
       d="m 55.30001,11 c -14.700005,3.5 -28.000004,17.5 -31.200004,32.8 -1.5,7 -1.5,152.6 -0.1,160.3 2.3,12.2 3.3,13.5 47.400004,57.6 38.1,38.2 41.6,41.4 48,44.4 12.99999,6.1 29.39999,5 41.89999,-2.7 2.3,-1.5 22,-20.5 43.8,-42.3 36.2,-36.2 39.9,-40.2 43,-46.6 l 3.4,-7 V 124 40.5 l -2.8,-5.7 C 244.3,25.9 237.1,18.7 228.2,14.3 l -7.6,-3.8 -81,-0.2 C 95.00001,10.3 57.10001,10.5 55.30001,11 Z M 216.6,40.6 c 1.5,1.1 3.7,3.3 4.8,4.8 2.1,2.7 2.1,3.8 2.4,76.4 0.2,52.8 0,74.8 -0.8,77.7 -1,3.3 -7.4,10.2 -38.3,41.4 -39.6,39.7 -42.1,41.8 -49.4,40.5 -3.3,-0.5 -8.6,-5.4 -42.09999,-38.8 -21.1,-20.9 -39,-39.3 -39.8,-40.8 -1.2,-2.3 -1.4,-14.6 -1.4,-77.3 0,-66.3 0.2,-75.1 1.6,-78.1 1.9,-4.1 3.3,-5.2 8.1,-7 3.1,-1.1 17.7,-1.3 77.99999,-1.1 73.2,0.2 74.2,0.2 76.9,2.3 z" />
  </g>
</svg>
