<?xml version="1.0" encoding="UTF-8" standalone="no"?>
<!-- Generator: Adobe Illustrator 14.0.0, SVG Export Plug-In . SVG Version: 6.00 Build 43363)  -->

<svg
   xmlns:dc="http://purl.org/dc/elements/1.1/"
   xmlns:cc="http://creativecommons.org/ns#"
   xmlns:rdf="http://www.w3.org/1999/02/22-rdf-syntax-ns#"
   xmlns:svg="http://www.w3.org/2000/svg"
   xmlns="http://www.w3.org/2000/svg"
   xmlns:sodipodi="http://sodipodi.sourceforge.net/DTD/sodipodi-0.dtd"
   xmlns:inkscape="http://www.inkscape.org/namespaces/inkscape"
   version="1.1"
   id="svg2"
   inkscape:export-filename="F:\GIS\render\symbols\cross.png"
   inkscape:version="0.92.3 (2405546, 2018-03-11)"
   sodipodi:docname="mineshaft.svg"
   inkscape:export-ydpi="90"
   inkscape:export-xdpi="90"
   inkscape:label="PozadĂ­"
   x="0px"
   y="0px"
   width="18.742756"
   height="16.263678"
   viewBox="-2 -2 18.742756 16.263678"
   enable-background="new -2 -2 20 20"
   xml:space="preserve"><metadata
   id="metadata16"><rdf:RDF><cc:Work
       rdf:about=""><dc:format>image/svg+xml</dc:format><dc:type
         rdf:resource="http://purl.org/dc/dcmitype/StillImage" /><dc:title></dc:title></cc:Work></rdf:RDF></metadata><defs
   id="defs14" />
<filter
   x="-0.1103144"
   y="-0.13155009"
   width="1.2206289"
   height="1.2631001"
   id="filter3788"
   inkscape:collect="always">
	<feGaussianBlur
   id="feGaussianBlur3790"
   stdDeviation="0.44885986"
   inkscape:collect="always" />
</filter>
<sodipodi:namedview
   id="base"
   inkscape:window-maximized="0"
   inkscape:snap-nodes="false"
   inkscape:snap-grids="false"
   inkscape:snap-to-guides="false"
   inkscape:window-y="26"
   inkscape:window-x="26"
   inkscape:window-height="603"
   inkscape:window-width="826"
   inkscape:current-layer="layer1"
   inkscape:document-units="px"
   inkscape:pageshadow="2"
   inkscape:pageopacity="0.0"
   showgrid="true"
   inkscape:cy="6.4680002"
   inkscape:cx="7.6201097"
   inkscape:zoom="12.591531"
   borderopacity="1.0"
   bordercolor="#666666"
   pagecolor="#ffffff"
   fit-margin-top="0"
   fit-margin-left="0"
   fit-margin-right="0"
   fit-margin-bottom="0"
   inkscape:pagecheckerboard="true">
	
		<inkscape:grid
   type="xygrid"
   dotted="false"
   enabled="true"
   visible="true"
   id="grid3768"
   snapvisiblegridlinesonly="true"
   empspacing="4"
   originx="-0.71512241"
   originy="-1.7953615">
		</inkscape:grid>
</sodipodi:namedview>
<g
   id="layer1"
   transform="translate(-0.7151224,-1038.3032)"
   inkscape:groupmode="layer"
   inkscape:label="Vrstva 1">
	<g
   id="use3768"
   inkscape:connector-curvature="0"
   sodipodi:nodetypes="ccccccccccccccccccccc"
   style="filter:url(#filter3788)">
		<polygon
   points="4.708,1041.144 6.135,1039.668 4.515,1037.997 1.258,1041.253 0.409,1045.464 3.578,1042.225 6.968,1045.616 2.792,1049.743 3.874,1050.873 8.051,1046.697 12.226,1050.873 13.308,1049.743 9.132,1045.616 12.373,1042.373 14.092,1044.093 15.764,1042.422 11.293,1037.999 9.621,1039.67 11.243,1041.291 8.051,1044.486 "
   id="polygon6"
   style="fill:#ffffff" />
		<polygon
   points="4.708,1041.144 6.135,1039.668 4.515,1037.997 1.258,1041.253 0.409,1045.464 3.578,1042.225 6.968,1045.616 2.792,1049.743 3.874,1050.873 8.051,1046.697 12.226,1050.873 13.308,1049.743 9.132,1045.616 12.373,1042.373 14.092,1044.093 15.764,1042.422 11.293,1037.999 9.621,1039.67 11.243,1041.291 8.051,1044.486 "
   id="polygon8"
   style="fill:none;stroke:#ffffff" />
	</g>
	<path
   id="path3002"
   inkscape:connector-curvature="0"
   sodipodi:nodetypes="ccccccccccccccccccccc"
   d="m 11.293,1037.999 -1.672,1.671 1.622,1.621 -3.192,3.194 -3.343,-3.342 1.427,-1.476 -1.62,-1.671 -3.257,3.256 -0.849,4.21 3.169,-3.238 3.39,3.391 -4.176,4.127 1.082,1.13 4.177,-4.176 4.175,4.176 1.082,-1.13 -4.176,-4.127 3.241,-3.243 1.719,1.72 1.672,-1.67 z"
   style="fill:#ffffff;fill-opacity:1;stroke:#ffffff;stroke-opacity:1;stroke-width:1.1;stroke-miterlimit:4;stroke-dasharray:none" />
<path
   id="path3002-8"
   inkscape:connector-curvature="0"
   sodipodi:nodetypes="ccccccccccccccccccccc"
   d="m 11.350391,1038.03 -1.6720003,1.671 1.6220003,1.621 -3.1920003,3.194 -3.343,-3.342 1.427,-1.476 -1.62,-1.671 -3.257,3.256 -0.84899996,4.21 3.16899996,-3.238 3.39,3.391 -4.176,4.127 1.082,1.13 4.177,-4.176 4.1750003,4.176 1.082,-1.13 -4.1760003,-4.127 3.2410003,-3.243 1.719,1.72 1.672,-1.67 z"
   style="fill:#575757;fill-opacity:1;stroke:none;stroke-width:0;stroke-miterlimit:4;stroke-dasharray:none;stroke-opacity:1" /></g>
</svg>