<?xml version="1.0" encoding="utf-8"?>
<!-- Generator: Adobe Illustrator 16.0.0, SVG Export Plug-In . SVG Version: 6.00 Build 0)  -->
<!DOCTYPE svg PUBLIC "-//W3C//DTD SVG 1.1//EN" "http://www.w3.org/Graphics/SVG/1.1/DTD/svg11.dtd">
<svg version="1.1" id="Layer_1" xmlns="http://www.w3.org/2000/svg" xmlns:xlink="http://www.w3.org/1999/xlink" x="0px" y="0px"
	 width="20px" height="20px" viewBox="0 0 20 20" enable-background="new 0 0 20 20" xml:space="preserve">
<path fill-rule="evenodd" clip-rule="evenodd" fill="#FFFFFF" d="M13.347,13.227h0.877c1.072,0,1.938,0.866,1.938,1.938v0.879
	c1.044,0.032,1.878,0.887,1.878,1.938v0.939c0,0.55-0.449,0.999-1,0.999H2.96c-0.551,0-1-0.449-1-0.999V17.98
	c0-1.051,0.834-1.905,1.878-1.938v-0.879c0-1.071,0.866-1.938,1.938-1.938h0.877V3.931C6.593,2.61,8.424,1.042,9.386,0.295
	c0.369-0.288,0.872-0.285,1.238,0.007c0.939,0.75,2.723,2.339,2.723,3.598V13.227z"/>
<path fill-rule="evenodd" clip-rule="evenodd" fill="#000001" d="M10,1.084c0,0-2.432,1.881-2.347,2.816v10.326H5.776
	c-0.521,0-0.939,0.418-0.939,0.938v1.877H3.898c-0.52,0-0.938,0.42-0.938,0.939v0.939h14.08V17.98c0-0.52-0.419-0.939-0.938-0.939
	h-0.938v-1.877c0-0.52-0.419-0.938-0.939-0.938h-1.877V3.9C12.347,2.961,10,1.084,10,1.084L10,1.084z"/>
</svg>
