<?xml version="1.0" encoding="UTF-8" standalone="no"?>
<!-- Generator: Adobe Illustrator 16.0.0, SVG Export Plug-In . SVG Version: 6.00 Build 0)  -->

<svg
   xmlns:dc="http://purl.org/dc/elements/1.1/"
   xmlns:cc="http://creativecommons.org/ns#"
   xmlns:rdf="http://www.w3.org/1999/02/22-rdf-syntax-ns#"
   xmlns:svg="http://www.w3.org/2000/svg"
   xmlns="http://www.w3.org/2000/svg"
   xmlns:sodipodi="http://sodipodi.sourceforge.net/DTD/sodipodi-0.dtd"
   xmlns:inkscape="http://www.inkscape.org/namespaces/inkscape"
   version="1.1"
   id="Layer_1"
   x="0px"
   y="0px"
   width="20px"
   height="20px"
   viewBox="0 0 20 20"
   enable-background="new 0 0 20 20"
   xml:space="preserve"
   sodipodi:docname="monument.svg"
   inkscape:version="0.92.3 (2405546, 2018-03-11)"><metadata
   id="metadata11"><rdf:RDF><cc:Work
       rdf:about=""><dc:format>image/svg+xml</dc:format><dc:type
         rdf:resource="http://purl.org/dc/dcmitype/StillImage" /><dc:title></dc:title></cc:Work></rdf:RDF></metadata><defs
   id="defs9" /><sodipodi:namedview
   pagecolor="#ffffff"
   bordercolor="#666666"
   borderopacity="1"
   objecttolerance="10"
   gridtolerance="10"
   guidetolerance="10"
   inkscape:pageopacity="0"
   inkscape:pageshadow="2"
   inkscape:window-width="731"
   inkscape:window-height="480"
   id="namedview7"
   showgrid="false"
   inkscape:pagecheckerboard="true"
   inkscape:zoom="11.8"
   inkscape:cx="10"
   inkscape:cy="10"
   inkscape:window-x="0"
   inkscape:window-y="0"
   inkscape:window-maximized="0"
   inkscape:current-layer="Layer_1" />
<path
   fill-rule="evenodd"
   clip-rule="evenodd"
   fill="#FFFFFF"
   d="M13.347,13.227h0.877c1.072,0,1.938,0.866,1.938,1.938v0.879  c1.044,0.032,1.878,0.887,1.878,1.938v0.939c0,0.55-0.449,0.999-1,0.999H2.96c-0.551,0-1-0.449-1-0.999V17.98  c0-1.051,0.834-1.905,1.878-1.938v-0.879c0-1.071,0.866-1.938,1.938-1.938h0.877V3.931C6.593,2.61,8.424,1.042,9.386,0.295  c0.369-0.288,0.872-0.285,1.238,0.007c0.939,0.75,2.723,2.339,2.723,3.598V13.227z"
   id="path2" />
<path
   fill-rule="evenodd"
   clip-rule="evenodd"
   fill="#575757"
   d="M10,1.084c0,0-2.432,1.881-2.347,2.816v10.326H5.776  c-0.521,0-0.939,0.418-0.939,0.938v1.877H3.898c-0.52,0-0.938,0.42-0.938,0.939v0.939h14.08V17.98c0-0.52-0.419-0.939-0.938-0.939  h-0.938v-1.877c0-0.52-0.419-0.938-0.939-0.938h-1.877V3.9C12.347,2.961,10,1.084,10,1.084L10,1.084z"
   id="path4"
   style="fill:#575757;fill-opacity:1" />
</svg>