<?xml version="1.0" standalone="no"?>
<!DOCTYPE svg PUBLIC "-//W3C//DTD SVG 1.1//EN" "http://www.w3.org/Graphics/SVG/1.1/DTD/svg11.dtd">
<svg width="600px" height="600px" version="1.1" xmlns="http://www.w3.org/2000/svg" xmlns:xlink="http://www.w3.org/1999/xlink" xml:space="preserve" style="fill-rule:evenodd;clip-rule:evenodd;stroke-linecap:round;stroke-linejoin:round;stroke-miterlimit:1.41421;">
    <g id="svg2">
        <g>
            <path d="M595,40.4C595,20.8491 579.151,5 559.6,5L40.4,5C20.8491,5 5,20.8491 5,40.4L5,559.6C5,579.151 20.8491,595 40.4,595L559.6,595C579.151,595 595,579.151 595,559.6L595,40.4Z" style="fill:white;stroke-width:2px;stroke:black;"/>
        </g>
        <g>
            <path d="M585,43.5C585,27.7599 572.24,15 556.5,15L43.5,15C27.7599,15 15,27.7599 15,43.5L15,556.5C15,572.24 27.7599,585 43.5,585L556.5,585C572.24,585 585,572.24 585,556.5L585,43.5Z" style="fill:rgb(0,104,180);stroke-width:2px;stroke:white;"/>
        </g>
        <g id="text5426">
            <path d="M232.308,246.305L232.308,357.548L309.941,357.548C329.349,357.548 343.826,351.71 353.373,340.033C362.919,328.357 367.692,315.655 367.692,301.926C367.692,281.098 360.197,265.793 345.207,256.009C335.582,249.54 323.195,246.305 308.047,246.305L232.308,246.305ZM180,541.69L180,196.838L305.207,196.838C318.619,196.838 331.519,198.258 343.905,201.098C356.292,203.939 369.191,210.566 382.604,220.98C393.018,229.027 401.854,240.112 409.112,254.234C416.371,268.357 420,284.728 420,303.347C420,327.962 410.808,351.394 392.426,373.642C374.043,395.891 347.179,407.015 311.834,407.015L232.308,407.015L232.308,541.69L180,541.69Z" style="fill:white;fill-rule:nonzero;"/>
        </g>
        <g>
            <path d="M86.0728,192.497L67.5033,146.073L300,53.0742L532.497,146.073L513.927,192.497L300,106.926L86.0728,192.497Z" style="fill:white;"/>
        </g>
    </g>
</svg>
