<?xml version="1.0"?>
<svg width="600" height="600" xmlns="http://www.w3.org/2000/svg" xmlns:svg="http://www.w3.org/2000/svg" version="1.1" xml:space="preserve">
 <metadata id="metadata4">image/svg+xml</metadata>

 <g class="layer">
  <title>Layer 1</title>
  <g id="g10" transform="matrix(3.7495313,0,0,-3.7532724,598.15147,555.21689)">
   <path d="m0,0c0,-6.313 -5.119,-11.432 -11.434,-11.432l-136.16,0c-6.314,0 -11.433,5.119 -11.433,11.432l0,136c0,6.314 5.119,11.433 11.433,11.433l136.16,0c6.311,0 11.43,-5.12 11.43,-11.43l0,-136" fill="#ffffff" fill-rule="nonzero" id="path12"/>
  </g>
  <path d="m598.15,555.21719c0,23.695 -19.19375,42.9075 -42.8725,42.9075l-510.5375,0c-23.675,0 -42.86875,-19.2125 -42.86875,-42.9075l0,-510.425c0,-23.69875 19.19375,-42.91125 42.86875,-42.91125l510.5375,0c23.67875,0 42.8725,19.2125 42.8725,42.91125l0,510.425z" fill="none" id="path14" stroke="#0068B4" stroke-miterlimit="4" stroke-width="3.7514"/>
  <path d="m575.8875,555.21719c0,11.39113 -9.22762,20.6275 -20.6075,20.6275l-510.5375,0c-11.37987,0 -20.6075,-9.23675 -20.6075,-20.6275l0,-510.425c0,-11.395 9.22763,-20.6275 20.6075,-20.6275l510.5375,0c11.37988,0 20.6075,9.233 20.6075,20.6275l0,510.425" fill="#0068B4" fill-rule="nonzero" id="path16"/>
  <path d="m158.66,76.844l0,457.47l96.12,0l0,-178l145.03,0c57.72,0 104.5,-46.82 104.5,-104.59l0,-70.28c0,-57.78 -46.78,-104.6 -104.5,-104.6l-241.15,0zm96.62,75.376l108.06,0c24.66,0 44.66,20.01 44.66,44.69l0,40.21c0,24.68 -20,44.69 -44.66,44.69l-108.06,0l0,-129.59z" fill="#ffffff" fill-rule="nonzero" id="path18"/>
  <text fill="#ffffff" font-family="Sans,Arial" font-size="24" id="svg_1" stroke-width="0" text-anchor="middle" transform="matrix(10.1876, 0, 0, 8.82295, -4105.31, -3423.97)" x="449.708773" xml:space="preserve" y="449.10204">€</text>
 </g>
</svg>