<?xml version="1.0" encoding="UTF-8" standalone="no"?>
<!-- Created with Inkscape (http://www.inkscape.org/) -->

<svg
   xmlns:dc="http://purl.org/dc/elements/1.1/"
   xmlns:cc="http://creativecommons.org/ns#"
   xmlns:rdf="http://www.w3.org/1999/02/22-rdf-syntax-ns#"
   xmlns:svg="http://www.w3.org/2000/svg"
   xmlns="http://www.w3.org/2000/svg"
   version="1.1"
   width="600"
   height="600"
   id="svg2"
   xml:space="preserve"><metadata
     id="metadata4"><rdf:RDF><cc:Work
         rdf:about=""><dc:format>image/svg+xml</dc:format><dc:type
           rdf:resource="http://purl.org/dc/dcmitype/StillImage" /><dc:title></dc:title></cc:Work></rdf:RDF></metadata><defs
     id="defs6" /><g
     transform="matrix(3.7495313,0,0,-3.7532724,598.15147,555.21689)"
     id="g10"><path
       d="m 0,0 c 0,-6.313 -5.119,-11.432 -11.434,-11.432 h -136.16 c -6.314,0 -11.433,5.119 -11.433,11.432 v 136 c 0,6.314 5.119,11.433 11.433,11.433 h 136.16 c 6.311,0 11.43,-5.12 11.43,-11.43 v -136"
       id="path12"
       style="fill:#ffffff;fill-rule:nonzero" /></g><path
     d="m 598.15,555.21719 c 0,23.695 -19.19375,42.9075 -42.8725,42.9075 H 44.74 c -23.675,0 -42.86875,-19.2125 -42.86875,-42.9075 V 44.79219 C 1.87125,21.09344 21.065,1.88094 44.74,1.88094 h 510.5375 c 23.67875,0 42.8725,19.2125 42.8725,42.91125 v 510.425 z"
     id="path14"
     style="fill:none;stroke:#0079c1;stroke-width:3.75140142;stroke-linecap:butt;stroke-linejoin:miter;stroke-miterlimit:4;stroke-opacity:1;stroke-dasharray:none" /><path
     d="m 575.8875,555.21719 c 0,11.39113 -9.22762,20.6275 -20.6075,20.6275 H 44.7425 c -11.379875,0 -20.6075,-9.23675 -20.6075,-20.6275 v -510.425 c 0,-11.395 9.227625,-20.6275 20.6075,-20.6275 H 555.28 c 11.37988,0 20.6075,9.233 20.6075,20.6275 v 510.425"
     id="path16"
     style="fill:#0079c1;fill-opacity:1;fill-rule:nonzero" /><path
     d="M 158.66,76.844003 V 534.314 h 96.12 v -178 h 145.03 c 57.72,0 104.5,-46.82 104.5,-104.59 v -70.28 c 0,-57.78 -46.78,-104.599997 -104.5,-104.599997 H 158.66 z M 255.28,152.22 h 108.06 c 24.66,0 44.66,20.01 44.66,44.69 v 40.21 c 0,24.68 -20,44.69 -44.66,44.69 H 255.28 V 152.22 z"
     id="path18"
     style="fill:#ffffff;fill-rule:nonzero" /></svg>