<?xml version="1.0"?>
<svg width="228" height="378" xmlns="http://www.w3.org/2000/svg" xmlns:svg="http://www.w3.org/2000/svg" preserveAspectRatio="xMidYMid meet">
 <metadata>Created by potrace 1.16, written by Peter Selinger 2001-2019</metadata>

 <g class="layer">
  <title>background</title>
  <rect fill="none" height="602" id="canvas_background" width="802" x="-1" y="-1"/>
 </g>
 <g class="layer">
  <title>Layer 1</title>
  <g fill="#000000" id="svg_1" transform="translate(0, 378) scale(0.1, -0.1)">
   <path d="m1000,3305l0,-285l-285,0l-285,0l0,-190l0,-190l285,0l285,0l0,-545l0,-545l-380,-570l-380,-570l0,-61c0,-66 9,-89 49,-132c55,-60 8,-57 901,-57c804,0 822,0 860,20c22,11 52,39 67,62c23,34 28,53 28,103l0,62l-383,574l-382,574l2,540l3,540l288,3l287,2l0,190l0,190l-290,0l-290,0l0,285l0,285l-190,0l-190,0l0,-285z" id="svg_2" stroke="#ffffff" stroke-width="50"/>
  </g>
 </g>
</svg>