<?xml version="1.0" encoding="UTF-8" standalone="no"?>
<svg xmlns:rdf="http://www.w3.org/1999/02/22-rdf-syntax-ns#" xmlns="http://www.w3.org/2000/svg" height="580" width="580" version="1.0" xmlns:cc="http://creativecommons.org/ns#" xmlns:dc="http://purl.org/dc/elements/1.1/">
 <title>playground</title>
 <metadata>
  <rdf:RDF>
   <cc:Work rdf:about="">
    <dc:format>image/svg+xml</dc:format>
    <dc:type rdf:resource="http://purl.org/dc/dcmitype/StillImage"/>
    <dc:title>playground</dc:title>
   </cc:Work>
  </rdf:RDF>
 </metadata>
 <path d="m134.79 153.26c-26.08 20.74-59.458 58.68-79.791 90.35-3.3423 4.4168-14.128 12.536-20.786 11.637-27.594 4.608-48.829 34.414-37.875 61.27 10.013 32.091 59.616 37.194 80.167 42.181-10.716 18.336-17.545 42.382-5.0732 57.613 15.492 18.283 52.203 16.763 67.332-1.9596 12.27-10.709 21.3-24.414 30.992-37.35 28.987 6.2097 37.706 5.4824 66.765 11.336-12.445 25.272-41.884 78.933-53.381 104.66-20.2 32.972 1.7179 58 35.42 58h145.82c33.848-0.41862 53.154-20.224 28.295-58l-37.214-81.135 30.266 5.7918c2.7813 23.803 6.353 50.434 24.975 67.549 22.039 17.49 60.645 2.0505 62.949-26.479 1.478-7.9283 0.61664-16.066-0.0684-24.002 24.008 5.3196 63.543 16.298 87.604 6.9275 28.519-14.713 34.05-60.761 7.3232-79.944-5.5561-4.3182-12.057-7.2947-18.791-9.25-1.28-22.08-10.5-97.28-29.72-112.71 25.5-22.75 8.17-79.44-22.52-100.14-27.75-21.61-91.48-14.44-112.42 26.37-21.41 45.94 12.33 100.05 49.94 104.86-11.03 12.26-31.84 38.36-40.82 52.16l-191.18-39.62c0-13.25-6.65-67.19-7.93-80.38 59.43 0 94.93-29 90.93-87-1.68-37.363-50.26-63.482-83-63.149-43.45-1.353-95.76 50.799-68.21 100.41z" fill="#f1eee9"/>
 <path stroke-linejoin="round" d="m42.035 301.09 495.93 97.847" stroke="#329E84" stroke-linecap="round" stroke-miterlimit="1.1" stroke-width="36" fill="none"/>
 <g fill="#008040">
  <path d="m290 348-87 174h174z" fill-rule="evenodd"/>
  <path d="m162.3 102.32c-14.161 22.802-5.5432 52.359 19.237 65.996 24.78 13.638 56.331 6.1865 70.451-16.638 14.161-22.802 5.5432-52.359-19.237-65.996-24.78-13.638-56.331-6.1865-70.451 16.638z"/>
  <path d="m410.87 175.75c-14.161 22.802-5.5432 52.359 19.237 65.996 24.78 13.638 56.331 6.1865 70.451-16.638 14.161-22.802 5.5432-52.359-19.237-65.996-24.78-13.638-56.331-6.1865-70.451 16.638z"/>
  <path d="m155.25 176.4c-24.09-7.25-103.18 117.94-103.18 117.94l82.127 16.271c-1.9062 3.069-21.352 39.277-37.971 68.717-10.702 18.959 3.7634 34.535 21.794 16.634 29.473-29.26 52.867-69.454 54.849-72.836 0 0 7.8199-139.07-17.618-146.73z" fill-rule="evenodd"/>
  <path d="m498.52 251.92c23.335 9.3959 23.953 133.37 23.953 133.37l-78.925-11.62c-0.78692 3.3342-0.88808 38.396 1.9321 73.206 1.7582 21.702-21.613 24.107-27.407-0.63635-10.708-45.728-12.416-84.236-12.537-86.972 0 0 68.34-117.27 92.984-107.35z" fill-rule="evenodd"/>
 </g>
</svg>
