<?xml version="1.0" encoding="utf-8"?>
<!-- Generator: Adobe Illustrator 16.0.0, SVG Export Plug-In . SVG Version: 6.00 Build 0)  -->
<!DOCTYPE svg PUBLIC "-//W3C//DTD SVG 1.1//EN" "http://www.w3.org/Graphics/SVG/1.1/DTD/svg11.dtd">
<svg version="1.1" id="Layer_1" xmlns="http://www.w3.org/2000/svg" xmlns:xlink="http://www.w3.org/1999/xlink" x="0px" y="0px"
	 width="20px" height="20px" viewBox="0 0 20 20" enable-background="new 0 0 20 20" xml:space="preserve">
<path fill-rule="evenodd" clip-rule="evenodd" fill="#FFFFFF" d="M4.204,5.836C4.168,5.674,4.15,5.504,4.15,5.331
	c0-1.307,1.061-2.369,2.369-2.369s2.37,1.062,2.37,2.369c0,1.211-0.907,2.209-2.078,2.354c0.068,0.35,0.111,0.688,0.146,0.961
	c0.039,0.303,0.07,0.607,0.098,0.91l6.658,1.314c0.192-0.293,0.391-0.58,0.596-0.863c0.188-0.258,0.386-0.521,0.596-0.771
	c-0.6-0.43-0.991-1.133-0.991-1.926c0-1.309,1.062-2.369,2.37-2.369c1.308,0,2.369,1.061,2.369,2.369
	c0,0.596-0.22,1.141-0.584,1.557c0.374,0.686,0.532,1.619,0.642,2.22c0.048,0.268,0.092,0.535,0.132,0.805
	c0.791,0.252,1.288,1.064,1.126,1.896c-0.176,0.898-1.049,1.486-1.945,1.309l-1.7-0.334c0.027,0.182,0.056,0.363,0.085,0.543
	c0.312,1.891-2.185,2.479-2.808,0.521c-0.177-0.555-0.328-1.123-0.461-1.693l-0.939-0.186l0.776,1.631
	c0.152,0.318,0.132,0.666-0.057,0.963c-0.188,0.299-0.492,0.467-0.846,0.467H7.636c-0.354,0-0.657-0.168-0.846-0.467
	c-0.188-0.297-0.209-0.645-0.057-0.963l1.179-2.477L6.082,12.74c-0.414,0.467-0.845,0.924-1.294,1.352
	c-0.625,0.596-1.632,0.777-2.25,0.059c-0.476-0.551-0.392-1.314,0.037-1.863c0.054-0.068,0.107-0.137,0.161-0.207l-1.396-0.275
	c-0.895-0.176-1.481-1.047-1.307-1.943c0.162-0.828,0.921-1.395,1.744-1.334c0.259-0.355,0.526-0.705,0.801-1.047
	c0.35-0.434,0.728-0.875,1.137-1.252C3.865,6.09,4.029,5.954,4.204,5.836z"/>
<path fill-rule="evenodd" clip-rule="evenodd" fill="#000001" d="M1.533,10.824c-0.355-0.07-0.588-0.414-0.519-0.771
	c0.069-0.355,0.415-0.588,0.771-0.518l0.437,0.086c0.683-0.969,2.351-3.229,2.966-3.1c0.614,0.127,0.848,2.605,0.927,3.867
	l8.071,1.591c0.664-1.055,2.086-3.173,2.694-2.988c0.539,0.164,0.9,2.417,1.066,3.73l0.521,0.104
	c0.356,0.068,0.589,0.414,0.52,0.771c-0.069,0.355-0.415,0.588-0.771,0.518l-3.069-0.605c0.065,0.527,0.168,1.309,0.274,1.959
	c0.112,0.682-0.624,0.824-0.868,0.055c-0.258-0.811-0.456-1.662-0.579-2.244l-3.531-0.697l1.631,3.426H7.636l1.732-3.639
	l-3.661-0.721c-0.386,0.451-0.981,1.119-1.61,1.721c-0.584,0.557-1.161,0.08-0.735-0.465c0.379-0.484,0.809-1.072,1.117-1.5
	L1.533,10.824L1.533,10.824z M16.283,5.938c-0.757,0-1.37,0.613-1.37,1.371c0,0.756,0.613,1.369,1.37,1.369s1.369-0.613,1.369-1.369
	C17.652,6.551,17.04,5.938,16.283,5.938L16.283,5.938z M6.519,3.962c-0.756,0-1.369,0.613-1.369,1.369
	c0,0.758,0.613,1.371,1.369,1.371c0.757,0,1.37-0.613,1.37-1.371C7.889,4.575,7.276,3.962,6.519,3.962z"/>
</svg>
