<?xml version="1.0"?>
<svg width="446" height="615" xmlns="http://www.w3.org/2000/svg" xmlns:svg="http://www.w3.org/2000/svg" preserveAspectRatio="xMidYMid meet">
 <metadata>Created by potrace 1.16, written by Peter Selinger 2001-2019</metadata>

 <g class="layer">
  <title>Layer 1</title>
  <g fill="#575757" id="svg_1" transform="translate(0, 615) scale(0.1, -0.1)">
   <path d="m1594,5890c-30,-12 -64,-58 -64,-88c0,-14 77,-482 170,-1041c94,-559 169,-1023 168,-1031c-2,-9 -309,-316 -683,-684c-902,-886 -825,-806 -825,-861c0,-61 32,-95 89,-95c47,0 -40,-68 801,623c338,278 616,505 617,504c1,-2 -162,-2812 -171,-2919l-5,-68l384,0l385,0l-6,73c-11,149 -182,3092 -179,3095c1,1 412,-110 913,-248c501,-137 923,-250 937,-250c16,0 38,12 56,29c39,40 40,92 2,129c-21,21 -258,113 -973,381c-520,194 -950,358 -956,365c-6,6 -129,466 -274,1021c-144,556 -266,1018 -272,1028c-5,10 -25,25 -43,33c-39,16 -42,16 -71,4z" id="svg_2" stroke="#ffffff" stroke-width="150"/>
  </g>
 </g>
</svg>