<?xml version="1.0" encoding="utf-8"?>
<!-- Generator: Adobe Illustrator 14.0.0, SVG Export Plug-In . SVG Version: 6.00 Build 43363)  -->
<!DOCTYPE svg PUBLIC "-//W3C//DTD SVG 1.0//EN" "http://www.w3.org/TR/2001/REC-SVG-20010904/DTD/svg10.dtd">
<svg version="1.0" id="Vrstva_1" xmlns="http://www.w3.org/2000/svg" xmlns:xlink="http://www.w3.org/1999/xlink" x="0px" y="0px"
	 width="20px" height="20px" viewBox="0 0 20 20" style="enable-background:new 0 0 20 20;" xml:space="preserve">
<g>
	<path d="M8.9,19.7l0.8-9.3l-5,2.9l-1.5-2.5l5.1-3c0.1-0.7,0.4-1.3,0.9-1.7V0.3h2.9v5.8c0.5,0.4,0.9,1,1,1.7l5.1,2.9l-1.5,2.5
		l-5-2.9l1,9.2H8.9z"/>
	<path style="fill:#FFFFFF;" d="M11.6,0.8v5.6c0.6,0.3,1,1,1,1.7c0,0,0,0,0,0.1l4.9,2.8l-1,1.7l-5-2.9c-0.2,0.1-0.4,0.2-0.6,0.2
		l0.2,0.2l1,9H9.4l0.7-9l0.2-0.2c-0.2,0-0.4-0.1-0.6-0.2l-5,2.9l-1-1.7l4.9-2.8c0,0,0,0,0-0.1c0-0.7,0.4-1.3,1-1.7V0.8H11.6
		 M12.6-0.2h-1H9.7h-1v1v5.1c-0.5,0.4-0.8,1-0.9,1.6l-4.5,2.6l-0.9,0.5l0.5,0.9l1,1.7L4.4,14l0.9-0.5L9,11.3l-0.6,7.8l-0.1,1.1h1.1
		h2.7h1.1l-0.1-1.1l-0.9-7.7l3.7,2.2l0.9,0.5l0.5-0.9l1-1.7l0.5-0.9L18,10.1l-4.5-2.6c-0.1-0.6-0.4-1.2-0.9-1.6V0.8V-0.2L12.6-0.2z"
		/>
</g>
<circle style="fill:#FFFFFF;" cx="10.6" cy="8.1" r="1.2"/>
</svg>
