<?xml version="1.0"?><svg width="313.622" height="471.664" xmlns="http://www.w3.org/2000/svg">
 <title>metro train white 2</title>
 <metadata id="metadata3">AIGA_Symbol_SignsEPS converted from  http://aiga.orgsymbolmapsymOpen Clip Art LibraryJean-Victor BalinJean-Victor Balinimage/svg+xmlen</metadata>

 <g>
  <title>Layer 1</title>
  <g id="svg_6">
   <path d="m162.287018,97.434822l-64.535309,0.042839c-30.05545,0 -52.178085,18.991241 -52.178085,39.680359l0,146.536743c0,20.04361 19.940781,36.49704 39.984116,39.037964l-60.098663,70.923523l34.676483,0l52.005402,-66.5737l51.846649,0l0.054443,-1l0.054443,1l49.846619,0l50.005402,66.5737l34.676483,0l-60.098663,-70.923523c20.043335,-2.540924 39.984131,-18.994354 39.984131,-39.037964l0,-146.536743c0,-20.689117 -22.12265,-39.680359 -52.17807,-39.680359l-64.04538,-0.042839zm-25.558289,8.501427l25.258881,0l0.054443,0l0.054443,0l25.25885,0c4.572693,0 8.546661,3.019379 8.546661,6.616943l0,11.649292c0,3.597565 -3.756195,6.681198 -8.546661,6.681198l-25.25885,0l-0.054443,0l-0.054443,0l-25.258881,0c-4.790497,0 -8.546631,-3.083633 -8.546631,-6.681198l0,-11.649292c0,-3.597565 3.973907,-6.616943 8.546631,-6.616943zm-37.235046,32.849243l62.493927,0l0.108887,0l62.493896,0c16.984406,0 25.993774,9.572083 25.993774,20.536133l0,26.382187c0.132385,12.677155 -11.622345,20.429047 -25.993774,20.429047l-62.493896,0l-0.054443,0l-0.054443,0l-62.493927,0c-14.371429,0 -26.12616,-7.751892 -25.993774,-20.429047l0,-26.382187c0,-10.96405 9.009369,-20.536133 25.993774,-20.536133zm-2.830719,126.578827c12.633759,0 22.863617,8.048248 22.863617,17.987854c0,9.938873 -10.229858,17.987823 -22.863617,17.987823c-12.633789,0 -22.863647,-8.04895 -22.863647,-17.987823c0,-9.939606 10.229858,-17.987854 22.863647,-17.987854zm130.213806,0c12.633789,0 22.890839,8.048248 22.890839,17.987854c0,9.938873 -10.25705,17.987823 -22.890839,17.987823c-12.633789,0 -22.863647,-8.04895 -22.863647,-17.987823c0,-9.939606 10.229858,-17.987854 22.863647,-17.987854z" id="path2229" fill="#000000"/>
   <rect id="svg_4" height="8" width="176.000004" y="343.335873" x="76.301731" fill="#000000"/>
   <rect id="svg_5" height="8" width="210.000014" y="376.585934" x="61.753958" fill="#000000"/>
  </g>
 </g>
</svg>