<?xml version="1.0" encoding="utf-8"?>
<!-- Generator: Adobe Illustrator 14.0.0, SVG Export Plug-In . SVG Version: 6.00 Build 43363)  -->
<!DOCTYPE svg PUBLIC "-//W3C//DTD SVG 1.0//EN" "http://www.w3.org/TR/2001/REC-SVG-20010904/DTD/svg10.dtd">
<svg version="1.0"
	 id="symbol-restaurant" xmlns:xs="http://www.w3.org/2001/XMLSchema" xmlns:inkscape="http://www.inkscape.org/namespaces/inkscape" xmlns:rdf="http://www.w3.org/1999/02/22-rdf-syntax-ns#" xmlns:svg="http://www.w3.org/2000/svg" xmlns:cc="http://web.resource.org/cc/" xmlns:xi="http://www.w3.org/2001/XInclude" xmlns:dc="http://purl.org/dc/elements/1.1/"
	 xmlns="http://www.w3.org/2000/svg" xmlns:xlink="http://www.w3.org/1999/xlink" x="0px" y="0px" width="20px" height="20px"
	 viewBox="0 0 20 20" style="enable-background:new 0 0 20 20;" xml:space="preserve">
<path d="M16.3,2c-0.7-0.7-3.2,2.3-4.3,3.6c-0.3,0.3-0.8,1,0.3,2C3.8,16,2.2,17.2,3.4,18.3c1.2,1.2,2.3-0.5,10.3-9.4
	c1,1,1.9,0.5,2.2,0.2c1.3-1.2,4-3.8,3.3-4.5c-0.7-0.7-3.8,3.9-4.5,3.4c0-1.6,3.8-4,3.1-4.7c-0.7-0.7-3.8,3.9-4.5,3.3
	C12.4,5.9,17,2.6,16.3,2L16.3,2z"/>
<path d="M9,7.6c7.6,7.6,9.8,9,8.7,10.1c-1.4,1.4-2.3-1-10.1-8.7c-3.4,2.9-7.2-4.8-5.7-6.5C3.8,0.5,11.6,4.7,9,7.6z"/>
</svg>
