<?xml version="1.0" encoding="UTF-8" standalone="no"?>
<!-- Created with Inkscape (http://www.inkscape.org/) -->

<svg
   xmlns:dc="http://purl.org/dc/elements/1.1/"
   xmlns:cc="http://creativecommons.org/ns#"
   xmlns:rdf="http://www.w3.org/1999/02/22-rdf-syntax-ns#"
   xmlns:svg="http://www.w3.org/2000/svg"
   xmlns="http://www.w3.org/2000/svg"
   xmlns:sodipodi="http://sodipodi.sourceforge.net/DTD/sodipodi-0.dtd"
   xmlns:inkscape="http://www.inkscape.org/namespaces/inkscape"
   width="15.998055mm"
   height="15.917988mm"
   viewBox="0 0 15.998055 15.917988"
   version="1.1"
   id="svg83"
   inkscape:version="0.92.3 (2405546, 2018-03-11)"
   sodipodi:docname="restaurant.svg">
  <defs
     id="defs77" />
  <sodipodi:namedview
     id="base"
     pagecolor="#ffffff"
     bordercolor="#666666"
     borderopacity="1.0"
     inkscape:pageopacity="0.0"
     inkscape:pageshadow="2"
     inkscape:zoom="4.7284524"
     inkscape:cx="30.199739"
     inkscape:cy="30.081234"
     inkscape:document-units="mm"
     inkscape:current-layer="layer1"
     showgrid="false"
     fit-margin-top="0"
     fit-margin-left="0"
     fit-margin-right="0"
     fit-margin-bottom="0"
     inkscape:window-width="833"
     inkscape:window-height="604"
     inkscape:window-x="220"
     inkscape:window-y="105"
     inkscape:window-maximized="0"
     inkscape:pagecheckerboard="true" />
  <metadata
     id="metadata80">
    <rdf:RDF>
      <cc:Work
         rdf:about="">
        <dc:format>image/svg+xml</dc:format>
        <dc:type
           rdf:resource="http://purl.org/dc/dcmitype/StillImage" />
        <dc:title></dc:title>
      </cc:Work>
    </rdf:RDF>
  </metadata>
  <g
     inkscape:label="Ebene 1"
     inkscape:groupmode="layer"
     id="layer1"
     transform="translate(-1.9982607,-2.0244501)">
    <path
       style="opacity:0;fill:#ff0000;fill-opacity:1;stroke:#ffffff;stroke-width:0.06508443;stroke-linecap:square;stroke-miterlimit:4;stroke-dasharray:none;stroke-opacity:1"
       d="m 5.5792849,29.38813 0.010118,-13.09824 9.1549091,-5.044043 c 5.035201,-2.7742235 9.300097,-4.9998693 9.477547,-4.9458795 0.177451,0.05399 4.326967,2.3238091 9.221147,5.0440425 l 8.898509,4.94588 1.76e-4,13.09824 1.76e-4,13.098241 H 38.111379 33.880892 V 29.859992 c 0,-9.38662 -0.100199,-12.726577 -0.390507,-13.016884 -0.83396,-0.833961 -2.124403,-0.445541 -3.297501,0.992537 -2.88526,3.536985 -4.26209,7.715533 -4.268457,12.954363 -0.0044,3.5859 0.04444,3.860752 1.047148,5.897533 0.807652,1.640576 1.051719,2.561309 1.051719,3.967585 v 1.831245 h -3.614765 -3.614765 l 0.116486,-3.669515 c 0.115795,-3.647756 0.124581,-3.682972 1.481687,-5.938954 0.75086,-1.248191 1.519666,-2.681682 1.708457,-3.185535 0.495666,-1.322851 0.455127,-12.346882 -0.04725,-12.849259 -0.520996,-0.520996 -2.044394,-0.497486 -2.489151,0.03841 -0.211066,0.25432 -0.392873,2.339061 -0.446623,5.121334 -0.08052,4.168111 -0.154283,4.704625 -0.660141,4.801695 -0.521214,0.100018 -0.569488,-0.290761 -0.569488,-4.609956 0,-5.108708 -0.1974,-5.741993 -1.789822,-5.741993 -1.592422,0 -1.789822,0.633285 -1.789822,5.741993 0,4.319195 -0.04828,4.709974 -0.569489,4.609956 -0.505857,-0.09707 -0.579617,-0.633584 -0.66014,-4.801695 -0.05375,-2.782273 -0.235557,-4.867014 -0.446624,-5.121334 -0.472747,-0.569626 -2.050562,-0.547674 -2.534354,0.03526 -0.27496,0.331307 -0.356231,2.217654 -0.283913,6.589798 0.109396,6.613779 0.05033,6.354947 2.245164,9.838139 1.06538,1.69075 1.113616,1.90518 1.22617,5.45082 l 0.117163,3.690834 H 10.485621 5.5691672 Z"
       id="path3834"
       inkscape:connector-curvature="0"
       transform="matrix(0.26458333,0,0,0.26458333,3.6499999,3.6500629)" />
    <path
       style="opacity:0;fill:#ff0000;fill-opacity:1;stroke:#ffffff;stroke-width:0.06508443;stroke-linecap:square;stroke-miterlimit:4;stroke-dasharray:none;stroke-opacity:1"
       d="m 5.5792849,29.38813 0.010118,-13.09824 9.1549091,-5.044043 c 5.035201,-2.7742235 9.300097,-4.9998693 9.477547,-4.9458795 0.177451,0.05399 4.326967,2.3238091 9.221147,5.0440425 l 8.898509,4.94588 1.76e-4,13.09824 1.76e-4,13.098241 H 38.111379 33.880892 V 29.859992 c 0,-9.38662 -0.100199,-12.726577 -0.390507,-13.016884 -0.83396,-0.833961 -2.124403,-0.445541 -3.297501,0.992537 -2.88526,3.536985 -4.26209,7.715533 -4.268457,12.954363 -0.0044,3.5859 0.04444,3.860752 1.047148,5.897533 0.807652,1.640576 1.051719,2.561309 1.051719,3.967585 v 1.831245 h -3.614765 -3.614765 l 0.116486,-3.669515 c 0.115795,-3.647756 0.124581,-3.682972 1.481687,-5.938954 0.75086,-1.248191 1.519666,-2.681682 1.708457,-3.185535 0.495666,-1.322851 0.455127,-12.346882 -0.04725,-12.849259 -0.520996,-0.520996 -2.044394,-0.497486 -2.489151,0.03841 -0.211066,0.25432 -0.392873,2.339061 -0.446623,5.121334 -0.08052,4.168111 -0.154283,4.704625 -0.660141,4.801695 -0.521214,0.100018 -0.569488,-0.290761 -0.569488,-4.609956 0,-5.108708 -0.1974,-5.741993 -1.789822,-5.741993 -1.592422,0 -1.789822,0.633285 -1.789822,5.741993 0,4.319195 -0.04828,4.709974 -0.569489,4.609956 -0.505857,-0.09707 -0.579617,-0.633584 -0.66014,-4.801695 -0.05375,-2.782273 -0.235557,-4.867014 -0.446624,-5.121334 -0.472747,-0.569626 -2.050562,-0.547674 -2.534354,0.03526 -0.27496,0.331307 -0.356231,2.217654 -0.283913,6.589798 0.109396,6.613779 0.05033,6.354947 2.245164,9.838139 1.06538,1.69075 1.113616,1.90518 1.22617,5.45082 l 0.117163,3.690834 H 10.485621 5.5691672 Z"
       id="path3836"
       inkscape:connector-curvature="0"
       transform="matrix(0.26458333,0,0,0.26458333,3.6499999,3.6500629)" />
    <path
       style="opacity:0;fill:#ff0000;fill-opacity:1;stroke:#ffffff;stroke-width:0.06508443;stroke-linecap:square;stroke-miterlimit:4;stroke-dasharray:none;stroke-opacity:1"
       d="m 5.5792849,29.38813 0.010118,-13.09824 9.1549091,-5.044043 c 5.035201,-2.7742235 9.300097,-4.9998693 9.477547,-4.9458795 0.177451,0.05399 4.326967,2.3238091 9.221147,5.0440425 l 8.898509,4.94588 1.76e-4,13.09824 1.76e-4,13.098241 H 38.111379 33.880892 V 29.859992 c 0,-9.38662 -0.100199,-12.726577 -0.390507,-13.016884 -0.83396,-0.833961 -2.124403,-0.445541 -3.297501,0.992537 -2.88526,3.536985 -4.26209,7.715533 -4.268457,12.954363 -0.0044,3.5859 0.04444,3.860752 1.047148,5.897533 0.807652,1.640576 1.051719,2.561309 1.051719,3.967585 v 1.831245 h -3.614765 -3.614765 l 0.116486,-3.669515 c 0.115795,-3.647756 0.124581,-3.682972 1.481687,-5.938954 0.75086,-1.248191 1.519666,-2.681682 1.708457,-3.185535 0.495666,-1.322851 0.455127,-12.346882 -0.04725,-12.849259 -0.520996,-0.520996 -2.044394,-0.497486 -2.489151,0.03841 -0.211066,0.25432 -0.392873,2.339061 -0.446623,5.121334 -0.08052,4.168111 -0.154283,4.704625 -0.660141,4.801695 -0.521214,0.100018 -0.569488,-0.290761 -0.569488,-4.609956 0,-5.108708 -0.1974,-5.741993 -1.789822,-5.741993 -1.592422,0 -1.789822,0.633285 -1.789822,5.741993 0,4.319195 -0.04828,4.709974 -0.569489,4.609956 -0.505857,-0.09707 -0.579617,-0.633584 -0.66014,-4.801695 -0.05375,-2.782273 -0.235557,-4.867014 -0.446624,-5.121334 -0.472747,-0.569626 -2.050562,-0.547674 -2.534354,0.03526 -0.27496,0.331307 -0.356231,2.217654 -0.283913,6.589798 0.109396,6.613779 0.05033,6.354947 2.245164,9.838139 1.06538,1.69075 1.113616,1.90518 1.22617,5.45082 l 0.117163,3.690834 H 10.485621 5.5691672 Z"
       id="path3838"
       inkscape:connector-curvature="0"
       transform="matrix(0.26458333,0,0,0.26458333,3.6499999,3.6500629)" />
    <path
       style="opacity:0;fill:#ff0000;fill-opacity:1;stroke:#ffffff;stroke-width:0.06508443;stroke-linecap:square;stroke-miterlimit:4;stroke-dasharray:none;stroke-opacity:1"
       d="m 5.5792849,29.38813 0.010118,-13.09824 9.1549091,-5.044043 c 5.035201,-2.7742235 9.300097,-4.9998693 9.477547,-4.9458795 0.177451,0.05399 4.326967,2.3238091 9.221147,5.0440425 l 8.898509,4.94588 1.76e-4,13.09824 1.76e-4,13.098241 H 38.111379 33.880892 V 29.859992 c 0,-9.38662 -0.100199,-12.726577 -0.390507,-13.016884 -0.83396,-0.833961 -2.124403,-0.445541 -3.297501,0.992537 -2.88526,3.536985 -4.26209,7.715533 -4.268457,12.954363 -0.0044,3.5859 0.04444,3.860752 1.047148,5.897533 0.807652,1.640576 1.051719,2.561309 1.051719,3.967585 v 1.831245 h -3.614765 -3.614765 l 0.116486,-3.669515 c 0.115795,-3.647756 0.124581,-3.682972 1.481687,-5.938954 0.75086,-1.248191 1.519666,-2.681682 1.708457,-3.185535 0.495666,-1.322851 0.455127,-12.346882 -0.04725,-12.849259 -0.520996,-0.520996 -2.044394,-0.497486 -2.489151,0.03841 -0.211066,0.25432 -0.392873,2.339061 -0.446623,5.121334 -0.08052,4.168111 -0.154283,4.704625 -0.660141,4.801695 -0.521214,0.100018 -0.569488,-0.290761 -0.569488,-4.609956 0,-5.108708 -0.1974,-5.741993 -1.789822,-5.741993 -1.592422,0 -1.789822,0.633285 -1.789822,5.741993 0,4.319195 -0.04828,4.709974 -0.569489,4.609956 -0.505857,-0.09707 -0.579617,-0.633584 -0.66014,-4.801695 -0.05375,-2.782273 -0.235557,-4.867014 -0.446624,-5.121334 -0.472747,-0.569626 -2.050562,-0.547674 -2.534354,0.03526 -0.27496,0.331307 -0.356231,2.217654 -0.283913,6.589798 0.109396,6.613779 0.05033,6.354947 2.245164,9.838139 1.06538,1.69075 1.113616,1.90518 1.22617,5.45082 l 0.117163,3.690834 H 10.485621 5.5691672 Z"
       id="path3840"
       inkscape:connector-curvature="0"
       transform="matrix(0.26458333,0,0,0.26458333,3.6499999,3.6500629)" />
    <path
       style="opacity:0;fill:#ffff00;fill-opacity:1;stroke:#ffffff;stroke-width:0.06508443;stroke-linecap:square;stroke-miterlimit:4;stroke-dasharray:none;stroke-opacity:1"
       d="m 5.5792849,29.38813 0.010118,-13.09824 9.1549091,-5.044043 c 5.035201,-2.7742235 9.300097,-4.9998693 9.477547,-4.9458795 0.177451,0.05399 4.326967,2.3238091 9.221147,5.0440425 l 8.898509,4.94588 1.76e-4,13.09824 1.76e-4,13.098241 H 38.111379 33.880892 V 29.859992 c 0,-9.38662 -0.100199,-12.726577 -0.390507,-13.016884 -0.83396,-0.833961 -2.124403,-0.445541 -3.297501,0.992537 -2.88526,3.536985 -4.26209,7.715533 -4.268457,12.954363 -0.0044,3.5859 0.04444,3.860752 1.047148,5.897533 0.807652,1.640576 1.051719,2.561309 1.051719,3.967585 v 1.831245 h -3.614765 -3.614765 l 0.116486,-3.669515 c 0.115795,-3.647756 0.124581,-3.682972 1.481687,-5.938954 0.75086,-1.248191 1.519666,-2.681682 1.708457,-3.185535 0.495666,-1.322851 0.455127,-12.346882 -0.04725,-12.849259 -0.520996,-0.520996 -2.044394,-0.497486 -2.489151,0.03841 -0.211066,0.25432 -0.392873,2.339061 -0.446623,5.121334 -0.08052,4.168111 -0.154283,4.704625 -0.660141,4.801695 -0.521214,0.100018 -0.569488,-0.290761 -0.569488,-4.609956 0,-5.108708 -0.1974,-5.741993 -1.789822,-5.741993 -1.592422,0 -1.789822,0.633285 -1.789822,5.741993 0,4.319195 -0.04828,4.709974 -0.569489,4.609956 -0.505857,-0.09707 -0.579617,-0.633584 -0.66014,-4.801695 -0.05375,-2.782273 -0.235557,-4.867014 -0.446624,-5.121334 -0.472747,-0.569626 -2.050562,-0.547674 -2.534354,0.03526 -0.27496,0.331307 -0.356231,2.217654 -0.283913,6.589798 0.109396,6.613779 0.05033,6.354947 2.245164,9.838139 1.06538,1.69075 1.113616,1.90518 1.22617,5.45082 l 0.117163,3.690834 H 10.485621 5.5691672 Z"
       id="path3842"
       inkscape:connector-curvature="0"
       transform="matrix(0.26458333,0,0,0.26458333,3.6499999,3.6500629)" />
    <path
       style="opacity:0;fill:#ffff00;fill-opacity:1;stroke:#ffffff;stroke-width:0.06508443;stroke-linecap:square;stroke-miterlimit:4;stroke-dasharray:none;stroke-opacity:1"
       d="m 5.5792849,29.38813 0.010118,-13.09824 9.1549091,-5.044043 c 5.035201,-2.7742235 9.300097,-4.9998693 9.477547,-4.9458795 0.177451,0.05399 4.326967,2.3238091 9.221147,5.0440425 l 8.898509,4.94588 1.76e-4,13.09824 1.76e-4,13.098241 H 38.111379 33.880892 V 29.859992 c 0,-9.38662 -0.100199,-12.726577 -0.390507,-13.016884 -0.83396,-0.833961 -2.124403,-0.445541 -3.297501,0.992537 -2.88526,3.536985 -4.26209,7.715533 -4.268457,12.954363 -0.0044,3.5859 0.04444,3.860752 1.047148,5.897533 0.807652,1.640576 1.051719,2.561309 1.051719,3.967585 v 1.831245 h -3.614765 -3.614765 l 0.116486,-3.669515 c 0.115795,-3.647756 0.124581,-3.682972 1.481687,-5.938954 0.75086,-1.248191 1.519666,-2.681682 1.708457,-3.185535 0.495666,-1.322851 0.455127,-12.346882 -0.04725,-12.849259 -0.520996,-0.520996 -2.044394,-0.497486 -2.489151,0.03841 -0.211066,0.25432 -0.392873,2.339061 -0.446623,5.121334 -0.08052,4.168111 -0.154283,4.704625 -0.660141,4.801695 -0.521214,0.100018 -0.569488,-0.290761 -0.569488,-4.609956 0,-5.108708 -0.1974,-5.741993 -1.789822,-5.741993 -1.592422,0 -1.789822,0.633285 -1.789822,5.741993 0,4.319195 -0.04828,4.709974 -0.569489,4.609956 -0.505857,-0.09707 -0.579617,-0.633584 -0.66014,-4.801695 -0.05375,-2.782273 -0.235557,-4.867014 -0.446624,-5.121334 -0.472747,-0.569626 -2.050562,-0.547674 -2.534354,0.03526 -0.27496,0.331307 -0.356231,2.217654 -0.283913,6.589798 0.109396,6.613779 0.05033,6.354947 2.245164,9.838139 1.06538,1.69075 1.113616,1.90518 1.22617,5.45082 l 0.117163,3.690834 H 10.485621 5.5691672 Z"
       id="path3844"
       inkscape:connector-curvature="0"
       transform="matrix(0.26458333,0,0,0.26458333,3.6499999,3.6500629)" />
    <path
       style="opacity:0;fill:#ffff00;fill-opacity:1;stroke:#ffffff;stroke-width:0.06508443;stroke-linecap:square;stroke-miterlimit:4;stroke-dasharray:none;stroke-opacity:1"
       d="m 5.5792849,29.38813 0.010118,-13.09824 9.1549091,-5.044043 c 5.035201,-2.7742235 9.300097,-4.9998693 9.477547,-4.9458795 0.177451,0.05399 4.326967,2.3238091 9.221147,5.0440425 l 8.898509,4.94588 1.76e-4,13.09824 1.76e-4,13.098241 H 38.111379 33.880892 V 29.859992 c 0,-9.38662 -0.100199,-12.726577 -0.390507,-13.016884 -0.83396,-0.833961 -2.124403,-0.445541 -3.297501,0.992537 -2.88526,3.536985 -4.26209,7.715533 -4.268457,12.954363 -0.0044,3.5859 0.04444,3.860752 1.047148,5.897533 0.807652,1.640576 1.051719,2.561309 1.051719,3.967585 v 1.831245 h -3.614765 -3.614765 l 0.116486,-3.669515 c 0.115795,-3.647756 0.124581,-3.682972 1.481687,-5.938954 0.75086,-1.248191 1.519666,-2.681682 1.708457,-3.185535 0.495666,-1.322851 0.455127,-12.346882 -0.04725,-12.849259 -0.520996,-0.520996 -2.044394,-0.497486 -2.489151,0.03841 -0.211066,0.25432 -0.392873,2.339061 -0.446623,5.121334 -0.08052,4.168111 -0.154283,4.704625 -0.660141,4.801695 -0.521214,0.100018 -0.569488,-0.290761 -0.569488,-4.609956 0,-5.108708 -0.1974,-5.741993 -1.789822,-5.741993 -1.592422,0 -1.789822,0.633285 -1.789822,5.741993 0,4.319195 -0.04828,4.709974 -0.569489,4.609956 -0.505857,-0.09707 -0.579617,-0.633584 -0.66014,-4.801695 -0.05375,-2.782273 -0.235557,-4.867014 -0.446624,-5.121334 -0.472747,-0.569626 -2.050562,-0.547674 -2.534354,0.03526 -0.27496,0.331307 -0.356231,2.217654 -0.283913,6.589798 0.109396,6.613779 0.05033,6.354947 2.245164,9.838139 1.06538,1.69075 1.113616,1.90518 1.22617,5.45082 l 0.117163,3.690834 H 10.485621 5.5691672 Z"
       id="path3846"
       inkscape:connector-curvature="0"
       transform="matrix(0.26458333,0,0,0.26458333,3.6499999,3.6500629)" />
    <path
       style="opacity:0;fill:#ffff00;fill-opacity:1;stroke:#ffffff;stroke-width:0.06508443;stroke-linecap:square;stroke-miterlimit:4;stroke-dasharray:none;stroke-opacity:1"
       d="m 0.66320548,47.179003 -0.7889254,-0.83954 -0.0902781,-15.908795 C -0.2893436,17.505725 -0.22228103,14.320845 0.1415548,13.450063 0.53889488,12.499095 1.8580685,11.672344 11.842017,6.1171629 18.740734,2.27864 23.437129,-0.14392719 23.979783,-0.14392719 c 1.150193,0 23.099706,12.16961019 23.755949,13.17116519 0.41188,0.628606 0.468282,3.114786 0.391151,17.240995 l -0.09013,16.506469 -0.76825,0.621924 c -0.739802,0.598891 -1.602349,0.621921 -23.292313,0.621921 H 1.4521309 Z M 15.284911,38.795537 c -0.112554,-3.54564 -0.16079,-3.76007 -1.22617,-5.45082 -2.194836,-3.483192 -2.135768,-3.22436 -2.245164,-9.838139 -0.07232,-4.372144 0.009,-6.258491 0.283913,-6.589798 0.483792,-0.582933 2.061607,-0.604885 2.534354,-0.03526 0.211067,0.25432 0.392874,2.339061 0.446624,5.121334 0.08052,4.168111 0.154283,4.704625 0.66014,4.801695 0.521214,0.100018 0.569489,-0.290761 0.569489,-4.609956 0,-5.108708 0.1974,-5.741993 1.789822,-5.741993 1.592422,0 1.789822,0.633285 1.789822,5.741993 0,4.319195 0.04827,4.709974 0.569488,4.609956 0.505858,-0.09707 0.579618,-0.633584 0.660141,-4.801695 0.05375,-2.782273 0.235557,-4.867014 0.446623,-5.121334 0.444757,-0.535899 1.968155,-0.559409 2.489151,-0.03841 0.502377,0.502377 0.542916,11.526408 0.04725,12.849259 -0.188791,0.503853 -0.957597,1.937344 -1.708457,3.185535 -1.357106,2.255982 -1.365892,2.291199 -1.481687,5.938954 l -0.116486,3.669515 h 3.614765 3.614765 v -1.831245 c 0,-1.406276 -0.244067,-2.327009 -1.051719,-3.967586 -1.002704,-2.036781 -1.051506,-2.311632 -1.047148,-5.897532 0.0064,-5.23883 1.383197,-9.417378 4.268457,-12.954363 1.173098,-1.438078 2.463542,-1.826498 3.297501,-0.992537 0.290309,0.290307 0.390507,3.630264 0.390507,13.016884 v 12.626379 h 4.230487 4.230488 L 42.341691,29.38813 42.341515,16.28989 33.443007,11.34401 C 28.548826,8.6237765 24.39931,6.3539572 24.221859,6.2999674 24.044409,6.2459776 19.779513,8.4716235 14.744312,11.245847 L 5.5894026,16.28989 5.5792849,29.38813 5.5691672,42.486371 h 4.9164538 4.916453 z"
       id="path4653"
       inkscape:connector-curvature="0"
       transform="matrix(0.26458333,0,0,0.26458333,3.6499999,3.6500629)" />
    <path
       style="opacity:0;fill:#ffff00;fill-opacity:1;stroke:#ffffff;stroke-width:0.06508443;stroke-linecap:square;stroke-miterlimit:4;stroke-dasharray:none;stroke-opacity:1"
       d="m 0.66320548,47.179003 -0.7889254,-0.83954 -0.0902781,-15.908795 C -0.2893436,17.505725 -0.22228103,14.320845 0.1415548,13.450063 0.53889488,12.499095 1.8580685,11.672344 11.842017,6.1171629 18.740734,2.27864 23.437129,-0.14392719 23.979783,-0.14392719 c 1.150193,0 23.099706,12.16961019 23.755949,13.17116519 0.41188,0.628606 0.468282,3.114786 0.391151,17.240995 l -0.09013,16.506469 -0.76825,0.621924 c -0.739802,0.598891 -1.602349,0.621921 -23.292313,0.621921 H 1.4521309 Z M 15.284911,38.795537 c -0.112554,-3.54564 -0.16079,-3.76007 -1.22617,-5.45082 -2.194836,-3.483192 -2.135768,-3.22436 -2.245164,-9.838139 -0.07232,-4.372144 0.009,-6.258491 0.283913,-6.589798 0.483792,-0.582933 2.061607,-0.604885 2.534354,-0.03526 0.211067,0.25432 0.392874,2.339061 0.446624,5.121334 0.08052,4.168111 0.154283,4.704625 0.66014,4.801695 0.521214,0.100018 0.569489,-0.290761 0.569489,-4.609956 0,-5.108708 0.1974,-5.741993 1.789822,-5.741993 1.592422,0 1.789822,0.633285 1.789822,5.741993 0,4.319195 0.04827,4.709974 0.569488,4.609956 0.505858,-0.09707 0.579618,-0.633584 0.660141,-4.801695 0.05375,-2.782273 0.235557,-4.867014 0.446623,-5.121334 0.444757,-0.535899 1.968155,-0.559409 2.489151,-0.03841 0.502377,0.502377 0.542916,11.526408 0.04725,12.849259 -0.188791,0.503853 -0.957597,1.937344 -1.708457,3.185535 -1.357106,2.255982 -1.365892,2.291199 -1.481687,5.938954 l -0.116486,3.669515 h 3.614765 3.614765 v -1.831245 c 0,-1.406276 -0.244067,-2.327009 -1.051719,-3.967586 -1.002704,-2.036781 -1.051506,-2.311632 -1.047148,-5.897532 0.0064,-5.23883 1.383197,-9.417378 4.268457,-12.954363 1.173098,-1.438078 2.463542,-1.826498 3.297501,-0.992537 0.290309,0.290307 0.390507,3.630264 0.390507,13.016884 v 12.626379 h 4.230487 4.230488 L 42.341691,29.38813 42.341515,16.28989 33.443007,11.34401 C 28.548826,8.6237765 24.39931,6.3539572 24.221859,6.2999674 24.044409,6.2459776 19.779513,8.4716235 14.744312,11.245847 L 5.5894026,16.28989 5.5792849,29.38813 5.5691672,42.486371 h 4.9164538 4.916453 z"
       id="path4655"
       inkscape:connector-curvature="0"
       transform="matrix(0.26458333,0,0,0.26458333,3.6499999,3.6500629)" />
    <path
       style="opacity:1;fill:#ffffff;fill-opacity:1;stroke:#ffffff;stroke-width:3.17499995;stroke-linecap:square;stroke-miterlimit:4;stroke-dasharray:none;stroke-opacity:1"
       d="M 3.8254753,16.132808 3.6167388,15.91068 3.5928527,11.701478 c -0.019406,-3.4197238 -0.00166,-4.2623898 0.094602,-4.4927848 0.1051295,-0.25161 0.4541609,-0.470355 3.0957472,-1.940163 1.825286,-1.0156092 3.067873,-1.6565801 3.211451,-1.6565801 0.3043211,0 6.1117961,3.2198761 6.2854271,3.4848711 0.108977,0.166318 0.1239,0.82412 0.103492,4.5616798 l -0.02385,4.367336 -0.203266,0.164551 c -0.195739,0.158456 -0.423955,0.16455 -6.1627571,0.16455 H 4.0342118 Z M 7.6941349,13.914683 C 7.6643549,12.976566 7.6515949,12.919831 7.3697109,12.472487 6.7889936,11.550892 6.804622,11.619375 6.7756777,9.8694792 c -0.019135,-1.156796 0.00238,-1.655892 0.075119,-1.74355 0.1280033,-0.154235 0.5454662,-0.160043 0.6705472,-0.0093 0.05584,0.06729 0.103948,0.618877 0.11817,1.35502 0.0213,1.1028128 0.04082,1.2447648 0.174662,1.2704478 0.137904,0.02646 0.150677,-0.07693 0.150677,-1.2197168 0,-1.351679 0.05223,-1.519236 0.473557,-1.519236 0.421328,0 0.473557,0.167557 0.473557,1.519236 0,1.1427868 0.01277,1.2461808 0.150677,1.2197168 0.133842,-0.02568 0.153357,-0.167635 0.174662,-1.2704478 0.01422,-0.736143 0.06233,-1.287731 0.118169,-1.35502 0.117676,-0.14179 0.520741,-0.14801 0.6585881,-0.01016 0.132921,0.13292 0.143647,3.0496948 0.0125,3.3996998 -0.04995,0.133311 -0.2533641,0.512588 -0.4520291,0.842839 -0.359068,0.596895 -0.361393,0.606213 -0.39203,1.571348 l -0.03082,0.970893 h 0.9564061 0.956407 v -0.484517 c 0,-0.372077 -0.06458,-0.615688 -0.278268,-1.049757 -0.265298,-0.538899 -0.278211,-0.61162 -0.277058,-1.560389 0.0017,-1.386107 0.365971,-2.4916808 1.129363,-3.4275078 0.310382,-0.380492 0.651812,-0.483261 0.872464,-0.262609 0.07681,0.07681 0.103321,0.960507 0.103321,3.4440498 v 3.34073 h 1.119317 1.119316 l -4.6e-5,-3.465577 -4.7e-5,-3.4655758 -2.354397,-1.308597 c -1.294918,-0.719729 -2.392811,-1.320285 -2.439762,-1.33457 -0.04695,-0.01428 -1.1753701,0.574584 -2.5076011,1.308597 l -2.422234,1.334538 -0.00268,3.4655758 -0.00268,3.465576 h 1.3008117 1.3008113 z"
       id="path4657"
       inkscape:connector-curvature="0" />
    <path
       style="opacity:1;fill:#ffffff;fill-opacity:1;stroke:#ffffff;stroke-width:0.49197674;stroke-linecap:square;stroke-miterlimit:4;stroke-dasharray:none;stroke-opacity:1"
       d="M 6.610518,29.170133 V 16.830161 l 5.288109,-2.910953 c 2.908461,-1.601024 6.853425,-3.744321 8.766587,-4.7628822 l 3.478477,-1.8519297 8.643497,4.7714539 8.643497,4.771453 v 12.331401 12.3314 h -3.254221 -3.254221 v -7.921388 c 0,-4.356765 -0.09707,-9.945329 -0.215704,-12.419033 -0.184561,-3.848298 -0.307306,-4.589248 -0.850189,-5.13213 -1.023632,-1.023633 -2.72787,-0.570398 -4.258053,1.13241 -1.349226,1.501437 -3.002784,4.504935 -3.627705,6.589308 -0.362581,1.209361 -0.399798,1.044758 -0.621754,-2.749875 -0.129848,-2.219931 -0.37377,-4.293501 -0.54205,-4.607934 -0.454823,-0.849844 -2.397683,-1.116824 -3.391,-0.465978 -0.446665,0.292667 -0.812119,0.668529 -0.812119,0.835249 0,0.166721 -0.359443,-0.05632 -0.798763,-0.495635 -0.998883,-0.998883 -2.527003,-1.05264 -3.457995,-0.121648 -0.611292,0.611292 -0.714208,0.626387 -1.058689,0.15528 -0.634392,-0.867583 -2.541703,-0.999498 -3.478469,-0.240582 -0.804723,0.651943 -0.806036,0.662733 -0.806036,6.620395 0,3.282063 0.11201,6.492788 0.248911,7.134944 0.136901,0.642156 0.854375,2.171429 1.594387,3.398384 1.263492,2.094899 1.355128,2.415374 1.503896,5.259531 l 0.15842,3.028702 H 10.559925 6.610518 Z"
       id="path4767"
       inkscape:connector-curvature="0"
       transform="matrix(0.26458333,0,0,0.26458333,3.6499999,3.6500629)" />
    <path
       style="opacity:1;fill:#ffffff;fill-opacity:1;stroke:#ffffff;stroke-width:0.49197674;stroke-linecap:square;stroke-miterlimit:4;stroke-dasharray:none;stroke-opacity:1"
       d="m 21.907363,38.662661 c 0.0012,-1.750031 0.169649,-3.16099 0.436989,-3.660999 0.239242,-0.447456 0.97054,-1.814187 1.625106,-3.037182 l 1.190121,-2.223627 v 2.59633 c 0,2.158042 0.164804,2.983613 0.976266,4.890522 0.536947,1.261805 0.976267,2.741539 0.976267,3.288296 v 0.994103 h -2.603377 -2.603377 z"
       id="path4769"
       inkscape:connector-curvature="0"
       transform="matrix(0.26458333,0,0,0.26458333,3.6499999,3.6500629)" />
    <path
       style="opacity:1;fill:#ef883a;fill-opacity:1;stroke:#ffffff;stroke-width:0;stroke-linecap:square;stroke-miterlimit:4;stroke-dasharray:none;stroke-opacity:1"
       d="M 3.8254726,16.132841 3.6167361,15.910712 3.59285,11.70151 C 3.573444,8.2817864 3.59119,7.4391205 3.687452,7.2087253 3.7925815,6.9571152 4.1416129,6.7383704 6.7831986,5.2685623 c 1.825287,-1.0156092 3.067874,-1.6565801 3.211452,-1.6565801 0.3043214,0 6.1117964,3.2198761 6.2854274,3.4848711 0.108977,0.1663182 0.1239,0.82412 0.103492,4.5616797 l -0.02385,4.367337 -0.203266,0.164551 c -0.195739,0.158456 -0.423955,0.16455 -6.1627584,0.16455 H 4.0342091 Z m 3.86866,-2.218126 c -0.02978,-0.938117 -0.04254,-0.994852 -0.324425,-1.442196 -0.580717,-0.921595 -0.565088,-0.853112 -0.594032,-2.6030077 -0.01913,-1.156796 0.0024,-1.6558919 0.07512,-1.74355 0.128003,-0.1542349 0.545466,-0.160043 0.670547,-0.0093 0.05584,0.06729 0.103948,0.6188768 0.11817,1.3550199 0.0213,1.1028128 0.04082,1.2447648 0.174662,1.2704478 0.137904,0.02646 0.150677,-0.07693 0.150677,-1.2197169 0,-1.3516789 0.05223,-1.5192359 0.473557,-1.5192359 0.421328,0 0.473557,0.167557 0.473557,1.5192359 0,1.1427859 0.01277,1.2461809 0.150677,1.2197169 0.133842,-0.02568 0.153357,-0.167635 0.174662,-1.2704478 0.01422,-0.7361431 0.06233,-1.287731 0.118169,-1.3550199 0.117676,-0.1417902 0.520741,-0.14801 0.6585884,-0.01016 0.132921,0.1329198 0.143647,3.0496947 0.0125,3.3996997 -0.04995,0.133311 -0.2533644,0.512588 -0.4520294,0.842839 -0.359068,0.596895 -0.361393,0.606213 -0.39203,1.571348 l -0.03082,0.970893 h 0.9564064 0.956407 v -0.484517 c 0,-0.372077 -0.06458,-0.615688 -0.278268,-1.049757 -0.265298,-0.538899 -0.278211,-0.61162 -0.277058,-1.560389 0.0017,-1.386107 0.365971,-2.4916809 1.129363,-3.4275079 0.310382,-0.380492 0.651812,-0.483261 0.872464,-0.2626088 0.07681,0.07681 0.103321,0.9605068 0.103321,3.4440497 v 3.34073 h 1.119317 1.119316 l -4.6e-5,-3.465577 -4.7e-5,-3.4655756 -2.354397,-1.3085971 c -1.294918,-0.719729 -2.392811,-1.320285 -2.439762,-1.33457 -0.04695,-0.01428 -1.1753704,0.574584 -2.5076014,1.3085972 l -2.4222344,1.3345379 -0.00268,3.4655756 -0.00268,3.465576 h 1.3008114 1.300812 z"
       id="path4657-0"
       inkscape:connector-curvature="0" />
  </g>
</svg>
