<?xml version="1.0" encoding="UTF-8" standalone="no"?>
<!-- Created with Inkscape (http://www.inkscape.org/) -->

<svg
   xmlns:dc="http://purl.org/dc/elements/1.1/"
   xmlns:cc="http://creativecommons.org/ns#"
   xmlns:rdf="http://www.w3.org/1999/02/22-rdf-syntax-ns#"
   xmlns:svg="http://www.w3.org/2000/svg"
   xmlns="http://www.w3.org/2000/svg"
   xmlns:sodipodi="http://sodipodi.sourceforge.net/DTD/sodipodi-0.dtd"
   xmlns:inkscape="http://www.inkscape.org/namespaces/inkscape"
   width="22.677828mm"
   height="20.642717mm"
   viewBox="0 0 22.677828 20.642717"
   version="1.1"
   id="svg854"
   inkscape:version="0.92.3 (2405546, 2018-03-11)"
   sodipodi:docname="hut.square_vector.svg">
  <defs
     id="defs848" />
  <sodipodi:namedview
     id="base"
     pagecolor="#ffffff"
     bordercolor="#666666"
     borderopacity="1.0"
     inkscape:pageopacity="0.0"
     inkscape:pageshadow="2"
     inkscape:zoom="3.1221646"
     inkscape:cx="42.855737"
     inkscape:cy="39.015746"
     inkscape:document-units="mm"
     inkscape:current-layer="layer1"
     showgrid="false"
     fit-margin-top="0"
     fit-margin-left="0"
     fit-margin-right="0"
     fit-margin-bottom="0"
     inkscape:window-width="894"
     inkscape:window-height="543"
     inkscape:window-x="358"
     inkscape:window-y="106"
     inkscape:window-maximized="0" />
  <metadata
     id="metadata851">
    <rdf:RDF>
      <cc:Work
         rdf:about="">
        <dc:format>image/svg+xml</dc:format>
        <dc:type
           rdf:resource="http://purl.org/dc/dcmitype/StillImage" />
        <dc:title></dc:title>
      </cc:Work>
    </rdf:RDF>
  </metadata>
  <g
     inkscape:label="Ebene 1"
     inkscape:groupmode="layer"
     id="layer1"
     transform="translate(-4.6048612,-5.6801997)">
    <path
       inkscape:connector-curvature="0"
       style="fill:#ffffff;fill-opacity:1;stroke:#ffffff;stroke-width:2.64583325;stroke-miterlimit:4;stroke-dasharray:none;stroke-opacity:1"
       id="path10"
       d="m 25.55755,14.2109 -9,-7 a 0.99865,0.99865 0 0 0 -1.2276,0 l -9,7 a 0.99971458,0.99971458 0 1 0 1.2276,1.5782 l 1.3862,-1.0782 V 24 a 0.99979,0.99979 0 0 0 1,1 h 12 a 0.99979,0.99979 0 0 0 1,-1 V 14.7109 L 24.33,15.7891 a 0.99971458,0.99971458 0 1 0 1.2276,-1.5782 z M 20.94375,23 h -10 v -8 h 10 z M 11.14355,13 15.94375,9.2666 20.744,13 Z" />
    <path
       inkscape:connector-curvature="0"
       style="fill:#575757;fill-opacity:1;stroke-width:1"
       id="path10-2"
       d="m 25.55755,14.2109 -9,-7 a 0.99865,0.99865 0 0 0 -1.2276,0 l -9,7 a 0.99971466,0.99971466 0 1 0 1.2276,1.5782 l 1.3862,-1.0782 V 24 a 0.99979001,0.99979001 0 0 0 1,1 h 12 a 0.99979001,0.99979001 0 0 0 1,-1 V 14.7109 L 24.33,15.7891 a 0.99971466,0.99971466 0 1 0 1.2276,-1.5782 z M 20.94375,23 h -10 v -8 h 10 z M 11.14355,13 15.94375,9.2666 20.744,13 Z" />
    <path
       style="opacity:1;fill:#ffffff;fill-opacity:1;stroke:#ffffff;stroke-width:3.20290613;stroke-linecap:square;stroke-miterlimit:4;stroke-dasharray:none;stroke-opacity:1"
       d="M 29.019183,50.310231 V 40.221077 H 42.791679 56.564175 V 50.310231 60.399385 H 42.791679 29.019183 Z"
       id="path833"
       inkscape:connector-curvature="0"
       transform="matrix(0.26458333,0,0,0.26458333,4.6048612,5.6801997)" />
  </g>
</svg>
