<?xml version="1.0" encoding="UTF-8" standalone="no"?>
<svg id="Layer_1" xmlns:rdf="http://www.w3.org/1999/02/22-rdf-syntax-ns#" xmlns="http://www.w3.org/2000/svg" enable-background="new 0 0 20 20" xml:space="preserve" height="20px" viewBox="0 0 20 20" width="20px" version="1.1" y="0px" x="0px" xmlns:cc="http://creativecommons.org/ns#" xmlns:dc="http://purl.org/dc/elements/1.1/"><path id="path3" fill="#fff" clip-rule="evenodd" d="m9.418 15.258c-0.211-0.191-0.517-0.418-0.677-0.543-1.141-0.9-2.238-1.832-2.29-3.404-0.016-0.475 0.04-0.948 0.161-1.405-1.336-1.037-2.14-2.641-2.14-4.367 0-3.052 2.475-5.527 5.527-5.527s5.526 2.475 5.526 5.527c0 2.832-2.131 5.168-4.877 5.489 0.207 0.18 0.471 0.375 0.615 0.49 1.166 0.918 2.29 1.875 2.29 3.492 0 0.996-0.347 1.961-0.886 2.791-0.527 0.811-1.449 1.738-2.377 2.068-1.062 0.379-2.231-0.174-2.609-1.236-0.371-1.039 0.153-2.182 1.173-2.584 0.134-0.1 0.313-0.342 0.396-0.469 0.059-0.088 0.124-0.205 0.168-0.322z" fill-rule="evenodd"/><path id="path5" d="m10 1.011c2.501 0 4.526 2.027 4.526 4.528 0 2.5-2.025 4.527-4.526 4.527-0.044 0-0.089-0.002-0.132-0.002-0.167 0.238-0.36 0.631-0.343 1.147 0.007 0.213 0.563 0.652 1.12 1.09 0.955 0.754 1.91 1.508 1.91 2.709 0 0.822-0.307 1.604-0.725 2.246-0.543 0.836-1.334 1.479-1.877 1.672-0.541 0.193-1.136-0.088-1.33-0.631-0.193-0.541 0.089-1.137 0.631-1.33 0.197-0.07 0.539-0.387 0.834-0.842 0.22-0.34 0.382-0.732 0.382-1.115 0-0.203-0.555-0.643-1.111-1.08-0.935-0.738-1.871-1.477-1.91-2.652-0.022-0.698 0.146-1.296 0.368-1.773-1.398-0.771-2.344-2.257-2.344-3.966 0-2.501 2.027-4.528 4.527-4.528z" fill-rule="evenodd" clip-rule="evenodd" fill="#357ca0"/></svg>
