<?xml version="1.0" encoding="UTF-8" standalone="no"?>
<!-- Generator: Adobe Illustrator 14.0.0, SVG Export Plug-In . SVG Version: 6.00 Build 43363)  -->

<svg
   xmlns:dc="http://purl.org/dc/elements/1.1/"
   xmlns:cc="http://creativecommons.org/ns#"
   xmlns:rdf="http://www.w3.org/1999/02/22-rdf-syntax-ns#"
   xmlns:svg="http://www.w3.org/2000/svg"
   xmlns="http://www.w3.org/2000/svg"
   xmlns:sodipodi="http://sodipodi.sourceforge.net/DTD/sodipodi-0.dtd"
   xmlns:inkscape="http://www.inkscape.org/namespaces/inkscape"
   version="1.0"
   id="synagogue"
   x="0px"
   y="0px"
   width="20px"
   height="20px"
   viewBox="-0.7 -0.7 20 20"
   style="enable-background:new -0.7 -0.7 20 20;"
   xml:space="preserve"
   inkscape:version="0.91 r13725"
   sodipodi:docname="synagogue.svg"><metadata
     id="metadata9"><rdf:RDF><cc:Work
         rdf:about=""><dc:format>image/svg+xml</dc:format><dc:type
           rdf:resource="http://purl.org/dc/dcmitype/StillImage" /></cc:Work></rdf:RDF></metadata><defs
     id="defs7" /><sodipodi:namedview
     pagecolor="#ffffff"
     bordercolor="#666666"
     borderopacity="1"
     objecttolerance="10"
     gridtolerance="10"
     guidetolerance="10"
     inkscape:pageopacity="0"
     inkscape:pageshadow="2"
     inkscape:window-width="1218"
     inkscape:window-height="942"
     id="namedview5"
     showgrid="false"
     inkscape:zoom="33.37544"
     inkscape:cx="10.286971"
     inkscape:cy="10.251518"
     inkscape:window-x="0"
     inkscape:window-y="10"
     inkscape:window-maximized="0"
     inkscape:current-layer="synagogue" /><path
     style="fill:none;stroke:#082CFF;stroke-width:1.5;"
     d="M9.3,0.8l7.2,12.6H2.1L9.3,0.8z M9.3,17.9L2.1,5.3h14.4L9.3,17.9z"
     id="path3" /><path
     style="fill:#000000"
     d="M 8.4752338,17.365558 6.9999582,14.781964 4.3053854,14.759626 1.6108126,14.737288 2.8947089,12.491525 C 3.6008518,11.256356 4.1949928,10.183858 4.2150222,10.108197 4.2350517,10.032536 3.6571536,8.9319958 2.9308044,7.6625525 2.2044552,6.3931092 1.6101695,5.3395477 1.6101695,5.3213047 c 0,-0.018243 1.2154767,-0.033169 2.7010592,-0.033169 l 2.7010593,0 1.4726695,-2.5840212 C 9.2949258,1.2829027 9.9766949,0.1200932 10,0.1200932 c 0.02331,0 0.705075,1.1628095 1.515042,2.5840212 l 1.47267,2.5840212 2.701059,0 c 1.485583,0 2.70106,0.014926 2.70106,0.033169 0,0.018243 -0.594286,1.0718045 -1.320635,2.3412478 -0.726349,1.2694433 -1.304248,2.3699835 -1.284218,2.4456445 0.02003,0.07566 0.61417,1.148159 1.320314,2.383328 l 1.283895,2.245763 -2.694573,0.02234 -2.694572,0.02234 -1.475276,2.583594 C 10.713364,18.786536 10.027219,19.949153 10,19.949153 c -0.027219,0 -0.7133645,-1.162617 -1.5247662,-2.583595 z m 2.1925022,-1.356642 c 0.331898,-0.582385 0.60345,-1.097215 0.60345,-1.144068 0,-0.0533 -0.475836,-0.08519 -1.271186,-0.08519 -0.7953501,0 -1.2711864,0.03189 -1.2711864,0.08519 0,0.128371 1.1971118,2.202949 1.2711864,2.202949 0.03536,0 0.335839,-0.476497 0.667736,-1.058881 z M 6.1217223,13.375453 c 0.069816,-0.06982 -0.9535718,-1.825305 -1.034817,-1.775093 -0.074089,0.04579 -1.0191087,1.689458 -1.0191087,1.772532 0,0.06479 1.989218,0.06727 2.0539257,0.0026 l 0,2e-6 z m 6.9935177,-1.656417 0.954223,-1.662322 -0.950978,-1.6639499 -0.950979,-1.6639505 -2.167506,0 -2.1675062,0 L 6.8820339,8.3918569 5.931574,10.0549 6.7100536,11.421518 c 0.4281639,0.75164 0.8677555,1.510279 0.9768701,1.685865 l 0.1983904,0.319248 2.1378509,-0.02264 2.137852,-0.02264 0.954223,-1.66232 z m 2.816963,1.653856 c 0,-0.08307 -0.945019,-1.726742 -1.019108,-1.772532 -0.08125,-0.05021 -1.104634,1.705276 -1.034817,1.775093 0.06471,0.06471 2.053925,0.06223 2.053925,-0.0026 z M 5.9846709,7.0889831 6.1935854,6.7288136 l -1.0628944,0 c -0.5845919,0 -1.0628944,0.015277 -1.0628944,0.033948 0,0.018671 0.2339165,0.4416183 0.5198144,0.9398821 L 5.1074254,8.608578 5.441591,8.0288651 C 5.625382,7.7100231 5.8697681,7.2870763 5.9846709,7.0889831 Z m 9.4342021,0.6023604 c 0.284618,-0.4960323 0.502624,-0.9167389 0.48446,-0.9349035 -0.01816,-0.018165 -0.490981,-0.022278 -1.050703,-0.00914 l -1.017677,0.023887 0.518964,0.9100298 c 0.28543,0.5005163 0.525378,0.9104736 0.533217,0.9110169 0.0078,5.084e-4 0.247121,-0.4048573 0.531739,-0.9008896 z M 11.271186,5.2297267 C 11.271186,5.1430321 10.049438,3.00059 10,3.00059 c -0.049438,0 -1.2711864,2.1424421 -1.2711864,2.2291367 0,0.032125 0.5720339,0.058409 1.2711864,0.058409 0.699153,0 1.271186,-0.026284 1.271186,-0.058409 z"
     id="path3337"
     inkscape:connector-curvature="0"
     transform="translate(-0.69999999,-0.69999999)" /><path
     style="fill:#000000"
     d="M 9.6228172,19.316159 C 9.232944,18.661059 8.6435264,17.640479 7.644745,15.891116 L 7.0103141,14.779912 5.7463892,14.760044 c -0.6951588,-0.01093 -1.9035977,-0.01987 -2.6854197,-0.01987 -1.3374798,0 -1.420314,-0.0031 -1.4015218,-0.05205 0.010985,-0.02863 0.3788775,-0.67918 0.817539,-1.445674 1.0655607,-1.861905 1.7456446,-3.088279 1.7456446,-3.147867 0,-0.1230397 -0.471433,-1.0025175 -1.6943696,-3.160916 C 2.0609859,6.1089622 1.6706431,5.4132839 1.6608332,5.3877196 1.6320113,5.3126108 1.9865942,5.3021885 4.6092515,5.3010568 l 2.414841,-0.00104 0.8689024,-1.5316178 C 8.7470969,2.2628675 9.8530323,0.35210676 9.9512617,0.21226145 l 0.049996,-0.071177 0.102951,0.16106346 c 0.169463,0.26512054 0.742447,1.25481769 1.84091,3.17975029 l 1.038697,1.8202007 2.416213,0 c 1.328917,0 2.538902,0.00871 2.688855,0.019353 l 0.27264,0.019353 -0.06231,0.1229677 c -0.03427,0.067632 -0.284765,0.5139737 -0.556651,0.99187 -1.486564,2.6129531 -1.954537,3.4851118 -1.954537,3.6426613 0,0.08289 0.623538,1.206556 2.124609,3.828717 0.248675,0.4344 0.452136,0.795069 0.452136,0.801487 0,0.0064 -0.556173,0.01168 -1.235939,0.0117 -0.679766,1.9e-5 -1.890095,0.0089 -2.689619,0.01978 l -1.453682,0.01975 -0.477498,0.841633 c -1.255458,2.212853 -2.444065,4.25104 -2.498802,4.284869 -0.014167,0.0088 -0.188052,-0.256779 -0.3864098,-0.590078 z m 0.4763068,-2.351932 c 0.198759,-0.28173 0.844544,-1.403201 1.086881,-1.887478 l 0.108953,-0.217728 -0.08302,-0.0333 c -0.191297,-0.07674 -2.4100554,-0.0606 -2.4887543,0.0181 -0.056944,0.05694 1.1881365,2.235447 1.2760967,2.232772 0.011568,-3.51e-4 0.0565,-0.05091 0.099849,-0.112358 z m 1.178745,-3.566549 0.898015,-0.02078 0.953538,-1.66036 0.953537,-1.66036 L 13.130271,8.3907398 12.177583,6.7253011 10.004184,6.7176167 7.8307857,6.709932 6.9031014,8.3314264 C 6.392875,9.2232487 5.963619,9.9775432 5.9491988,10.007637 c -0.020428,0.04263 0.1280229,0.324788 0.6721329,1.277513 0.7479188,1.30959 1.2205388,2.112473 1.2577709,2.136692 0.029016,0.01887 2.2083244,0.0034 3.3987664,-0.02416 z m -5.1500152,-0.01338 c 0.05889,-0.059 -0.6912073,-1.406635 -0.9487207,-1.704485 -0.085564,-0.09897 -0.087811,-0.09965 -0.1346364,-0.04072 -0.1433557,0.180398 -0.9716762,1.640437 -0.9716762,1.712724 0,0.01962 0.023595,0.04218 0.052434,0.05013 0.085557,0.0236 1.9780701,0.0069 2.0025995,-0.01765 z m 9.7163472,0.01881 c 0.0515,-0.0103 0.09363,-0.03147 0.09363,-0.04705 0,-0.09154 -0.981058,-1.761913 -1.034826,-1.761913 -0.0942,0 -1.032563,1.590442 -1.032563,1.750103 0,0.0239 0.03034,0.0493 0.06741,0.05644 0.108253,0.02085 1.80343,0.023 1.906342,0.0024 l 0,1e-6 z M 5.6863948,7.6312115 C 5.968951,7.1407113 6.2001333,6.7328516 6.2001333,6.7248565 c 0,-0.021596 -1.4965492,-0.017306 -1.8374555,0.00527 -0.2631303,0.017424 -0.2929147,0.025192 -0.2803784,0.073131 0.014082,0.05385 0.9313135,1.6857228 0.9885349,1.7587313 0.025055,0.031967 0.036928,0.031967 0.066178,0 0.019604,-0.021426 0.2668267,-0.440275 0.549383,-0.9307752 z M 15.022391,8.395117 c 0.509151,-0.86832 0.885479,-1.5572412 0.885479,-1.6209935 0,-0.02763 -0.238618,-0.034084 -1.016251,-0.027485 -0.558939,0.00474 -1.025057,0.017446 -1.035819,0.028227 -0.02024,0.020279 0.999676,1.8235154 1.030812,1.8224958 0.0096,-3.146e-4 0.07074,-0.091325 0.135779,-0.2022445 z m -3.78033,-3.1386259 c 0.04728,-0.018955 0.03264,-0.060268 -0.131091,-0.3698828 -0.352195,-0.6659894 -1.070528,-1.8915951 -1.108673,-1.8915951 -0.069689,0 -1.3157899,2.1965859 -1.2714297,2.2412352 0.041743,0.042016 0.5622796,0.059621 1.4991757,0.050705 0.527334,-0.00502 0.982742,-0.018726 1.012018,-0.030463 z"
     id="path3339"
     inkscape:connector-curvature="0"
     transform="translate(-0.69999999,-0.69999999)" /><path
     style="fill:#000000"
     d="m 13.645728,14.799406 c 0.362542,-0.01123 1.588368,-0.02578 2.724058,-0.03234 1.633785,-0.0094 2.067497,-0.0041 2.077376,0.02554 0.0099,0.0298 -0.546327,0.03641 -2.724058,0.03234 -1.708993,-0.0032 -2.489031,-0.01279 -2.077376,-0.02554 z"
     id="path3341"
     inkscape:connector-curvature="0"
     transform="translate(-0.69999999,-0.69999999)" /><path
     style="fill:#000000"
     d="m 1.5677753,14.782669 c 0.010003,-0.02607 0.018165,-0.04966 0.018139,-0.05243 -2.63e-5,-0.0028 0.219072,0.0037 0.4868849,0.01433 0.267813,0.01065 1.215013,0.02262 2.1048889,0.0266 0.8898759,0.004 1.894357,0.01636 2.2321803,0.02751 0.3716107,0.01227 -0.4669682,0.02248 -2.1230279,0.02583 -2.4851383,0.005 -2.7355769,0.0012 -2.7190652,-0.04185 z"
     id="path3343"
     inkscape:connector-curvature="0"
     transform="translate(-0.69999999,-0.69999999)" /></svg>