<?xml version="1.0" encoding="UTF-8" standalone="no"?>
<!-- Created with Inkscape (http://www.inkscape.org/) -->

<svg
   xmlns:dc="http://purl.org/dc/elements/1.1/"
   xmlns:cc="http://creativecommons.org/ns#"
   xmlns:rdf="http://www.w3.org/1999/02/22-rdf-syntax-ns#"
   xmlns:svg="http://www.w3.org/2000/svg"
   xmlns="http://www.w3.org/2000/svg"
   xmlns:sodipodi="http://sodipodi.sourceforge.net/DTD/sodipodi-0.dtd"
   xmlns:inkscape="http://www.inkscape.org/namespaces/inkscape"
   width="26.665358mm"
   height="20.669949mm"
   viewBox="0 0 26.665358 20.669948"
   version="1.1"
   id="svg854"
   inkscape:version="0.92.3 (2405546, 2018-03-11)"
   sodipodi:docname="theater.square_vector.svg">
  <defs
     id="defs848" />
  <sodipodi:namedview
     id="base"
     pagecolor="#ffffff"
     bordercolor="#666666"
     borderopacity="1.0"
     inkscape:pageopacity="0.0"
     inkscape:pageshadow="2"
     inkscape:zoom="2.5996212"
     inkscape:cx="50.391228"
     inkscape:cy="39.02977"
     inkscape:document-units="mm"
     inkscape:current-layer="layer1"
     showgrid="false"
     inkscape:pagecheckerboard="true"
     fit-margin-top="0"
     fit-margin-left="0"
     fit-margin-right="0"
     fit-margin-bottom="0"
     inkscape:window-width="748"
     inkscape:window-height="549"
     inkscape:window-x="26"
     inkscape:window-y="26"
     inkscape:window-maximized="0" />
  <metadata
     id="metadata851">
    <rdf:RDF>
      <cc:Work
         rdf:about="">
        <dc:format>image/svg+xml</dc:format>
        <dc:type
           rdf:resource="http://purl.org/dc/dcmitype/StillImage" />
        <dc:title></dc:title>
      </cc:Work>
    </rdf:RDF>
  </metadata>
  <g
     inkscape:label="Ebene 1"
     inkscape:groupmode="layer"
     id="layer1"
     transform="translate(-2.6651191,-5.6482873)">
    <path
       inkscape:connector-curvature="0"
       style="fill:#ffffff;fill-opacity:1;stroke:#ffffff;stroke-width:2.11666667;stroke-miterlimit:4;stroke-dasharray:none;stroke-opacity:1"
       id="path10"
       d="M 17.38815,12.53237 A 24.72778,24.72778 0 0 0 16.08643,8.18144 C 14.98701,7.15416 12.42081,6.7238 9.70761,7.20244 6.99393,7.67986 4.81661,8.947 4.00392,10.37257 a 21.83412,21.83412 0 0 0 0.28914,4.46957 c 0.96064,5.44474 4.9161,10.73505 8.53265,10.09786 3.61534,-0.63795 5.52284,-6.9619 4.56244,-12.40763 z M 6.4788,15.0384 A 0.66056,0.66056 0 0 1 5.65498,14.1394 2.60561,2.60561 0 0 1 9.11343,12.87925 0.659861,0.659861 0 0 1 8.55624,14.07558 1.28544,1.28544 0 0 0 6.85034,14.69611 0.66,0.66 0 0 1 6.4788,15.0384 Z m 9.43165,2.23046 c -1.63218,5.1779 -5.30384,5.82453 -8.60783,1.51856 l 0.00628,-0.0012 -0.00821,-0.0051 a 0.42474,0.42474 0 0 1 0.48709,-0.69595 5.32118,5.32118 0 0 0 6.81393,-0.58475 5.51261,5.51261 0 0 0 0.61207,-0.724 0.42454,0.42454 0 1 1 0.69546,0.48709 l -0.0051,0.006 z m -0.04158,-3.99824 a 0.65889,0.65889 0 0 1 -0.93236,0 1.28419,1.28419 0 0 0 -1.81444,0 0.66039,0.66039 0 0 1 -0.93477,-0.93309 2.60633,2.60633 0 0 1 3.68133,0 0.65824,0.65824 0 0 1 2.4e-4,0.93309 z M 28,10.29412 C 27.23081,8.92253 25.02688,7.6842 22.31247,7.20557 a 9.833,9.833 0 0 0 -5.26975,0.32972 25.89444,25.89444 0 0 1 1.32662,4.12971 2.58612,2.58612 0 0 1 1.39431,1.3126 0.65819,0.65819 0 0 1 -1.07812,0.7281 18.27635,18.27635 0 0 1 -0.03046,3.728 c 0.584,0.10347 1.16587,0.32683 1.76682,0.4327 1.535,0.27026 3.2056,-0.22432 4.021,2.36414 l -0.0063,-0.0012 0.0063,0.0075 a 0.42437,0.42437 0 1 1 -0.69522,0.48685 5.43925,5.43925 0 0 0 -0.6123,-0.72375 C 22.36908,19.23557 20.98081,19.57521 19.89399,19.38351 A 3.8302,3.8302 0 0 1 18.45931,18.982 12.262,12.262 0 0 1 17.89172,20.90812 11.06324,11.06324 0 0 1 16.705,23.38081 4.20612,4.20612 0 0 0 19.17479,24.94 c 3.61631,0.63721 7.572,-4.6531 8.53217,-10.09786 A 25.761,25.761 0 0 0 28,10.29412 Z m -1.60468,4.13754 a 0.66122,0.66122 0 0 1 -0.93357,0 1.28477,1.28477 0 0 0 -1.81564,0 0.65928,0.65928 0 1 1 -0.93236,-0.93236 2.60632,2.60632 0 0 1 3.68133,-0.0012 0.66232,0.66232 0 0 1 2.4e-4,0.93357 z" />
    <path
       inkscape:connector-curvature="0"
       style="fill:#9e6032;fill-opacity:1;stroke-width:1"
       id="path10-5"
       d="M 17.394431,12.53172 A 24.72778,24.72778 0 0 0 16.09271,8.180791 c -1.099419,-1.02728 -3.66562,-1.45764 -6.37882,-0.979 -2.71368,0.47742 -4.891,1.74456 -5.70369,3.17013 a 21.83412,21.83412 0 0 0 0.28914,4.469569 c 0.96064,5.444741 4.9161,10.73505 8.532651,10.09786 3.615339,-0.63795 5.52284,-6.9619 4.56244,-12.40763 z M 6.48508,15.037751 A 0.66056002,0.66056002 0 0 1 5.66126,14.13875 2.60561,2.60561 0 0 1 9.11971,12.8786 0.65986102,0.65986102 0 0 1 8.56252,14.07493 1.28544,1.28544 0 0 0 6.85662,14.69546 0.66,0.66 0 0 1 6.48508,15.037751 Z m 9.431651,2.230459 c -1.63218,5.177901 -5.303841,5.824531 -8.607831,1.51856 l 0.0063,-0.0012 -0.0082,-0.0051 a 0.42474002,0.42474002 0 0 1 0.48709,-0.69595 5.3211801,5.3211801 0 0 0 6.81393,-0.58475 5.5126102,5.5126102 0 0 0 0.61207,-0.724 0.42453999,0.42453999 0 1 1 0.69546,0.48709 l -0.0051,0.006 z m -0.04158,-3.99824 a 0.65889,0.65889 0 0 1 -0.932359,0 1.28419,1.28419 0 0 0 -1.81444,0 0.66039,0.66039 0 0 1 -0.93477,-0.93309 2.60633,2.60633 0 0 1 3.68133,0 0.65823999,0.65823999 0 0 1 2.39e-4,0.93309 z m 12.13113,-2.976499 c -0.76919,-1.37159 -2.97312,-2.60992 -5.68753,-3.08855 a 9.8330001,9.8330001 0 0 0 -5.26975,0.32972 25.89444,25.89444 0 0 1 1.326619,4.129709 2.58612,2.58612 0 0 1 1.394311,1.3126 0.65819001,0.65819001 0 0 1 -1.078121,0.7281 18.27635,18.27635 0 0 1 -0.03046,3.728 c 0.584,0.10347 1.16587,0.32683 1.76682,0.432701 1.535,0.270259 3.2056,-0.224321 4.021,2.364139 l -0.0063,-0.0012 0.0063,0.0075 a 0.42437,0.42437 0 1 1 -0.69522,0.48685 5.4392499,5.4392499 0 0 0 -0.612301,-0.72375 c -0.766289,-0.764381 -2.15456,-0.424741 -3.24138,-0.61644 a 3.8302001,3.8302001 0 0 1 -1.434679,-0.40151 12.262,12.262 0 0 1 -0.56759,1.926119 11.06324,11.06324 0 0 1 -1.18672,2.47269 4.2061201,4.2061201 0 0 0 2.46979,1.55919 c 3.616309,0.637211 7.572,-4.6531 8.53217,-10.09786 a 25.761,25.761 0 0 0 0.29304,-4.548019 z m -1.60468,4.137539 a 0.66122,0.66122 0 0 1 -0.93357,0 1.28477,1.28477 0 0 0 -1.81564,0 0.65928002,0.65928002 0 1 1 -0.93236,-0.93236 2.60632,2.60632 0 0 1 3.68133,-0.0012 0.66232,0.66232 0 0 1 2.4e-4,0.93357 z" />
    <path
       style="opacity:1;fill:#ffffff;fill-opacity:1;stroke:#ffffff;stroke-width:3.07737136;stroke-linecap:square;stroke-miterlimit:4;stroke-dasharray:none;stroke-opacity:1"
       d="m 30.811453,55.455298 -1.154015,-0.528414 1.731022,-0.03792 c 1.606936,-0.0352 5.971047,-0.824251 7.840492,-1.41759 0.728009,-0.231061 0.75395,-0.190806 0.260325,0.403976 -1.612984,1.943526 -6.099766,2.760424 -8.677824,1.57995 z"
       id="path835"
       inkscape:connector-curvature="0"
       transform="matrix(0.26458333,0,0,0.26458333,2.6651191,5.6482873)" />
  </g>
</svg>
