<?xml version="1.0" encoding="UTF-8" standalone="no"?>
<!-- Generator: Adobe Illustrator 16.0.0, SVG Export Plug-In . SVG Version: 6.00 Build 0)  -->

<svg
   xmlns:dc="http://purl.org/dc/elements/1.1/"
   xmlns:cc="http://creativecommons.org/ns#"
   xmlns:rdf="http://www.w3.org/1999/02/22-rdf-syntax-ns#"
   xmlns:svg="http://www.w3.org/2000/svg"
   xmlns="http://www.w3.org/2000/svg"
   xmlns:sodipodi="http://sodipodi.sourceforge.net/DTD/sodipodi-0.dtd"
   xmlns:inkscape="http://www.inkscape.org/namespaces/inkscape"
   version="1.1"
   id="Layer_1"
   x="0px"
   y="0px"
   width="20px"
   height="20px"
   viewBox="0 0 20 20"
   enable-background="new 0 0 20 20"
   xml:space="preserve"
   inkscape:version="0.91 r13725"
   sodipodi:docname="toilets.svg"><metadata
     id="metadata13"><rdf:RDF><cc:Work
         rdf:about=""><dc:format>image/svg+xml</dc:format><dc:type
           rdf:resource="http://purl.org/dc/dcmitype/StillImage" /></cc:Work></rdf:RDF></metadata><defs
     id="defs11" /><sodipodi:namedview
     pagecolor="#ffffff"
     bordercolor="#666666"
     borderopacity="1"
     objecttolerance="10"
     gridtolerance="10"
     guidetolerance="10"
     inkscape:pageopacity="0"
     inkscape:pageshadow="2"
     inkscape:window-width="770"
     inkscape:window-height="805"
     id="namedview9"
     showgrid="false"
     inkscape:zoom="11.8"
     inkscape:cx="10"
     inkscape:cy="10"
     inkscape:window-x="0"
     inkscape:window-y="10"
     inkscape:window-maximized="0"
     inkscape:current-layer="Layer_1" /><path
     fill-rule="evenodd"
     clip-rule="evenodd"
     fill="#FFFFFF"
     d="M3.645,0.002h12.709c2.004,0,3.644,1.639,3.644,3.643v12.711  c0,2.004-1.64,3.643-3.644,3.643H3.645c-2.004,0-3.643-1.639-3.643-3.643V3.645C0.002,1.641,1.641,0.002,3.645,0.002z"
     id="path3" /><path
     fill-rule="evenodd"
     clip-rule="evenodd"
     fill="#2B4EA1"
     d="M3.645,1.002h12.709c1.454,0,2.644,1.189,2.644,2.643v12.711  c0,1.453-1.189,2.643-2.644,2.643H3.645c-1.454,0-2.644-1.189-2.644-2.643V3.645C1.001,2.191,2.191,1.002,3.645,1.002z"
     id="path5"
     style="fill:#001aff;fill-opacity:1" /><path
     fill-rule="evenodd"
     clip-rule="evenodd"
     fill="#FFFFFF"
     d="M9.8,17.045h1.117V2.956H9.8V17.045L9.8,17.045z M6.438,5.529  H4.182c-0.353,0-0.669,0.127-0.95,0.379C3.021,6.105,2.88,6.324,2.811,6.563L1.84,9.789c-0.028,0.07-0.042,0.135-0.042,0.189  c0,0.324,0.162,0.486,0.484,0.486c0.226,0,0.374-0.127,0.444-0.379l0.886-2.953h0.484l-1.455,5.25h1.414v4.092  c0,0.365,0.176,0.549,0.527,0.549c0.352,0,0.527-0.184,0.527-0.549v-4.111h0.528v4.133c0,0.352,0.175,0.527,0.527,0.527  s0.527-0.176,0.527-0.527v-4.113h1.413l-1.476-5.25h0.506l0.886,2.953c0.07,0.252,0.218,0.379,0.442,0.379  c0.323,0,0.485-0.162,0.485-0.486c0-0.07-0.014-0.133-0.042-0.189l-0.97-3.227C7.864,6.338,7.703,6.119,7.45,5.908  C7.141,5.656,6.803,5.529,6.438,5.529L6.438,5.529L6.438,5.529z M5.362,5.297c0.323,0,0.597-0.111,0.822-0.338  c0.225-0.225,0.338-0.49,0.338-0.801c0-0.324-0.113-0.598-0.338-0.822C5.959,3.111,5.686,2.998,5.362,2.998  c-0.31,0-0.577,0.113-0.802,0.338C4.336,3.561,4.223,3.834,4.223,4.158c0,0.311,0.113,0.576,0.337,0.801  C4.786,5.186,5.053,5.297,5.362,5.297L5.362,5.297L5.362,5.297z M15.228,5.277c0.31,0,0.576-0.113,0.802-0.338  c0.226-0.227,0.338-0.492,0.338-0.803c0-0.322-0.112-0.594-0.338-0.812s-0.492-0.327-0.802-0.327s-0.576,0.109-0.801,0.327  c-0.226,0.218-0.338,0.489-0.338,0.812c0,0.311,0.112,0.576,0.338,0.803C14.651,5.164,14.918,5.277,15.228,5.277L15.228,5.277  L15.228,5.277z M16.726,5.508H13.71c-0.408,0-0.756,0.145-1.045,0.434c-0.288,0.287-0.433,0.643-0.433,1.064v3.5  c0,0.338,0.155,0.508,0.465,0.508c0.295,0,0.442-0.17,0.442-0.508V7.09h0.549v9.279c0,0.422,0.211,0.633,0.633,0.633  c0.421,0,0.632-0.211,0.632-0.633v-5.377h0.549v5.377c0,0.422,0.211,0.633,0.633,0.633c0.436,0,0.653-0.211,0.653-0.633V7.09h0.527  v3.416c0,0.352,0.147,0.527,0.443,0.527c0.295,0,0.442-0.176,0.442-0.527V7.027c0-0.408-0.137-0.764-0.411-1.066  C17.517,5.66,17.161,5.508,16.726,5.508L16.726,5.508z"
     id="path7" /><path
     style="fill:#0079c1;fill-opacity:1;stroke:none;stroke-opacity:1"
     d="M 3.2121151,18.915856 C 2.3777658,18.771104 1.7218714,18.273129 1.3377037,17.492747 l -0.2783817,-0.565494 0,-6.9509149 0,-6.9509144 0.2355748,-0.4797071 C 1.5661796,1.9932964 2.0544792,1.5173838 2.6167453,1.2574007 3.0068529,1.077021 3.0374178,1.0762712 10,1.0762712 c 6.962582,0 6.993147,7.5e-4 7.383254,0.1811295 0.562266,0.2599831 1.050566,0.7358957 1.321849,1.2883159 l 0.235575,0.4797071 0,6.9491526 0,6.9491527 -0.222019,0.47343 c -0.282207,0.60178 -0.736669,1.056242 -1.338449,1.338449 l -0.47343,0.222019 -6.652543,0.01291 c -3.658898,0.0071 -6.827853,-0.01751 -7.0421219,-0.05468 z M 4.9626161,16.93067 C 5.116994,16.81789 5.1286696,16.674453 5.1523179,14.600162 l 0.025199,-2.210331 0.2078516,0 0.2078516,0 0,2.14216 c 0,2.415011 0.022659,2.518856 0.5495996,2.518856 0.5471501,0 0.5520954,-0.02207 0.5520954,-2.46368 l 0,-2.197336 0.7260498,0 c 0.6519264,0 0.721508,-0.01514 0.6815623,-0.148306 C 7.9507503,11.735556 6.6949153,7.2231565 6.6949153,7.1837686 c 0,-0.026496 0.089636,-0.048175 0.1991907,-0.048175 0.1847852,0 0.2315862,0.1087877 0.6471309,1.5042373 0.2463672,0.8273305 0.4819846,1.5705245 0.5235945,1.6515415 0.1754753,0.341664 0.7843964,0.247234 0.8807278,-0.136581 C 9.0105368,9.8958992 8.0192196,6.5996785 7.753917,6.1924703 7.6401031,6.0177792 7.3931585,5.8072931 7.1822253,5.7051821 6.8466202,5.5427184 6.6663014,5.5254237 5.3080183,5.5254237 c -2.2297573,0 -2.2166836,-0.011151 -2.9870009,2.5477396 -0.297746,0.9890722 -0.5413564,1.8873689 -0.5413564,1.9962147 0,0.255807 0.3513368,0.492589 0.6279056,0.423175 0.2417353,-0.06067 0.3151819,-0.236167 0.8497328,-2.0303772 0.2061653,-0.6919896 0.3933219,-1.2766389 0.4159035,-1.2992205 0.022582,-0.022582 0.1161991,-0.028442 0.208039,-0.013023 0.1565678,0.026286 0.1227555,0.1865878 -0.5421727,2.5704071 -0.3900349,1.398305 -0.7097834,2.570975 -0.7105524,2.605932 -7.712e-4,0.03496 0.3018808,0.06356 0.6725551,0.06356 l 0.6739534,0 0.025199,2.210331 c 0.023648,2.074291 0.035324,2.217728 0.1897018,2.330508 0.090476,0.0661 0.2643316,0.120177 0.3863449,0.120177 0.1220133,0 0.2958685,-0.05408 0.3863449,-0.120177 z m 5.9695869,-6.9560937 0,-7.0762712 -0.59322,0 -0.5932203,0 0,7.0762712 0,7.0762707 0.5932203,0 0.59322,0 0,-7.0762707 z M 14.791987,16.842835 15,16.634823 l 0,-2.800463 0,-2.800462 0.206678,0 0.206679,0 0.02637,2.836072 c 0.03003,3.229143 0.0097,3.138505 0.704339,3.138505 0.720966,0 0.6747,0.335082 0.702479,-5.087711 l 0.02451,-4.7851708 0.208539,0 0.208539,0 0,1.7852323 c 0,1.0685431 0.03522,1.8510385 0.08773,1.9491525 0.100561,0.1879 0.577179,0.227828 0.742781,0.06222 0.07364,-0.07364 0.101695,-0.682483 0.101695,-2.2067655 0,-1.9279033 -0.01407,-2.1326423 -0.167127,-2.4326673 C 17.660997,5.523965 17.284071,5.4204926 15.004475,5.4558413 l -1.754711,0.027209 -0.360349,0.238656 C 12.254283,6.1423502 12.207404,6.34769 12.205251,8.718523 c -0.002,2.243363 0.01338,2.315375 0.495718,2.315375 0.420533,0 0.434624,-0.06649 0.434624,-2.0508472 l 0,-1.8474576 0.254238,0 0.254237,0 0,4.7496148 0,4.749615 0.208013,0.208012 c 0.131121,0.131122 0.304837,0.208012 0.469953,0.208012 0.165116,0 0.338832,-0.07689 0.469953,-0.208012 z M 5.7905771,5.2403368 C 6.2445895,5.0506383 6.5254769,4.6467577 6.5251069,4.1841758 6.5245392,3.4721089 6.0514553,2.9826917 5.364378,2.9833676 4.7255239,2.9839947 4.2260818,3.4740121 4.2164732,4.1096077 4.2091529,4.5938099 4.4396029,4.973526 4.8701203,5.1866338 5.2738331,5.3864733 5.4203625,5.3950224 5.7905771,5.2403368 Z M 16.026919,4.9421735 C 16.349748,4.6193441 16.40043,4.4623489 16.358428,3.9152542 16.303972,3.2059257 15.345961,2.755971 14.653061,3.1142838 14.1291,3.3852342 13.913086,4.1329698 14.19903,4.6859222 c 0.189078,0.3656387 0.595679,0.5845707 1.086364,0.5849475 0.366382,2.796e-4 0.449305,-0.036476 0.741525,-0.3286962 z"
     id="path3335"
     inkscape:connector-curvature="0" /></svg>