<?xml version="1.0"?>
<svg width="359" height="528" xmlns="http://www.w3.org/2000/svg" xmlns:svg="http://www.w3.org/2000/svg" preserveAspectRatio="xMidYMid meet">
 <metadata>Created by potrace 1.16, written by Peter Selinger 2001-2019</metadata>

 <g class="layer">
  <title>Layer 1</title>
  <g fill="#575757" id="svg_1" transform="translate(0, 528) scale(0.1, -0.1)">
   <path d="m1110,4644c-528,-150 -692,-201 -718,-221c-77,-59 -95,-186 -36,-261c52,-65 101,-82 231,-82l113,0l2,-1842c3,-1837 3,-1843 23,-1878c12,-19 40,-48 64,-65l43,-30l981,-3c716,-2 996,0 1035,8c73,16 126,68 141,139c8,37 11,578 11,1861l0,1810l113,0c127,0 174,15 219,68c79,94 52,240 -54,290c-24,12 -343,107 -710,211c-504,144 -681,191 -720,190c-37,0 -259,-59 -738,-195zm1500,-944l0,-380l-760,0l-760,0l0,380l0,380l760,0l760,0l0,-380zm-205,-782c-11,-7 -306,-182 -655,-391c-349,-209 -640,-382 -647,-384c-10,-4 -13,74 -13,391l0,396l668,0c509,-1 662,-3 647,-12zm203,-675l-3,-348l-740,-443c-407,-243 -748,-447 -757,-453c-17,-9 -18,10 -18,338l0,348l753,452c413,249 755,452 760,453c4,0 6,-156 5,-347zm2,-1193l0,-400l-667,0l-668,0l665,400c366,219 666,399 668,400c1,0 2,-180 2,-400z" id="svg_2" stroke="#ffffff" stroke-width="50"/>
  </g>
 </g>
</svg>