<?xml version="1.0"?>
<svg width="579" height="593" xmlns="http://www.w3.org/2000/svg" xmlns:svg="http://www.w3.org/2000/svg" preserveAspectRatio="xMidYMid meet">
 <metadata>Created by potrace 1.16, written by Peter Selinger 2001-2019</metadata>

 <g class="layer">
  <title>Layer 1</title>
  <g fill="#575757" id="svg_1" transform="translate(0, 593) scale(0.1, -0.1)">
   <path d="m808,5570c-57,-10 -101,-51 -178,-166c-178,-267 -298,-597 -340,-934c-15,-122 -12,-361 5,-494c32,-241 116,-504 232,-725c64,-123 163,-271 204,-306c28,-23 86,-45 119,-45c65,0 152,58 176,117c18,43 18,117 -1,153c-9,17 -41,67 -72,112c-142,208 -247,501 -283,788c-45,370 67,800 301,1149c49,74 63,104 67,141c13,137 -94,235 -230,210z" id="svg_2" stroke="#ffffff" stroke-width="150"/>
   <path d="m4623,5571c-44,-11 -77,-34 -110,-78c-25,-32 -28,-45 -28,-108l0,-71l73,-108c168,-249 266,-530 294,-846c32,-347 -75,-755 -280,-1067c-83,-125 -92,-145 -92,-198c0,-123 121,-217 238,-185c23,6 54,22 70,35c42,35 141,183 205,306c275,522 321,1128 131,1683c-78,225 -264,549 -349,607c-44,30 -103,42 -152,30z" id="svg_3" stroke="#ffffff" stroke-width="150"/>
   <path d="m2599,5161l-29,-29l0,-921l0,-921l-50,0c-60,0 -114,-20 -129,-48c-8,-15 -11,-456 -11,-1487l0,-1466l25,-24l24,-25l331,0l331,0l24,25l25,24l0,1466c0,987 -3,1473 -10,1486c-17,30 -64,49 -125,49l-55,0l0,924l0,924l-31,26c-29,25 -35,26 -161,26l-130,0l-29,-29z" id="svg_4" stroke="#ffffff" stroke-width="150"/>
   <path d="m1345,5052c-55,-26 -87,-67 -146,-185c-62,-122 -113,-271 -135,-397c-23,-124 -23,-334 -1,-456c30,-163 116,-388 198,-516c54,-83 155,-111 246,-67c66,32 96,78 101,153c4,59 1,68 -57,186c-68,141 -103,254 -120,385c-22,164 25,370 129,574c58,113 65,172 30,241c-42,83 -160,122 -245,82z" id="svg_5" stroke="#ffffff" stroke-width="150"/>
   <path d="m4032,5059c-75,-22 -143,-132 -126,-207c3,-15 32,-81 65,-147c167,-342 163,-615 -16,-964c-44,-86 -47,-96 -43,-155c5,-77 35,-123 101,-155c81,-39 175,-18 233,52c43,53 121,214 159,331c93,287 94,550 3,836c-35,113 -125,303 -164,350c-51,60 -131,82 -212,59z" id="svg_6" stroke="#ffffff" stroke-width="150"/>
  </g>
 </g>
</svg>