<?xml version="1.0" encoding="UTF-8" standalone="no"?>
<svg xmlns:rdf="http://www.w3.org/1999/02/22-rdf-syntax-ns#" xmlns="http://www.w3.org/2000/svg" height="580" width="580" version="1.1" xmlns:cc="http://creativecommons.org/ns#" xmlns:dc="http://purl.org/dc/elements/1.1/">
 <title>funkmast</title>
 <metadata>
  <rdf:RDF>
   <cc:Work rdf:about="">
    <dc:format>image/svg+xml</dc:format>
    <dc:type rdf:resource="http://purl.org/dc/dcmitype/StillImage"/>
    <dc:title>funkmast</dc:title>
   </cc:Work>
  </rdf:RDF>
 </metadata>
 <path d="m145 464v87h290v-87h-87v-116l29 14.854c58-14.85 116-72.85 116-159.85s-58-145-116-159.85c-29 0.55-58 72.85-58 101.85h-58c0-29-29-101.41-58-101.85-58 14.85-116 72.85-116 159.85s58 145 116 159.85l29-14.85v116z" fill-rule="evenodd" fill="#FFFFFF"/>
 <g fill="#575757">
  <path d="m203 69.781c-51.25 22.601-87.91 73.829-87.91 133.22 0 59.389 36.656 110.62 87.906 133.22v-33.531c-34.67-20.033-58-56.531-58-99.687s23.33-79.655 58-99.688v-33.531z"/>
  <path d="m377 69.781v33.531c34.67 20.033 58 56.531 58 99.688 0 43.156-23.33 79.655-58 99.687v33.531c51.25-22.6 87.906-73.83 87.906-133.22 0-59.389-36.656-110.62-87.906-133.22z"/>
  <path d="m232 121.44c-33.554 12.089-58 43.959-58 81.563 0 37.603 24.446 69.474 58 81.562v-31.719c-17.31-9.99-29-28.28-29-49.84 0-21.564 11.689-39.847 29-49.844v-31.719z"/>
  <path d="m348 121.44v31.719c17.311 9.9969 29 28.28 29 49.844s-11.689 39.847-29 49.844v31.719c33.554-12.089 58-43.959 58-81.562s-24.446-69.474-58-81.563z"/>
 </g>
 <path d="m261 203v261c0 29 0 29-29 29l-58-0.00001v29h232v-29l-58 0.00001c-29 0-29 0-29-29l0.00001-261c0-29-22.22-29-29-29-6.7764 0-29 0.00001-29 29z" fill="#575757"/>
</svg>
