<?xml version="1.0" encoding="UTF-8" standalone="no"?>
<!-- Created with Inkscape (http://www.inkscape.org/) -->
<svg
   xmlns:dc="http://purl.org/dc/elements/1.1/"
   xmlns:cc="http://web.resource.org/cc/"
   xmlns:rdf="http://www.w3.org/1999/02/22-rdf-syntax-ns#"
   xmlns:svg="http://www.w3.org/2000/svg"
   xmlns="http://www.w3.org/2000/svg"
   xmlns:sodipodi="http://sodipodi.sourceforge.net/DTD/sodipodi-0.dtd"
   xmlns:inkscape="http://www.inkscape.org/namespaces/inkscape"
   version="1.0"
   width="225"
   height="305"
   id="svg2"
   sodipodi:version="0.32"
   inkscape:version="0.45.1"
   sodipodi:docname="Arbre non-arraché.svg"
   sodipodi:docbase="/mnt/photos/Vectoriel/Héraldique/Meubles"
   inkscape:output_extension="org.inkscape.output.svg.inkscape">
  <metadata
     id="metadata6710">
    <rdf:RDF>
      <cc:Work
         rdf:about="">
        <dc:format>image/svg+xml</dc:format>
        <dc:type
           rdf:resource="http://purl.org/dc/dcmitype/StillImage" />
      </cc:Work>
    </rdf:RDF>
  </metadata>
  <sodipodi:namedview
     inkscape:window-height="739"
     inkscape:window-width="1016"
     inkscape:pageshadow="2"
     inkscape:pageopacity="0.0"
     guidetolerance="10.0"
     gridtolerance="10.0"
     objecttolerance="10.0"
     borderopacity="1.0"
     bordercolor="#666666"
     pagecolor="#ffffff"
     id="base"
     inkscape:zoom="2.0169931"
     inkscape:cx="148.29206"
     inkscape:cy="179.86599"
     inkscape:window-x="0"
     inkscape:window-y="0"
     inkscape:current-layer="g7256" />
  <defs
     id="defs4" />
  <g
     id="layer1">
    <g
       transform="translate(-17.58058,-735.9956)"
       id="g7256">
      <path
         d="M 103.30715,872.93971 L 96.67967,885.72128 L 111.3548,899.44963 L 114.66854,966.67121 L 108.04106,978.97939 L 138.69952,978.34616 L 152.83101,978.167 C 142.46988,963.75959 142.31781,927.53752 141.65186,903.71015 C 148.07429,897.3822 153.55765,893.87149 159.16734,889.9818 L 149.22612,878.62041 L 140.23168,887.14145 L 140.70507,871.99293 L 130.29046,884.7745 L 122.24281,868.67919 L 117.98228,887.14145 L 103.30715,872.93971 z "
         style="fill:#604100;fill-opacity:1;fill-rule:evenodd;stroke:black;stroke-width:3;stroke-linecap:butt;stroke-linejoin:miter;stroke-miterlimit:4;stroke-dasharray:none;stroke-opacity:1"
         id="path1910"
         sodipodi:nodetypes="cccccccccccccccc" />
      <path
         d="M 108.75265,877.31771 L 104.70897,876.86841 L 107.40476,886.75295 L 101.56389,885.40506 L 98.868107,891.69522 L 93.476538,891.24593 L 90.331455,897.08679 L 84.490589,899.78258 L 79.548318,896.63749 L 72.35956,902.02906 L 71.460965,896.63749 L 67.866586,900.23187 L 66.518694,897.53609 C 65.318375,901.1217 63.133276,900.76819 61.127125,901.13047 L 60.22853,897.08679 C 58.132372,899.18464 55.968873,901.1478 53.039772,901.57977 L 52.590474,897.98539 L 47.648203,901.57977 L 47.198905,896.1882 L 43.604525,896.1882 L 43.604525,891.69522 L 41.358038,890.79663 C 40.912976,887.87726 43.402901,885.69163 46.30031,883.60787 L 40.908742,883.60787 L 45.851013,877.767 C 42.4064,878.99864 38.961785,880.69009 35.517172,883.60787 L 33.270685,880.01349 L 31.024198,881.81068 L 26.081927,882.25998 C 24.055537,879.71396 25.122634,877.16794 27.879117,874.62192 C 26.57409,872.37544 28.571741,870.12895 30.574901,867.88246 L 26.980522,867.43316 C 27.732524,865.48621 28.116358,863.53925 34.618579,861.5923 L 29.227009,857.99792 C 33.509472,858.39067 37.891616,858.38469 41.358038,862.0416 L 41.807337,857.54862 L 46.30031,861.143 L 47.648203,858.89651 L 50.793284,856.20073 L 45.851013,854.85284 L 49.89469,850.35986 L 42.256633,853.95424 L 40.010146,849.46127 L 35.517172,854.40354 L 32.372092,849.46127 L 24.734035,850.80916 L 28.328414,846.31619 L 22.936845,844.519 L 26.531224,842.72181 L 25.183332,840.47532 L 31.922793,841.37391 L 31.024198,837.33024 L 37.314363,835.98235 L 28.777711,835.98235 L 29.676306,832.83726 L 22.03825,832.83726 L 25.63263,826.9964 L 22.936845,824.74991 L 27.879117,821.60483 L 27.879117,816.66256 L 33.270685,818.01045 L 32.372092,813.06818 L 40.010146,815.76396 L 38.212958,810.37239 L 45.401716,810.37239 L 45.851013,808.12591 L 42.705932,807.22731 L 44.053823,804.53153 L 38.662254,807.22731 L 37.314363,803.63293 L 32.372092,805.87942 L 29.227009,802.73434 L 24.734035,803.18363 L 24.734035,800.03855 L 29.227009,800.03855 L 30.125605,796.44417 L 34.16928,798.24136 L 40.459445,796.44417 L 35.517172,793.29909 L 42.256633,791.0526 L 39.111551,788.35682 L 41.358038,784.31314 L 36.415767,782.51595 L 34.618579,778.47228 L 40.908742,776.67509 L 37.763659,773.08071 L 42.705932,771.73282 L 40.459445,769.48633 L 42.705932,767.23984 L 40.010146,763.19617 L 44.503121,761.84827 L 43.604525,756.906 L 48.0975,756.4567 C 48.0975,756.4567 46.749608,751.06514 50.343987,753.31162 C 53.938366,755.55811 63.373612,752.86233 63.373612,752.86233 L 62.924314,757.8046 L 68.765181,756.4567 L 70.113073,761.39898 L 71.910263,759.15249 L 75.055344,763.19617 L 78.649723,760.94968 C 76.959399,760.24375 76.418145,758.38875 75.504642,756.906 L 79.548318,756.4567 L 81.794806,759.60179 C 83.44223,756.54028 85.089652,757.63218 86.737076,758.70319 L 88.084968,756.906 L 85.389185,746.57216 L 88.983564,744.32567 L 91.679349,751.96373 L 95.273728,747.47076 L 97.520215,751.06514 C 99.148928,748.06046 100.96123,745.14759 104.25968,742.97778 C 105.67904,746.49387 105.87445,748.786 105.60757,750.61584 L 108.75265,749.26795 L 112.34703,753.31162 L 110.10054,744.77497 C 114.38446,744.38497 115.89985,746.76348 117.7386,748.81865 C 116.92642,746.27263 118.31421,743.72661 120.88368,741.18059 L 122.23157,747.92005 L 124.02876,743.42708 L 130.76822,742.52849 L 130.76822,748.36935 C 133.26645,743.83497 136.41472,741.90079 139.75417,740.73129 L 141.10206,749.71724 L 146.94293,744.32567 L 151.4359,743.87638 L 148.74012,751.06514 L 154.58099,750.61584 L 159.97255,745.67357 L 162.66834,754.21022 C 163.72287,752.16753 164.15106,749.70729 167.61061,749.26795 L 167.61061,753.31162 C 169.91789,750.70703 173.04421,749.33099 177.04586,749.26795 L 181.53883,752.41303 L 176.14726,756.4567 L 182.43742,755.10881 L 184.68391,758.25389 L 189.62618,753.76092 C 190.95937,755.33714 189.39163,757.63858 187.3797,760.05108 L 196.81494,758.70319 L 200.40932,761.84827 L 195.01775,763.19617 L 198.61213,765.44265 L 201.30792,765.44265 L 205.80089,763.19617 L 199.51073,770.38492 C 202.29906,772.1037 203.64425,774.1111 202.20651,776.67509 L 195.01775,775.77649 L 194.11916,776.67509 L 197.71354,780.26947 L 192.77126,783.41455 L 195.01775,786.11033 L 191.87267,791.9512 L 196.81494,789.25542 L 198.16283,793.74839 C 199.58038,791.42179 200.53941,788.63667 203.5544,787.90752 L 206.25019,787.00893 L 206.69948,789.70471 L 213.88824,790.15401 L 211.19246,795.54558 C 214.67856,792.53409 217.0208,794.09804 219.72911,794.19769 L 215.23613,796.89347 L 218.38122,799.58926 L 214.78684,800.48785 C 216.18014,803.08266 214.96053,805.02425 212.98965,806.77801 L 217.03332,806.77801 L 218.83051,803.63293 L 222.42489,804.98082 L 223.77279,808.12591 L 229.61365,806.77801 L 228.71506,809.9231 L 235.90382,812.16958 L 233.20803,814.41607 L 236.35312,818.90904 L 232.30944,822.05413 L 230.06296,818.90904 L 228.26577,823.85131 L 225.12068,820.25694 L 224.22208,824.74991 L 229.16435,826.9964 L 233.65732,825.64851 L 235.45451,830.14148 L 237.2517,836.43164 L 230.96154,833.73586 L 230.06296,839.57672 L 227.36716,837.77953 L 224.67138,840.02602 L 228.26577,842.72181 L 226.46858,845.41759 L 222.42489,844.96829 L 225.12068,848.11337 L 222.87419,849.01197 L 229.16435,853.50494 L 229.61365,857.99792 L 226.91787,858.44722 L 223.77279,855.75143 L 227.36716,860.6937 L 226.01927,863.83878 L 222.87419,862.0416 L 223.77279,867.88246 C 220.21446,869.45778 219.05641,866.23255 217.03332,864.73738 L 218.83051,871.02754 C 216.96547,873.00261 214.34022,871.93685 211.64176,870.57825 C 211.75065,873.87988 210.42685,876.10699 207.14878,876.86841 L 205.35159,873.27403 L 204.0037,877.767 L 200.40932,876.86841 L 203.5544,882.25998 L 196.81494,882.70928 L 199.51073,888.99944 L 194.11916,889.44874 L 190.52478,893.94171 L 186.4811,888.99944 L 184.23461,895.2896 L 178.84304,892.59382 L 174.35007,895.2896 L 167.61061,892.14452 L 163.56693,896.63749 L 161.76974,893.04312 L 157.27677,896.63749 L 154.13169,892.59382 L 152.7838,896.63749 L 150.53731,890.34733 L 146.04433,893.94171 C 144.45366,890.94639 145.1972,887.95108 147.84152,884.95576 L 141.55136,885.40506 L 141.55136,880.91209 L 130.31893,885.40506 L 125.37665,880.91209 L 120.43438,884.50646 L 118.63719,879.1149 L 115.49211,880.46279 L 112.79633,876.86841 L 108.75265,877.31771 z "
         style="fill:#5ab532;fill-opacity:1;fill-rule:evenodd;stroke:black;stroke-width:3;stroke-linecap:butt;stroke-linejoin:miter;stroke-miterlimit:4;stroke-dasharray:none;stroke-opacity:1"
         id="path4587" />
    </g>
  </g>
</svg>
