<?xml version="1.0" encoding="UTF-8" standalone="no"?>
<svg
   xmlns:dc="http://purl.org/dc/elements/1.1/"
   xmlns:cc="http://creativecommons.org/ns#"
   xmlns:rdf="http://www.w3.org/1999/02/22-rdf-syntax-ns#"
   xmlns:svg="http://www.w3.org/2000/svg"
   xmlns="http://www.w3.org/2000/svg"
   xmlns:sodipodi="http://sodipodi.sourceforge.net/DTD/sodipodi-0.dtd"
   xmlns:inkscape="http://www.inkscape.org/namespaces/inkscape"
   width="578.0755"
   height="586"
   preserveAspectRatio="xMidYMid meet"
   version="1.1"
   id="svg24"
   sodipodi:docname="viewpoint.svg"
   inkscape:version="0.92.3 (2405546, 2018-03-11)">
  <defs
     id="defs28" />
  <sodipodi:namedview
     pagecolor="#ffffff"
     bordercolor="#666666"
     borderopacity="1"
     objecttolerance="10"
     gridtolerance="10"
     guidetolerance="10"
     inkscape:pageopacity="0"
     inkscape:pageshadow="2"
     inkscape:window-width="1003"
     inkscape:window-height="713"
     id="namedview26"
     showgrid="false"
     inkscape:pagecheckerboard="true"
     fit-margin-top="0"
     fit-margin-left="0"
     fit-margin-right="0"
     fit-margin-bottom="0"
     inkscape:zoom="0.4034188"
     inkscape:cx="287.57553"
     inkscape:cy="288.5"
     inkscape:window-x="0"
     inkscape:window-y="0"
     inkscape:window-maximized="0"
     inkscape:current-layer="svg24" />
  <metadata
     id="metadata2">Created by potrace 1.16, written by Peter Selinger 2001-2019<rdf:RDF>
  <cc:Work
     rdf:about="">
    <dc:format>image/svg+xml</dc:format>
    <dc:type
       rdf:resource="http://purl.org/dc/dcmitype/StillImage" />
    <dc:title></dc:title>
  </cc:Work>
</rdf:RDF>
</metadata>
  <g
     class="layer"
     id="g7"
     transform="translate(-21.924474,5)">
    <title
       id="title4">background</title>
    <rect
       height="602"
       id="canvas_background"
       width="802"
       x="-1"
       y="-1"
       style="fill:none" />
  </g>
  <g
     style="fill:#ffffff;fill-opacity:1;stroke:#ffffff;stroke-width:300;stroke-miterlimit:4;stroke-dasharray:none;stroke-opacity:1"
     transform="matrix(0.1,0,0,-0.1,-21.924474,590)"
     id="svg_1">
    <path
       style="fill:#ffffff;fill-opacity:1;stroke:#ffffff;stroke-width:300;stroke-miterlimit:4;stroke-dasharray:none;stroke-opacity:1"
       inkscape:connector-curvature="0"
       id="svg_2"
       d="m 2756,5724 c -20,-20 -26,-37 -26,-68 0,-22 65,-430 145,-906 139,-836 145,-866 170,-887 36,-32 94,-31 127,1 23,23 34,83 171,908 81,486 148,891 147,901 0,10 -13,32 -29,48 l -29,29 h -325 -324 z" />
    <path
       style="fill:#ffffff;fill-opacity:1;stroke:#ffffff;stroke-width:300;stroke-miterlimit:4;stroke-dasharray:none;stroke-opacity:1"
       inkscape:connector-curvature="0"
       id="svg_3"
       d="m 1723,5400 c -26,-10 -456,-321 -495,-358 -27,-25 -36,-68 -23,-105 10,-24 1274,-1261 1303,-1274 33,-15 70,-8 100,19 48,46 50,41 -378,897 -252,505 -408,805 -422,815 -25,18 -51,19 -85,6 z" />
    <path
       style="fill:#ffffff;fill-opacity:1;stroke:#ffffff;stroke-width:300;stroke-miterlimit:4;stroke-dasharray:none;stroke-opacity:1"
       inkscape:connector-curvature="0"
       id="svg_4"
       d="m 4393,5378 c -32,-35 -813,-1604 -813,-1634 0,-14 5,-34 11,-46 14,-26 67,-48 102,-41 21,4 202,177 660,627 348,341 641,633 651,649 18,27 18,33 5,68 -12,34 -44,60 -264,219 -225,162 -254,180 -291,180 -29,0 -46,-6 -61,-22 z" />
    <path
       style="fill:#ffffff;fill-opacity:1;stroke:#ffffff;stroke-width:300;stroke-miterlimit:4;stroke-dasharray:none;stroke-opacity:1"
       inkscape:connector-curvature="0"
       id="svg_5"
       d="m 5555,4163 c -44,-12 -1582,-817 -1602,-840 -32,-33 -31,-86 2,-118 18,-19 35,-25 69,-25 51,0 1701,244 1758,260 38,11 68,49 68,86 0,35 -191,601 -207,617 -21,18 -60,27 -88,20 z" />
    <path
       style="fill:#ffffff;fill-opacity:1;stroke:#ffffff;stroke-width:300;stroke-miterlimit:4;stroke-dasharray:none;stroke-opacity:1"
       inkscape:connector-curvature="0"
       id="svg_6"
       d="m 573,4138 c -28,-31 -203,-561 -203,-614 0,-83 -55,-70 911,-214 475,-72 885,-130 910,-130 35,0 51,5 67,23 25,27 30,91 8,119 -7,9 -369,202 -804,428 -850,441 -843,438 -889,388 z" />
    <path
       style="fill:#ffffff;fill-opacity:1;stroke:#ffffff;stroke-width:300;stroke-miterlimit:4;stroke-dasharray:none;stroke-opacity:1"
       inkscape:connector-curvature="0"
       id="svg_7"
       d="m 3984,2760 c -55,-22 -73,-109 -31,-148 12,-11 375,-204 807,-428 831,-431 833,-432 880,-389 19,17 210,580 210,619 0,31 -29,73 -57,84 -15,6 -415,67 -888,137 -473,70 -869,128 -880,130 -11,2 -30,0 -41,-5 z" />
    <path
       style="fill:#ffffff;fill-opacity:1;stroke:#ffffff;stroke-width:300;stroke-miterlimit:4;stroke-dasharray:none;stroke-opacity:1"
       inkscape:connector-curvature="0"
       id="svg_8"
       d="M 1280,2629 C 609,2528 420,2496 400,2481 c -45,-33 -39,-74 49,-348 45,-136 88,-267 97,-291 19,-51 60,-77 105,-67 43,10 1601,821 1617,842 21,29 15,91 -13,118 -19,20 -34,25 -72,24 -26,-1 -433,-59 -903,-130 z" />
    <path
       style="fill:#ffffff;fill-opacity:1;stroke:#ffffff;stroke-width:300;stroke-miterlimit:4;stroke-dasharray:none;stroke-opacity:1"
       inkscape:connector-curvature="0"
       id="svg_9"
       d="m 2505,2275 c -16,-8 -316,-295 -665,-638 -614,-602 -635,-624 -638,-663 -2,-28 3,-48 15,-62 31,-38 495,-370 526,-376 70,-14 56,-37 487,824 295,589 400,809 400,834 0,67 -66,110 -125,81 z" />
    <path
       style="fill:#ffffff;fill-opacity:1;stroke:#ffffff;stroke-width:300;stroke-miterlimit:4;stroke-dasharray:none;stroke-opacity:1"
       inkscape:connector-curvature="0"
       id="svg_10"
       d="m 3633,2276 c -35,-16 -53,-43 -53,-80 0,-14 182,-390 404,-835 366,-731 407,-809 435,-821 23,-9 38,-9 61,-1 17,5 141,90 275,186 202,146 246,182 255,209 7,21 7,42 1,57 -5,13 -249,260 -542,549 -722,711 -750,738 -779,744 -14,3 -39,-1 -57,-8 z" />
    <path
       style="fill:#ffffff;fill-opacity:1;stroke:#ffffff;stroke-width:300;stroke-miterlimit:4;stroke-dasharray:none;stroke-opacity:1"
       inkscape:connector-curvature="0"
       id="svg_11"
       d="m 3053,2085 c -13,-9 -27,-32 -32,-53 -17,-66 -291,-1718 -291,-1756 0,-26 7,-44 25,-61 l 24,-25 h 326 327 l 29,29 c 16,16 29,39 29,50 0,43 -291,1767 -301,1787 -22,42 -95,57 -136,29 z" />
  </g>
  <g
     style="fill:#000000;stroke:none"
     transform="matrix(0.1,0,0,-0.1,-21.924473,590)"
     id="svg_1-7">
    <path
       style="fill:#e2000f;stroke:none;stroke-width:150"
       inkscape:connector-curvature="0"
       id="svg_2-4"
       d="m 2756,5724 c -20,-20 -26,-37 -26,-68 0,-22 65,-430 145,-906 139,-836 145,-866 170,-887 36,-32 94,-31 127,1 23,23 34,83 171,908 81,486 148,891 147,901 0,10 -13,32 -29,48 l -29,29 h -325 -324 z" />
    <path
       style="fill:#e2000f;stroke:none;stroke-width:150"
       inkscape:connector-curvature="0"
       id="svg_3-8"
       d="m 1723,5400 c -26,-10 -456,-321 -495,-358 -27,-25 -36,-68 -23,-105 10,-24 1274,-1261 1303,-1274 33,-15 70,-8 100,19 48,46 50,41 -378,897 -252,505 -408,805 -422,815 -25,18 -51,19 -85,6 z" />
    <path
       style="fill:#e2000f;stroke:none;stroke-width:150"
       inkscape:connector-curvature="0"
       id="svg_4-3"
       d="m 4393,5378 c -32,-35 -813,-1604 -813,-1634 0,-14 5,-34 11,-46 14,-26 67,-48 102,-41 21,4 202,177 660,627 348,341 641,633 651,649 18,27 18,33 5,68 -12,34 -44,60 -264,219 -225,162 -254,180 -291,180 -29,0 -46,-6 -61,-22 z" />
    <path
       style="fill:#e2000f;stroke:none;stroke-width:150"
       inkscape:connector-curvature="0"
       id="svg_5-2"
       d="m 5555,4163 c -44,-12 -1582,-817 -1602,-840 -32,-33 -31,-86 2,-118 18,-19 35,-25 69,-25 51,0 1701,244 1758,260 38,11 68,49 68,86 0,35 -191,601 -207,617 -21,18 -60,27 -88,20 z" />
    <path
       style="fill:#e2000f;stroke:none;stroke-width:150"
       inkscape:connector-curvature="0"
       id="svg_6-5"
       d="m 573,4138 c -28,-31 -203,-561 -203,-614 0,-83 -55,-70 911,-214 475,-72 885,-130 910,-130 35,0 51,5 67,23 25,27 30,91 8,119 -7,9 -369,202 -804,428 -850,441 -843,438 -889,388 z" />
    <path
       style="fill:#e2000f;stroke:none;stroke-width:150"
       inkscape:connector-curvature="0"
       id="svg_7-4"
       d="m 3984,2760 c -55,-22 -73,-109 -31,-148 12,-11 375,-204 807,-428 831,-431 833,-432 880,-389 19,17 210,580 210,619 0,31 -29,73 -57,84 -15,6 -415,67 -888,137 -473,70 -869,128 -880,130 -11,2 -30,0 -41,-5 z" />
    <path
       style="fill:#e2000f;stroke:none;stroke-width:150"
       inkscape:connector-curvature="0"
       id="svg_8-0"
       d="M 1280,2629 C 609,2528 420,2496 400,2481 c -45,-33 -39,-74 49,-348 45,-136 88,-267 97,-291 19,-51 60,-77 105,-67 43,10 1601,821 1617,842 21,29 15,91 -13,118 -19,20 -34,25 -72,24 -26,-1 -433,-59 -903,-130 z" />
    <path
       style="fill:#e2000f;stroke:none;stroke-width:150"
       inkscape:connector-curvature="0"
       id="svg_9-0"
       d="m 2505,2275 c -16,-8 -316,-295 -665,-638 -614,-602 -635,-624 -638,-663 -2,-28 3,-48 15,-62 31,-38 495,-370 526,-376 70,-14 56,-37 487,824 295,589 400,809 400,834 0,67 -66,110 -125,81 z" />
    <path
       style="fill:#e2000f;stroke:none;stroke-width:150"
       inkscape:connector-curvature="0"
       id="svg_10-0"
       d="m 3633,2276 c -35,-16 -53,-43 -53,-80 0,-14 182,-390 404,-835 366,-731 407,-809 435,-821 23,-9 38,-9 61,-1 17,5 141,90 275,186 202,146 246,182 255,209 7,21 7,42 1,57 -5,13 -249,260 -542,549 -722,711 -750,738 -779,744 -14,3 -39,-1 -57,-8 z" />
    <path
       style="fill:#e2000f;stroke:none;stroke-width:150"
       inkscape:connector-curvature="0"
       id="svg_11-7"
       d="m 3053,2085 c -13,-9 -27,-32 -32,-53 -17,-66 -291,-1718 -291,-1756 0,-26 7,-44 25,-61 l 24,-25 h 326 327 l 29,29 c 16,16 29,39 29,50 0,43 -291,1767 -301,1787 -22,42 -95,57 -136,29 z" />
  </g>
</svg>
