<?xml version="1.0" encoding="UTF-8" standalone="no"?>
<svg id="symbol-viewpoint" xmlns:rdf="http://www.w3.org/1999/02/22-rdf-syntax-ns#" style="enable-background:new -2 -2 20 20" xmlns="http://www.w3.org/2000/svg" xml:space="preserve" height="20px" viewBox="-2 -2 20 20" width="20px" version="1.0" y="0px" x="0px" xmlns:cc="http://creativecommons.org/ns#" xmlns:dc="http://purl.org/dc/elements/1.1/"><g id="path3296"><path id="path3338" fill="#f55" d="m0.8 9.6h-0.3c-0.6-0.2-1.1-0.6-1.4-1.1-0.1-0.3-0.1-0.5 0-0.8 0.1-0.4 0.5-0.8 1-1.1 0.2-0.1 0.4-0.2 0.7-0.2h0.3c0.5 0.1 1.3 0.2 2.4 0.5 1.2 0.3 1.7 0.4 1.9 0.8 0.1 0.2 0.1 0.4 0 0.5-0.1 0.2-0.2 0.6-3.1 1.2-0.8 0.1-1.2 0.2-1.5 0.2z"/><path id="path3340" fill="#F4F4F4" d="m0.8 6.9h0.3c0.5 0 1.2 0.2 2.4 0.4 1.3 0.4 1.5 0.5 1.5 0.7-0.1 0.2-1.2 0.6-2.8 0.9-0.7 0.1-1.1 0.2-1.4 0.2h-0.2c-0.4-0.1-0.8-0.5-1-0.8-0.1-0.2-0.1-0.3 0-0.5 0.1-0.3 0.3-0.6 0.7-0.8 0.2 0 0.3-0.1 0.5-0.1m0-1c-0.4 0-0.6 0.1-0.9 0.2-0.6 0.3-1.1 0.9-1.3 1.4-0.1 0.5-0.1 0.8 0.1 1.2 0.3 0.6 0.9 1.2 1.7 1.3 0.1 0 0.3 0.1 0.5 0.1 0.3 0 0.7-0.1 1.5-0.2 3-0.6 3.4-1 3.6-1.5 0-0.4 0-0.7-0.2-1-0.3-0.6-0.9-0.7-2.2-1-1.1-0.3-1.9-0.4-2.4-0.5h-0.4z"/></g><g id="path3310"><path id="path3343" fill="#f55" d="m8 16.9c-0.3 0-0.5-0.1-0.7-0.2-0.3-0.2-0.5-0.4-0.7-0.8-0.2-0.3-0.2-0.5-0.1-1.1 0-0.7 0.5-3.9 1.2-4.2l0.1-0.1h0.2c0.6 0 0.9 0.6 1.4 3 0.3 1.4 0.3 2-0.1 2.6-0.1 0.2-0.3 0.4-0.5 0.6-0.3 0.2-0.6 0.2-0.8 0.2z"/><path id="path3345" fill="#F4F4F4" d="m8 11c0.2 0 0.5 0.8 0.9 2.6 0.3 1.4 0.3 1.8 0 2.3-0.1 0.2-0.3 0.4-0.4 0.4-0.1 0.1-0.3 0.1-0.4 0.1s-0.3 0-0.4-0.1c-0.2-0.1-0.3-0.3-0.5-0.6-0.1-0.2-0.1-0.3-0.1-0.8-0.1-1.3 0.5-3.7 0.9-3.9-0.1 0-0.1 0 0 0m0-1c-0.2 0-0.4 0.1-0.6 0.2-1 0.6-1.4 4.6-1.4 4.6 0 0.5 0 0.9 0.2 1.3 0.2 0.5 0.5 0.8 0.8 1s0.6 0.3 1 0.3 0.7-0.1 1-0.3 0.5-0.5 0.7-0.7c0.5-0.8 0.4-1.7 0.2-3-0.5-2.1-0.8-3.4-1.9-3.4z"/></g><g id="path3312"><path id="path3348" fill="#f55" d="m2.2 14.7c-0.3 0-0.5-0.1-0.7-0.2-0.6-0.5-0.3-1.4-0.2-1.7 0.1-0.5 0.2-0.6 0.6-1 0.5-0.5 2-1.5 2.9-1.9 0.6-0.3 0.8-0.4 1-0.4 0.3 0 0.6 0.3 0.6 0.6 0 0.6-1.6 3.1-2.2 3.7s-1.1 0.9-1.7 0.9h-0.3z"/><path id="path3350" fill="#F4F4F4" d="m5.8 10c0.1 0 0.1 0 0.1 0.1 0 0.4-1.4 2.6-2.1 3.4-0.4 0.5-0.8 0.7-1.3 0.7h-0.2c-0.2 0-0.2 0-0.4-0.1-0.2-0.2-0.3-0.6-0.1-1.1 0.1-0.4 0.2-0.5 0.5-0.8 0.5-0.4 1.9-1.4 2.8-1.9 0.4-0.2 0.6-0.3 0.7-0.3m0-1c-0.3 0-0.6 0.2-1.2 0.5-0.9 0.4-2.4 1.5-3 2-0.4 0.4-0.6 0.7-0.8 1.2-0.3 1-0.2 1.7 0.4 2.2 0.3 0.3 0.6 0.4 1 0.4h0.3c0.8-0.1 1.4-0.4 2.1-1.1 0.5-0.5 2.3-3.1 2.3-4 0-0.7-0.4-1.2-1.1-1.2z"/></g><g id="path3308"><path id="path3353" fill="#f55" d="m13.4 14.7c-0.2 0-0.6 0-0.8-0.1-0.8-0.4-2.8-3.3-3-4.2 0-0.1-0.1-0.4 0.1-0.6s0.4-0.2 0.5-0.2c0.4 0 1 0.2 2.6 1.4 1.4 1 2 1.6 1.9 2.7 0 0.4-0.2 0.8-0.7 1h-0.6z"/><path id="path3355" fill="#F4F4F4" d="m10.2 10c0.3 0 1 0.4 2.4 1.3 1.4 1 1.8 1.5 1.7 2.2 0 0.4-0.1 0.5-0.4 0.6-0.1 0-0.3 0.1-0.5 0.1s-0.5 0-0.6-0.1c-0.7-0.3-2.6-3-2.7-3.9-0.1-0.1-0.1-0.2 0.1-0.2m0-1c-0.4 0-0.7 0.2-0.9 0.4-0.3 0.4-0.3 0.9-0.2 1 0.2 1.1 2.3 4.1 3.3 4.6 0.3 0.2 0.8 0.2 1.1 0.2s0.6 0 0.8-0.1c0.6-0.2 0.9-0.7 1-1.4 0.2-1.5-0.8-2.3-2.1-3.2-1.9-1.2-2.5-1.5-3-1.5z"/></g><g id="path3306"><path id="path3358" fill="#f55" d="m15.1 9.8c-0.4 0-0.9-0.1-1.7-0.2-1.7-0.4-2.3-0.6-2.6-0.9-0.1-0.1-0.3-0.3-0.2-0.6 0-0.3 0.3-0.5 0.4-0.5 0.5-0.3 3.4-0.9 4.2-0.9h0.1c0.5 0 0.6 0.1 1 0.3 0.6 0.4 0.9 1 0.7 1.6-0.1 0.4-0.5 0.8-1 1.1-0.3 0-0.5 0.1-0.9 0.1z"/><path id="path3360" fill="#F4F4F4" d="m15.2 7.2c0.4 0 0.4 0 0.7 0.2 0.4 0.3 0.6 0.7 0.5 1s-0.4 0.6-0.7 0.8c-0.1 0.1-0.3 0.1-0.6 0.1-0.4 0-0.9-0.1-1.6-0.2-1.5-0.3-2.1-0.5-2.4-0.7-0.1-0.2-0.1-0.3 0.1-0.4 0.3-0.2 3.2-0.8 3.9-0.8h0.1m0-1h-0.1c-0.7 0-3.8 0.6-4.4 1-0.3 0.2-0.5 0.5-0.6 0.9 0 0.2 0 0.6 0.4 1 0.5 0.5 1.2 0.7 2.9 1 0.9 0.2 1.4 0.3 1.8 0.3s0.7-0.1 1-0.2c0.6-0.3 1.1-0.8 1.2-1.4 0.2-0.8-0.1-1.6-0.9-2.1-0.5-0.4-0.7-0.5-1.3-0.5z"/></g><g id="path3300"><path id="path3363" fill="#f55" d="m5.6 6.4c-0.2 0-0.3-0.1-0.7-0.3-0.5-0.3-1.9-1.2-2.6-1.7s-1-0.9-1.2-1.3c-0.2-0.6-0.1-1.6 0.4-1.9 0.3-0.1 0.6-0.2 0.8-0.2s0.5 0 0.8 0.2c0.5 0.2 1 0.8 1.7 1.7 1.6 2.4 1.5 2.9 1.3 3.2-0.1 0.1-0.3 0.3-0.5 0.3z"/><path id="path3365" fill="#F4F4F4" d="m2.3 1.5c0.2 0 0.5 0 0.6 0.1 0.3 0.2 0.8 0.7 1.4 1.6 1 1.4 1.5 2.4 1.3 2.6l-0.1 0.1c-0.1 0-0.2-0.1-0.4-0.2-0.5-0.3-1.8-1.2-2.5-1.7-0.6-0.4-0.9-0.8-1-1.1-0.2-0.4-0.1-1.1 0.2-1.3 0.1 0 0.3-0.1 0.5-0.1m0-1c-0.5 0-0.8 0.1-1.1 0.3-0.7 0.5-0.8 1.7-0.5 2.5 0.3 0.6 0.7 1 1.3 1.5 0.7 0.5 2.1 1.5 2.7 1.8 0.3 0.2 0.5 0.3 0.9 0.3 0.3 0 0.6-0.1 0.9-0.4 0.5-0.7 0.2-1.7-1.3-3.9-0.7-1-1.3-1.6-1.8-1.9-0.4-0.2-0.8-0.2-1.1-0.2z"/></g><g id="path3304"><path id="path3368" fill="#f55" d="m10.4 6.6c-0.2 0-0.3-0.1-0.5-0.2-0.4-0.4-0.1-1 0.2-1.5 0.5-0.9 1.6-2.5 2-3 0.3-0.3 0.5-0.5 0.9-0.5h0.5c0.5 0 1 0.2 1.2 0.5 0.2 0.1 0.3 0.5 0.3 0.6 0 0.3 0 0.6-0.1 0.9-0.3 0.5-0.9 1.1-2.3 2-1.6 1-1.9 1.2-2.2 1.2z"/><path id="path3370" fill="#F4F4F4" d="m13.6 1.7c0.3 0 0.6 0.1 0.7 0.3 0 0.1 0.1 0.3 0.1 0.5 0 0.3 0 0.4-0.1 0.6-0.2 0.4-0.8 1-2.2 1.8-1.2 0.8-1.6 1.1-1.8 1.1h-0.1c-0.1-0.1 0-0.3 0.3-0.9 0.5-1 1.6-2.5 2-2.9 0.3-0.3 0.4-0.3 0.7-0.4 0.2-0.1 0.3-0.1 0.4-0.1m0-1c-0.2 0-0.4 0-0.6 0.1-0.5 0.1-0.8 0.3-1.2 0.7-0.4 0.5-1.5 2.1-2 3.1-0.4 0.6-0.8 1.4-0.2 2.1 0.2 0.2 0.5 0.3 0.8 0.3 0.5 0 0.9-0.2 2.4-1.2s2.2-1.6 2.5-2.2c0.2-0.4 0.2-0.7 0.2-1.2 0-0.2-0.1-0.7-0.3-1-0.3-0.4-0.9-0.7-1.6-0.7z"/></g><g id="path3302"><path id="path3373" fill="#f55" d="m8 5.5c-0.2 0-0.4-0.1-0.5-0.2-0.4-0.5-0.8-2.3-0.9-3.1-0.2-1.1-0.2-1.7 0.1-2.2 0.3-0.6 0.8-0.9 1.3-0.9 0.6 0 1.1 0.4 1.4 1 0.2 0.3 0.2 0.5 0.1 1 0 0.8-0.6 3.4-0.9 3.9-0.2 0.4-0.5 0.5-0.6 0.5z"/><path id="path3375" fill="#F4F4F4" d="m8-0.4c0.3 0 0.7 0.3 1 0.8v0.7c0 0.8-0.6 3.3-0.8 3.7-0.1 0.1-0.1 0.2-0.2 0.2 0 0-0.1 0-0.1-0.1-0.2-0.2-0.5-1.3-0.8-2.7-0.2-1.2-0.2-1.6 0-2s0.6-0.6 0.9-0.6m0-1c-0.7 0-1.4 0.4-1.8 1.1-0.3 0.7-0.3 1.4-0.1 2.6 0.5 2.7 0.9 3.1 1 3.2 0.2 0.3 0.5 0.5 0.9 0.5 0.2 0 0.7-0.1 1.1-0.7 0.3-0.6 0.9-3.4 0.9-4.2 0-0.5 0-0.8-0.2-1.3-0.4-0.8-1.1-1.2-1.8-1.2z"/></g><path id="path2419" fill="#f55" d="m10 8c0 1.1-0.9 2-2 2s-2.1-0.9-2.1-2 0.9-2.1 2.1-2.1c1.1 0 2 0.9 2 2.1z"/></svg>
