<?xml version="1.0" encoding="UTF-8" standalone="no"?>
<svg
   xmlns:dc="http://purl.org/dc/elements/1.1/"
   xmlns:cc="http://creativecommons.org/ns#"
   xmlns:rdf="http://www.w3.org/1999/02/22-rdf-syntax-ns#"
   xmlns:svg="http://www.w3.org/2000/svg"
   xmlns="http://www.w3.org/2000/svg"
   xmlns:sodipodi="http://sodipodi.sourceforge.net/DTD/sodipodi-0.dtd"
   xmlns:inkscape="http://www.inkscape.org/namespaces/inkscape"
   version="1.1"
   viewBox="0 0 24 28"
   id="svg16"
   sodipodi:docname="waterfall.square_vector.svg"
   width="24"
   height="28"
   inkscape:version="0.92.3 (2405546, 2018-03-11)">
  <metadata
     id="metadata22">
    <rdf:RDF>
      <cc:Work
         rdf:about="">
        <dc:format>image/svg+xml</dc:format>
        <dc:type
           rdf:resource="http://purl.org/dc/dcmitype/StillImage" />
        <dc:title></dc:title>
      </cc:Work>
    </rdf:RDF>
  </metadata>
  <defs
     id="defs20" />
  <sodipodi:namedview
     pagecolor="#ffffff"
     bordercolor="#666666"
     borderopacity="1"
     objecttolerance="10"
     gridtolerance="10"
     guidetolerance="10"
     inkscape:pageopacity="0"
     inkscape:pageshadow="2"
     inkscape:window-width="807"
     inkscape:window-height="603"
     id="namedview18"
     showgrid="false"
     inkscape:pagecheckerboard="true"
     fit-margin-top="0"
     fit-margin-left="0"
     fit-margin-right="0"
     fit-margin-bottom="0"
     inkscape:zoom="14.181818"
     inkscape:cx="12"
     inkscape:cy="14"
     inkscape:window-x="0"
     inkscape:window-y="0"
     inkscape:window-maximized="0"
     inkscape:current-layer="svg16" />
  <path
     d="m 6.9999996,7 v 8 a 1,1 0 0 1 -2,0 V 7 a 1,1 0 0 1 2,0 z m 3,0 a 0.99974,0.99974 0 0 0 -1,1 V 19 A 1,1 0 0 0 11,19 V 8 A 0.99974,0.99974 0 0 0 9.9999996,7 Z M 18,6 a 0.99974,0.99974 0 0 0 -1,1 v 6 a 1,1 0 0 0 2,0 V 7 A 0.99974,0.99974 0 0 0 18,6 Z m -4,6 a 0.99974,0.99974 0 0 0 -1,1 v 9 a 1,1 0 0 0 2,0 v -9 a 0.99974,0.99974 0 0 0 -1,-1 z m 4,3 a 0.99974,0.99974 0 0 0 -1,1 v 5 a 1,1 0 0 0 2,0 v -5 a 0.99974,0.99974 0 0 0 -1,-1 z m 0,8 a 0.99974,0.99974 0 0 0 -1,1 v 2 a 1,1 0 0 0 2,0 V 24 A 0.99974,0.99974 0 0 0 18,23 Z M 9.9999996,22 a 0.99974,0.99974 0 0 0 -1,1 v 1 A 1,1 0 0 0 11,24 V 23 A 0.99974,0.99974 0 0 0 9.9999996,22 Z m -4,-5 a 0.99974,0.99974 0 0 0 -1,1 v 5 a 1,1 0 0 0 2,0 v -5 a 0.99974,0.99974 0 0 0 -1,-1 z M 22,1 H 20 A 0.99928,0.99928 0 0 0 19.293,1.293 L 17.58594,3 H 6.4140596 L 4.7069996,1.293 A 0.99928,0.99928 0 0 0 3.9999996,1 h -2 a 1,1 0 0 0 0,2 h 1.58594 l 1.70706,1.707 A 0.99928,0.99928 0 0 0 5.9999996,5 H 13 v 5 a 1,1 0 0 0 2,0 V 5 h 3 A 0.99928,0.99928 0 0 0 18.707,4.707 L 20.41406,3 H 22 a 1,1 0 0 0 0,-2 z"
     id="path10"
     style="fill:#ffffff;fill-opacity:1;stroke:#ffffff;stroke-width:2;stroke-miterlimit:4;stroke-dasharray:none;stroke-opacity:1"
     inkscape:connector-curvature="0" />
  <path
     d="m 7,7 v 8 A 1,1 0 0 1 5,15 V 7 a 1,1 0 0 1 2,0 z m 3,0 A 0.99974,0.99974 0 0 0 9,8 v 11 a 1,1 0 0 0 2,0 V 8 A 0.99974,0.99974 0 0 0 10,7 Z m 8,-1 a 0.99974,0.99974 0 0 0 -1,1 v 6 a 1,1 0 0 0 2,0 V 7 A 0.99974,0.99974 0 0 0 18,6 Z m -4,6 a 0.99974,0.99974 0 0 0 -1,1 v 9 a 1,1 0 0 0 2,0 v -9 a 0.99974,0.99974 0 0 0 -1,-1 z m 4,3 a 0.99974,0.99974 0 0 0 -1,1 v 5 a 1,1 0 0 0 2,0 v -5 a 0.99974,0.99974 0 0 0 -1,-1 z m 0,8 a 0.99974,0.99974 0 0 0 -1,1 v 2 a 1,1 0 0 0 2,0 v -2 a 0.99974,0.99974 0 0 0 -1,-1 z m -8,-1 a 0.99974,0.99974 0 0 0 -1,1 v 1 a 1,1 0 0 0 2,0 V 23 A 0.99974,0.99974 0 0 0 10,22 Z M 6,17 a 0.99974,0.99974 0 0 0 -1,1 v 5 a 1,1 0 0 0 2,0 V 18 A 0.99974,0.99974 0 0 0 6,17 Z M 22,1 H 20 A 0.99928,0.99928 0 0 0 19.293,1.293 L 17.58594,3 H 6.41406 L 4.707,1.293 A 0.99928,0.99928 0 0 0 4,1 H 1.9999997 a 1,1 0 0 0 0,2 H 3.58594 L 5.293,4.707 A 0.99928,0.99928 0 0 0 6,5 h 7 v 5 a 1,1 0 0 0 2,0 V 5 h 3 A 0.99928,0.99928 0 0 0 18.707,4.707 L 20.41406,3 H 22 a 1,1 0 0 0 0,-2 z"
     id="path10-7"
     style="fill:#0169B5;fill-opacity:1"
     inkscape:connector-curvature="0" />
</svg>
