<?xml version="1.0" encoding="UTF-8" standalone="no"?>
<svg id="svg2" xmlns:rdf="http://www.w3.org/1999/02/22-rdf-syntax-ns#" xmlns="http://www.w3.org/2000/svg" height="580" viewBox="0 0 580 580" width="580" version="1.1" enable-background="new 0 0 580 580" xmlns:cc="http://creativecommons.org/ns#" xmlns:dc="http://purl.org/dc/elements/1.1/">
 <path id="path8074" opacity=".8" stroke-linejoin="round" d="m552.53 204.66h-94.34v-115.21h-80.17v-48.102h-41.02v48.102h-57.42v-21.627h-91.73v21.627h-67.86v-50.339h-41.018v50.339h-50.711v30.204h50.711v186.81h-44.745v60.41h30.203v174.88h319.56v-174.88h36.17v-60.41h-42.14v-186.81h49.97v123.42h30.2v-8.2h94.34v-30.21zm-432.54-85.01h67.86v12.3h10.07v174.51h-77.93v-186.81zm217.01 186.81h-123.79v-174.51h66.37v-12.3h57.42v186.81z" stroke="#fff" stroke-linecap="round" stroke-width="39.606" fill="none"/>
 <g id="g8069" transform="matrix(37.09,0,0,37.09,-6.7207,-6.6879)">
  <path id="path9" d="m15.029 5.7028h-2.528v-3.0921h-2.15v-1.2938h-1.1024v1.2938h-1.54v-0.5757h-2.4586v0.5757h-1.8175v-1.351h-1.1028v1.351h-1.3587v0.8086h1.3588v5.0136h-1.1972v1.6171h0.8087v4.69h8.5717v-4.69h0.97v-1.6171h-1.132v-5.0136h1.341v3.3134h0.809v-0.2213h2.528v-0.8086zm-11.596-2.2835h1.8175v0.3311h0.2669v4.6825h-2.0844v-5.0136zm5.8161 5.0136h-3.3231v-4.6825h1.7831v-0.3311h1.54v5.0136z" fill="#357ca0"/>
 </g>
</svg>
