<?xml version="1.0" encoding="UTF-8" standalone="no"?>
<svg id="svg2" xml:space="preserve" height="64" viewBox="3.906 0.094 64 64" xmlns:dc="http://purl.org/dc/elements/1.1/" width="64" version="1.1" xmlns:cc="http://creativecommons.org/ns#" xmlns:rdf="http://www.w3.org/1999/02/22-rdf-syntax-ns#" xmlns="http://www.w3.org/2000/svg" y="0px" x="0px" enable-background="new 3.906 0.094 12 12"><filter id="filter3821" height="1.24" width="1.24" y="-.12" x="-.12"><feGaussianBlur id="feGaussianBlur3823" stdDeviation="0.4"/></filter><g id="use3819" filter="url(#filter3821)" transform="matrix(4.2309 0 0 -4.3472 -5.9247 58.962)"><g id="g8" stroke="#fff" stroke-linecap="round" fill="none"><circle id="path10" cy="7" cx="6" r="2"/><path id="path12" d="m9.886 2.397v-2.18"/><path id="path14" d="m13.519 6.03h2.18"/><path id="path16" d="m6.253 6.03h-2.18"/><path id="path18" d="m9.886 9.662v2.18"/><path id="path20" d="m6.979 3.124-1.453-1.454"/><path id="path22" d="m12.792 3.124 1.453-1.453"/><path id="path24" d="m12.792 8.936 1.453 1.453"/><path id="path26" d="m6.979 8.936-1.453 1.453"/></g></g><g stroke="#000" fill="none"><ellipse id="path3803" rx="13.987" transform="scale(1,-1)" ry="14.345" cy="-32.759" cx="35.808" stroke-width="4.67"/><g stroke-width="8.5773"><path id="path3757" d="m35.902 48.542v9.477"/><path id="path3759" d="m51.272 32.748h9.2233"/><path id="path3761" d="m20.531 32.748h-9.2233"/><path id="path3763" d="m35.902 16.959v-9.477"/><path id="path3765" d="m26.353 42.56-8.8975 9.1423"/><path id="path3767" d="m45.303 42.412 9.0414 9.2901"/><path id="path3769" d="m46.17 22.197 8.174-8.3989"/><path id="path3771" d="m25.629 22.197-8.174-8.398"/></g></g><g id="g3355" filter="url(#filter3821)" transform="matrix(4.2309 0 0 -4.3472 -5.9247 58.962)"><g id="g3357" stroke="#fff" stroke-linecap="round" fill="none"><circle id="circle3359" cy="7" cx="6" r="2"/><path id="path3361" d="m9.886 2.397v-2.18"/><path id="path3363" d="m13.519 6.03h2.18"/><path id="path3365" d="m6.253 6.03h-2.18"/><path id="path3367" d="m9.886 9.662v2.18"/><path id="path3369" d="m6.979 3.124-1.453-1.454"/><path id="path3371" d="m12.792 3.124 1.453-1.453"/><path id="path3373" d="m12.792 8.936 1.453 1.453"/><path id="path3375" d="m6.979 8.936-1.453 1.453"/></g></g><g stroke="#357ca0" fill="none"><ellipse id="ellipse3377" rx="13.987" ry="14.345" transform="scale(1,-1)" cy="-32.759" cx="35.808" stroke-width="4.67"/><g stroke-width="8.5773"><path id="path3379" d="m35.902 48.542v9.477"/><path id="path3381" d="m51.272 32.748h9.2233"/><path id="path3383" d="m20.531 32.748h-9.2233"/><path id="path3385" d="m35.902 16.959v-9.477"/><path id="path3387" d="m26.353 42.56-8.8975 9.1423"/><path id="path3389" d="m45.303 42.412 9.0414 9.2901"/><path id="path3391" d="m46.17 22.197 8.174-8.3989"/><path id="path3393" d="m25.629 22.197-8.174-8.398"/></g></g></svg>
