<?xml version="1.0"?>
<svg width="531" height="529" xmlns="http://www.w3.org/2000/svg" xmlns:svg="http://www.w3.org/2000/svg" preserveAspectRatio="xMidYMid meet">
 <metadata>Created by potrace 1.16, written by Peter Selinger 2001-2019</metadata>

 <g class="layer">
  <title>background</title>
  <rect fill="none" height="602" id="canvas_background" width="802" x="-1" y="-1"/>
 </g>
 <g class="layer">
  <title>Layer 1</title>
  <g fill="#575757" id="svg_1" transform="translate(0, 529) scale(0.1, -0.1)">
   <path d="m1767,4805c-537,-161 -988,-300 -1001,-309c-14,-8 -37,-32 -53,-52l-28,-37l-3,-236c-2,-130 0,-251 3,-269c8,-45 67,-107 121,-128c56,-21 124,-13 176,21c63,42 72,70 78,244l5,154l858,257l859,258l856,-257l857,-257l3,-1647l2,-1647l-215,0c-179,0 -221,-3 -248,-16c-45,-23 -66,-44 -88,-86c-36,-70 -18,-181 37,-229c56,-49 63,-50 427,-47l343,3l43,28c28,19 49,43 62,72c19,42 19,88 17,1912l-3,1870l-28,36c-16,21 -39,44 -51,52c-34,23 -1980,605 -2018,604c-18,0 -473,-132 -1011,-294z" id="svg_2" stroke="#ffffff" stroke-width="50"/>
   <path d="m2046,3924c-23,-24 -26,-34 -26,-99l0,-73l-77,-11c-43,-6 -111,-20 -150,-30l-73,-19l-16,59c-19,67 -50,99 -95,99c-47,0 -227,-79 -254,-112c-31,-37 -31,-57 -1,-131l24,-58l-45,-27c-25,-15 -79,-51 -121,-80l-74,-53l-54,51c-44,42 -59,50 -90,50c-35,0 -47,-9 -136,-98c-89,-89 -98,-101 -98,-136c0,-31 8,-46 51,-91l51,-54l-30,-38c-16,-21 -52,-72 -79,-113l-49,-76l-59,18c-119,35 -145,19 -204,-126c-62,-151 -56,-181 46,-227c62,-28 65,-30 58,-57c-4,-15 -17,-76 -29,-137l-22,-110l-65,-6c-70,-6 -103,-19 -119,-49c-5,-10 -10,-77 -10,-149c0,-123 1,-131 24,-158c21,-25 32,-28 99,-31l75,-4l7,-52c4,-28 15,-88 26,-134c10,-46 19,-90 19,-97c0,-7 -22,-18 -52,-25c-65,-16 -98,-47 -98,-93c0,-47 75,-227 106,-254c32,-29 74,-29 143,0c37,15 56,18 58,11c5,-14 97,-154 131,-200l23,-30l-51,-51c-43,-43 -50,-56 -50,-89c0,-47 -5,-40 107,-147c81,-77 96,-87 128,-87c30,0 46,9 90,51l54,51l38,-30c21,-16 72,-52 113,-79l76,-49l-18,-59c-35,-119 -19,-144 126,-204c151,-62 181,-56 226,45c16,35 34,64 40,64c6,0 48,-9 93,-19c45,-11 102,-23 127,-28c41,-7 45,-11 48,-38c7,-90 15,-119 37,-141c23,-23 31,-24 155,-24c72,0 140,5 151,10c31,17 49,64 49,128l0,60l83,12c45,7 110,21 145,30c34,10 64,15 66,11c2,-3 11,-32 20,-63c20,-70 48,-93 104,-85c53,7 224,83 245,108c23,28 22,73 -5,136c-12,29 -20,54 -17,56c2,2 58,38 123,81l119,79l44,-47c48,-50 82,-64 119,-50c13,5 64,49 114,98c83,82 90,92 90,128c0,33 -8,47 -50,92l-49,52l35,50c20,27 56,79 80,116l43,66l51,-19c64,-24 111,-24 142,1c30,23 108,204 108,250c0,50 -17,70 -87,101c-46,21 -64,33 -60,44c4,8 16,65 28,127c12,62 23,118 24,124c2,7 33,13 74,16c61,3 75,7 99,31c27,27 27,29 27,162c0,132 -1,135 -26,161c-23,23 -35,26 -100,27l-73,2l-13,90c-7,49 -20,114 -29,143c-8,30 -12,58 -7,62c4,3 28,12 53,19c25,7 55,22 67,33c39,36 37,65 -11,184c-66,158 -94,176 -206,131l-54,-23l-81,121l-82,120l47,50c82,87 75,119 -53,243c-75,72 -89,82 -121,82c-31,0 -46,-9 -92,-51l-54,-52l-52,38c-29,20 -81,55 -115,77c-35,22 -63,44 -63,48c0,4 7,27 15,50c23,64 20,122 -8,148c-31,29 -210,102 -250,102c-43,0 -68,-25 -97,-94c-12,-31 -26,-56 -30,-56c-5,0 -46,9 -92,19c-46,11 -104,22 -129,26c-42,5 -47,9 -53,37c-3,17 -6,48 -6,70c0,30 -7,46 -29,69l-29,29l-135,0c-132,0 -135,0 -161,-26zm-34,-984c2,-231 1,-420 -2,-420c-3,0 -139,134 -302,297l-297,297l47,34c70,50 158,97 247,132c92,37 238,78 277,79l28,1l2,-420zm519,395c171,-45 326,-117 464,-217c11,-8 -158,-181 -427,-440l-168,-160l0,421c0,406 1,421 19,421c10,0 61,-11 112,-25zm-1217,-1093c-230,-1 -419,0 -422,3c-3,2 1,32 7,65c28,143 104,327 189,457l47,73l298,-298l297,-297l-416,-3zm2009,530c84,-127 134,-242 177,-407c15,-60 26,-113 24,-117c-3,-5 -195,-8 -427,-8l-422,0l300,300c165,165 300,300 301,300c1,0 22,-31 47,-68zm-1888,-1222l-299,-299l-38,52c-86,119 -186,363 -204,495l-7,52l424,0l424,0l-300,-300zm2079,233c-17,-79 -46,-173 -81,-258c-23,-55 -113,-216 -145,-258c-12,-16 -41,11 -313,283l-300,300l426,0l427,0l-14,-67zm-1494,-633c0,-480 12,-432 -102,-405c-151,35 -303,98 -430,180c-40,26 -75,50 -78,52c-6,6 591,592 603,593c4,0 7,-189 7,-420zm932,-208c-74,-53 -164,-99 -261,-137c-88,-34 -237,-75 -273,-75c-17,0 -18,27 -18,422l0,423l300,-300l299,-299l-47,-34z" id="svg_3" stroke="#ffffff" stroke-width="100"/>
  </g>
 </g>
</svg>