<?xml version="1.0" encoding="utf-8"?>
<!-- Generator: Adobe Illustrator 16.0.0, SVG Export Plug-In . SVG Version: 6.00 Build 0)  -->
<!DOCTYPE svg PUBLIC "-//W3C//DTD SVG 1.1//EN" "http://www.w3.org/Graphics/SVG/1.1/DTD/svg11.dtd">
<svg version="1.1" id="Layer_1" xmlns="http://www.w3.org/2000/svg" xmlns:xlink="http://www.w3.org/1999/xlink" x="0px" y="0px"
	 width="20px" height="20px" viewBox="0 0 20 20" enable-background="new 0 0 20 20" xml:space="preserve">
<path fill-rule="evenodd" clip-rule="evenodd" fill="#FFFFFF" d="M12.142,3.912h3.225c0.551,0,1,0.449,1,1v2.283
	c0,0.549-0.449,0.998-1,0.998h-3.225v8.436h2.926c0.55,0,0.999,0.449,0.999,1V19c0,0.549-0.449,0.998-0.999,0.998H8.858
	c-0.55,0-0.999-0.449-0.999-0.998V8.193H4.634c-0.551,0-1-0.449-1-0.998V4.912c0-0.551,0.449-1,1-1h3.226v-2.91
	c0-0.551,0.449-1,0.999-1h2.283c0.551,0,1,0.449,1,1V3.912z"/>
<polygon fill-rule="evenodd" clip-rule="evenodd" fill="#000001" points="11.142,1.002 11.142,4.912 15.366,4.912 15.366,7.195 
	11.142,7.195 11.142,17.629 15.067,17.629 15.067,19 11.142,19 8.858,19 8.858,17.629 8.858,7.195 4.634,7.195 4.634,4.912 
	8.858,4.912 8.858,1.002 "/>
</svg>
