<?xml version="1.0" encoding="UTF-8" standalone="no"?>
<!-- Generator: Adobe Illustrator 16.0.0, SVG Export Plug-In . SVG Version: 6.00 Build 0)  -->

<svg
   xmlns:dc="http://purl.org/dc/elements/1.1/"
   xmlns:cc="http://creativecommons.org/ns#"
   xmlns:rdf="http://www.w3.org/1999/02/22-rdf-syntax-ns#"
   xmlns:svg="http://www.w3.org/2000/svg"
   xmlns="http://www.w3.org/2000/svg"
   xmlns:sodipodi="http://sodipodi.sourceforge.net/DTD/sodipodi-0.dtd"
   xmlns:inkscape="http://www.inkscape.org/namespaces/inkscape"
   version="1.1"
   id="Layer_1"
   x="0px"
   y="0px"
   width="20px"
   height="20px"
   viewBox="0 0 20 20"
   enable-background="new 0 0 20 20"
   xml:space="preserve"
   inkscape:version="0.91 r13725"
   sodipodi:docname="windmill.svg"><metadata
     id="metadata11"><rdf:RDF><cc:Work
         rdf:about=""><dc:format>image/svg+xml</dc:format><dc:type
           rdf:resource="http://purl.org/dc/dcmitype/StillImage" /></cc:Work></rdf:RDF></metadata><defs
     id="defs9"><pattern
       y="0"
       x="0"
       height="6"
       width="6"
       patternUnits="userSpaceOnUse"
       id="EMFhbasepattern" /><pattern
       y="0"
       x="0"
       height="6"
       width="6"
       patternUnits="userSpaceOnUse"
       id="EMFhbasepattern-9" /><pattern
       y="0"
       x="0"
       height="6"
       width="6"
       patternUnits="userSpaceOnUse"
       id="EMFhbasepattern-6" /></defs><sodipodi:namedview
     pagecolor="#ffffff"
     bordercolor="#666666"
     borderopacity="1"
     objecttolerance="10"
     gridtolerance="10"
     guidetolerance="10"
     inkscape:pageopacity="0"
     inkscape:pageshadow="2"
     inkscape:window-width="1280"
     inkscape:window-height="748"
     id="namedview7"
     showgrid="false"
     inkscape:zoom="23.6"
     inkscape:cx="11.54661"
     inkscape:cy="9.8617439"
     inkscape:window-x="-8"
     inkscape:window-y="-8"
     inkscape:window-maximized="1"
     inkscape:current-layer="Layer_1" /><path
     inkscape:connector-curvature="0"
     id="path4145"
     d="m 9.5215764,5.5407281 0.5021466,-0.2924299 0.467124,0.2690474 3.59672,-4.9133381 0.01168,-0.011697 c 0.525497,-0.6551136 1.518117,-0.7837962 2.172069,-0.2339704 l 0.01169,0.023396 2.253791,2.1057201 0.03506,0.046792 c 0.525495,0.6434149 0.420389,1.5909974 -0.198538,2.1291252 l -5.208269,4.4570918 5.27835,4.527304 0.03502,0.03509 c 0.525497,0.52642 0.572195,1.415517 0.116787,2.012117 l -0.0584,0.05851 -2.160361,2.035532 c -0.572229,0.561511 -1.45971,0.608309 -2.066962,0.08189 l -0.09343,-0.07022 -0.02335,-0.03509 0.256911,2.234399 -9.4706479,0 0.3503425,-1.895138 C 4.8622222,18.303731 4.3133528,18.26864 3.8812772,17.987885 l -0.081741,-0.0468 -2.3705791,-2.222691 -0.070067,-0.105299 C 0.95013602,14.993074 0.99684602,14.139101 1.5807338,13.64777 L 6.8357203,9.1204647 1.4989866,4.5346866 1.440605,4.452798 C 0.99685062,3.9029624 0.97349562,3.0957738 1.4289193,2.5459447 L 1.475627,2.4874556 3.5542616,0.5338175 c 0.7356953,-0.6902082 1.7516611,-0.7720973 2.3939381,0.1169819 z"
     style="fill:#ffffff;fill-opacity:1;fill-rule:evenodd;stroke:none" /><path
     inkscape:connector-curvature="0"
     id="path4147"
     d="M 2.2930718,3.7742757 8.0151681,8.6993148 7.863363,9.6468841 C 7.851655,9.7053891 7.816631,9.7170971 7.781606,9.7521884 L 2.2930718,14.466654 c -0.1518087,0.128686 -0.14013,0.374351 -0.023348,0.538128 l 2.2071023,2.070622 c 0.14013,0.105276 0.3503098,0.0936 0.4904398,-0.01171 l 2.2421498,-3.21706 -0.9225709,5.0654 6.9482702,0 -0.583903,-5.0654 2.358897,3.193677 c 0.186862,0.163777 0.443773,0.128687 0.607253,-0.03513 l 2.113662,-1.988701 c 0.128454,-0.152102 0.116786,-0.42115 -0.02335,-0.561544 L 12.137389,9.6585919 c -0.05837,-0.03509 -0.07004,-0.023382 -0.08172,-0.1052705 L 11.95057,8.7227307 17.660985,3.8327818 C 17.83614,3.6923877 17.882839,3.4116325 17.731029,3.2361547 L 15.558988,1.1889269 C 15.383801,1.036848 15.091865,1.0953409 14.951734,1.2708189 L 10.782786,6.9679531 10.012053,6.5117135 9.2179714,6.9679531 5.0723715,1.2942147 C 4.8271346,0.95496026 4.5468746,1.0836433 4.2899673,1.329308 L 2.2697237,3.2361546 c -0.128456,0.1520622 -0.105101,0.3860524 0.023348,0.5381213 z"
     style="fill:#000000;fill-opacity:1;fill-rule:evenodd;stroke:none" /><path
     inkscape:connector-curvature="0"
     id="path4149"
     d="m 15.360446,2.2183912 1.342928,1.2634215 -6.130805,5.2760078 z"
     style="fill:#ffffff;fill-opacity:1;fill-rule:evenodd;stroke:none" /><path
     inkscape:connector-curvature="0"
     id="path4151"
     d="m 3.2973566,3.4935205 1.33127,-1.2751293 4.9162998,6.4341256 z"
     style="fill:#ffffff;fill-opacity:1;fill-rule:evenodd;stroke:none" /><path
     inkscape:connector-curvature="0"
     id="path4153"
     d="M 4.6286266,15.999149 3.3090341,14.770791 9.2413164,9.6117939 Z"
     style="fill:#ffffff;fill-opacity:1;fill-rule:evenodd;stroke:none" /><path
     inkscape:connector-curvature="0"
     id="path4155"
     d="M 16.703374,14.759116 15.360446,16.02253 10.654326,9.6117939 Z"
     style="fill:#ffffff;fill-opacity:1;fill-rule:evenodd;stroke:none" /></svg>