<?xml version="1.0"?>
<svg width="465" height="529" xmlns="http://www.w3.org/2000/svg" xmlns:svg="http://www.w3.org/2000/svg" preserveAspectRatio="xMidYMid meet">
 <metadata>Created by potrace 1.16, written by Peter Selinger 2001-2019</metadata>

 <g class="layer">
  <title>Layer 1</title>
  <g fill="#575757" id="svg_1" transform="translate(0, 529) scale(0.1, -0.1)">
   <path d="m558,4832c-240,-240 -248,-249 -248,-287c0,-39 9,-49 647,-687l647,-647l-85,-88c-53,-54 -90,-102 -97,-123c-6,-19 -16,-114 -22,-210l-11,-175l-539,-540l-540,-540l0,-45l0,-44l243,-243l244,-243l43,0c44,0 45,1 250,205c113,113 208,205 211,205c2,0 -12,-249 -33,-553c-20,-303 -37,-562 -38,-575c0,-13 13,-37 29,-53l29,-29l325,0l325,0l26,31l26,31l0,278c0,250 2,284 20,341c38,122 129,212 254,250c173,54 368,-35 452,-206l29,-60l5,-306c5,-335 4,-329 67,-356c48,-20 590,-19 638,1c63,27 62,16 26,564c-18,273 -35,531 -38,572l-5,75l209,-207c208,-207 209,-208 253,-208l44,0l245,245c240,239 246,245 246,285c0,40 -5,45 -541,583l-541,542l-11,187c-8,139 -15,195 -28,220c-9,18 -53,68 -97,110l-80,77l635,631c380,376 642,644 652,665c30,62 17,80 -243,338c-238,237 -238,237 -282,237l-43,0l-649,-647l-648,-648l-20,28c-35,47 -98,77 -162,77c-72,0 -97,-10 -153,-62l-45,-42l-647,647c-638,638 -648,647 -687,647c-38,0 -47,-8 -287,-248zm1900,-1680c19,-8 45,-32 58,-52c48,-72 44,-157 -9,-217c-57,-65 -135,-80 -214,-42c-142,69 -124,276 28,324c48,15 85,12 137,-13z" id="svg_2" stroke="#ffffff" stroke-width="150"/>
  </g>
 </g>
</svg>