<?xml version="1.0" encoding="UTF-8" standalone="no"?>
<!-- Created with Inkscape (http://www.inkscape.org/) -->

<svg
   xmlns:dc="http://purl.org/dc/elements/1.1/"
   xmlns:cc="http://creativecommons.org/ns#"
   xmlns:rdf="http://www.w3.org/1999/02/22-rdf-syntax-ns#"
   xmlns:svg="http://www.w3.org/2000/svg"
   xmlns="http://www.w3.org/2000/svg"
   xmlns:sodipodi="http://sodipodi.sourceforge.net/DTD/sodipodi-0.dtd"
   xmlns:inkscape="http://www.inkscape.org/namespaces/inkscape"
   width="500mm"
   height="500mm"
   viewBox="0 0 499.99997 500.00001"
   version="1.1"
   id="svg8"
   inkscape:version="0.92.4 (5da689c313, 2019-01-14)"
   sodipodi:docname="w_circle_orange_ring.svg">
  <defs
     id="defs2" />
  <sodipodi:namedview
     id="base"
     pagecolor="#ffffff"
     bordercolor="#666666"
     borderopacity="1.0"
     inkscape:pageopacity="0.0"
     inkscape:pageshadow="2"
     inkscape:zoom="0.5"
     inkscape:cx="-332.1811"
     inkscape:cy="937.50825"
     inkscape:document-units="mm"
     inkscape:current-layer="layer1"
     showgrid="false"
     units="mm"
     inkscape:showpageshadow="false"
     inkscape:pagecheckerboard="false"
     width="500mm"
     fit-margin-bottom="-0.2"
     inkscape:window-width="2560"
     inkscape:window-height="1360"
     inkscape:window-x="-11"
     inkscape:window-y="-11"
     inkscape:window-maximized="1" />
  <metadata
     id="metadata5">
    <rdf:RDF>
      <cc:Work
         rdf:about="">
        <dc:format>image/svg+xml</dc:format>
        <dc:type
           rdf:resource="http://purl.org/dc/dcmitype/StillImage" />
        <dc:title />
      </cc:Work>
    </rdf:RDF>
  </metadata>
  <g
     inkscape:label="Ebene 1"
     inkscape:groupmode="layer"
     id="layer1"
     transform="translate(0,203.00002)">
    <path
       style="fill:#ffbb00;fill-opacity:1;stroke-width:0.99999994"
       d="M 944.88281,24.882812 A 920.00002,920.00002 0 0 0 24.882812,944.88281 920.00002,920.00002 0 0 0 944.88281,1864.8828 920.00002,920.00002 0 0 0 1864.8828,944.88281 920.00002,920.00002 0 0 0 944.88281,24.882812 Z m 0,283.999998 a 635.99998,635.99998 0 0 1 635.99999,636 635.99998,635.99998 0 0 1 -635.99999,635.99999 635.99998,635.99998 0 0 1 -636,-635.99999 635.99998,635.99998 0 0 1 636,-636 z"
       transform="matrix(0.26458333,0,0,0.26458333,0,-203.00002)"
       id="path8126"
       inkscape:connector-curvature="0" />
  </g>
</svg>
