<?xml version="1.0" encoding="UTF-8" standalone="no"?>
<!-- Created with Inkscape (http://www.inkscape.org/) -->

<svg
   xmlns:dc="http://purl.org/dc/elements/1.1/"
   xmlns:cc="http://creativecommons.org/ns#"
   xmlns:rdf="http://www.w3.org/1999/02/22-rdf-syntax-ns#"
   xmlns:svg="http://www.w3.org/2000/svg"
   xmlns="http://www.w3.org/2000/svg"
   xmlns:sodipodi="http://sodipodi.sourceforge.net/DTD/sodipodi-0.dtd"
   xmlns:inkscape="http://www.inkscape.org/namespaces/inkscape"
   id="svg2"
   version="1.1"
   inkscape:version="0.92.4 (5da689c313, 2019-01-14)"
   width="500"
   height="500"
   sodipodi:docname="w_langlauf_violett.svg">
  <metadata
     id="metadata8">
    <rdf:RDF>
      <cc:Work
         rdf:about="">
        <dc:format>image/svg+xml</dc:format>
        <dc:type
           rdf:resource="http://purl.org/dc/dcmitype/StillImage" />
        <dc:title />
      </cc:Work>
    </rdf:RDF>
  </metadata>
  <defs
     id="defs6">
    <inkscape:perspective
       sodipodi:type="inkscape:persp3d"
       inkscape:vp_x="0 : 0.5 : 1"
       inkscape:vp_y="0 : 1000 : 0"
       inkscape:vp_z="1 : 0.5 : 1"
       inkscape:persp3d-origin="0.5 : 0.33333333 : 1"
       id="perspective10" />
  </defs>
  <sodipodi:namedview
     pagecolor="#ffffff"
     bordercolor="#666666"
     borderopacity="1"
     objecttolerance="10"
     gridtolerance="10"
     guidetolerance="10"
     inkscape:pageopacity="0"
     inkscape:pageshadow="2"
     inkscape:window-width="2560"
     inkscape:window-height="1360"
     id="namedview4"
     showgrid="false"
     inkscape:zoom="2.214"
     inkscape:cx="44.26378"
     inkscape:cy="247.11873"
     inkscape:window-x="-11"
     inkscape:window-y="-11"
     inkscape:window-maximized="1"
     inkscape:current-layer="svg2"
     inkscape:showpageshadow="false" />
  <rect
     style="fill:#990099;fill-opacity:1;stroke:none;stroke-width:43.07183075;stroke-linecap:round;stroke-linejoin:round;stroke-miterlimit:4;stroke-dasharray:none;stroke-opacity:1"
     id="rect2818"
     width="334.93509"
     height="11.232578"
     x="126.3593"
     y="441.93604" />
  <rect
     style="fill:#990099;fill-opacity:1;stroke:none;stroke-width:14.35727978"
     id="rect3592"
     width="207.05449"
     height="15.382906"
     x="207.74738"
     y="244.11736"
     transform="matrix(0.80452895,0.59391344,-0.60017848,0.79986611,0,0)" />
  <path
     style="fill:#990099;fill-opacity:1;stroke:none;stroke-width:14.35727978px;stroke-linecap:butt;stroke-linejoin:miter;stroke-opacity:1"
     d="m 216.87284,181.19684 16.70651,-24.16 17.35945,-13.27488 32.67659,-2.04217 -25.52859,34.71877 -23.4863,30.63441 c 0,0 -7.14799,6.12683 -23.48629,22.46513 -20.42287,30.63425 -38.80346,72.50122 -38.80346,72.50122 l -110.283503,44.93026 22.465157,17.35938 93.945206,-30.63429 69.43776,-67.39547 55.14177,52.07843 -18.70704,122.84274 24.4656,-0.67337 31.00259,-127.27466 c -3.06342,-24.50745 -55.14176,-76.58577 -55.14176,-76.58577 l 59.22634,-84.75504 c 14.296,22.46528 41.87297,44.9894 52.07834,43.90931 8.16912,-3.06355 50.38337,-30.63441 50.38337,-30.63441 l 2.71614,-23.48622 -46.97262,25.52854 c 0,0 -40.84573,-37.78232 -77.60691,-57.18403 -32.67657,-4.08452 -52.07831,3.0634 -78.62805,10.21146 l -42.88802,45.95148 -9.1903,15.31707 z"
     id="path3594"
     sodipodi:nodetypes="ccccccccccccccccccccccccccc"
     inkscape:connector-curvature="0" />
  <ellipse
     style="fill:#990099;fill-opacity:1;stroke:none;stroke-width:14.35727978"
     id="path3596"
     cx="373.47601"
     cy="83.00412"
     rx="31.655449"
     ry="32.166023" />
  <rect
     style="fill:#a000a0;fill-opacity:1;stroke:none;stroke-width:14.35727978"
     id="rect3598"
     width="183.80583"
     height="10.211435"
     x="36.498657"
     y="182.56566" />
  <rect
     style="fill:#990099;fill-opacity:1;stroke:none;stroke-width:14.35727978"
     id="rect3600"
     width="10.211435"
     height="333.91391"
     x="463.93942"
     y="55.098297"
     transform="rotate(6.9293288)" />
  <path
     style="fill:#990099;fill-opacity:1;stroke:none;stroke-width:14.35727978px;stroke-linecap:butt;stroke-linejoin:miter;stroke-opacity:1"
     d="m 476.12146,428.4484 8.6195,4.54311 c -4.76226,12.06685 -15.50658,20.14668 -23.6226,20.18374 l 0.11903,-11.45051 c 7.10752,0.80832 10.79326,-8.27912 14.88393,-13.27634 z"
     id="path3602"
     sodipodi:nodetypes="ccccc"
     inkscape:connector-curvature="0" />
</svg>
