<?xml version="1.0" encoding="UTF-8" standalone="no"?>
<!-- Generator: Adobe Illustrator 13.0.2, SVG Export Plug-In . SVG Version: 6.00 Build 14948)  -->

<svg
   xmlns:osb="http://www.openswatchbook.org/uri/2009/osb"
   xmlns:dc="http://purl.org/dc/elements/1.1/"
   xmlns:cc="http://creativecommons.org/ns#"
   xmlns:rdf="http://www.w3.org/1999/02/22-rdf-syntax-ns#"
   xmlns:svg="http://www.w3.org/2000/svg"
   xmlns="http://www.w3.org/2000/svg"
   xmlns:xlink="http://www.w3.org/1999/xlink"
   xmlns:sodipodi="http://sodipodi.sourceforge.net/DTD/sodipodi-0.dtd"
   xmlns:inkscape="http://www.inkscape.org/namespaces/inkscape"
   version="1.1"
   id="Layer_1"
   x="0px"
   y="0px"
   width="500"
   height="500"
   viewBox="-0.258 -0.548 500.00001 499.99999"
   xml:space="preserve"
   inkscape:version="0.92.4 (5da689c313, 2019-01-14)"
   sodipodi:docname="w_schneeschuh_cyan.svg"><metadata
   id="metadata21"><rdf:RDF><cc:Work
       rdf:about=""><dc:format>image/svg+xml</dc:format><dc:type
         rdf:resource="http://purl.org/dc/dcmitype/StillImage" /><dc:title /></cc:Work></rdf:RDF></metadata><defs
   id="defs19"><linearGradient
   id="linearGradient2262"
   osb:paint="solid"><stop
     style="stop-color:#000000;stop-opacity:1;"
     offset="0"
     id="stop2260" /></linearGradient><inkscape:perspective
   sodipodi:type="inkscape:persp3d"
   inkscape:vp_x="0 : 61.7695 : 1"
   inkscape:vp_y="0 : 999.99999 : 0"
   inkscape:vp_z="123.547 : 61.7695 : 1"
   inkscape:persp3d-origin="61.773499 : 41.179667 : 1"
   id="perspective23" />
	
	
	
	
	
	
<inkscape:perspective
   id="perspective3626"
   inkscape:persp3d-origin="27.5 : 18.333333 : 1"
   inkscape:vp_z="55 : 27.5 : 1"
   inkscape:vp_y="0 : 999.99999 : 0"
   inkscape:vp_x="0 : 27.5 : 1"
   sodipodi:type="inkscape:persp3d" /><inkscape:perspective
   id="perspective3693"
   inkscape:persp3d-origin="0.5 : 0.33333333 : 1"
   inkscape:vp_z="1 : 0.5 : 1"
   inkscape:vp_y="0 : 999.99999 : 0"
   inkscape:vp_x="0 : 0.5 : 1"
   sodipodi:type="inkscape:persp3d" /><inkscape:perspective
   id="perspective3610"
   inkscape:persp3d-origin="0.5 : 0.33333333 : 1"
   inkscape:vp_z="1 : 0.5 : 1"
   inkscape:vp_y="0 : 999.99999 : 0"
   inkscape:vp_x="0 : 0.5 : 1"
   sodipodi:type="inkscape:persp3d" /><inkscape:perspective
   id="perspective3632"
   inkscape:persp3d-origin="0.5 : 0.33333333 : 1"
   inkscape:vp_z="1 : 0.5 : 1"
   inkscape:vp_y="0 : 999.99999 : 0"
   inkscape:vp_x="0 : 0.5 : 1"
   sodipodi:type="inkscape:persp3d" /><inkscape:perspective
   id="perspective3632-4"
   inkscape:persp3d-origin="0.5 : 0.33333333 : 1"
   inkscape:vp_z="1 : 0.5 : 1"
   inkscape:vp_y="0 : 999.99999 : 0"
   inkscape:vp_x="0 : 0.5 : 1"
   sodipodi:type="inkscape:persp3d" /><inkscape:perspective
   id="perspective3663"
   inkscape:persp3d-origin="0.5 : 0.33333333 : 1"
   inkscape:vp_z="1 : 0.5 : 1"
   inkscape:vp_y="0 : 999.99999 : 0"
   inkscape:vp_x="0 : 0.5 : 1"
   sodipodi:type="inkscape:persp3d" /><inkscape:perspective
   id="perspective3663-5"
   inkscape:persp3d-origin="0.5 : 0.33333333 : 1"
   inkscape:vp_z="1 : 0.5 : 1"
   inkscape:vp_y="0 : 999.99999 : 0"
   inkscape:vp_x="0 : 0.5 : 1"
   sodipodi:type="inkscape:persp3d" /><inkscape:perspective
   id="perspective3694"
   inkscape:persp3d-origin="0.5 : 0.33333333 : 1"
   inkscape:vp_z="1 : 0.5 : 1"
   inkscape:vp_y="0 : 999.99999 : 0"
   inkscape:vp_x="0 : 0.5 : 1"
   sodipodi:type="inkscape:persp3d" /><pattern
   patternTransform="matrix(10,0,0,10,1.198711,5.50093)"
   id="pattern1566"
   xlink:href="#Checkerboard"
   inkscape:collect="always" /><pattern
   patternTransform="matrix(10,0,0,10,-4.801289,4.50093)"
   id="pattern1564"
   xlink:href="#Checkerboard"
   inkscape:collect="always" /><pattern
   inkscape:stockid="Checkerboard"
   id="Checkerboard"
   patternTransform="translate(0,0) scale(10,10)"
   height="2"
   width="2"
   patternUnits="userSpaceOnUse"
   inkscape:collect="always"><rect
     id="rect1622"
     height="1"
     width="1"
     y="0"
     x="0"
     style="fill:black;stroke:none" /><rect
     id="rect1624"
     height="1"
     width="1"
     y="1"
     x="1"
     style="fill:black;stroke:none" /></pattern></defs><sodipodi:namedview
   pagecolor="#ffffff"
   bordercolor="#666666"
   borderopacity="1"
   objecttolerance="10"
   gridtolerance="10"
   guidetolerance="10"
   inkscape:pageopacity="0"
   inkscape:pageshadow="2"
   inkscape:window-width="2560"
   inkscape:window-height="1360"
   id="namedview17"
   showgrid="false"
   inkscape:zoom="1"
   inkscape:cx="-465.5"
   inkscape:cy="62.078003"
   inkscape:window-x="-11"
   inkscape:window-y="-11"
   inkscape:window-maximized="1"
   inkscape:current-layer="Layer_1"
   inkscape:showpageshadow="false" />
<path
   id="path9"
   d="m 250.8529,87.724388 c 18.74212,0 33.89358,-15.245948 33.89358,-34.020938 0,-18.742123 -15.15146,-33.89358 -33.89358,-33.89358 -18.74212,0 -33.98807,15.151457 -33.98807,33.89358 0,18.77499 15.24595,34.020938 33.98807,34.020938 z"
   style="fill:#00ffff;fill-opacity:1;stroke-width:2;stroke:none;stroke-opacity:1;stroke-miterlimit:4;stroke-dasharray:none"
   inkscape:connector-curvature="0" /><path
   id="path15"
   d="m 188.60174,215.60967 c -7.18257,27.93222 -19.01084,85.98009 -22.40626,110.19432 -4.56773,32.57452 -9.33001,63.33079 -15.23116,96.42855 -2.32128,13.01932 -2.44471,29.46375 7.0325,29.46375 10.85005,0 14.86816,1.57685 17.02696,-3.66872 6.03523,-15.08811 17.92054,-69.03387 26.70863,-104.36873 10.28966,-41.37231 20.1651,-78.82509 20.1651,-78.82509 0,0 31.30833,33.15006 42.77888,77.73347 7.05232,27.41079 10.65795,75.15636 16.00253,100.45408 2.50197,10.43101 13.82539,4.92722 24.93016,4.92722 1.55069,-6.1017 -0.79937,-95.25649 -2.85435,-115.16475 l -48.98082,-134.42252 5.43247,-29.14889 26.97831,19.28541 c 10.71236,9.20545 24.57246,12.07347 24.57246,12.07347 10.5481,4.29528 45.89091,8.90415 49.21798,9.66706 9.01775,0 7.91625,-3.47908 7.91625,-12.49683 0,-7.73595 -18.3973,-11.44424 -25.61971,-13.14508 l -41.31774,-22.34861 -32.80636,-45.85863 c -3.4207,-27.913598 -7.55551,-20.6561 -27.20803,-23.46364 -36.08788,-4.449958 -31.7927,19.98238 -31.7927,19.98238 z"
   style="fill:#00ffff;fill-opacity:1;stroke-width:2;stroke:none;stroke-opacity:1;stroke-miterlimit:4;stroke-dasharray:none"
   sodipodi:nodetypes="cssscscsccccccccscccccc"
   inkscape:connector-curvature="0" />
<rect
   style="fill:#00ffff;fill-opacity:1;stroke:none;stroke-width:2;stroke-opacity:1;stroke-miterlimit:4;stroke-dasharray:none"
   id="rect3607"
   width="7.3508577"
   height="276.88232"
   x="389.98636"
   y="163.92102"
   transform="rotate(1.7377558)" /><rect
   style="fill:#00ffff;fill-opacity:1;stroke:none;stroke-width:2;stroke-opacity:1;stroke-miterlimit:4;stroke-dasharray:none"
   id="rect3609"
   width="45.166691"
   height="101.47038"
   x="174.10332"
   y="48.998016"
   transform="rotate(13.342792)"
   ry="9.2808275" /><path
   style="fill:url(#pattern1564);fill-opacity:1;stroke:#000000;stroke-width:6;stroke-linecap:round;stroke-linejoin:round;stroke-miterlimit:4;stroke-dasharray:none;stroke-opacity:1"
   d="m 86.26721,421.20338 c 7.977243,-8.15611 38.76672,-1.25677 84.46366,6.03672 33.06475,12.66428 43.7252,26.25746 37.2527,42.05979 -6.47251,15.80234 -25.36864,19.48626 -56.51612,4.97102 -43.88288,-28.33183 -64.996324,-45.07534 -65.20024,-53.06753 z"
   id="path2828-2-7"
   sodipodi:nodetypes="ccccc"
   inkscape:connector-curvature="0" /><path
   style="fill:url(#pattern1566);fill-opacity:1;stroke:#000000;stroke-width:6;stroke-linecap:round;stroke-linejoin:round;stroke-miterlimit:4;stroke-dasharray:none;stroke-opacity:1"
   d="m 220.47696,431.82554 c 6.45271,-9.40861 37.97046,-7.91725 84.24063,-8.60609 34.75231,6.7781 47.59534,18.33125 43.94225,35.01248 -3.65307,16.68119 -21.63192,23.56565 -54.81451,14.63397 -48.10801,-20.3474 -71.79051,-33.20285 -73.36837,-41.04036 z"
   id="path2828-6-1-9"
   sodipodi:nodetypes="ccccc"
   inkscape:connector-curvature="0" /></svg>