<?xml version="1.0" encoding="UTF-8" standalone="no"?>
<!-- Generator: Adobe Illustrator 15.0.0, SVG Export Plug-In . SVG Version: 6.00 Build 0)  -->

<svg
   xmlns:dc="http://purl.org/dc/elements/1.1/"
   xmlns:cc="http://creativecommons.org/ns#"
   xmlns:rdf="http://www.w3.org/1999/02/22-rdf-syntax-ns#"
   xmlns:svg="http://www.w3.org/2000/svg"
   xmlns="http://www.w3.org/2000/svg"
   xmlns:sodipodi="http://sodipodi.sourceforge.net/DTD/sodipodi-0.dtd"
   xmlns:inkscape="http://www.inkscape.org/namespaces/inkscape"
   version="1.1"
   x="0px"
   y="0px"
   width="580px"
   height="580px"
   viewBox="0 0 580 580"
   enable-background="new 0 0 580 580"
   xml:space="preserve"
   id="svg11"
   sodipodi:docname="w_skitour.svg"
   inkscape:version="0.92.4 (5da689c313, 2019-01-14)"><metadata
   id="metadata17"><rdf:RDF><cc:Work
       rdf:about=""><dc:format>image/svg+xml</dc:format><dc:type
         rdf:resource="http://purl.org/dc/dcmitype/StillImage" /><dc:title /></cc:Work></rdf:RDF></metadata><defs
   id="defs15" /><sodipodi:namedview
   pagecolor="#ffffff"
   bordercolor="#666666"
   borderopacity="1"
   objecttolerance="10"
   gridtolerance="10"
   guidetolerance="10"
   inkscape:pageopacity="0"
   inkscape:pageshadow="2"
   inkscape:window-width="2560"
   inkscape:window-height="1360"
   id="namedview13"
   showgrid="false"
   inkscape:showpageshadow="false"
   inkscape:zoom="1"
   inkscape:cx="-228.15254"
   inkscape:cy="290"
   inkscape:window-x="-11"
   inkscape:window-y="-11"
   inkscape:window-maximized="1"
   inkscape:current-layer="svg11" />

<g
   id="svg2"
   inkscape:output_extension="org.inkscape.output.svg.inkscape"
   inkscape:version="0.46"
   sodipodi:docname="waste_bin.svg"
   sodipodi:version="0.32"
   style="fill:#0000ff;stroke:none;stroke-width:2;stroke-miterlimit:4;stroke-dasharray:none;stroke-opacity:1">
	<g
   id="g8"
   style="fill:#0000ff;stroke:none;stroke-width:2;stroke-miterlimit:4;stroke-dasharray:none;stroke-opacity:1">
		<path
   id="path99"
   d="m 203.885,169.989 c -7.841,3.698 -14.499,8.482 -20.367,14.548 -5.918,5.967 -11.589,10.8 -14.546,21.551 -3.108,10.701 -4.145,24.657 -3.503,42.459 H 92.186 c 2.516,9.321 6.904,16.422 13.364,22.094 6.363,5.523 14.253,9.271 25.004,11.047 10.651,1.726 27.518,1.528 38.418,-1.184 10.849,-2.959 19.379,-8.384 26.135,-16.274 l 34.323,30.229 c -14.201,14.302 -24.409,26.335 -31.364,37.232 -7.051,10.654 -12.329,16.029 -9.911,26.779 2.465,10.552 9.715,19.727 24.41,36.641 14.598,17.014 34.964,37.824 62.237,63.961 -34.619,15.683 -63.962,27.914 -89.558,37.825 -25.544,9.717 -45.468,18.59 -62.827,20.366 -17.556,1.432 -32.005,-9.172 -41.277,-10.504 -9.321,-1.332 -13.905,-0.987 -13.956,2.908 0.049,3.898 2.613,16.572 13.956,19.778 11.293,3.006 14.204,10.405 53.211,-1.777 39.306,-12.475 123.141,-50.842 179.21,-71.704 55.824,-20.909 105.929,-38.218 153.173,-52.717 l -11.638,-5.228 c -8.383,2.367 -23.622,6.758 -45.912,13.366 -22.488,6.558 -51.386,15.285 -87.829,26.186 -8.188,-11.837 -15.486,-20.714 -22.095,-27.37 -6.756,-6.656 -12.328,-10.65 -17.457,-12.182 -14.3,-15.979 -22.979,-27.419 -26.778,-35.456 -3.746,-7.941 2.418,-8.481 4.636,-11.689 2.023,-3.154 1.578,-1.429 8.188,-7.545 6.656,-6.608 23.967,-21.501 31.412,-30.229 7.2,-8.729 12.527,-12.87 12.182,-20.959 -0.444,-8.187 -5.228,-17.113 -14.549,-27.321 h 79.692 l 5.228,22.093 5.819,-20.367 37.232,-4.043 -34.321,-5.228 -9.864,-20.958 -4.094,19.183 -91.329,-0.592 c -16.814,-20.121 -31.658,-36.986 -45.32,-51.188 -13.662,-14.301 -25.548,-25.347 -36.052,-33.731 z"
   inkscape:connector-curvature="0"
   style="fill:#0000ff;stroke:none;stroke-width:2;stroke-miterlimit:4;stroke-dasharray:none;stroke-opacity:1" />
		<path
   id="path101"
   d="m 149.556,114.208 c 20.39,0 36.938,16.548 36.938,36.937 0,20.39 -16.548,36.938 -36.938,36.938 -20.389,0 -36.937,-16.548 -36.937,-36.938 0,-20.389 16.549,-36.937 36.937,-36.937"
   inkscape:connector-curvature="0"
   style="fill:#0000ff;stroke:none;stroke-width:2;stroke-miterlimit:4;stroke-dasharray:none;stroke-opacity:1" />
		<path
   id="path103"
   d="m 204.16,157.902 c 4.447,-3.789 14.771,-14.553 31.678,-33.436 16.846,-18.943 39.388,-44.862 68.578,-78.899 19.101,30.369 33.157,52.499 43.541,66.872 10.146,14.313 15.78,20.387 17.145,18.702 10.799,-10.824 19.874,-20.025 27.705,-28.083 7.714,-8.059 13.701,-14.733 18.447,-20.025 23.729,33.436 43.424,60.978 60.689,84.251 16.968,23.093 30.434,40.592 40.873,53.462 l -64.603,-60.197 c -5.34,15.516 -14.06,23.333 -26.399,24.115 -12.577,0.481 -31.913,-16.959 -47.461,-20.086 -15.598,-3.187 -31.025,6.615 -44.905,1.323 -14.001,-5.653 -24.977,-27.603 -38.204,-33.374 -13.349,-5.653 -26.694,-5.653 -40.934,0 -15.364,8.417 -30.729,16.896 -46.15,25.375 z"
   inkscape:connector-curvature="0"
   style="fill:#0000ff;stroke:none;stroke-width:2;stroke-miterlimit:4;stroke-dasharray:none;stroke-opacity:1" />
	</g>
</g>
</svg>