<?xml version="1.0" encoding="UTF-8" standalone="no"?>
<!-- Generator: Adobe Illustrator 15.0.0, SVG Export Plug-In . SVG Version: 6.00 Build 0)  -->

<svg
   xmlns:dc="http://purl.org/dc/elements/1.1/"
   xmlns:cc="http://creativecommons.org/ns#"
   xmlns:rdf="http://www.w3.org/1999/02/22-rdf-syntax-ns#"
   xmlns:svg="http://www.w3.org/2000/svg"
   xmlns="http://www.w3.org/2000/svg"
   xmlns:sodipodi="http://sodipodi.sourceforge.net/DTD/sodipodi-0.dtd"
   xmlns:inkscape="http://www.inkscape.org/namespaces/inkscape"
   version="1.1"
   x="0px"
   y="0px"
   width="580px"
   height="580px"
   viewBox="0 0 580 580"
   enable-background="new 0 0 580 580"
   xml:space="preserve"
   id="svg9"
   sodipodi:docname="w_skipiste_violett.svg"
   inkscape:version="0.92.4 (5da689c313, 2019-01-14)"><metadata
   id="metadata15"><rdf:RDF><cc:Work
       rdf:about=""><dc:format>image/svg+xml</dc:format><dc:type
         rdf:resource="http://purl.org/dc/dcmitype/StillImage" /><dc:title /></cc:Work></rdf:RDF></metadata><defs
   id="defs13">
	
</defs><sodipodi:namedview
   pagecolor="#ffffff"
   bordercolor="#666666"
   borderopacity="1"
   objecttolerance="10"
   gridtolerance="10"
   guidetolerance="10"
   inkscape:pageopacity="0"
   inkscape:pageshadow="2"
   inkscape:window-width="2560"
   inkscape:window-height="1360"
   id="namedview11"
   showgrid="false"
   inkscape:showpageshadow="false"
   inkscape:zoom="1"
   inkscape:cx="-229"
   inkscape:cy="290"
   inkscape:window-x="-11"
   inkscape:window-y="-11"
   inkscape:window-maximized="1"
   inkscape:current-layer="svg9" />


<g
   style="fill:#990099;fill-opacity:1"
   id="g6">
		<path
   inkscape:connector-curvature="0"
   style="fill:#990099;fill-opacity:1"
   d="m 486.794,225.086 c 10.959,0 20.258,-3.818 27.895,-11.455 7.637,-7.637 11.455,-16.936 11.456,-27.895 -10e-4,-10.972 -3.819,-20.275 -11.456,-27.913 -7.637,-7.636 -16.936,-11.455 -27.895,-11.455 -10.577,0 -19.782,3.819 -27.616,11.455 -7.835,7.638 -11.752,16.941 -11.751,27.913 -0.001,10.959 3.916,20.258 11.751,27.895 7.834,7.637 17.039,11.455 27.616,11.455 z m 35.837,269.05 -14.109,-8.229 c -4.697,7.828 -11.551,11.742 -20.562,11.742 -4.304,0 -8.415,-1.172 -12.334,-3.514 L 62.084,250.937 l -8.229,14.091 413.56,243.198 c 6.263,3.526 13.11,5.289 20.545,5.289 15.273,0 26.83,-6.46 34.671,-19.379 z M 191.895,305.561 c 2.354,0.395 5.683,-0.191 9.985,-1.757 l 113.389,-37.002 c 10.959,-3.92 17.027,-9.991 18.204,-18.214 1.177,-8.222 1.568,-12.728 1.175,-13.517 l -17.031,-61.687 68.141,40.532 8.229,59.339 c 1.565,10.577 6.065,18.017 13.499,22.319 l 88.704,51.702 c 3.131,1.96 6.262,2.939 9.394,2.939 5.88,0 10.776,-2.059 14.691,-6.176 3.913,-4.117 5.87,-8.912 5.871,-14.387 -10e-4,-7.84 -3.521,-13.714 -10.56,-17.622 l -70.507,-41.125 -7.637,-105.733 c -1.172,-14.103 -7.237,-24.285 -18.196,-30.548 L 317.617,74.694 c -9.405,-5.474 -19.2,-8.211 -29.382,-8.211 -18.405,0 -32.699,7.44 -42.882,22.319 -5.868,9.012 -8.803,18.8 -8.802,29.364 -10e-4,4.697 0.585,9.4 1.757,14.108 l 27.607,89.868 -82.823,26.442 c -11.748,3.526 -18.405,12.144 -19.971,25.852 -2.354,18.409 7.236,28.783 28.774,31.125 z"
   id="flowRoot3192" />
	</g></svg>