<?xml version="1.0" encoding="UTF-8" standalone="no"?>
<!-- Created with Inkscape (http://www.inkscape.org/) -->

<svg
   xmlns:dc="http://purl.org/dc/elements/1.1/"
   xmlns:cc="http://creativecommons.org/ns#"
   xmlns:rdf="http://www.w3.org/1999/02/22-rdf-syntax-ns#"
   xmlns:svg="http://www.w3.org/2000/svg"
   xmlns="http://www.w3.org/2000/svg"
   xmlns:sodipodi="http://sodipodi.sourceforge.net/DTD/sodipodi-0.dtd"
   xmlns:inkscape="http://www.inkscape.org/namespaces/inkscape"
   version="1.1"
   id="svg2"
   width="500"
   height="500"
   viewBox="0 0 500 500"
   sodipodi:docname="w_skitour_schwarz.svg"
   inkscape:version="0.92.4 (5da689c313, 2019-01-14)">
  <metadata
     id="metadata8">
    <rdf:RDF>
      <cc:Work
         rdf:about="">
        <dc:format>image/svg+xml</dc:format>
        <dc:type
           rdf:resource="http://purl.org/dc/dcmitype/StillImage" />
        <dc:title></dc:title>
      </cc:Work>
    </rdf:RDF>
  </metadata>
  <defs
     id="defs6" />
  <sodipodi:namedview
     pagecolor="#ffffff"
     bordercolor="#666666"
     borderopacity="1"
     objecttolerance="10"
     gridtolerance="10"
     guidetolerance="10"
     inkscape:pageopacity="0"
     inkscape:pageshadow="2"
     inkscape:window-width="2560"
     inkscape:window-height="1360"
     id="namedview4"
     showgrid="false"
     inkscape:showpageshadow="false"
     inkscape:pagecheckerboard="false"
     inkscape:zoom="1"
     inkscape:cx="21.5"
     inkscape:cy="244.5"
     inkscape:window-x="-11"
     inkscape:window-y="-11"
     inkscape:window-maximized="1"
     inkscape:current-layer="svg2" />
  <path
     style="fill:#000000"
     d="m -1.674611,234.99099 c 9e-6,-134.75 0.116092,-189.726351 0.257964,-122.16967 0.141871,67.55668 0.141864,177.80668 -1.6e-5,245 -0.14188,67.19332 -0.257957,11.91967 -0.257948,-122.83033 z m 14.757992,240.83772 c -0.6875,-0.27741 -1.25,-1.31803 -1.25,-2.31247 0,-2.29 4.546711,-4.12665 17,-6.8672 10.329691,-2.27321 32.673106,-7.13682 58.249999,-12.67958 8.9375,-1.93685 20.075,-4.41121 24.75,-5.49859 4.675,-1.08738 13.675,-3.07943 20,-4.42677 6.325,-1.34734 19.825,-4.29332 30,-6.54662 10.175,-2.2533 25.5889,-5.64504 34.2531,-7.53719 16.49041,-3.6013 36.97942,-8.0985 63.4969,-13.93716 32.80758,-7.22362 54.12886,-14.035 60.36897,-19.2857 1.68377,-1.4168 4.8101,-4.94312 6.94739,-7.83627 4.59847,-6.22472 7.31826,-7.46999 10.14384,-4.64441 1.8976,1.89759 1.90798,2.10783 0.26442,5.35469 -4.8286,9.53892 -12.74893,15.60866 -27.24442,20.87875 -14.92506,5.42626 -30.34123,9.16764 -100.7302,24.44639 -11.55,2.50706 -24.825,5.45679 -29.5,6.55494 -4.675,1.09816 -13.9,3.14611 -20.5,4.55102 -12.25405,2.60845 -30.32691,6.54492 -59.2469,12.90465 -84.068978,18.48743 -83.362812,18.35041 -87.003099,16.88152 z M 131.83338,423.4703 c -7.35294,-3.437 -12.02778,-8.97109 -11.97804,-14.17965 0.0373,-3.91024 3.10971,-9.51638 28.25654,-51.5596 13.40207,-22.40703 25.77109,-43.44006 27.48672,-46.74006 1.71563,-3.3 4.68917,-11.4 6.60787,-18 1.9187,-6.6 4.8567,-16.725 6.52889,-22.5 7.24398,-25.01751 10.90925,-36.73429 12.38259,-39.5834 2.87444,-5.55855 8.43347,-8.39509 20.39108,-10.4047 18.58289,-3.12307 30.53051,-4.24169 37.82435,-3.54139 7.49036,0.71917 54.60799,8.23194 73.30998,11.68907 10.3033,1.90461 11.84872,2.4873 17.36284,6.54656 l 6.05287,4.45587 -0.70859,9.66899 c -0.38973,5.31795 -2.24905,21.144 -4.13182,35.169 -1.88278,14.025 -4.11301,30.675 -4.95607,37 -1.83268,13.74959 -4.11442,19.10154 -9.72733,22.81598 -3.65202,2.4168 -4.95914,2.68402 -13.12885,2.68402 -10.67905,0 -15.34458,-1.79829 -19.13409,-7.37505 -3.32853,-4.89837 -3.20419,-9.78251 1.07244,-42.12495 5.13135,-38.8064 5.03296,-37.57714 3.0681,-38.33113 -0.92012,-0.35308 -12.78942,-2.49576 -26.37621,-4.76151 -19.80144,-3.30211 -26.20052,-4.00862 -32.24883,-3.56052 -4.15005,0.30746 -8.24379,0.82696 -9.09719,1.15444 -1.02286,0.39251 -3.84249,8.33177 -8.27395,23.29707 -12.112,40.90293 -14.11909,46.50494 -20.23045,56.46547 -3.11682,5.0799 -7.09621,11.71118 -8.8431,14.73618 -8.42129,14.58272 -37.37888,62.19375 -41.05431,67.5 -5.3463,7.71851 -10.40629,10.64641 -19.32749,11.18363 -5.23435,0.3152 -7.57412,-0.0431 -11.12795,-1.70432 z m 74.01057,-29.46658 c -0.67888,-0.81799 -0.97161,-2.17188 -0.65051,-3.00865 1.01363,-2.64148 -1.63467,-1.97008 53.13994,-13.4721 13.2,-2.77184 30.75,-6.43966 39,-8.15071 8.25,-1.71105 21.075,-4.39544 28.5,-5.96531 7.425,-1.56986 24.3,-5.11685 37.5,-7.88219 54.29953,-11.3755 70.00422,-15.434 83.05372,-21.46324 6.76527,-3.12575 7.70771,-3.97686 14.62281,-13.20581 5.86029,-7.82118 7.90233,-9.86472 9.85748,-9.86472 2.03914,0 2.51928,0.54982 2.77386,3.1764 0.67714,6.98632 -9.05164,19.05629 -20.30787,25.19488 -10.62103,5.79219 -32.74017,12.11833 -67,19.1622 -13.61615,2.79951 -23.84609,4.96134 -68.5,14.47568 -11.825,2.51954 -35.45,7.46516 -52.5,10.99026 -17.05,3.5251 -36.03571,7.55482 -42.19046,8.95493 -12.93409,2.9423 -15.60009,3.10541 -17.29897,1.05838 z m 204.73943,-85.59283 c -2.22954,-1.29859 -2.19855,-3.21222 0.22345,-13.79611 1.0854,-4.74309 4.92204,-22.12379 8.52586,-38.62379 3.60383,-16.5 7.66448,-34.95 9.02367,-41 3.07039,-13.66683 7.35916,-33.00877 11.05852,-49.87279 1.60214,-7.30356 3.63282,-13.90125 4.69374,-15.25 2.16429,-2.75145 4.90805,-3.06622 6.80488,-0.78067 1.39218,1.67747 0.17492,9.25836 -5.68473,35.40346 -1.2943,5.775 -3.95715,17.925 -5.91745,27 -1.9603,9.075 -5.14191,23.7 -7.07025,32.5 -1.92833,8.8 -4.62398,21.175 -5.99034,27.5 -6.73768,31.18927 -7.61925,34.51007 -9.62329,36.25 -2.28825,1.9867 -3.54425,2.12591 -6.04406,0.6699 z m -198.3387,-99.81085 c -3.79058,-2.31147 -7.4113,-6.77428 -7.4113,-9.13498 0,-4.59393 33.39882,-97.49571 36.52337,-101.593 3.26353,-4.27953 8.47268,-5.3892 25.83534,-5.50349 15.95332,-0.10502 19.1854,0.74042 28.49049,7.45251 2.55794,1.84513 7.8008,5.53139 11.6508,8.19169 3.85,2.6603 9.475,6.59673 12.5,8.74763 17.56612,12.49025 29.35316,19.73059 32.12075,19.73059 1.62337,0 7.99781,-1.11689 14.16542,-2.48197 62.52742,-13.83929 63.90407,-13.97679 71.18492,-7.11006 4.847,4.5713 4.92446,9.39648 0.22626,14.09468 -4.62213,4.62213 -2.75751,4.13164 -70.6188,18.57625 -10.13179,2.15661 -19.93425,3.9211 -21.78324,3.9211 -3.75514,0 -10.76163,-3.27449 -19.185,-8.96613 -3.08567,-2.08498 -7.14298,-4.56838 -9.01624,-5.51868 -1.87326,-0.9503 -4.34826,-2.6194 -5.5,-3.70912 -2.72459,-2.57787 -17.39128,-13.15141 -20.5149,-14.78965 -2.06601,-1.08355 -2.60235,-1.02142 -3.65917,0.42388 -1.12771,1.54223 -4.17065,13.66648 -12.56396,50.0597 -3.72784,16.16388 -4.4099,17.94681 -8.03122,20.99395 -3.78273,3.18295 -8.15715,4.29969 -25.79772,6.58582 -18.76128,2.43137 -24.66672,2.43741 -28.6158,0.0293 z m -40.14782,-7.57575 c -6.86629,-2.13019 -33.17141,-15.51356 -36.86335,-18.75513 -5.29571,-4.64969 -5.76777,-2.77269 12.01613,-47.77817 15.11867,-38.2606 18.238,-45.32746 21.25758,-48.159067 2.29303,-2.150284 3.28345,-2.32735 12.16125,-2.174151 5.3157,0.09173 16.63991,1.085874 25.16491,2.209208 14.37968,1.8948 15.6693,2.23786 17.84237,4.74637 1.74034,2.00898 2.19441,3.44376 1.76667,5.58242 -0.6841,3.42053 -34.88198,89.29253 -38.14972,95.79522 -2.49068,4.95636 -5.88191,8.4799 -8.95932,9.30888 -1.1,0.29631 -3.90643,-0.0527 -6.23652,-0.77558 z M 291.94824,83.129382 c -0.62152,-0.748884 -3.35687,-1.625344 -6.07856,-1.947687 -9.9212,-1.175019 -22.28873,-9.326616 -27.41084,-18.066829 -4.06365,-6.9341 -4.32398,-11.317269 -1.09899,-18.503503 3.39149,-7.557254 9.33604,-13.22094 18.29392,-17.429586 5.80571,-2.727671 8.00368,-3.18861 16.80005,-3.523144 12.3151,-0.468355 18.23612,1.04025 27.20334,6.931093 4.2266,2.776579 7.54295,5.990476 10,9.691067 3.24558,4.888196 3.67177,6.249786 3.63827,11.623489 -0.0459,7.355981 -2.29497,12.459043 -8.01599,18.187767 -5.17659,5.183558 -15.37903,10.248362 -22.29377,11.06731 -3.05671,0.362023 -5.55102,1.207135 -5.84815,1.981448 -0.66977,1.745393 -3.73686,1.738641 -5.18928,-0.01143 z"
     id="path816"
     inkscape:connector-curvature="0" />
</svg>
