<?xml version="1.0" encoding="UTF-8" standalone="no"?>
<!-- Generator: Adobe Illustrator 16.0.0, SVG Export Plug-In . SVG Version: 6.00 Build 0)  -->

<svg
   xmlns:dc="http://purl.org/dc/elements/1.1/"
   xmlns:cc="http://creativecommons.org/ns#"
   xmlns:rdf="http://www.w3.org/1999/02/22-rdf-syntax-ns#"
   xmlns:svg="http://www.w3.org/2000/svg"
   xmlns="http://www.w3.org/2000/svg"
   xmlns:sodipodi="http://sodipodi.sourceforge.net/DTD/sodipodi-0.dtd"
   xmlns:inkscape="http://www.inkscape.org/namespaces/inkscape"
   version="1.1"
   id="Capa_1"
   x="0px"
   y="0px"
   width="500"
   height="500"
   viewBox="0 0 500.00001 500.00001"
   xml:space="preserve"
   sodipodi:docname="w_unbekannt_cyan.svg"
   inkscape:version="0.92.4 (5da689c313, 2019-01-14)"><metadata
   id="metadata43"><rdf:RDF><cc:Work
       rdf:about=""><dc:format>image/svg+xml</dc:format><dc:type
         rdf:resource="http://purl.org/dc/dcmitype/StillImage" /><dc:title></dc:title></cc:Work></rdf:RDF></metadata><defs
   id="defs41" /><sodipodi:namedview
   pagecolor="#ffffff"
   bordercolor="#666666"
   borderopacity="1"
   objecttolerance="10"
   gridtolerance="10"
   guidetolerance="10"
   inkscape:pageopacity="0"
   inkscape:pageshadow="2"
   inkscape:window-width="2560"
   inkscape:window-height="1360"
   id="namedview39"
   showgrid="false"
   inkscape:showpageshadow="false"
   inkscape:zoom="1"
   inkscape:cx="-465.5"
   inkscape:cy="300.4009"
   inkscape:window-x="-11"
   inkscape:window-y="-11"
   inkscape:window-maximized="1"
   inkscape:current-layer="Capa_1" />

<g
   id="g8"
   transform="translate(0,-473.09998)">
</g>
<g
   id="g10"
   transform="translate(0,-473.09998)">
</g>
<g
   id="g12"
   transform="translate(0,-473.09998)">
</g>
<g
   id="g14"
   transform="translate(0,-473.09998)">
</g>
<g
   id="g16"
   transform="translate(0,-473.09998)">
</g>
<g
   id="g18"
   transform="translate(0,-473.09998)">
</g>
<g
   id="g20"
   transform="translate(0,-473.09998)">
</g>
<g
   id="g22"
   transform="translate(0,-473.09998)">
</g>
<g
   id="g24"
   transform="translate(0,-473.09998)">
</g>
<g
   id="g26"
   transform="translate(0,-473.09998)">
</g>
<g
   id="g28"
   transform="translate(0,-473.09998)">
</g>
<g
   id="g30"
   transform="translate(0,-473.09998)">
</g>
<g
   id="g32"
   transform="translate(0,-473.09998)">
</g>
<g
   id="g34"
   transform="translate(0,-473.09998)">
</g>
<g
   id="g36"
   transform="translate(0,-473.09998)">
</g>
<flowRoot
   xml:space="preserve"
   id="flowRoot851"
   style="fill:black;fill-opacity:1;stroke:none;font-family:sans-serif;font-style:normal;font-weight:normal;font-size:40px;line-height:1.25;letter-spacing:0px;word-spacing:0px"><flowRegion
     id="flowRegion853"><rect
       id="rect855"
       width="61"
       height="90"
       x="160"
       y="86" /></flowRegion><flowPara
     id="flowPara857" /></flowRoot><rect
   style="fill:#ffffff;fill-opacity:1;stroke:none;stroke-width:0.99557626;stroke-opacity:1"
   id="rect833"
   width="348.97632"
   height="488.97632"
   x="82.011841"
   y="5.0118418" /><path
   style="font-style:normal;font-variant:normal;font-weight:normal;font-stretch:normal;font-size:40px;line-height:1.25;font-family:'Arial Rounded MT Bold';-inkscape-font-specification:'Arial Rounded MT Bold, Normal';font-variant-ligatures:normal;font-variant-caps:normal;font-variant-numeric:normal;font-feature-settings:normal;text-align:start;letter-spacing:0px;word-spacing:0px;writing-mode:lr-tb;text-anchor:start;fill:#00ffff;fill-opacity:1;stroke:none;stroke-width:13.69829941"
   d="M 258.63867 40.925781 C 231.64747 40.925781 208.02863 46.808449 187.78516 58.576172 C 167.54169 70.343895 152.14406 85.238485 141.58984 103.25781 C 131.03554 121.09327 125.75781 138.74517 125.75781 156.21289 C 125.75781 164.67094 129.04433 172.57681 135.61914 179.93164 C 142.36697 187.1026 150.58622 190.6875 160.27539 190.6875 C 176.71238 190.6875 187.87317 180.29887 193.75586 159.52148 C 199.98457 139.66345 207.59662 124.67734 216.59375 114.56445 C 225.59079 104.26769 239.60636 99.121094 258.63867 99.121094 C 274.90265 99.121094 288.13751 104.17618 298.3457 114.28906 C 308.727 124.40196 313.91797 136.81378 313.91797 151.52344 C 313.91797 159.06213 312.18703 166.04889 308.72656 172.48438 C 305.4392 178.91984 301.28717 184.80447 296.26953 190.13672 C 291.425 195.2851 283.46591 203.00793 272.39258 213.30469 C 259.76206 225.07241 249.72706 235.27605 242.28711 243.91797 C 234.84725 252.37602 228.87743 262.3051 224.37891 273.70508 C 219.8803 284.9212 217.63086 298.25213 217.63086 313.69727 C 217.63086 326.01663 220.65906 335.30311 226.71484 341.55469 C 232.94354 347.80626 240.55755 350.93164 249.55469 350.93164 C 266.85672 350.93164 277.15005 341.37059 280.4375 322.24805 C 282.34034 313.23839 283.7263 306.98573 284.5918 303.49219 C 285.62986 299.81477 287.01387 296.22986 288.74414 292.73633 C 290.47433 289.05891 293.06892 285.10598 296.5293 280.87695 C 300.16276 276.46405 304.92005 271.40702 310.80273 265.70703 C 332.08435 245.48126 346.79183 231.13969 354.92383 222.68164 C 363.22883 214.03971 370.32239 203.83413 376.20508 192.06641 C 382.26077 180.29869 385.28906 166.60166 385.28906 150.97266 C 385.28906 131.11462 380.01124 112.72665 369.45703 95.810547 C 359.07573 78.894445 344.28344 65.563503 325.07812 55.818359 C 305.8728 45.889339 283.72668 40.925781 258.63867 40.925781 z M 252.4082 376.0293 C 241.33487 376.0293 231.99178 379.98227 224.37891 387.88867 C 216.76595 395.79507 212.96094 405.54113 212.96094 417.125 C 212.96094 430.17983 216.8527 440.38345 224.63867 447.73828 C 232.59765 454.90925 241.85399 458.49609 252.4082 458.49609 C 262.61649 458.49609 271.61451 454.81772 279.40039 447.46289 C 287.18636 440.10806 291.08008 429.99597 291.08008 417.125 C 291.08008 405.54113 287.35988 395.79507 279.91992 387.88867 C 272.48006 379.98227 263.30852 376.0293 252.4082 376.0293 z "
   id="path841" /></svg>