<?xml version="1.0" encoding="UTF-8" standalone="no"?>
<!-- Generator: Adobe Illustrator 13.0.2, SVG Export Plug-In . SVG Version: 6.00 Build 14948)  -->

<svg
   xmlns:dc="http://purl.org/dc/elements/1.1/"
   xmlns:cc="http://creativecommons.org/ns#"
   xmlns:rdf="http://www.w3.org/1999/02/22-rdf-syntax-ns#"
   xmlns:svg="http://www.w3.org/2000/svg"
   xmlns="http://www.w3.org/2000/svg"
   xmlns:xlink="http://www.w3.org/1999/xlink"
   xmlns:sodipodi="http://sodipodi.sourceforge.net/DTD/sodipodi-0.dtd"
   xmlns:inkscape="http://www.inkscape.org/namespaces/inkscape"
   version="1.1"
   id="Layer_1"
   x="0px"
   y="0px"
   width="500"
   height="500"
   viewBox="-0.258 -0.548 500.00001 499.99999"
   xml:space="preserve"
   inkscape:version="0.92.4 (5da689c313, 2019-01-14)"
   sodipodi:docname="w_winterwandern_violett.svg"><metadata
   id="metadata21"><rdf:RDF><cc:Work
       rdf:about=""><dc:format>image/svg+xml</dc:format><dc:type
         rdf:resource="http://purl.org/dc/dcmitype/StillImage" /><dc:title /></cc:Work></rdf:RDF></metadata><defs
   id="defs19"><inkscape:perspective
   sodipodi:type="inkscape:persp3d"
   inkscape:vp_x="0 : 61.7695 : 1"
   inkscape:vp_y="0 : 999.99999 : 0"
   inkscape:vp_z="123.547 : 61.7695 : 1"
   inkscape:persp3d-origin="61.773499 : 41.179667 : 1"
   id="perspective23" />
	
	
	
	
	
	
<inkscape:perspective
   id="perspective3626"
   inkscape:persp3d-origin="27.5 : 18.333333 : 1"
   inkscape:vp_z="55 : 27.5 : 1"
   inkscape:vp_y="0 : 999.99999 : 0"
   inkscape:vp_x="0 : 27.5 : 1"
   sodipodi:type="inkscape:persp3d" /></defs><sodipodi:namedview
   pagecolor="#ffffff"
   bordercolor="#666666"
   borderopacity="1"
   objecttolerance="10"
   gridtolerance="10"
   guidetolerance="10"
   inkscape:pageopacity="0"
   inkscape:pageshadow="2"
   inkscape:window-width="2560"
   inkscape:window-height="1360"
   id="namedview17"
   showgrid="false"
   inkscape:zoom="1"
   inkscape:cx="-389"
   inkscape:cy="54.819799"
   inkscape:window-x="-11"
   inkscape:window-y="-11"
   inkscape:window-maximized="1"
   inkscape:current-layer="Layer_1"
   inkscape:showpageshadow="false" />
<path
   id="path9"
   d="m 213.41176,101.27371 c 18.50762,0 33.46951,-15.0552 33.46951,-33.595281 0,-18.507626 -14.96189,-33.469513 -33.46951,-33.469513 -18.50763,0 -33.56283,14.961887 -33.56283,33.469513 0,18.540081 15.0552,33.595281 33.56283,33.595281 z"
   style="fill:#990099;fill-opacity:1;stroke-width:4.05691051"
   inkscape:connector-curvature="0" /><path
   id="path15"
   d="m 151.93947,227.55888 c -7.0927,27.58273 -18.77299,84.90436 -22.12592,108.81559 -4.51059,32.16696 -9.21328,62.53845 -15.04059,95.22206 -2.29224,12.85643 -2.41413,29.09511 6.9445,29.09511 10.7143,0 14.68214,1.55712 16.81393,-3.62282 5.95972,-14.89933 17.69632,-68.1701 26.37445,-103.06285 10.16093,-40.85471 19.91281,-77.83885 19.91281,-77.83885 0,0 16.09683,31.80902 27.42388,75.83465 6.96408,27.06779 10.52459,74.21599 15.80231,99.19719 2.47066,10.30049 13.6524,4.86557 24.61823,4.86557 1.53129,-6.02536 -0.78937,-94.06462 -2.81863,-113.7238 l -33.54822,-131.81442 4.43826,-19.52186 3.48489,15.33918 c 3.16844,10.01651 29.82242,11.92241 29.82242,11.92241 10.41612,4.24154 45.31674,8.79275 48.60218,9.54611 8.90491,0 7.8172,-3.43555 7.8172,-12.34047 0,-7.63916 -18.16711,-11.30105 -25.29916,-12.98061 l -34.31714,-14.65912 -20.35484,-58.25217 c -3.37789,-27.56431 -7.46097,-20.39766 -26.8676,-23.17003 -35.63636,-4.39428 -31.39493,19.73233 -31.39493,19.73233 z"
   style="fill:#990099;fill-opacity:1;stroke-width:4.05691051"
   sodipodi:nodetypes="cssscscsccccccccscccccc"
   inkscape:connector-curvature="0" />
<rect
   style="fill:#990099;fill-opacity:1;stroke:none;stroke-width:4.05691051"
   id="rect3607"
   width="7.2588859"
   height="273.41803"
   x="353.83331"
   y="128.59111"
   transform="rotate(9.9405378)" /><rect
   style="fill:#990099;fill-opacity:1;stroke:none;stroke-width:4.05691051"
   id="rect3609"
   width="44.601578"
   height="100.20081"
   x="141.92842"
   y="70.552711"
   transform="rotate(13.342792)"
   ry="9.1647081" /><path
   style="color:#000000;font-style:normal;font-variant:normal;font-weight:normal;font-stretch:normal;font-size:medium;line-height:normal;font-family:sans-serif;font-variant-ligatures:normal;font-variant-position:normal;font-variant-caps:normal;font-variant-numeric:normal;font-variant-alternates:normal;font-feature-settings:normal;text-indent:0;text-align:start;text-decoration:none;text-decoration-line:none;text-decoration-style:solid;text-decoration-color:#000000;letter-spacing:normal;word-spacing:normal;text-transform:none;writing-mode:lr-tb;direction:ltr;text-orientation:mixed;dominant-baseline:auto;baseline-shift:baseline;text-anchor:start;white-space:normal;shape-padding:0;clip-rule:nonzero;display:inline;overflow:visible;visibility:visible;opacity:1;isolation:auto;mix-blend-mode:normal;color-interpolation:sRGB;color-interpolation-filters:linearRGB;solid-color:#000000;solid-opacity:1;vector-effect:none;fill:#990099;fill-opacity:1;fill-rule:nonzero;stroke:none;stroke-width:22.26626968;stroke-linecap:round;stroke-linejoin:miter;stroke-miterlimit:4;stroke-dasharray:none;stroke-dashoffset:0;stroke-opacity:1;color-rendering:auto;image-rendering:auto;shape-rendering:auto;text-rendering:auto;enable-background:accumulate"
   d="m 415.73438,31.179688 a 11.134248,11.134248 0 0 0 -10.96485,11.291015 v 81.642577 a 11.134248,11.134248 0 1 0 22.26563,0 V 42.470703 A 11.134248,11.134248 0 0 0 415.73438,31.179688 Z"
   id="ww70arm"
   inkscape:connector-curvature="0" /><use
   style="fill:#990099;fill-opacity:1"
   height="1"
   width="1"
   y="0"
   x="0"
   xlink:href="#ww70arm"
   transform="rotate(60,415.90248,83.29149)"
   id="use3616" /><use
   style="fill:#990099;fill-opacity:1"
   height="1"
   width="1"
   y="0"
   x="0"
   xlink:href="#ww70arm"
   transform="rotate(120,415.90248,83.291489)"
   id="use3618" /></svg>